<?xml version="1.0" standalone="no"?><!DOCTYPE svg PUBLIC "-//W3C//DTD SVG 1.1//EN" "http://www.w3.org/Graphics/SVG/1.1/DTD/svg11.dtd"><svg t="1582291854656" class="icon" viewBox="0 0 1024 1024" version="1.1" xmlns="http://www.w3.org/2000/svg" p-id="7424" xmlns:xlink="http://www.w3.org/1999/xlink" width="200" height="200"><defs><style type="text/css"></style></defs><path d="M840.192 607.17511112v155.34459258h155.34459259v77.6722963h-155.34459259v155.34459259h-77.6722963v-155.34459259h-155.34459258v-77.6722963h155.34459258v-155.34459258h77.6722963zM490.66666667 24.63288889a310.68918518 310.68918518 0 0 1 195.50116978 552.17235437c-27.1853037 22.91332741-46.0596717 34.71951645-83.9637523 48.54518519A309.05806697 309.05806697 0 0 1 490.66666667 646.01125926a309.91246222 309.91246222 0 0 1-111.53741748-20.58315851 349.60300563 349.60300563 0 0 0-237.83257127 320.98076444L141.14133334 956.70044445H63.46903704a427.19762963 427.19762963 0 0 1 231.69645985-379.93403733A310.68918518 310.68918518 0 0 1 490.66666667 24.63288889z m0 77.6722963a233.01688889 233.01688889 0 1 0 0 466.03377778 233.01688889 233.01688889 0 0 0 0-466.03377778z" fill="#000000" p-id="7425"></path></svg>