<?xml version="1.0" standalone="no"?><!DOCTYPE svg PUBLIC "-//W3C//DTD SVG 1.1//EN" "http://www.w3.org/Graphics/SVG/1.1/DTD/svg11.dtd"><svg t="1581829155040" class="icon" viewBox="0 0 1024 1024" version="1.1" xmlns="http://www.w3.org/2000/svg" p-id="7283" xmlns:xlink="http://www.w3.org/1999/xlink" width="200" height="200"><defs><style type="text/css"></style></defs><path d="M774.37203052 736.66587044v-122.54502024h94.26540019v122.54502024h122.54502022v94.26540019h-122.54502022v122.54502023h-94.26540019v-122.54502023h-122.54502025v-94.26540019h122.54502025z m-316.94227068-115.22374083C273.10005413 635.78146809 127.08294926 797.25338533 127.08294926 995.22643662h-94.26540019c0-192.0940325 111.22060351-357.61464867 270.77107766-430.06546418C230.84715957 511.12961614 183.64218935 423.62775842 183.64218935 325.04028964c0-163.76099539 130.24336126-296.93601058 291.43719557-296.93601059S766.5165805 161.27929424 766.5165805 325.04028964c0 95.58354469-44.37072387 180.74604942-113.36828355 235.0900526a443.63811073 443.63811073 0 0 1 69.57257863 36.81378096l-51.27252226 79.10281057c-51.1704014-33.16885216-109.41542109-52.25445349-170.41613264-55.23009797a290.79304868 290.79304868 0 0 1-43.60246084 0.62529381z m0.25765875-94.51049022a441.74651835 441.74651835 0 0 1 40.29531642-0.57501895C595.9056327 514.69913262 672.25118032 429.20827011 672.25118032 325.04028964c0-112.1632575-88.51521077-202.6706104-197.1717954-202.67061042S277.90758954 212.87703213 277.90758954 325.04028964c0 106.114561 79.22535558 192.84658462 179.77982905 201.89134975z" p-id="7284"></path></svg>