<?xml version="1.0" standalone="no"?><!DOCTYPE svg PUBLIC "-//W3C//DTD SVG 1.1//EN" "http://www.w3.org/Graphics/SVG/1.1/DTD/svg11.dtd"><svg t="1569813436001" class="icon" viewBox="0 0 1024 1024" version="1.1" xmlns="http://www.w3.org/2000/svg" p-id="12667" xmlns:xlink="http://www.w3.org/1999/xlink" width="200" height="200"><defs><style type="text/css"></style></defs><path d="M861.99866667 492.64933333M879.908 450.66666667c0-203.228-164.772-368-368-368-203.228 0-368 164.772-368 368 0 100.31066667 40.26533333 191.14533333 105.34 257.53866666L249.09466667 708.20533333l1.50266666 1.50266667c0.736 0.736 1.472 1.50266667 2.23866667 2.23866667l208.07333333 208.07333333c28.152 28.152 73.784 28.152 101.936 0l208.07333334-208.07333333c0.736-0.736 1.50266667-1.472 2.23866666-2.23866667l1.50266667-1.50266667-0.15333333 0C839.64266667 641.812 879.908 550.97733333 879.908 450.66666667zM562.876 833.38666667c-50.90666667 50.90666667-50.93733333 51.02933333-101.936 0L295.18666667 666.744C239.83333333 611.32933333 205.24133333 535.21466667 205.24133333 450.66666667c0-169.372 137.29466667-306.66666667 306.66666667-306.66666667 169.372 0 306.66666667 137.29466667 306.66666667 306.66666667 0 84.548-34.592 160.66266667-89.94533334 216.07733333L562.876 833.38666667zM512 266.66666667c-101.62933333 0-184 82.37066667-184 184s82.37066667 184 184 184 184-82.37066667 184-184S613.62933333 266.66666667 512 266.66666667zM512 573.33333333c-67.74266667 0-122.66666667-54.924-122.66666667-122.66666666s54.924-122.66666667 122.66666667-122.66666667 122.66666667 54.924 122.66666667 122.66666667S579.74266667 573.33333333 512 573.33333333z" p-id="12668"></path></svg>