<?xml version="1.0" standalone="no"?><!DOCTYPE svg PUBLIC "-//W3C//DTD SVG 1.1//EN" "http://www.w3.org/Graphics/SVG/1.1/DTD/svg11.dtd"><svg t="1569813623096" class="icon" viewBox="0 0 1024 1024" version="1.1" xmlns="http://www.w3.org/2000/svg" p-id="15047" xmlns:xlink="http://www.w3.org/1999/xlink" width="200" height="200"><defs><style type="text/css"></style></defs><path d="M221.22123989 372.80265454c-34.19083532 0-62.00751874 27.61384898-62.00751876 61.55610544l0 204.81875427c0 34.19083532 27.81668259 62.00838162 62.00751876 62.00838161 16.59437579 0 32.1089865-6.46478038 43.68689926-18.2040975 11.50023229-11.66077294 17.8346815-27.21681292 17.83468151-43.80428411l0-204.81875427C282.74282066 400.41650351 255.14450828 372.80265454 221.22123989 372.80265454zM256.84917281 639.17837711c0 20.25142168-15.64925788 36.11473377-35.62793292 36.11473377-19.91307803 0-36.11387089-16.20165573-36.11387091-36.11473377l0-204.81875428c0-19.66449917 16.20079202-35.66245842 36.11387091-35.66245842 19.64551027 0 35.62793293 15.99795841 35.62793292 35.66245842L256.84917281 639.17837711zM653.84281358 176.05149776l27.63456443-50.98459243c2.50305264-4.46147573 3.23239061-9.63157397 2.05422961-14.5807134-1.25152632-5.25727358-4.64359388-9.80419809-9.30445094-12.47469599l-0.65597266-0.37632144-0.69653903-0.29691354c-9.6557409-4.12399496-20.77706317-0.53340896-25.86775436 8.35415416L618.14496763 158.58968455c-28.43985632-10.9978957-58.63357638-16.56416629-89.93381788-16.56416629-31.30024149 0-61.49482443 5.56627144-89.93381786 16.56416629l-28.73072813-52.66422716-0.13119487-0.23476883c-5.0906912-8.88583654-16.21114975-12.47555968-25.86775437-8.3524276l-0.69481246 0.29691355-0.65597266 0.37545773c-9.39076257 5.37983729-12.61970088 17.48166497-7.25194789 27.05368282l27.61902783 50.9561095c-30.42331004 17.76304277-56.08305193 41.9131846-74.70835241 70.43331165-21.67988811 33.19651987-33.13869032 71.40432305-33.1386903 110.49164797l0 12.94682392 466.50427486 0 0-12.94682392c0-39.05107369-11.43031929-77.25283514-33.05496727-110.47524851C709.61514106 217.96986122 684.09090922 193.82662398 653.84281358 176.05149776zM321.09735531 343.99769739c4.75752643-63.0475803 44.02955891-120.19399782 104.88308358-151.28104796l9.81887098-5.01646302 1.93770764-0.85966914c28.29139996-12.55496673 58.73110862-18.92048831 90.4741314-18.9204883 31.7430228 0 62.1827323 6.36552157 90.47326856 18.9204883l2.4236456 1.07544991 9.30272436 4.78514649c60.58682061 31.16127918 99.68795471 88.31201185 104.42908167 151.29744743L321.09735531 343.99856025zM296.62613218 712.05777556c0 17.5136002 6.77981996 33.93880417 19.09138669 46.24950721 12.31070303 12.31156674 28.735907 19.0913867 46.24950719 19.09138669l22.35312309 0 0.42810842 95.17469198c0 34.19083532 27.59831322 62.00751874 61.52158078 62.00751875 34.19083532 0 62.00751874-27.81668259 62.00751875-62.00751875L508.27735627 777.39866946l39.86844985 0 0 95.17469198c0 34.19083532 27.81668259 62.00751874 62.00751876 62.00751875s62.00751874-27.81668259 62.00751874-62.00751875L672.16084278 777.39866946l22.78209437 0c35.76085352 0 64.85495676-29.3116089 64.85495677-65.3408939L759.79789392 381.86456834 296.62613218 381.86456834 296.62613218 712.05777556zM322.51978002 407.75821619l411.38360318 0L733.9033832 712.05777556c0 21.75152769-17.47821267 39.44724604-38.96130892 39.44724605l-48.67574221 0 0 121.06833983c0 19.91307803-16.20079202 36.11387089-36.11387091 36.1138709s-36.11387089-16.20079202-36.11387089-36.1138709L574.0385911 751.5050216 482.38370841 751.5050216l0 121.06833984c0 19.91307803-16.20079202 36.11387089-36.11387091 36.1138709-19.64551027 0-35.62793293-16.20079202-35.62793292-36.17169961l-0.54376669-121.00964742-48.13111266 0c-21.75152769 0-39.44724604-17.69571919-39.44724605-39.44724604L322.51978002 407.75821619zM427.69373541 240.24702957c-10.00012711 0-18.08930211 8.57597583-18.0893021 18.57610293 0 9.9992634 8.0900387 18.57610294 18.0893021 18.57610294 10.48606424 0 18.57610294-8.57597583 18.57610294-18.57610294C446.26983835 248.8230054 438.17979965 240.24702957 427.69373541 240.24702957zM628.7285641 240.24702957c-10.48606424 0-18.57610294 8.57597583-18.57610294 18.57610293 0 9.9992634 8.0900387 18.57610294 18.57610294 18.57610294 9.9992634 0 18.08930211-8.57597583 18.0893021-18.57610294C646.81786706 248.8230054 638.72782835 240.24702957 628.7285641 240.24702957zM879.87278032 390.65891353c-11.66336238-11.51490519-27.22112892-17.85625984-43.80859927-17.85625984-33.92326841 0-61.52071791 27.61384898-61.52071791 61.55610544l0 204.81875428c0 34.19083532 27.59831322 62.00838162 61.52071791 62.0083816 34.19083532 0 62.00838162-27.81754545 62.00838163-62.0083816l0-204.81875428C898.07256268 417.76524789 891.60864516 402.24545831 879.87278032 390.65891353zM872.17891482 639.17837711c0 19.91307803-16.20165573 36.11473377-36.11473377 36.11473377-19.64551027 0-35.62707006-16.20165573-35.62707006-36.11473377l0-204.81875428c0-19.66449917 15.98242266-35.66245842 35.62707006-35.66245842 20.25142168 0 36.11473377 15.66479364 36.11473377 35.66245842L872.17891482 639.17837711z" p-id="15048"></path></svg>