<?xml version="1.0" standalone="no"?><!DOCTYPE svg PUBLIC "-//W3C//DTD SVG 1.1//EN" "http://www.w3.org/Graphics/SVG/1.1/DTD/svg11.dtd"><svg t="1569813519957" class="icon" viewBox="0 0 1024 1024" version="1.1" xmlns="http://www.w3.org/2000/svg" p-id="13720" xmlns:xlink="http://www.w3.org/1999/xlink" width="200" height="200"><defs><style type="text/css"></style></defs><path d="M875.6875 612.22070313v-336.82421876c0-39.88164063-30.99609375-71.29101563-70.67109375-71.29101562H704.17578125V156.78476562c0-13.43164063-7.23242188-24.38359375-20.6640625-24.38359374s-22.73046875 10.95195312-22.73046875 24.38359375V204.10546875H342.5546875V156.78476562c0-13.43164063-7.23242188-24.38359375-20.6640625-24.38359374s-20.6640625 10.95195312-20.6640625 24.38359375V204.10546875H158.43789063C120.00273437 204.10546875 98.71875 234.275 98.71875 275.39648437v518.87460938C98.71875 834.77265625 126.20195312 865.35546875 164.63710938 865.35546875h436.63164062c34.30234375 37.1953125 83.27617188 59.71914063 137.82929688 59.71914063 102.70039063 0 185.76992188-84.51601562 185.76992187-187.83632813 0-47.73398438-22.3171875-91.95507813-49.18046875-125.01757813zM135.9140625 273.95C135.9140625 251.6328125 141.08007812 241.30078125 163.60390625 241.30078125H301.2265625v60.3390625c0 13.43164063 7.23242188 24.38359375 20.6640625 24.38359375s20.6640625-10.95195312 20.6640625-24.38359375V241.30078125h318.2265625v60.3390625c0 13.43164063 9.29882813 24.38359375 22.73046875 24.38359375s20.6640625-10.95195312 20.6640625-24.38359375V241.30078125h99.60078125c26.03671875 0 34.715625 9.91875 34.715625 32.64921875V373.55078125H135.9140625V273.95zM156.37148438 828.16015625c-4.1328125 0-20.45742188-9.71210938-20.45742188-29.75625V410.74609375h702.578125v168.41210938c-24.796875-15.08476563-59.5125-27.68984375-99.1875-27.68984376-105.8 0-187.21640625 84.51601562-187.21640625 192.17578126 0 27.68984375 8.265625 57.65273438 19.0109375 84.51601562H156.37148438z m582.7265625 61.37226563c-84.309375 0-152.9140625-68.6046875-152.9140625-152.91406251s68.6046875-152.9140625 152.9140625-152.91406249 152.9140625 68.6046875 152.9140625 152.91406249-68.6046875 152.9140625-152.9140625 152.91406251z" p-id="13721"></path><path d="M745.50390625 737.23828125v-53.93320313c0-13.43164063-5.16601563-24.38359375-18.59765625-24.38359375-14.25820313 0-18.59765625 10.95195312-18.59765625 24.38359375v73.15078125c0 13.43164063 5.37265625 17.97773438 18.80429687 17.97773438h72.94414063c14.67148438 0 24.38359375-5.16601563 24.38359375-18.59765625 0-11.77851563-10.95195312-18.59765625-24.38359375-18.59765625H745.50390625zM488.23632812 493.40234375H244.81367187c-13.43164063 0-24.38359375 9.29882813-24.38359375 22.73046875s10.95195312 22.73046875 24.38359375 22.73046875h243.42265625c13.43164063 0 24.38359375-9.29882813 24.38359375-22.73046875s-10.95195312-22.73046875-24.38359375-22.73046875zM415.2921875 613.25390625H244.81367187c-13.43164063 0-24.38359375 9.29882813-24.38359375 22.73046875s10.95195312 22.73046875 24.38359375 22.73046875h170.47851563c13.43164063 0 24.38359375-9.29882813 24.38359375-22.73046875s-10.95195312-22.73046875-24.38359375-22.73046875z" p-id="13722"></path></svg>