<?xml version="1.0" standalone="no"?><!DOCTYPE svg PUBLIC "-//W3C//DTD SVG 1.1//EN" "http://www.w3.org/Graphics/SVG/1.1/DTD/svg11.dtd"><svg t="1569818148145" class="icon" viewBox="0 0 1024 1024" version="1.1" xmlns="http://www.w3.org/2000/svg" p-id="25881" xmlns:xlink="http://www.w3.org/1999/xlink" width="200" height="200"><defs><style type="text/css"></style></defs><path d="M867.68118786 459.62923409L763.17528858 546.00094887l-94.68530171-78.28253894c-6.94467662 13.08837569-15.61559609 25.12633293-25.53027359 36.02496899 62.11972388 43.92425753 103.07052825 118.25801591 103.07052825 202.34591113 0 5.18563484-0.57656561 10.23230651-1.24634747 15.27552588 6.41817226 0.61972142 12.64386865 0.99863145 18.39053166 0.99863146 64.65643831 0 178.07061617-37.59153489 178.07061616-110.78424636 0.00086286-62.57890466-29.02419022-117.78070996-73.56385402-151.94996694z m-181.08895173-46.73026629c21.16805749 16.36910099 47.70386713 26.21990804 76.58305245 26.21990803 69.11100945 0 125.09825403-55.67911127 125.09825487-124.30073046 0-68.66995387-55.98810827-124.30073045-125.09825487-124.3007296-53.78542232 0-99.52396175 33.83609306-117.1972389 81.18435421 26.67822509 30.74266477 42.91354262 70.66808049 42.91354261 114.30664508-0.00086286 9.18620323-0.90886668 18.08412323-2.29935616 26.89055274zM381.31562278 503.74424178c-9.96128646-10.89863605-18.58300752-22.9365933-25.52682128-36.02496898l-94.73708955 78.28253894-104.50330984-86.37257765C112.05621013 493.79849192 82.98282236 549.00029638 82.98282236 611.57920103c0 73.19271146 113.41245129 110.7842455 178.06888959 110.78424636 5.74838958 0 11.97408597-0.37977374 18.39225822-0.99863145-0.62317373-5.04321937-1.24634746-10.08989104-1.24634745-15.27552588 0.00086286-84.08703151 40.95166723-158.42078989 103.11800005-202.34504828zM261.05171195 439.11887583c28.88263763 0 55.4149958-9.85080705 76.63052512-26.21990803-1.38876291-8.80556663-2.29676674-17.70435035-2.29676674-26.88968988 0-43.63942745 16.23531752-83.5639803 42.86348137-114.30664507-17.67327799-47.34826116-63.41009086-81.18435422-117.19723975-81.18435421-69.06267393 0-125.0965283 55.63077573-125.0965283 124.30073044 0 68.62075633 56.03385353 124.29986675 125.0965283 124.29986675zM622.84380163 540.62370102L512.1139317 632.13703112 401.42980785 540.62370102c-49.18498425 36.74049692-81.36992551 97.08132727-81.36992465 165.46645189 0 78.99634115 122.32331846 119.54061459 192.05491221 119.54061459 69.78165501 0 192.10324689-40.54427343 192.10324688-119.54061459 0-68.38512379-32.23500251-128.72595413-81.37424066-165.46645189z m-110.72900622-20.55696638c74.52278111 0 134.96546053-60.00766556 134.96546052-134.05745672 0-73.9997299-60.44267856-134.00912203-134.96546052-134.00912203-74.47531015 0-134.91712585 60.00939213-134.91712586 134.00912203 0 74.04892745 60.44181571 134.05745672 134.91712586 134.05745672z" fill="#252434" p-id="25882"></path></svg>