<?xml version="1.0" standalone="no"?><!DOCTYPE svg PUBLIC "-//W3C//DTD SVG 1.1//EN" "http://www.w3.org/Graphics/SVG/1.1/DTD/svg11.dtd"><svg t="1569814230213" class="icon" viewBox="0 0 1024 1024" version="1.1" xmlns="http://www.w3.org/2000/svg" p-id="15927" xmlns:xlink="http://www.w3.org/1999/xlink" width="200" height="200"><defs><style type="text/css"></style></defs><path d="M512.02089844 882.2007312a31.34814815 31.34814815 0 0 1-31.34814814-31.34814816V172.24877036a31.34814815 31.34814815 0 1 1 62.69629628 0v678.60381268a31.34814815 31.34814815 0 0 1-31.34814814 31.34814816zM318.83271111 727.6961577a31.34814815 31.34814815 0 0 1-31.34814814-31.34814815v-388.2990614a31.34814815 31.34814815 0 1 1 62.69629629 0v388.2990614a31.34814815 31.34814815 0 0 1-31.34814815 31.34814815zM715.7838614 727.6961577a31.34814815 31.34814815 0 0 1-31.34814815-31.34814815v-388.2990614a31.34814815 31.34814815 0 1 1 62.6962963 0v388.2990614a31.34814815 31.34814815 0 0 1-31.34814815 31.34814815zM125.66542223 606.69230585a31.34814815 31.34814815 0 0 1-31.34814815-31.34814815V469.99348148a31.34814815 31.34814815 0 1 1 62.69629628 0v105.35067622a31.34814815 31.34814815 0 0 1-31.34814813 31.34814815zM902.89050897 606.69230585a31.34814815 31.34814815 0 0 1-31.34814816-31.34814815V469.99348148a31.34814815 31.34814815 0 1 1 62.69629631 0v105.35067622a31.34814815 31.34814815 0 0 1-31.34814815 31.34814815z" p-id="15928"></path></svg>