<?xml version="1.0" standalone="no"?><!DOCTYPE svg PUBLIC "-//W3C//DTD SVG 1.1//EN" "http://www.w3.org/Graphics/SVG/1.1/DTD/svg11.dtd"><svg t="1569816936796" class="icon" viewBox="0 0 1024 1024" version="1.1" xmlns="http://www.w3.org/2000/svg" p-id="21895" xmlns:xlink="http://www.w3.org/1999/xlink" width="200" height="200"><defs><style type="text/css"></style></defs><path d="M918.57565217 484.69113043L543.97008696 104.15965217a34.248 34.248 0 0 0-15.14817392-8.9853913c-0.02713043-0.02817391-0.05217391-0.0573913-0.08034782-0.08556522a34.28347826 34.28347826 0 0 0-49.00069565 0L104.0626087 476.48730435c-13.53182609 13.73843478-13.53182609 36.01252174 0 49.74469565a34.27617391 34.27617391 0 0 0 49.00069565 0l354.44869565-359.83826087L869.71478261 534.32521739a34.16347826 34.16347826 0 0 0 48.86086956 0c13.49321739-13.70191304 13.49321739-35.92904348 0-49.63408696z" p-id="21896"></path><path d="M512.63234783 591.4786087c25.4493913 0 46.07791304 21.20765217 46.07791304 47.36660869s-20.62852174 47.3666087-46.07791304 47.3666087c-25.44730435 0-46.07582609-21.20765217-46.07582609-47.3666087s20.62852174-47.3666087 46.07582609-47.36660869z" p-id="21897"></path><path d="M512.63234783 826.70052174c25.4493913 0 46.07791304 20.91756522 46.07791304 46.72173913 0 25.80208696-20.62852174 46.72382609-46.07791304 46.72382609-25.44730435 0-46.07582609-20.92069565-46.07582609-46.72382609 0-25.80417391 20.62852174-46.72173913 46.07582609-46.72173913z" p-id="21898"></path></svg>