<?xml version="1.0" standalone="no"?><!DOCTYPE svg PUBLIC "-//W3C//DTD SVG 1.1//EN" "http://www.w3.org/Graphics/SVG/1.1/DTD/svg11.dtd"><svg t="1569816862486" class="icon" viewBox="0 0 1025 1024" version="1.1" xmlns="http://www.w3.org/2000/svg" p-id="20738" xmlns:xlink="http://www.w3.org/1999/xlink" width="200.1953125" height="200"><defs><style type="text/css"></style></defs><path d="M755.2 332.8 99.84 332.8c-53.76 0-97.28 43.52-97.28 97.28l0 358.4c0 53.76 43.52 97.28 97.28 97.28l655.36 0c53.76 0 97.28-43.52 97.28-97.28l0-358.4C855.04 378.88 808.96 332.8 755.2 332.8zM803.84 788.48c0 25.6-20.48 46.08-46.08 46.08L99.84 834.56c-25.6 0-46.08-20.48-46.08-46.08l0-156.16 750.08 0L803.84 788.48zM803.84 581.12 53.76 581.12l0-74.24 750.08 0L803.84 581.12zM803.84 455.68 53.76 455.68l0-23.04c0-25.6 20.48-46.08 46.08-46.08l655.36 0c25.6 0 46.08 20.48 46.08 46.08L801.28 455.68z" p-id="20739"></path><path d="M957.44 163.84l-716.8 0C204.8 163.84 174.08 194.56 174.08 232.96l0 40.96 0 0c0 12.8 12.8 25.6 25.6 25.6s25.6-10.24 25.6-25.6l0 0L225.28 232.96c0-10.24 7.68-15.36 15.36-15.36l716.8 0c10.24 0 15.36 7.68 15.36 15.36l0 417.28c0 10.24-7.68 15.36-15.36 15.36l-12.8 0 0 0c-12.8 0-25.6 12.8-25.6 25.6 0 12.8 10.24 25.6 25.6 25.6l0 0 12.8 0c38.4 0 66.56-30.72 66.56-66.56L1024 232.96C1026.56 194.56 995.84 163.84 957.44 163.84z" p-id="20740"></path></svg>