<?xml version="1.0" standalone="no"?><!DOCTYPE svg PUBLIC "-//W3C//DTD SVG 1.1//EN" "http://www.w3.org/Graphics/SVG/1.1/DTD/svg11.dtd"><svg t="1571452443431" class="icon" viewBox="0 0 1024 1024" version="1.1" xmlns="http://www.w3.org/2000/svg" p-id="1931" xmlns:xlink="http://www.w3.org/1999/xlink" width="200" height="200"><defs><style type="text/css"></style></defs><path d="M511.74912 971.71456l-131.72224-74.35776-135.26528 70.1952h-7.5776c-64.03584 0-116.13184-52.096-116.13184-116.13184V168.80128c0-64.03584 52.096-116.13184 116.13184-116.13184h549.62176c64.03584 0 116.13184 52.096 116.13184 116.13184v682.61888c0 64.03584-52.096 116.13184-116.13184 116.13184h-8.40192l-120.15104-70.14912-146.50368 74.31168zM237.18912 114.75968c-29.7984 0-54.03648 24.2432-54.03648 54.03648v682.61888c0 27.50464 20.65408 50.2784 47.27296 53.61664l150.84544-78.27968 132.0448 74.54208 147.03104-74.58304 133.96992 78.22336c26.25536-3.66592 46.52544-26.2656 46.52544-53.51936V168.79616c0-29.7984-24.2432-54.03648-54.03648-54.03648H237.18912z" fill="" p-id="1932"></path><path d="M710.9888 282.13248H321.63328a31.04768 31.04768 0 0 1 0-62.09536h389.35552a31.04768 31.04768 0 0 1 0 62.09536zM710.9888 505.71776H321.63328a31.04768 31.04768 0 0 1 0-62.09536h389.35552a31.04768 31.04768 0 0 1 0 62.09536zM710.9888 729.30304H321.63328a31.04768 31.04768 0 0 1 0-62.09536h389.35552a31.04768 31.04768 0 0 1 0 62.09536z" fill="" p-id="1933"></path></svg>