<?xml version="1.0" standalone="no"?><!DOCTYPE svg PUBLIC "-//W3C//DTD SVG 1.1//EN" "http://www.w3.org/Graphics/SVG/1.1/DTD/svg11.dtd"><svg t="1569818381133" class="icon" viewBox="0 0 1024 1024" version="1.1" xmlns="http://www.w3.org/2000/svg" p-id="29090" xmlns:xlink="http://www.w3.org/1999/xlink" width="200" height="200"><defs><style type="text/css"></style></defs><path d="M794.40885444 563.66015625c-24.10807318-34.44010444-61.9921875-55.10416694-110.20833306-65.43619818 37.88411431-13.77604194 68.88020807-37.88411431 86.10026068-68.88020807 17.22005182-27.55208307 27.55208307-65.43619818 27.55208307-103.3203125 0-72.32421875-27.55208307-130.87239557-86.1002607-168.75651068-58.54817681-37.88411431-137.76041693-58.54817681-241.08072943-58.54817682L198.59505181 98.71875l1e-8 826.5625L512 925.28125c103.3203125 0 179.08854193-24.10807318 234.19270807-65.43619818 55.10416694-41.328125 82.65625-103.3203125 82.65624999-182.53255182C828.84895807 635.984375 818.51692682 598.10026068 794.40885444 563.66015625zM388.015625 246.81119818l79.21223932 0c44.77213569 0 75.76822943 10.33203125 99.8763018 24.1080732 24.10807318 13.77604194 34.44010444 41.328125 34.44010445 75.76822942 0 30.99609375-10.33203125 55.10416694-34.44010445 72.32421875-24.10807318 17.22005182-58.54817681 24.10807318-103.3203125 24.10807319L388.015625 443.11979193 388.015625 246.81119818zM604.98828125 753.08072943c-20.6640625 17.22005182-51.66015625 24.10807318-92.98828125 24.1080732L388.015625 777.18880182l0-206.640625L512 570.54817681l6.88802057 0c41.328125 0 72.32421875 10.33203125 89.54427055 27.55208306s27.55208307 44.77213569 27.55208308 79.21223932S625.65234375 735.86067682 604.98828125 753.08072943z" p-id="29091"></path></svg>