<?xml version="1.0" standalone="no"?><!DOCTYPE svg PUBLIC "-//W3C//DTD SVG 1.1//EN" "http://www.w3.org/Graphics/SVG/1.1/DTD/svg11.dtd"><svg t="1582115856522" class="icon" viewBox="0 0 1024 1024" version="1.1" xmlns="http://www.w3.org/2000/svg" p-id="8068" xmlns:xlink="http://www.w3.org/1999/xlink" width="200" height="200"><defs><style type="text/css"></style></defs><path d="M512 317.81925888c-105.2459611 0-194.18074112 88.93477888-194.18074112 194.18074112s88.93477888 194.18074112 194.18074112 194.18074112 194.18074112-88.93477888 194.18074112-194.18074112-88.93477888-194.18074112-194.18074112-194.18074112z m0 291.27111111c-51.70062222 0-97.09036999-45.38974777-97.09036999-97.09036999s45.38974777-97.09036999 97.09036999-97.09036999 97.09036999 45.38974777 97.09036999 97.09036999-45.38974777 97.09036999-97.09036999 97.09036999z" fill="" p-id="8069"></path><path d="M75.09333333 900.3614811h873.81333334a48.54518557 48.54518557 0 0 0 48.54518556-48.54518443V220.72888889a48.54518557 48.54518557 0 0 0-48.54518556-48.54518556h-174.08303446l-131.41181554-131.41181554A48.35100445 48.35100445 0 0 0 609.09036999 26.54814777h-194.18073998a48.35100445 48.35100445 0 0 0-34.32144668 14.22374002L249.17636779 172.18370333H75.09333333a48.54518557 48.54518557 0 0 0-48.54518556 48.54518556v631.08740778a48.54518557 48.54518557 0 0 0 48.54518556 48.54518443zM123.6385189 269.27407445h145.63555555c12.91301888 0 25.24349667-5.09724445 34.32144555-14.22374002L435.00733667 123.6385189h153.98532666l131.41181667 131.41181553A48.35100445 48.35100445 0 0 0 754.72592555 269.27407445h145.63555555v533.99703666H123.6385189V269.27407445z" fill="" p-id="8070"></path></svg>