<?xml version="1.0" standalone="no"?><!DOCTYPE svg PUBLIC "-//W3C//DTD SVG 1.1//EN" "http://www.w3.org/Graphics/SVG/1.1/DTD/svg11.dtd"><svg t="1568895525500" class="icon" viewBox="0 0 1024 1024" version="1.1" xmlns="http://www.w3.org/2000/svg" p-id="2786" xmlns:xlink="http://www.w3.org/1999/xlink" width="200" height="200"><defs><style type="text/css"></style></defs><path d="M415.3344 113.8688H163.84c-39.3216 0-71.68 32.3584-71.68 71.68v251.4944c0 39.3216 32.3584 71.68 71.68 71.68h251.4944c39.3216 0 71.68-32.3584 71.68-71.68V185.5488c0-39.3216-31.9488-71.68-71.68-71.68z m10.24 323.584c0 5.7344-4.5056 10.24-10.24 10.24H163.84c-5.7344 0-10.24-4.5056-10.24-10.24V185.5488c0-5.7344 4.5056-10.24 10.24-10.24h251.4944c5.7344 0 10.24 4.5056 10.24 10.24v251.904zM860.16 113.8688h-251.4944c-39.3216 0-71.68 32.3584-71.68 71.68v251.4944c0 39.3216 32.3584 71.68 71.68 71.68H860.16c39.3216 0 71.68-32.3584 71.68-71.68V185.5488c0-39.3216-32.3584-71.68-71.68-71.68z m10.24 323.584c0 5.7344-4.5056 10.24-10.24 10.24h-251.4944c-5.7344 0-10.24-4.5056-10.24-10.24V185.5488c0-5.7344 4.5056-10.24 10.24-10.24H860.16c5.7344 0 10.24 4.5056 10.24 10.24v251.904zM415.3344 558.6944H163.84c-39.3216 0-71.68 32.3584-71.68 71.68v251.4944c0 39.3216 32.3584 71.68 71.68 71.68h251.4944c39.3216 0 71.68-32.3584 71.68-71.68v-251.4944c0-39.3216-31.9488-71.68-71.68-71.68z m10.24 323.1744c0 5.7344-4.5056 10.24-10.24 10.24H163.84c-5.7344 0-10.24-4.5056-10.24-10.24v-251.4944c0-5.7344 4.5056-10.24 10.24-10.24h251.4944c5.7344 0 10.24 4.5056 10.24 10.24v251.4944zM860.16 558.6944h-251.4944c-39.3216 0-71.68 32.3584-71.68 71.68v251.4944c0 39.3216 32.3584 71.68 71.68 71.68H860.16c39.3216 0 71.68-32.3584 71.68-71.68v-251.4944c0-39.3216-32.3584-71.68-71.68-71.68z m10.24 323.1744c0 5.7344-4.5056 10.24-10.24 10.24h-251.4944c-5.7344 0-10.24-4.5056-10.24-10.24v-251.4944c0-5.7344 4.5056-10.24 10.24-10.24H860.16c5.7344 0 10.24 4.5056 10.24 10.24v251.4944z" fill="#231815" p-id="2787"></path></svg>