<?xml version="1.0" standalone="no"?><!DOCTYPE svg PUBLIC "-//W3C//DTD SVG 1.1//EN" "http://www.w3.org/Graphics/SVG/1.1/DTD/svg11.dtd"><svg t="1569816730442" class="icon" viewBox="0 0 1024 1024" version="1.1" xmlns="http://www.w3.org/2000/svg" p-id="19312" xmlns:xlink="http://www.w3.org/1999/xlink" width="200" height="200"><defs><style type="text/css"></style></defs><path d="M888.85744466 795.51300218L807.85607313 654.41161089c13.06075562-5.22533837 23.51229521-15.68378253 31.35375504-26.13445842l0 0 0 0c7.8423227-13.06075562 10.45067588-28.74108586 7.8423227-44.42486839l-10.45844418-49.64675448 0 0 33.96987652-36.58168283 2.61698435-2.60749032c10.45067588-13.06766105 15.67601424-28.74540187 15.67601424-44.42227895 0-15.68464541-5.22533837-31.35979677-15.67601424-41.81219923l-36.58772456-39.19607774 10.45844417-49.64761733c2.60835318-15.67687711 0-31.35375504-7.8423227-44.42141611-7.84145984-13.05816618-20.90221546-23.51143234-36.57995627-28.73677071l-49.64761733-15.68464538-15.68291967-49.64934306c-5.22620123-15.67515137-15.67687711-28.73504413-28.73763357-36.57736683l0 0c-13.06938679-7.8345544-28.7436753-10.45067588-44.42141611-7.8345544l-52.26373879 7.8345544 0 0-36.57995627-33.96987652-2.61612148-2.60921689C559.61971307 97.83714525 546.55291487 92.61008117 530.87603777 92.61008117c-15.67860368 0-31.35375504 5.22792779-44.42227897 15.67946653l-36.5790934 36.57909341-2.61871091 0-52.25510764-10.45067588c-15.67860368-2.60921688-31.36238621 0-44.42314183 7.84232271-13.0667982 7.8345544-23.51833694 20.90221546-28.74453815 36.57909339l-15.67774082 49.64934306 0 0-49.64761732 15.67515136c-15.67687711 5.22361178-28.74453816 15.67687711-36.58686086 28.7471276-7.83541811 13.06593449-10.45153959 28.74281243-7.83541811 44.4179638l13.0702505 49.64934306-33.9707394 36.57909341 0 2.61698434c-10.45153959 13.0624822-15.67774081 26.12841668-15.67774079 41.80529463 0 15.67515137 5.22620123 31.35375504 15.67774079 44.42141609l0 0 33.9707394 36.57995627 0 0-7.84318557 49.64675446 0 0c-2.61698433 15.67860368 0 31.36411277 7.84318557 44.42486841 7.83282867 13.06766105 18.28436826 20.90221546 31.35202847 28.74367529l-81.00050866 141.09966558c-5.23310581 10.46017075-2.61698433 20.91171033 7.83455439 26.13704785 0 5.22188607 2.61612148 5.22188607 7.84318556 5.22188605l0 0 109.74418481 0 54.87381856 96.68256548c5.22706409 10.45067588 18.28609399 13.06766105 26.12928039 7.84145983l7.84232269-7.84145983 83.61145212-146.32672967 15.68378254 13.06075563c13.05902989 10.45067588 28.73849644 15.68550911 41.80615749 15.68550912 15.67687711 0 31.35375504-5.23396953 44.42227897-15.68550912l15.67601423-13.06075563 83.61835671 146.32672967 7.83282867 7.84145983c10.46103361 5.22620123 20.91257319 2.60921688 26.13704785-7.84145983l54.87122912-96.68256548 109.7467734 0 0 0c2.60835318 0 7.8345544 0 10.45067587-2.61266917C891.46666155 816.41608135 894.08364589 803.35532488 888.85744466 795.51300218L888.85744466 795.51300218 888.85744466 795.51300218zM371.48250992 868.67464128L371.48250992 868.67464128l-44.42141611-75.78035c-2.61698433-5.22533837-10.45240245-10.45067588-18.29472515-10.45067588L219.92181073 782.4436154l67.94147961-120.19658725 15.67774081 5.22533835 15.67601423 49.64761732c5.22620123 15.67687711 15.68378253 28.74453816 28.74626473 36.58686087 13.06766105 7.8345544 28.7436753 10.45067588 44.42141611 5.22533837l41.81219922-10.45758132L371.48250992 868.67464128 371.48250992 868.67464128 371.48250992 868.67464128zM474.37264574 724.73357944l-0.373732-0.37373201c-5.47995895-5.48082182-8.9661073-7.17512945-12.81735564-8.14182568-2.94151879-0.7319274-5.79758797-1.09443796-8.70026524-1.09443796-2.85089031 0-5.65430963 0.3469748-8.56907124 1.06163987l-75.89428171 19.98212819-24.17258303-76.55715895-0.21060192-0.84154395c-0.96496967-3.85038547-2.66100387-7.33825954-8.12974221-12.80613503-5.47305436-5.47219066-8.94884496-7.16563541-12.78283097-8.12197392l-0.85449026-0.21405421-75.29095974-23.78331527 15.92027792-75.6163562 0.12860544-0.51614664c1.52513581-6.11176385 1.20491736-10.95214961 0.617132-12.71637024l-1.47248512-4.41831908 0-1.58728053c-1.97050656-3.86592123-5.14851991-8.63466824-8.24712706-13.28257813l-0.98741085-1.48198-1.57347051-3.14521526-49.30495768-53.10096674 52.46139355-56.50339203 0.37632144-0.37545774c5.47564379-5.47564379 7.17167715-8.95747613 8.13233164-12.80268274 1.46385396-5.85973268 1.46385396-11.56323987-0.00172656-17.42987713l-0.1294683-0.51959892-15.92027794-75.62844054 75.29268632-23.77468409 0.85276454-0.21319134c3.82967085-0.95461278 7.30459775-2.6480567 12.79318785-8.13146879 5.45665489-5.46528606 7.15614139-8.95057069 8.11938449-12.796641l0.26670489-1.06163989L368.01793991 166.37504139l75.23313019 15.83828147 0.52650435 0.13205773c2.96395914 0.74228429 5.8105343 1.10306913 8.70371841 1.10306912 2.89318326 0 5.74148498-0.36078483 8.70717069-1.10306912 3.85729007-0.96238024 7.3356701-2.65755156 12.80958733-8.12974222l2.97949573-2.98122232 56.50166547-52.473477 56.51116033 52.4700247 0.37804717 0.37632144c5.46873836 5.47046494 8.95402384 7.16563541 12.80268273 8.12974223 2.9527394 0.73624256 5.80535543 1.0970274 8.70630783 1.0970274 2.8957727 0 5.75184271-0.36078483 8.72098073-1.10306914l0.51959891-0.12860544 75.6223988-15.9176885 23.7824524 75.28405515 0.2140542 0.84844853c2.65927729 10.63452144 10.2849572 18.26020049 20.91861493 20.91947779l0.8458591 0.21146478 76.55888553 24.17517244-19.97522274 75.89169229c-1.42846644 5.81657602-1.41724585 11.47692823 0.03711408 17.29782026 0.95806507 3.82967085 2.65496213 7.31495548 8.13146879 12.79923045l0.37027886 0.37027885 52.47002472 56.49907603-52.47002472 56.49907603-0.37027886 0.37027886c-4.16628792 4.16974021-6.14456278 7.18635005-7.27784138 10.08557589l0 1.8988678-0.85362741 3.42400363c-1.4707594 5.89253077-1.4707594 8.94452896 0 14.83792343l0.12860543 0.5178732 15.91941509 75.62671395-75.28319145 23.76950523-0.8424068 0.21405422c-3.84261717 0.9597908-7.32617608 2.65755156-12.81390333 8.13578395-5.45579119 5.46528606-7.15268825 8.94884496-8.11506932 12.7957773l-0.26584121 1.06509217-24.53595728 73.61046214-75.48084618-19.86646991c-0.24598943-0.05955528-0.49284256-0.12083714-0.73969487-0.17521356l-14.41326731 4.81362941c-5.19599174 1.73573772-10.77607319 4.83348117-12.41773014 6.24641101l-2.88973096 2.8845521-56.49907604 52.46225641L474.37264574 724.73357944zM750.36699597 782.4436154L750.36699597 782.4436154c-7.8345544 0-13.0667982 2.61784805-18.29213571 10.45067588l-44.42141612 75.78035-67.9337113-117.58391807 39.19607774 7.84145985 0 0c15.67687711 2.60921688 31.3546179 0 44.42227898-5.22533837l2.6074903 0c13.06852392-7.8423227 23.5200635-18.29299942 28.7471276-33.96987651l0-2.61612148 15.67515136-49.64761733 1e-8 0 15.6768771-5.22533836 67.94147961 120.19658724L750.36699597 782.44447825 750.36699597 782.4436154 750.36699597 782.4436154zM651.07262419 568.17626899L651.07262419 568.17626899c31.35289218-31.35375504 49.6484802-73.15904967 49.64848017-120.19745012 0-47.03063215-18.29558801-88.84369508-49.64848017-120.1974501s-73.16595426-52.2637388-120.19658727-52.26373881c-47.03149585 0-88.84369508 18.29127286-120.1974501 49.64761733-31.35548161 31.36152334-49.64761732 73.16681712-49.64761733 120.20521841 0 47.03063215 18.29127286 88.83592677 49.64761733 120.19486069l0 0c31.35375504 31.35720734 73.16681712 49.65106963 120.1974501 49.65106962C577.90666991 620.44259723 619.71973284 599.53606576 651.07262419 568.17626899L651.07262419 568.17626899 651.07262419 568.17626899zM624.94507121 542.04698859L624.94507121 542.04698859 624.94507121 542.04698859c-23.51920064 23.51833694-57.48907717 39.19866717-94.06903344 39.19866718-36.5790934 0-70.54983279-15.68033024-94.07075916-39.19866718l0 0c-23.5200635-23.51747407-36.57736683-57.48821346-36.57736683-91.45118537 0-36.58686086 15.67687711-70.55760109 39.19607775-94.06903343 23.51143234-23.5200635 57.48217172-39.19866717 94.06212799-39.19866718 36.58513513 0 70.55673738 15.67860368 94.066444 39.19866718 23.5200635 23.51143234 39.19780431 57.48217172 39.1978043 94.06903343C664.14114895 484.55877514 648.46427101 518.52951453 624.94507121 542.04698859L624.94507121 542.04698859 624.94507121 542.04698859 624.94507121 542.04698859zM624.94507121 542.04698859" p-id="19313"></path></svg>