<?xml version="1.0" standalone="no"?><!DOCTYPE svg PUBLIC "-//W3C//DTD SVG 1.1//EN" "http://www.w3.org/Graphics/SVG/1.1/DTD/svg11.dtd"><svg t="1569818194469" class="icon" viewBox="0 0 1025 1024" version="1.1" xmlns="http://www.w3.org/2000/svg" p-id="26333" xmlns:xlink="http://www.w3.org/1999/xlink" width="200.1953125" height="200"><defs><style type="text/css"></style></defs><path d="M530.4945535 500.08746805c-0.64313766-0.94691055-1.19936484-1.88719934-1.67282012-2.88791161l-0.36088548-0.52974018-0.84592883-1.27799814c-0.65058713-1.0710684-1.81270462-3.00793088-2.51129947-3.68169415-0.79378254-0.71101062-1.47416756-1.07851786-2.12806557-1.49651597l-2.98558244-1.93686247c-1.17701643-0.60920118-2.09081821-1.14307994-2.79769026-1.58259873-0.53801736-0.04883542-1.09838311-0.0562849-1.65792117-0.09353226l-0.15064486-0.01076034-1.95176141-0.16223293c-0.56367665-0.04138596-1.33097217-0.15478345-2.08667963-0.3046006l0.24086623 0.1390568c-7.99742105 0-14.84431268 4.59466821-17.43921176 11.69732501L341.19687199 882.13855792c-1.54866227 4.2453708-1.32683356 9.29859533 0.78136674 13.79973129 2.10985575 4.50444684 5.85114566 7.91878774 10.53603525 9.61064539 2.07178067 0.75570745 4.22219466 1.13563047 6.3883353 1.13563049 7.8211169 0 14.87493828-4.91499547 17.54847067-12.24279185l120.92064204-296.55102731 14.54053979-35.64571904 14.53309033 35.65399624 120.9057431 296.54357784c2.88377302 7.85836426 9.93842211 12.77749832 17.75953902 12.7774983 2.16614064 0 4.31738234-0.37992303 6.38833529-1.1240424 4.68488958-1.70675659 8.42286862-5.12109749 10.53603526-9.62140574 2.10571716-4.49699738 2.33168444-9.55104962 0.62410013-14.21690166L530.4945535 500.08746805zM511.99834457 116.779073c-228.202958 0-413.85784816 184.85779676-413.85784818 412.07908002 0 110.89613714 44.33511318 215.16058961 124.83492524 293.5770329l0.72177097 0.70356117 0.62823873 0.78964394c0.96263721 1.21840239 1.77876814 2.07923015 2.63959592 2.79024077l0.46269492 0.37992301c3.61382118 2.81590006 7.35842197 4.24123219 11.13778696 4.24123219 10.29847988 0 18.67582396-8.34009672 18.67582396-18.59305205 0-6.95283965-4.20729571-11.6145531-6.71528432-13.7657948l-10.31420654-11.78754639C172.56816181 716.89770164 135.49379976 625.72693615 135.49379976 528.85980846c0-206.71454486 168.89937429-374.89214818 376.50454481-374.89214817s376.5086834 168.17760332 376.50868339 374.89214817c0 97.64601128-37.58920327 189.3241685-106.16572301 259.80030339l-9.90034705 10.94161755c-3.52691069 3.50373455-5.47122264 8.17786379-5.47122263 13.14500555 0 10.25378306 8.38148266 18.59305206 18.67582396 18.59305205 7.4858907 0 12.28831638-4.89926881 14.48756577-7.81366741l0.70687203-0.94691056 0.85006743-0.83102987c80.0710536-78.35270894 124.16943915-182.37132886 124.16943915-292.8883707C925.86033132 301.63686975 740.20544116 116.779073 511.99834457 116.779073zM511.99834457 287.85948688c-133.460585 0-242.0374535 108.11417357-242.03745349 240.99866614 0 35.69869306 8.13978872 70.56552853 24.19588201 103.63621374 0.67707415 1.7332436 1.08679506 2.67353239 1.41374406 3.36136687l1.05285858 1.66205977c1.70344572 2.82003866 6.62506294 9.38136723 15.54456295 9.38136724 10.29847988 0 18.67582396-8.34671846 18.67582397-18.60050153 0-2.54937454-0.83847937-5.27919183-2.63214644-8.57351348l-5.44473564-14.52150227c-10.26123253-24.65526607-15.45351385-50.26820304-15.45351387-76.34549034 0-112.38106505 91.82135263-203.81256202 204.68415015-203.81256201 112.8669361 0 204.69159959 91.42984153 204.6915996 203.81256201 0 29.50569944-6.63996187 58.36412264-19.74027061 85.902334l-1.55693946 5.49357105c-0.9667758 2.57172296-1.41374406 4.60956715-1.41374405 6.41482232 0 10.24964446 8.37734408 18.59719064 18.67582396 18.59719064 7.01988489 0 11.71719027-4.26026973 13.88995265-6.79060673l0.62823874-0.73335904c0.10512031-0.22513957 0.20361887-0.42461985 0.31205005-0.6315496 1.53376332-2.57586155 2.12806557-3.82737268 2.53447561-5.1475845l0.32363813-1.05285858 0.47345527-0.99574597c15.40881703-32.61875064 23.22248446-66.62475833 23.22248448-101.05621359C754.03910892 395.97366045 645.46306816 287.85948688 511.99834457 287.85948688z" p-id="26334"></path></svg>