<?xml version="1.0" standalone="no"?><!DOCTYPE svg PUBLIC "-//W3C//DTD SVG 1.1//EN" "http://www.w3.org/Graphics/SVG/1.1/DTD/svg11.dtd"><svg t="1569818334185" class="icon" viewBox="0 0 1024 1024" version="1.1" xmlns="http://www.w3.org/2000/svg" p-id="28176" xmlns:xlink="http://www.w3.org/1999/xlink" width="200" height="200"><defs><style type="text/css"></style></defs><path d="M889.54236111 131.78125h-743.53888889c-27.95593565 0-50.69583333 22.73989769-50.69583333 50.69583333v692.84305556h844.93055556v-692.84305556c0-27.95593565-22.73989769-50.69583333-50.69583334-50.69583333z m16.89861111 709.74166667H129.10486111v-574.55277778h777.33611111v574.55277778z m0-608.35H129.10486111v-50.69583334c0-9.31676759 7.58184352-16.89861111 16.89861111-16.8986111h743.53888889c9.32240047 0 16.89861111 7.58184352 16.89861111 16.8986111v50.69583334z m-244.96226667 340.20283889l92.61002176-52.92645-92.61002176-52.92645a16.89297825 16.89297825 0 0 1-6.28628333-23.05533842 16.87044675 16.87044675 0 0 1 23.05533842-6.28628334l118.29027778 67.59444445a16.89861111 16.89861111 0 0 1 0 29.33598889l-118.29027778 67.59444444a16.85918102 16.85918102 0 0 1-23.04970556-6.28628333 16.87607964 16.87607964 0 0 1 6.28065047-23.04407269zM230.49652778 520.44930556a16.89861111 16.89861111 0 0 1 8.5169-14.66799445l118.29027777-67.59444444a16.89861111 16.89861111 0 0 1 16.76905509 29.34162175L281.45710602 520.44930556l92.61002176 52.92645a16.89861111 16.89861111 0 0 1-16.76342223 29.34162175l-118.29027777-67.59444445A16.92114259 16.92114259 0 0 1 230.49652778 520.44930556z m187.1408523 196.37875971l152.0875-371.75817869a16.98310417 16.98310417 0 0 1 22.04705464-9.25480602 16.90987685 16.90987685 0 0 1 9.24354027 22.03578888l-152.0875 371.7807102a16.92114259 16.92114259 0 0 1-22.04142175 9.23790739 16.89861111 16.89861111 0 0 1-9.24917316-22.04142176z" p-id="28177"></path></svg>