<?xml version="1.0" standalone="no"?><!DOCTYPE svg PUBLIC "-//W3C//DTD SVG 1.1//EN" "http://www.w3.org/Graphics/SVG/1.1/DTD/svg11.dtd"><svg t="1569816917980" class="icon" viewBox="0 0 1024 1024" version="1.1" xmlns="http://www.w3.org/2000/svg" p-id="21555" xmlns:xlink="http://www.w3.org/1999/xlink" width="200" height="200"><defs><style type="text/css"></style></defs><path d="M934.046769 813.27568365v-269.10044674c-0.12238745-31.01044607-13.08701596-54.62278217-39.02893375-70.83278808-12.73251439-7.75261151-26.52853347-10.68991017-41.26566979-10.68991016h-24.16940999c0.82295004-1.87801422 1.41378598-3.16941277 2.1227891-4.46081131 6.84103607-13.15876032 11.20478149-21.14770621 18.15554423-34.30224627 8.60932362-16.32817308 5.30486264-33.00662747-11.08239404-43.81048456-69.91699238-39.23572634-83.71301144-48.63001769-159.52148213-88.57052688-1.53617342-0.81872979-2.59545786-1.64590011-4.48191259-2.58279708 2.00462193-3.51969407 3.77712972-6.6933271 5.54541726-9.86273986 8.13243462-14.68227298 4.24557822-29.13243185-10.25944397-37.23532466-88.78575998-49.21241311-177.68124662-98.19693237-266.46278633-147.29117829-2.94995941-1.64590011-6.25020013-2.58701735-9.31410649-3.87841589h-7.42765176c-10.14127679 2.35068297-16.03697537 9.39429136-20.87338951 18.32435449-62.72145474 116.40311967-125.5652969 232.68385189-188.29097192 349.09119182-1.76828754 3.4099674-3.89107665 4.46503157-7.55003919 4.46503156-36.07475407 0-64.96663129 20.78898439-76.16297226 54.61856192-1.65012036 5.28376137-2.70940478 10.68991017-4.00924383 16.09183872v328.65670898c1.53617342 5.99276449 2.47307042 12.21764309 4.47769234 17.97407318 11.20478149 29.83299445 32.30606486 47.33861914 63.31229065 52.38604613 0.9453375 0.1181672 1.7725078 0.46844848 2.71362505 0.70478287h703.0567801c6.48653451-1.64590011 13.08701596-2.70096427 19.33721609-5.05164724 30.18327575-10.92624453 50.46582935-39.58600762 51.17061221-72.2423538 0.24055462-14.91016685 0.00844052-27.24597711 0.00844052-42.40091885z m-120.61493585-403.4776396s-21.10550364 41.22768748-25.23713491 49.44874748c-1.41378598 2.93729864-3.30024072 3.40574714-6.1278127 3.40574714-78.28998162-0.11394693-103.16417447-0.11394693-181.3359889-0.11394693h-23.81490843c24.52391156-43.46020326 78.87659731-139.89728859 78.87659729-139.89728858s85.12679743 46.63383628 157.63924765 87.15674089zM395.69816649 135.88228443c75.3400222 41.70035622 167.89025112 93.73612106 243.1163264 135.31408984-0.82295004 1.52773293-1.41378598 2.81913146-2.11856885 3.99236282-33.83801804 60.02049045-68.85770794 123.57333575-102.69572598 183.59382622-1.65012036 2.8149112-3.41840791 3.98814257-6.71864863 3.98814255-93.02711793-0.1181672-209.39647554-0.1181672-302.42359348-0.11816719H219.78942768c56.23914047-104.30364378 119.66959834-222.58477766 175.90873881-326.77025424z m500.85584219 727.9056514c0 15.03677454-7.90032049 25.95457857-21.10550365 29.59666008-3.06390635 0.94111724-6.48653451 1.17745161-9.78677524 1.17745162H158.59570586c-19.10088172 0-31.01044607-12.09525563-31.01044606-31.59706175v-330.29838882c0-15.85972459 7.78637357-26.89991606 21.69633957-30.54199759 3.54079535-0.93689699 7.30948456-0.93689699 10.9684471-0.93689697h704.23423171c10.37761116 0 19.33721609 2.70096427 25.94191779 11.39469302 4.59585953 5.99276449 6.00964551 12.92242594 6.00964552 20.3205359v330.88922478h0.11816719z m0 0" p-id="21556"></path><path d="M604.03113736 706.7395241H420.10391085c-7.78215331 0-14.14630039-6.34304579-14.14630037-14.0956573v-8.22528025c0-7.75261151 6.36414707-14.0956573 14.14630037-14.09565731h183.92722651c7.78215331 0 14.14630039 6.34304579 14.14630037 14.09565731v8.22528025c0.00422025 7.75261151-6.36414707 14.0956573-14.14630037 14.0956573z m0 0" p-id="21557"></path></svg>