<?xml version="1.0" standalone="no"?><!DOCTYPE svg PUBLIC "-//W3C//DTD SVG 1.1//EN" "http://www.w3.org/Graphics/SVG/1.1/DTD/svg11.dtd"><svg t="1569818762402" class="icon" viewBox="0 0 1026 1024" version="1.1" xmlns="http://www.w3.org/2000/svg" p-id="35248" xmlns:xlink="http://www.w3.org/1999/xlink" width="200.390625" height="200"><defs><style type="text/css"></style></defs><path d="M754.48334589 363.71553744c-46.1869639 0-82.0426326 35.85566949-82.04263339 82.0426334s35.85566949 82.0426326 82.04263339 82.04263258 82.0426326-35.85566949 82.04263257-82.04263258c0.60772359-46.1869639-35.85566949-82.0426326-82.04263257-82.0426334z m0 132.48365914c-28.56299055 0-50.44102575-21.87803519-50.44102656-50.44102574 0-28.56299055 21.87803519-50.44102575 50.44102656-50.44102655 28.56299055 0 50.44102575 21.87803519 50.44102574 50.44102655 0 28.56299055-21.27031243 50.44102575-50.44102574 50.44102574zM268.91250331 363.71553744c-46.1869639 0-82.0426326 35.85566949-82.04263259 82.0426334s35.85566949 82.0426326 82.04263259 82.04263258 82.0426326-35.85566949 82.04263339-82.04263258-35.85566949-82.0426326-82.04263339-82.0426334z m0 132.48365914c-28.56299055 0-50.44102575-21.87803519-50.44102575-50.44102574 0-28.56299055 21.87803519-50.44102575 50.44102575-50.44102655 28.56299055 0 50.44102575 21.87803519 50.44102655 50.44102655 0 28.56299055-21.87803519 50.44102575-50.44102655 50.44102574zM704.65004291 268.91071773c0-46.1869639-35.85566949-82.0426326-82.04263339-82.04263339s-82.0426326 35.85566949-82.04263258 82.04263339 35.85566949 82.0426326 82.04263258 82.0426326c45.57924032 0 82.0426326-35.85566949 82.04263339-82.0426326z m-82.65035616 50.44102575c-28.56299055 0-50.44102575-21.87803519-50.44102655-50.44102575 0-28.56299055 21.87803519-50.44102575 50.44102655-50.44102655s50.44102575 21.87803519 50.44102575 50.44102655c0 28.56299055-21.27031243 50.44102575-50.44102575 50.44102575zM401.39616245 186.86808434c-46.1869639 0-82.0426326 35.85566949-82.04263259 82.04263339s35.85566949 82.0426326 82.04263259 82.04263259S483.43879503 315.09768083 483.43879503 268.91071773s-35.85566949-82.0426326-82.04263258-82.04263339z m0 132.48365913c-28.56299055 0-50.44102575-21.87803519-50.44102575-50.44102574 0-28.56299055 21.87803519-50.44102575 50.44102575-50.44102655 28.56299055 0 50.44102575 21.87803519 50.44102654 50.44102655 0 28.56299055-21.87803519 50.44102575-50.44102654 50.44102575z" p-id="35249"></path><path d="M318.13808351 843.20914744l50.44102574 22.48575877c44.36379397 18.23169613 92.98165058 27.95526777 143.42267713 27.95526778 28.56299055 0 50.44102575-21.87803519 50.44102575-50.44102655 0-12.76218714-4.86178542-24.3089279-12.76218713-32.8170532-14.58535707-14.58535707-22.48575877-34.03249955-22.48575878-55.30281197 0-46.1869639 35.85566949-82.0426326 82.04263258-82.04263259h79.61174069c113.03651665 0 204.80272088-91.76620423 204.80272007-204.80272087 0-185.96330118-171.37794411-337.28637921-381.65017318-337.28637922C301.12183373 130.34982602 130.35161241 301.72777093 130.35161241 512c0 100.27432871 35.24794591 187.17874753 98.45115958 255.8514702 3.03861628 12.15446436-2.4308927 20.66258885-13.36991072 21.27031163-7.29267813 0.60772359-15.19307983-6.68495536-15.19307984-6.68495455l-3.64633986-3.0386163c-3.64633907-4.25406264-6.68495536-7.90040171-10.33129443-12.15446435-54.69508839-70.49589181-88.11986516-159.22347975-88.11986436-255.24374663 0-227.89620243 185.35557759-413.25178001 413.25178002-413.25178001s413.25178001 165.90843511 413.25178083 369.49570882c0 130.6604892-106.3515613 237.0120505-237.0120505 237.01205049H609.2374988c-28.56299055 0-50.44102575 21.87803519-50.44102574 50.44102656 0 12.76218714 4.86178542 24.3089279 12.76218714 32.81705318 14.58535707 14.58535707 22.48575877 34.03249955 22.48575877 55.30281198 0 46.1869639-35.85566949 82.0426326-82.04263259 82.04263259-75.35767723 0-145.85356984-20.05486607-206.62589082-55.30281198-0.60772359-0.60772359-13.97763349-23.09348155 12.76218795-27.34754419z" p-id="35250"></path></svg>