<?xml version="1.0" standalone="no"?><!DOCTYPE svg PUBLIC "-//W3C//DTD SVG 1.1//EN" "http://www.w3.org/Graphics/SVG/1.1/DTD/svg11.dtd"><svg t="1569818766830" class="icon" viewBox="0 0 1024 1024" version="1.1" xmlns="http://www.w3.org/2000/svg" p-id="35367" xmlns:xlink="http://www.w3.org/1999/xlink" width="200" height="200"><defs><style type="text/css"></style></defs><path d="M609.32520228 736.06020013H365.55740622c-13.34052588 0-26.07466432-4.85110025-35.77686561-14.55330155-9.7022005-9.7022005-15.15968898-21.8299515-15.15968817-35.77686481l0.60638743-58.8195928c2.42555052-10.91497616 7.88303821-20.01078923 15.76607641-25.4682769 10.30858873-7.88303821 24.25550204-7.88303821 39.4151902 1.21277486l3.63832538 1.81916228 4.24471282 1.21277567c12.73413845 6.06387592 24.86188947 5.45748768 35.77686562 1.21277486 5.45748768-2.42555052 10.30858873-5.45748768 14.55330154-9.70220049 4.24471281-4.24471281 7.27665078-9.09581306 9.70220051-14.55330155 2.42555052-5.45748768 3.63832539-10.91497616 3.63832538-17.58523869 0-6.67026335-1.21277486-12.12775101-3.63832538-17.5852395-2.42555052-5.45748768-5.45748768-10.30858873-9.70220051-14.55330074-4.85110025-4.24471281-9.09581306-7.88303821-15.15968897-9.7022013-10.91497616-4.85110025-23.04272718-4.85110025-35.77686563 0.60638743l-4.24471281 1.81916309c-4.24471281 1.81916229-8.48942563 4.24471281-12.12775101 6.06387512-5.45748768 2.42555052-10.91497616 3.63832539-15.76607641 3.63832538h-3.63832538c-8.48942563-0.60638744-15.76607641-5.45748768-20.61717666-12.73413845-4.24471281-6.06387592-6.06387592-13.34052588-6.67026253-24.25550203v-52.75571689c0-13.94691331 5.45748768-26.07466432 15.15968817-35.77686562 9.7022005-9.7022005 22.43633975-15.15968898 35.77686561-15.15968899h46.08545437c-3.03193795-9.09581306-4.85110025-19.40440179-4.85110107-29.7129897 0-13.34052588 2.42555052-26.07466432 7.8830382-37.59602793 4.85110025-11.52136358 12.12775101-21.8299515 20.61717747-30.31937794s18.79801437-15.15968898 30.31937714-20.61717666c23.04272718-10.30858873 50.9365546-10.30858873 74.58566841 0 11.52136358 4.85110025 21.8299515 12.12775101 30.31937794 20.61717666s15.15968898 18.79801437 20.61717666 30.31937794c4.85110025 11.52136358 7.88303821 24.25550204 7.8830382 37.59602793 0 10.30858873-1.81916229 20.01078923-4.85110024 29.7129897h15.7660764c13.94691331 0 26.07466432 5.45748768 35.77686562 15.15968899 9.7022005 9.7022005 14.55330155 22.43633975 14.55330073 35.77686562v33.95770252c21.22356408-7.88303821 46.08545355-7.27665078 67.30901844 1.8191631 11.52136358 4.85110025 21.22356408 11.52136358 29.71298971 20.01078922 8.48942563 8.48942563 15.15968898 18.79801437 20.01078922 29.71298972 4.85110025 11.52136358 7.27665078 23.64911462 7.27665078 36.38325304s-2.42555052 25.46827689-7.27665078 36.98964049c-4.85110025 10.91497616-11.52136358 21.22356408-20.01078922 29.71299051-8.48942563 8.48942563-18.79801437 15.15968898-29.71298971 20.01078923-21.22356408 9.09581306-46.08545355 9.7022005-67.30901844 1.81916229v29.71299053c0 13.94691331-4.85110025 26.07466432-14.55330073 35.77686481-10.30858873 9.09581306-23.04272718 14.55330155-36.38325304 14.55330155zM351.61049292 633.5807043v51.54294123c0 3.63832539 1.21277486 6.67026335 4.24471282 9.7022013 3.03193795 3.03193795 6.06387592 4.24471281 10.30858791 4.24471281h243.16140863c4.24471281 0 6.67026335-1.21277486 9.70220047-4.24471281 3.03193795-3.03193795 4.24471281-5.45748768 4.24471283-9.7022013V583.85692456l30.31937794 26.07466514c4.85110025 4.24471281 10.91497616 7.88303821 17.58523869 10.30858792 12.73413845 5.45748768 28.50021484 4.85110025 41.84074073-0.60638743 7.27665078-3.03193795 13.34052588-7.27665078 18.19162693-12.12775103 5.45748768-5.45748768 9.7022005-11.52136358 12.73413846-18.19162611s4.24471281-13.94691331 4.24471282-21.82995233c0-7.88303821-1.21277486-15.15968898-4.24471282-21.8299515-3.03193795-7.27665078-7.27665078-13.34052588-12.12775102-18.19162693-5.45748768-5.45748768-11.52136358-9.09581306-18.19162693-12.12775102-13.34052588-5.45748768-29.10660228-6.06387592-41.84074073-0.60638743-6.67026335 2.42555052-12.73413845 6.06387592-17.5852387 10.30858872l-30.31937795 25.46827691V444.99417569c0-4.24471281-1.21277486-7.27665078-4.24471281-10.30858874-3.03193795-3.03193795-5.45748768-4.24471281-9.70220049-4.24471281H522.61178204l26.07466513-30.31937714c8.48942563-10.30858873 12.73413845-21.8299515 12.73413846-35.77686562 0-8.48942563-1.81916229-15.76607641-4.85110026-23.04272718-3.03193795-7.27665078-7.27665078-13.34052588-12.73413924-18.79801356-5.45748768-5.45748768-11.52136358-9.7022005-18.79801356-12.73413926-13.94691331-6.06387592-30.92576538-6.06387592-44.87267869 0-7.27665078 3.03193795-13.34052588 7.27665078-18.79801436 12.73413926-5.45748768 5.45748768-9.7022005 11.52136358-12.73413845 18.79801356-3.03193795 7.27665078-4.85110025 14.55330155-4.85110025 23.04272718 0 7.27665078 1.21277486 13.34052588 3.63832539 19.40440177 2.42555052 6.06387592 5.45748768 12.12775101 9.70220051 16.97885127l23.64911458 29.71298972h-115.21363508c-4.24471281 0-7.27665078 1.21277486-9.70220048 4.24471281-3.03193795 3.03193795-4.24471281 6.06387592-4.24471282 9.7022013v50.9365538c1.81916229-1.21277486 4.24471281-1.81916229 6.06387511-3.03193715 1.81916229-0.60638744 4.24471281-1.81916229 7.27665077-3.03193796 18.19162693-8.48942563 43.65990383-8.48942563 63.06430562 0 9.7022005 4.24471281 18.79801437 10.30858873 26.07466433 17.58523869 7.27665078 7.27665078 13.34052588 16.37246384 17.5852395 26.07466514 4.24471281 9.7022005 6.67026335 20.61717666 6.67026253 32.13854024s-2.42555052 22.43633975-6.67026253 32.13854024c-4.24471281 9.7022005-10.30858873 18.19162693-17.5852395 25.46827689-7.27665078 7.27665078-16.37246384 13.34052588-26.07466433 17.5852387-20.01078923 8.48942563-43.0535164 9.09581306-64.8834679-1.21277486-3.03193795-1.21277486-6.67026335-3.03193795-11.5213636-5.45748768z" p-id="35368"></path><path d="M924.04034131 513.51596898c0-228.00171883-184.94820323-412.34353462-412.34353544-412.34353462-228.00171883 0-412.34353462 184.34181579-412.34353461 412.34353463s184.94820323 412.34353462 412.34353461 412.34353462c93.38368276 0 178.88432732-32.13854023 248.61889628-84.2878697 3.03193795-3.03193795 4.85110025-7.27665078 4.85110026-12.12775103 0-10.30858873-7.88303821-18.19162693-18.19162613-18.19162612-5.45748768 0-9.7022005 1.81916229-13.34052667 5.45748767-61.85152996 45.47906612-138.25636144 72.76650611-220.72506806 72.76650612-206.17176732 0-373.53473185-167.36296372-373.53473184-373.53473185S306.73781424 142.40678766 512.90958155 142.40678766 886.4443126 309.76975139 886.4443126 515.9415187c0 63.06430562-14.55330155 122.49028504-42.44712816 174.63961531v0.60638742c-0.60638744 1.81916229-1.21277486 3.63832539-1.21277568 5.45748769 0 10.30858873 8.48942563 18.19162693 18.19162693 18.19162692 7.88303821 0 14.55330155-4.85110025 16.97885127-12.12775101 28.50021484-57.00042971 46.08545355-121.27751018 46.08545435-189.19291605z" p-id="35369"></path></svg>