<?xml version="1.0" standalone="no"?><!DOCTYPE svg PUBLIC "-//W3C//DTD SVG 1.1//EN" "http://www.w3.org/Graphics/SVG/1.1/DTD/svg11.dtd"><svg t="1578827376402" class="icon" viewBox="0 0 1024 1024" version="1.1" xmlns="http://www.w3.org/2000/svg" p-id="7268" xmlns:xlink="http://www.w3.org/1999/xlink" width="200" height="200"><defs><style type="text/css"></style></defs><path d="M787.91111147 284.4444448h227.5555552v91.02222187h-227.5555552V284.4444448z m-91.02222293 227.5555552h318.57777813v91.02222187h-318.57777813v-91.02222187z m136.53333333 227.5555552h182.0444448v91.02222293h-182.0444448v-91.02222293zM14.22222187 967.11111147a364.08888853 364.08888853 0 1 1 728.17777814 0h-91.02222187a273.06666667 273.06666667 0 1 0-546.13333333 0H14.22222187z m364.0888896-409.6c-150.86933333 0-273.06666667-122.19733333-273.06666666-273.06666667s122.19733333-273.06666667 273.06666666-273.06666667 273.06666667 122.19733333 273.06666667 273.06666667-122.19733333 273.06666667-273.06666667 273.06666667z m0-91.02222294c100.5795552 0 182.0444448-81.46488853 182.04444374-182.04444373s-81.46488853-182.0444448-182.04444374-182.0444448-182.0444448 81.46488853-182.0444448 182.0444448 81.46488853 182.0444448 182.0444448 182.04444373z" p-id="7269"></path></svg>