<?xml version="1.0" standalone="no"?><!DOCTYPE svg PUBLIC "-//W3C//DTD SVG 1.1//EN" "http://www.w3.org/Graphics/SVG/1.1/DTD/svg11.dtd"><svg t="1569818501138" class="icon" viewBox="0 0 1131 1024" version="1.1" xmlns="http://www.w3.org/2000/svg" p-id="31575" xmlns:xlink="http://www.w3.org/1999/xlink" width="220.8984375" height="200"><defs><style type="text/css"></style></defs><path d="M812.92495921 405.96514224c-70.00880838 0-126.68260494-56.67379656-126.68260495-126.68260495s56.67379656-126.68260494 126.68260495-126.68260495 126.68260494 56.67379656 126.68260496 126.68260495-56.67379656 126.68260494-126.68260496 126.68260495z m0-220.02768157c-53.3400436 0-93.34507785 43.33878597-93.3450766 93.34507662s43.33878597 93.34507785 93.3450766 93.34507785 93.34507785-43.33878597 93.34507788-93.34507785-40.00503301-93.34507785-93.34507788-93.34507662z" fill="" p-id="31576"></path><path d="M499.55219981 979.37061749h-10.00125764c-16.66876355-3.33375296-26.67002241-16.66876355-30.00377537-23.33626948L106.16937436 585.98779204c-16.66876355-16.66876355-16.66876355-33.33752711-16.66876356-43.33878598 3.33375296-23.33626946 26.67002241-40.00503301 30.00377415-43.33878596 16.66876355-13.33501059 423.38660083-403.38408431 456.72412917-433.3878597 33.33752711-26.67002241 70.00880838-26.67002241 70.00880714-26.67002118l310.0390077 6.66750468c63.34130249 0 80.01006603 46.67253893 80.01006603 73.34256134 0 3.33375296-3.33375296 193.35766039 0 290.03648996 3.33375296 103.34633548-40.00503301 136.68386383-46.67253894 140.01761554-13.33501059 13.33501059-403.38408431 380.04781487-443.38911731 416.71909616-16.66876355 6.66750593-33.33752711 13.33501059-46.67253893 13.33501059z m-13.3350106-40.00503302s3.33375296 6.66750593 10.00125763 6.66750592c6.66750593 0 16.66876355-3.33375296 26.67002242-13.33501183 43.33878597-36.67128005 443.38911733-413.38534195 446.72287029-416.7190949 3.33375296-3.33375296 36.67128005-26.67002241 33.33752709-110.01384142-3.33375296-96.67882958 0-290.03648996 0-290.03648995 0-6.66750593-3.33375296-36.67128005-46.67253768-36.67128006l-310.0390077-6.66750593s-26.67002241 0-46.67253769 20.00251652c-33.33752711 26.67002241-453.39037621 430.05410674-460.05788212 433.38785969-6.66750593 3.33375296-16.66876355 13.33501059-16.66876354 23.33626823 0 3.33375296 0 6.66750593 6.66750591 16.66876478l356.71154539 373.38030895z" fill="" p-id="31577"></path></svg>