<?xml version="1.0" standalone="no"?><!DOCTYPE svg PUBLIC "-//W3C//DTD SVG 1.1//EN" "http://www.w3.org/Graphics/SVG/1.1/DTD/svg11.dtd"><svg t="1569818536191" class="icon" viewBox="0 0 1024 1024" version="1.1" xmlns="http://www.w3.org/2000/svg" p-id="32166" xmlns:xlink="http://www.w3.org/1999/xlink" width="200" height="200"><defs><style type="text/css"></style></defs><path d="M827 197v630H197V197h630m40-40H157v710h710V157zM502.2 332.5v359h-200v-359h200m40-40h-280v439h280v-439z m179.6 40v110h-80v-110h80m40-40h-160v190h160v-190z m-40 290v109h-80v-109h80m40-40h-160v189h160v-189zM353.9 63.7h-40v100h40v-100z m118.7 0h-40v100h40v-100z m118.8 0h-40v100h40v-100z m118.7 0h-40v100h40v-100zM353.9 860.3h-40v100h40v-100z m118.7 0h-40v100h40v-100z m118.8 0h-40v100h40v-100z m118.7 0h-40v100h40v-100zM163.7 670.1h-100v40h100v-40z m0-118.7h-100v40h100v-40z m0-118.8h-100v40h100v-40z m0-118.7h-100v40h100v-40z m796.6 356.2h-100v40h100v-40z m0-118.7h-100v40h100v-40z m0-118.8h-100v40h100v-40z m0-118.7h-100v40h100v-40z" fill="" p-id="32167"></path></svg>