<?xml version="1.0" standalone="no"?><!DOCTYPE svg PUBLIC "-//W3C//DTD SVG 1.1//EN" "http://www.w3.org/Graphics/SVG/1.1/DTD/svg11.dtd"><svg t="1569816885672" class="icon" viewBox="0 0 1024 1024" version="1.1" xmlns="http://www.w3.org/2000/svg" p-id="21095" xmlns:xlink="http://www.w3.org/1999/xlink" width="200" height="200"><defs><style type="text/css"></style></defs><path d="M499.68946467 484.71457583L359.01253599 484.71457583l0 52.63108616 193.30331537 0L552.31585136 293.60101097l-52.62544716 0L499.6904042 484.71457583zM499.68946467 484.71457583" p-id="21096"></path><path d="M572.3252883 634.13359135l348.88276732 0 0 52.6263867L572.3252883 686.75997896 572.3252883 634.13359135 572.3252883 634.13359135zM572.3252883 634.13359135" p-id="21097"></path><path d="M572.3252883 752.40551485l348.88276732 0 0 52.63108616L572.3252883 805.03660101 572.3252883 752.40551485 572.3252883 752.40551485zM572.3252883 752.40551485" p-id="21098"></path><path d="M572.3252883 870.68213782l348.88276732-1e-8 0 52.63108617L572.3252883 923.31322398 572.3252883 870.68213782 572.3252883 870.68213782zM572.3252883 870.68213782" p-id="21099"></path><path d="M135.93518668 392.87473154c4.08722207 2.40214768 8.69791627 3.6314151 13.34526301 3.6314151 2.72732103 0 5.46685866-0.42385299 8.11523563-1.28095697l175.24022004-56.83672341c13.82456456-4.48382053 21.39659158-19.3233772 16.91277104-33.14418274-4.48382053-13.82456456-19.3233772-21.39659158-33.14794176-16.91277105L203.11918866 325.06669784c14.6891875-23.98482051 32.3002358-46.41332118 52.68935422-66.8080786 67.74788567-67.74788567 157.82371242-105.05447461 253.63330221-105.05447461 95.80865026 0 185.88071798 37.30752847 253.62766321 105.05447461s105.05917315 157.82371242 105.05917315 253.6333022c0 24.27146228-2.40214768 48.16982068-7.08050795 71.43380981l53.54551868 0c4.10037911-23.41905685 6.16137597-47.27042516 6.16137596-71.43380981 0-55.51723393-10.87920919-109.38416602-32.33218886-160.11120301-20.71899033-48.98275408-50.3746091-92.96667307-88.13794363-130.73376753-37.76709445-37.76709445-81.75383294-67.41895328-130.732828-88.13794362C618.82601111 111.45414764 564.95437954 100.57493936 509.44278461 100.57493936c-55.5162944 0-109.38792597 10.87920919-160.11120301 32.33500837-48.98275408 20.71899033-92.97043301 50.37084916-130.73376753 88.13794362-22.0234428 22.0234428-41.26787594 46.17554946-57.60924525 72.1875347l-19.04613345-97.03415958c-2.79498711-14.26063506-16.62801017-23.54969046-30.88770568-20.75564288-14.26063506 2.79968567-23.55062999 16.62801017-20.75564288 30.89240424l33.15640025 168.92377545C124.90560923 382.64586907 129.44863736 389.05629474 135.93518668 392.87473154L135.93518668 392.87473154zM135.93518668 392.87473154" p-id="21100"></path><path d="M157.51504094 581.74497639L104.01651326 581.74497639c5.28923497 30.93093674 14.11402491 61.1147262 26.44053769 90.25908852 20.71899033 48.98181456 50.3746091 92.96573355 88.14076312 130.732828 37.76709445 37.76709445 81.75101344 67.41895328 130.73376753 88.13794361 49.69700786 21.02066911 102.41831516 31.87920231 156.74199375 32.31151287L506.07357535 870.54022714c-94.54930882-0.86462295-183.30846559-38.06407377-250.26409294-105.0187616C204.83621612 714.54819926 171.09807567 650.93170624 157.51504094 581.74497639L157.51504094 581.74497639zM157.51504094 581.74497639" p-id="21101"></path></svg>