<?xml version="1.0" standalone="no"?><!DOCTYPE svg PUBLIC "-//W3C//DTD SVG 1.1//EN" "http://www.w3.org/Graphics/SVG/1.1/DTD/svg11.dtd"><svg t="1569817969111" class="icon" viewBox="0 0 1024 1024" version="1.1" xmlns="http://www.w3.org/2000/svg" p-id="24974" xmlns:xlink="http://www.w3.org/1999/xlink" width="200" height="200"><defs><style type="text/css"></style></defs><path d="M512 923.52131462a411.52131462 411.52131462 0 1 1 411.52131462-411.52131462 411.52131462 411.52131462 0 0 1-411.52131462 411.52131462z m0-37.41102868a374.11028594 374.11028594 0 1 0-374.11028594-374.11028594 374.53116004 374.53116004 0 0 0 374.11028594 374.11028594" fill="" p-id="24975"></path><path d="M371.70864288 437.17794265m-51.44016424 0a51.44016422 51.44016422 0 1 0 102.88032846 0 51.44016422 51.44016422 0 1 0-102.88032846 0Z" fill="" p-id="24976"></path><path d="M670.99687147 437.17794265m-51.44016424 0a51.44016422 51.44016422 0 1 0 102.88032848 0 51.44016422 51.44016422 0 1 0-102.88032847 0Z" fill="" p-id="24977"></path><path d="M661.92469689 714.72101082l31.89290169-19.54726255z m1.77702379 2.61877199l30.1158779-22.16603454z m-1.77702379-2.61877199l31.89290169-19.54726255 5.23754398 8.55777309a18.70551434 18.70551434 0 1 1-31.89290169 19.54726252l-5.23754398-8.55777306m-296.80974769 9.11893826a18.70551434 18.70551434 0 1 1-31.0511535-20.85664854 219.78979325 219.78979325 0 0 1 359.75380289-7.80955227l-30.11587791 22.16603454a182.37876459 182.37876459 0 0 0-298.58677148 6.45340258" fill="" p-id="24978"></path></svg>