<?xml version="1.0" standalone="no"?><!DOCTYPE svg PUBLIC "-//W3C//DTD SVG 1.1//EN" "http://www.w3.org/Graphics/SVG/1.1/DTD/svg11.dtd"><svg t="1569817082642" class="icon" viewBox="0 0 1280 1024" version="1.1" xmlns="http://www.w3.org/2000/svg" p-id="24181" xmlns:xlink="http://www.w3.org/1999/xlink" width="250" height="200"><defs><style type="text/css"></style></defs><path d="M1068.15499916 934.46527777l-75.43629115-75.43629113A419.45429513 419.45429513 0 0 0 1068.52465546 617.85464845c0-112.90359878-43.93629317-219.04776713-123.75565168-298.86712563A419.53350737 419.53350737 0 0 0 646.06030182 195.20546707 419.74473919 419.74473919 0 0 0 347.29879169 318.98752282 420.03518325 420.03518325 0 0 0 223.59594818 617.85464845c0 87.55573739 26.72087023 170.860427 75.75313927 241.20074228L223.96560446 934.46527777A523.98781874 523.98781874 0 0 1 117.97985977 617.85464845C117.97985977 476.72515101 172.90022542 344.04493933 272.6282172 244.2641402A524.54230277 524.54230277 0 0 1 646.06030182 89.53657051a524.54230277 524.54230277 0 0 1 373.43208459 154.72756969A525.01757538 525.01757538 0 0 1 1174.14074385 617.85464845c0 115.83444504-37.54651905 225.67517715-105.98574469 316.61062932zM329.21203658 564.80896835a52.80804421 52.80804421 0 1 1 0 105.61608841 52.80804421 52.80804421 0 0 1 0-105.61608841z m55.44844641-208.56537052a52.80804421 52.80804421 0 1 1 74.69697856 74.64417037 52.80804421 52.80804421 0 0 1-74.69697856-74.64417037zM593.25225761 300.76874732a52.80804421 52.80804421 0 1 1 105.58968432-0.02640408A52.80804421 52.80804421 0 0 1 593.25225761 300.76874732z m198.03016576 197.34366134s-54.76194198 253.24097629-76.62447226 291.13074756a79.2120663 79.2120663 0 0 1-137.19529861-79.21206631c21.86253027-37.88977209 213.81977087-211.91868123 213.81977087-211.91868125z m116.15129318-141.86881083a52.78164012 52.78164012 0 1 1-74.67057447 74.67057446 52.80804421 52.80804421 0 1 1 74.67057447-74.67057446zM962.90856704 564.80896835a52.80804421 52.80804421 0 1 1 0 105.61608841 52.80804421 52.80804421 0 0 1 0-105.61608841z" p-id="24182"></path></svg>