<?xml version="1.0" standalone="no"?><!DOCTYPE svg PUBLIC "-//W3C//DTD SVG 1.1//EN" "http://www.w3.org/Graphics/SVG/1.1/DTD/svg11.dtd"><svg t="1564750804326" class="icon" viewBox="0 0 1024 1024" version="1.1" xmlns="http://www.w3.org/2000/svg" p-id="7060" xmlns:xlink="http://www.w3.org/1999/xlink" width="200" height="200"><defs><style type="text/css"></style></defs><path d="M563.2 367.104A154.0096 154.0096 0 0 1 656.896 460.8h231.4752A409.4976 409.4976 0 0 0 563.2 136.2944v230.8608zM563.2 512a51.2 51.2 0 1 0-102.4 0 51.2 51.2 0 0 0 102.4 0zM460.8 367.104V24.576l54.016 2.9184c259.7888 14.2336 467.968 222.0544 482.4576 481.6384L1000.2432 563.2H656.896A153.6512 153.6512 0 1 1 460.8 367.104zM333.2096 42.752a51.2 51.2 0 0 1 36.864 95.5392 399.1552 399.1552 0 1 0 509.3376 532.2752 51.2 51.2 0 0 1 93.7984 41.0624 501.4528 501.4528 0 0 1-459.52 300.4928C236.7488 1012.0704 12.288 787.5584 12.288 510.6688A501.5552 501.5552 0 0 1 333.2096 42.7008z" fill="#2C6DD2" p-id="7061"></path><path d="M888.3712 460.8A409.4976 409.4976 0 0 0 563.2 136.2944v230.8608A154.0096 154.0096 0 0 1 656.896 460.8h231.4752z" fill="#20C997" p-id="7062"></path></svg>