<?xml version="1.0" standalone="no"?><!DOCTYPE svg PUBLIC "-//W3C//DTD SVG 1.1//EN" "http://www.w3.org/Graphics/SVG/1.1/DTD/svg11.dtd"><svg t="1569818508679" class="icon" viewBox="0 0 1024 1024" version="1.1" xmlns="http://www.w3.org/2000/svg" p-id="31694" xmlns:xlink="http://www.w3.org/1999/xlink" width="200" height="200"><defs><style type="text/css"></style></defs><path d="M512 119.65833333c106.0875 0 206.04166667 11.7875 281.65416667 33.25416667 34.30833333 9.775 62.29166667 21.17916667 80.97916666 33.25416667 17.825 11.5 20.4125 18.87916667 20.7 19.74166666-0.19166667 0.8625-2.875 8.24166667-20.7 19.74166667-18.6875 11.97916667-46.67083333 23.47916667-80.97916666 33.25416667-75.6125 21.37083333-175.56666667 33.25416667-281.65416667 33.25416666s-206.04166667-11.7875-281.65416667-33.25416666c-34.30833333-9.775-62.29166667-21.17916667-80.97916666-33.25416667-17.825-11.5-20.4125-18.87916667-20.7-19.74166667 0.19166667-0.8625 2.875-8.24166667 20.7-19.74166666 18.6875-11.97916667 46.67083333-23.47916667 80.97916666-33.25416667 75.6125-21.46666667 175.56666667-33.25416667 281.65416667-33.25416667m0-38.33333333c-232.875 0-421.66666667 55.775-421.66666667 124.58333333s188.79166667 124.58333333 421.66666667 124.58333334 421.66666667-55.775 421.66666667-124.58333334-188.79166667-124.58333333-421.66666667-124.58333333zM128.66666667 203.8H90.33333333v614.29166667h38.33333334v-614.29166667z m805-0.2875h-38.33333334v614.29166667h38.33333334v-614.29166667zM895.33333333 817.70833333v0.47916667c-0.19166667 0.8625-2.875 8.24166667-20.7 19.74166667-18.6875 11.97916667-46.67083333 23.47916667-80.97916666 33.25416666-75.6125 21.37083333-175.56666667 33.15833333-281.65416667 33.15833334s-206.04166667-11.7875-281.65416667-33.25416667c-34.30833333-9.775-62.29166667-21.17916667-80.97916666-33.25416667-17.825-11.5-20.4125-18.87916667-20.7-19.74166666v-0.2875l-38.33333334 0.2875v0.09583333c0 68.80833333 188.79166667 124.58333333 421.66666667 124.58333333s421.66666667-55.775 421.66666667-124.58333333v-0.38333333l-38.33333334-0.09583334z m0-201.72916666v0.47916666c-0.19166667 0.8625-2.875 8.24166667-20.7 19.74166667-18.6875 11.97916667-46.67083333 23.47916667-80.97916666 33.25416667C718.04166667 690.825 618.0875 702.70833333 512 702.70833333s-206.04166667-11.7875-281.65416667-33.25416666c-34.30833333-9.775-62.29166667-21.17916667-80.97916666-33.25416667-17.825-11.5-20.4125-18.87916667-20.7-19.74166667v-0.2875l-38.33333334 0.2875v0.09583334c0 68.80833333 188.79166667 124.58333333 421.66666667 124.58333333s421.66666667-55.775 421.66666667-124.58333333v-0.38333334l-38.33333334-0.19166666z m0-212.27083334v0.47916667c-0.19166667 0.8625-2.875 8.24166667-20.7 19.74166667-18.6875 11.97916667-46.67083333 23.47916667-80.97916666 33.25416666-75.6125 21.37083333-175.56666667 33.25416667-281.65416667 33.25416667s-206.04166667-11.7875-281.65416667-33.25416667c-34.30833333-9.775-62.29166667-21.17916667-80.97916666-33.25416666-17.825-11.5-20.4125-18.87916667-20.7-19.74166667v-0.2875l-38.33333334 0.2875v0.09583333c0 68.80833333 188.79166667 124.58333333 421.66666667 124.58333334s421.66666667-55.775 421.66666667-124.58333334v-0.38333333l-38.33333334-0.19166667z" fill="" p-id="31695"></path></svg>