<?xml version="1.0" standalone="no"?><!DOCTYPE svg PUBLIC "-//W3C//DTD SVG 1.1//EN" "http://www.w3.org/Graphics/SVG/1.1/DTD/svg11.dtd"><svg t="1569818564954" class="icon" viewBox="0 0 1024 1024" version="1.1" xmlns="http://www.w3.org/2000/svg" p-id="32639" xmlns:xlink="http://www.w3.org/1999/xlink" width="200" height="200"><defs><style type="text/css"></style></defs><path d="M481.844 929.988H231.507c-35.841 0-65-29.159-65-65V163.724c0-35.841 29.159-65 65-65H792.66c35.841 0 65 29.159 65 65v392.041c0 8.284 6.716 15 15 15s15-6.716 15-15V163.724c0-52.383-42.617-95-95-95H231.507c-52.383 0-95 42.617-95 95v701.265c0 52.383 42.617 95 95 95h250.336c8.284 0 15-6.716 15-15s-6.715-15.001-14.999-15.001z" fill="" p-id="32640"></path><path d="M703.139 332.719H319.868c-8.284 0-15 6.716-15 15s6.716 15 15 15h383.271c8.284 0 15-6.716 15-15s-6.716-15-15-15zM587.139 483.927c8.284 0 15-6.716 15-15s-6.716-15-15-15H319.868c-8.284 0-15 6.716-15 15s6.716 15 15 15h267.271zM639.304 592.719h-64.987c-29.104 0-52.783 23.679-52.783 52.783v64.988c0 29.104 23.679 52.783 52.783 52.783h64.987c29.104 0 52.783-23.679 52.783-52.783v-64.988c0-29.105-23.679-52.783-52.783-52.783z m22.783 117.771c0 12.563-10.221 22.783-22.783 22.783h-64.987c-12.563 0-22.783-10.221-22.783-22.783v-64.988c0-12.563 10.221-22.783 22.783-22.783h64.987c12.563 0 22.783 10.221 22.783 22.783v64.988zM835.109 592.719h-64.987c-29.105 0-52.784 23.679-52.784 52.783v64.988c0 29.104 23.679 52.783 52.784 52.783h64.987c29.104 0 52.783-23.679 52.783-52.783v-64.988c0.001-29.105-23.678-52.783-52.783-52.783z m22.784 117.771c0 12.563-10.221 22.783-22.783 22.783h-64.987c-12.563 0-22.784-10.221-22.784-22.783v-64.988c0-12.563 10.221-22.783 22.784-22.783h64.987c12.563 0 22.783 10.221 22.783 22.783v64.988zM639.304 789.079h-64.987c-29.104 0-52.783 23.679-52.783 52.784v64.987c0 29.104 23.679 52.783 52.783 52.783h64.987c29.104 0 52.783-23.679 52.783-52.783v-64.987c0-29.105-23.679-52.784-52.783-52.784z m22.783 117.772c0 12.563-10.221 22.783-22.783 22.783h-64.987c-12.563 0-22.783-10.221-22.783-22.783v-64.987c0-12.563 10.221-22.784 22.783-22.784h64.987c12.563 0 22.783 10.221 22.783 22.784v64.987zM835.109 789.079h-64.987c-29.105 0-52.784 23.679-52.784 52.784v64.987c0 29.104 23.679 52.783 52.784 52.783h64.987c29.104 0 52.783-23.679 52.783-52.783v-64.987c0.001-29.105-23.678-52.784-52.783-52.784z m22.784 117.772c0 12.563-10.221 22.783-22.783 22.783h-64.987c-12.563 0-22.784-10.221-22.784-22.783v-64.987c0-12.563 10.221-22.784 22.784-22.784h64.987c12.563 0 22.783 10.221 22.783 22.784v64.987z" fill="" p-id="32641"></path></svg>