<?xml version="1.0" standalone="no"?><!DOCTYPE svg PUBLIC "-//W3C//DTD SVG 1.1//EN" "http://www.w3.org/Graphics/SVG/1.1/DTD/svg11.dtd"><svg t="1569818491475" class="icon" viewBox="0 0 1024 1024" version="1.1" xmlns="http://www.w3.org/2000/svg" p-id="31333" xmlns:xlink="http://www.w3.org/1999/xlink" width="200" height="200"><defs><style type="text/css"></style></defs><path d="M511.07179762 941.265054c-58.02909392 0-114.32828788-11.36790812-167.33341704-33.78598896-51.19187338-21.65119758-97.16364854-52.64620458-136.6394762-92.12105092-39.47484633-39.47582767-70.46887296-85.44858321-92.12105092-136.64045658-22.41906121-53.00709087-33.78696933-109.30824654-33.78696933-167.33930121 0-58.03007429 11.36692775-114.32926921 33.78696933-167.33537875 21.65217892-51.19187338 52.64620458-97.16364854 92.12203225-136.63849487 39.47484633-39.47484633 85.4466215-70.46789162 136.63849487-92.12007054 53.00512917-22.41808083 109.30432408-33.78598896 167.33341705-33.78598896 58.03007429 0 114.33024958 11.36692775 167.33537874 33.78598896 51.19187338 21.65119758 97.16364854 52.64522421 136.63849488 92.12007054 39.47484633 39.47484633 70.46789162 85.4466215 92.12007054 136.63849487 22.41808083 53.00512917 33.78598896 109.30530446 33.78598896 167.33537875 0 58.032036-11.36790812 114.33221033-33.78598896 167.33930121-21.65119758 51.19187338-52.64522421 97.16462892-92.12007054 136.63947621-39.47484633 39.47582767-85.4466215 70.46985333-136.63849488 92.12203225C625.40204721 929.89714588 569.10089058 941.265054 511.07179762 941.265054zM511.07179762 105.38152225c-223.86797192 0-405.99771446 182.12974254-405.99771445 405.99673408 0 223.870914 182.12974254 406.00359863 405.99771445 406.00359863 223.86699154 0 405.99673408-182.13268463 405.99673409-406.00359863C917.06853171 287.51126479 734.93878917 105.38152225 511.07179762 105.38152225z" p-id="31334"></path><path d="M493.55607863 244.55014171l24.51671104 0 0 308.91055817-24.51671104 0 0-308.91055817Z" p-id="31335"></path><path d="M493.55607863 541.69267896l271.64515795 0 0 24.51671104-271.64515796 0 1e-8-24.51671104Z" p-id="31336"></path></svg>