<?xml version="1.0" standalone="no"?><!DOCTYPE svg PUBLIC "-//W3C//DTD SVG 1.1//EN" "http://www.w3.org/Graphics/SVG/1.1/DTD/svg11.dtd"><svg t="1569813584983" class="icon" viewBox="0 0 1024 1024" version="1.1" xmlns="http://www.w3.org/2000/svg" p-id="14460" xmlns:xlink="http://www.w3.org/1999/xlink" width="200" height="200"><defs><style type="text/css"></style></defs><path d="M689.39660772 842.2116168c-12.29925735-0.0977401-22.22268201-10.17435344-22.13246088-22.47361078 0.09398108-12.2973783 10.17247346-22.22080296 22.47173173-22.13246088a22.14749789 22.14749789 0 0 1 11.82371481 3.51018042c2.23016297-18.23508001 8.89809501-35.09616243 18.88918576-49.47709264-0.15036917-0.06766608-0.29791884-0.14191068-0.45016798-0.2105172-8.83700745-139.15819998-117.95802812-251.80161766-256.15198508-265.57073458l0.18796123-24.447206c84.953877-12.13761111 150.84940213-84.83640135 151.52324435-173.20553725 0.73492886-97.34147643-77.85927157-177.1320517-175.19698898-177.8763795-97.34335549-0.73586931-177.13957066 77.85833205-177.87825946 175.19698898-0.67290178 88.37101588 64.11365108 162.06506176 148.87580691 175.49208833l-0.18514174 24.43686846C273.58452621 497.05800468 163.25679408 606.82091358 151.21880212 744.70003565c-29.88775058 9.68847336-51.68282059 37.62988233-51.93468796 70.72707499-0.31295584 41.34212146 33.06241918 75.22781158 74.40548016 75.54358601 41.34400051 0.31295584 75.22969156-33.06241918 75.54452645-74.40548016 0.23495223-31.03525536-18.51796185-57.86299259-45.37201498-69.44705664 10.62640046-109.76572841 97.72021839-197.19505724 206.90890514-208.72085321l-0.8101139 106.87957971c-27.95456693 10.73165861-47.9743414 37.68533089-48.21681076 69.40100608-0.31389537 41.33272345 33.06241918 75.21747404 74.40453973 75.53324939 41.34118102 0.31389537 75.23063108-33.06147965 75.54452737-74.39420218 0.2462293-32.42428997-20.26882327-60.18525667-49.05605916-70.8454911l0.80541444-106.17190444c108.27895277 13.08775572 193.65386327 100.73230123 203.5697699 209.63716478-30.13961887 9.53716375-52.16588117 37.61202582-52.41962943 70.89717972-0.31389537 41.34306099 33.06617821 75.22781158 74.40829966 75.54264741a74.49006323 74.49006323 0 0 0 37.18723331-9.58791378c-11.24291415-13.54826124-19.31209922-29.822904-23.07508745-47.68488013a22.19260892 22.19260892 0 0 1-13.71648692 4.6078747z m-515.30571638-3.9077184c-12.29831782-0.0977401-22.22550152-10.17529296-22.13340042-22.4830088 0.09304063-12.28891981 10.17435344-22.22268201 22.47173173-22.12494284 12.2973783 0.09116158 22.22550152 10.17717293 22.13433993 22.46609274-0.0949206 12.29925735-10.17529296 22.2311405-22.47267124 22.1418589z m262.45997211-100.76801333c-12.29643785-0.08646211-22.22738149-10.17341391-22.13246088-22.46327323 0.09398108-12.2973783 10.17435344-22.2311405 22.4736117-22.13340041 12.29831782 0.09116158 22.22268201 10.16777491 22.13246088 22.47361078-0.09398108 12.29079886-10.17529296 22.22362247-22.4736117 22.12306286z m1.52906715-326.80763497c-68.2976728-0.52065356-123.44180376-56.50215202-122.92491015-124.79982483 0.51783406-68.29955277 56.50591105-123.44556279 124.80358478-122.92772872 68.2976728 0.52065356 123.44556279 56.51061051 122.92490922 124.80170388-0.51971311 68.30425132-56.50591105 123.44650231-124.80358385 122.92584967z" p-id="14461"></path><path d="M901.79962605 795.26166554h-64.22172872v-64.21984875c0-11.73255416-9.48077565-21.23306537-21.35242099-21.23306537-11.7936408 0-21.36369898 9.74016199-21.36369807 21.25092188v64.20105271H730.94548644c-11.85566881 0-21.50654918 9.55971972-21.50654918 21.35430096 0 11.87258487 9.50051122 21.35336052 21.29509246 21.35336052h64.12774855V902.10835266c0 11.76450723 9.46573865 21.29227296 21.36369807 21.29227295 11.78142421 0 21.352421-9.65933887 21.35242099-21.51406723v-15.37712629V837.96744705h64.20105272c11.51075897 0 21.24716285-9.57193724 21.24716285-21.35336052 0.00093953-11.87164534-9.50521068-21.352421-21.22648685-21.352421z" p-id="14462"></path></svg>