<?xml version="1.0" standalone="no"?><!DOCTYPE svg PUBLIC "-//W3C//DTD SVG 1.1//EN" "http://www.w3.org/Graphics/SVG/1.1/DTD/svg11.dtd"><svg t="1569818783150" class="icon" viewBox="0 0 1024 1024" version="1.1" xmlns="http://www.w3.org/2000/svg" p-id="35723" xmlns:xlink="http://www.w3.org/1999/xlink" width="200" height="200"><defs><style type="text/css"></style></defs><path d="M715.60009953 88.68979167c62.69384723 0 111.7843125 29.00928241 138.68126853 82.40889352 2.45029861 4.84426852 3.40788658 9.63220833 4.33731018 14.30749073 1.97150464 9.71670139 4.92876158 24.44665741 26.78429861 50.63950464 31.96653935 38.30351852 26.38999769 79.28265047 21.91186574 112.20677777-1.15473842 8.59012731-2.3376412 17.12392592-2.84459953 25.54506714-1.63353241 27.85454398 3.49237964 36.24752083 17.15209027 58.66634489 2.76010648 4.59078935 5.80185648 9.54771527 9.04075694 15.12425695 20.84162036 35.99404167 20.02485417 80.01492361-2.16865508 117.7551551-25.48873842 43.3449375-72.72035648 69.1998125-126.28895371 69.1998125-45.37277083 0-95.28000231-0.98575231-124.45827083-1.71802547 7.604375 44.0490463 22.39065973 136.00565509 22.39065971 185.40592825 0 81.53579861-59.00431714 110.46058797-109.53116434 110.46058796-56.04706019 0-99.92712036-51.6534213-99.92712037-117.58616898 0-50.97747685 0-57.51160648-20.22200463-85.45064352-53.34328241-73.73427315-107.78497453-125.21870833-132.28796066-125.21870834L165.01518519 600.43606481c-43.17595139 0-78.3250625-34.67031714-78.3250625-77.25481712L86.69012269 165.97277315c0-42.61266435 35.12094676-77.28298148 78.3250625-77.28298148l117.83964814 0c11.3502338 0 20.5881412 9.12525 20.5881412 20.33466203l0 450.8267801 34.69848149 0c54.72333565 0 127.35919908 89.14017361 165.83170371 142.2581412 27.88270833 38.50066898 27.88270833 56.30053935 27.88270833 109.05237036 0 42.41551389 26.33366898 76.94500926 58.7790023 76.94500928 20.50364815 0 68.32671759-6.7876088 68.32671761-69.81942825 0-61.45461575-25.82671065-201.29062269-26.10835417-202.69884028-1.12657408-6.0271713 0.56328703-12.25149306 4.64711805-16.89861111 4.05566667-4.64711806 9.40689352-7.29456714 16.25083101-7.04108797 0.7604375 0 79.8459375 2.3376412 148.45429862 2.33764121 38.75414815 0 72.63586342-18.33499306 90.66104861-48.97780788 14.75812036-25.06627315 15.51855786-53.9347338 2.02783333-77.19848842-3.04175-5.29489815-5.91451389-10.02650926-8.61829166-14.36381944-14.70179167-24.16501389-25.29158797-41.59874769-22.92578241-81.95826389 0.53512269-9.46322223 1.83068286-19.0109375 3.12624306-28.61498147 4.11199536-30.24851389 7.6607037-56.38503241-12.8711088-81.00067594-28.47415973-34.13519444-32.81146991-55.70908797-35.37442592-68.58019676-0.36613658-1.74618981-0.59145139-3.26706481-1.23923149-4.90059721-13.54705325-26.95328473-42.13387036-59.08881019-101.36350231-59.0888102l-278.74259028 0c-11.3502338 0-20.5881412-9.09708565-20.5881412-20.30649768 0-11.23757639 9.23790741-20.33466203 20.5881412-20.33466204L715.60009953 88.66162731 715.60009953 88.68979167zM165.01518519 559.8512338l97.25150695 0L262.26669214 129.35911574 165.01518519 129.35911574c-20.44731944 0-37.12061574 16.41981714-37.12061575 36.64182176L127.89456944 523.26574075C127.86640509 543.43141667 144.53970139 559.8512338 165.01518519 559.8512338L165.01518519 559.8512338zM165.01518519 559.8512338" p-id="35724"></path></svg>