<?xml version="1.0" standalone="no"?><!DOCTYPE svg PUBLIC "-//W3C//DTD SVG 1.1//EN" "http://www.w3.org/Graphics/SVG/1.1/DTD/svg11.dtd"><svg t="1569816745838" class="icon" viewBox="0 0 1024 1024" version="1.1" xmlns="http://www.w3.org/2000/svg" p-id="19430" xmlns:xlink="http://www.w3.org/1999/xlink" width="200" height="200"><defs><style type="text/css"></style></defs><path d="M389.90941234 537.47559507h-29.80163949v-15.38149137h29.80163949c13.93947655 0 24.51425185-8.17141729 24.51425185-18.74619259s-11.05544692-18.74619259-24.51425185-18.74619259h-16.34283457l36.05037038-62.00663704c3.84537285-6.24873086 4.80671605-13.93947655 3.36470123-20.1882074-0.96134322-4.80671605-4.32604444-9.13276049-8.65208889-11.53611852-9.6134321-5.28738766-23.55290864 0-29.8016395 11.53611852L349.05232592 449.51269136c-9.13276049 16.82350618-9.6134321 18.26552099-9.6134321 18.26552098l-0.48067159 0.96134322c-12.01679012-23.55290864-34.12768395-64.40999507-35.08902716-66.81335309-6.24873086-11.53611852-20.66887901-16.82350618-30.28231112-11.05544691-4.32604444 2.88402964-7.69074567 7.21007408-9.1327605 12.01679011-1.92268642 6.24873086-0.4806716 13.45880493 2.88402963 19.70753581l33.64701235 58.16126419 1.92268642 3.36470125h-17.78484938c-13.93947655 0-24.51425185 8.17141729-24.51425185 18.74619259s11.05544692 18.74619259 24.51425185 18.74619259h31.72432593v15.38149136h-31.72432593c-13.93947655 0-24.51425185 8.17141729-24.51425185 19.2268642 0 10.0941037 9.6134321 17.78484938 23.07223704 18.74619259h33.64701234v20.18820741c0 13.45880493 9.6134321 24.51425185 21.63022223 24.51425185s21.63022223-10.57477531 21.63022221-24.03358025V574.48730864h34.60835556c12.01679012-1.92268642 19.70753581-9.13276049 19.70753581-18.26552098-0.4806716-10.57477531-11.05544692-18.74619259-24.99492347-18.74619259z" fill="" p-id="19431"></path><path d="M798.48027654 363.95314567c77.8688 0 141.31745185-63.44865185 141.31745187-141.31745185s-63.44865185-141.31745185-141.31745187-141.31745184-141.31745185 63.44865185-141.31745185 141.31745184c0 12.49746174 1.44201481 24.03358025 4.32604445 35.56969877l-130.26200495 86.52088889c-5.28738766-6.24873086-10.57477531-12.49746174-16.82350617-18.26552099-47.58648889-47.58648889-110.55446914-73.54275556-177.84849383-73.54275556s-130.26200493 25.95626667-177.84849383 73.54275556c-47.58648889 47.58648889-73.54275556 110.55446914-73.54275555 177.84849384s25.95626667 130.26200493 73.54275555 177.84849382c47.58648889 47.58648889 110.55446914 73.54275556 177.84849383 73.54275555 66.81335309 0 129.78133333-25.95626667 177.36782223-73.06208395l137.95275061 96.134321c-5.76805925 13.45880493-8.65208889 28.8402963-8.65208888 44.22178766 0 21.63022223 5.76805925 41.81842964 16.34283456 59.1226074h-131.22334814c-15.38149136 0-28.35962469 12.49746174-28.35962468 28.35962468 0 15.38149136 12.49746174 28.35962469 28.35962468 28.3596247h232.16438518c63.44865185-0.96134322 114.39984198-52.39320493 114.39984199-115.84185678 0-63.92932346-51.91253333-115.84185678-115.84185681-115.84185681-27.87895308 0-53.35454815 9.6134321-73.06208394 25.95626666l-136.5107358-95.17297777c24.99492345-39.89574322 38.4537284-86.04021729 38.45372839-134.10737778 0-39.4150716-9.13276049-77.8688-25.95626667-111.99648394l124.97461728-83.15618766c26.43693826 33.64701234 66.33268148 55.27723457 111.51581236 55.27723456z m1e-8-233.6064c50.95119011 0 92.28894815 41.33775802 92.28894814 92.28894815S849.43146667 314.92464198 798.48027654 314.92464198s-92.28894815-41.33775802-92.28894813-92.28894816 41.33775802-92.28894815 92.28894814-92.28894815z m-38.9344 633.52517532c32.68566914 0 59.12260741 26.43693826 59.1226074 59.12260741s-26.43693826 59.12260741-59.1226074 59.12260741-59.12260741-26.43693826-59.12260741-59.12260741 26.43693826-59.12260741 59.12260741-59.12260741zM337.51620741 699.46192592c-107.67043951 0-195.1526716-87.4822321-195.1526716-195.15267159 0-107.67043951 87.4822321-195.1526716 195.1526716-195.15267162s195.1526716 87.4822321 195.1526716 195.15267162C532.18820741 611.97969382 444.70597531 699.46192592 337.51620741 699.46192592z" fill="" p-id="19432"></path></svg>