<?xml version="1.0" standalone="no"?><!DOCTYPE svg PUBLIC "-//W3C//DTD SVG 1.1//EN" "http://www.w3.org/Graphics/SVG/1.1/DTD/svg11.dtd"><svg t="1569814242579" class="icon" viewBox="0 0 1024 1024" version="1.1" xmlns="http://www.w3.org/2000/svg" p-id="16166" xmlns:xlink="http://www.w3.org/1999/xlink" width="200" height="200"><defs><style type="text/css"></style></defs><path d="M243.15845944 780.84154056l268.84154056 1e-8 0 38.40593471-268.84154056 0-1e-8-38.40593471Z" p-id="16167"></path><path d="M780.84154056 780.84154056L780.84154056 819.24747444 857.65340916 819.24747444 857.65340916 89.53472223 281.56439416 89.53472223 281.56439416 166.34659084 319.97032805 166.34659084 319.97032805 127.94065694 819.24747444 127.94065694 819.24747444 780.84154056Z" p-id="16168"></path><path d="M243.15845944 665.62373722l422.46527778 1e-8 1e-8 38.40593472-422.4652778 0 1e-8-38.40593472Z" p-id="16169"></path><path d="M166.34659084 212.81777139l-1e-8 713.58225971C166.34659084 930.85511972 169.87993694 934.46527777 174.25821361 934.46527777l560.22736389 0C738.90225973 934.46527777 742.43560584 930.89352611 742.43560584 926.40003194L742.43560584 212.81777139C742.43560584 208.36268278 738.90225973 204.75252556 734.52398389 204.75252556L174.25821361 204.75252556C169.87993694 204.75252556 166.34659084 208.32427721 166.34659084 212.81777139zM204.75252556 243.15845944l499.27714639-1e-8 0 652.90088363L204.75252556 896.05934306 204.75252556 243.15845944z" p-id="16170"></path><path d="M243.15845944 319.97032805l422.46527778 0 1e-8 38.40593473-422.4652778 0 1e-8-38.40593473Z" p-id="16171"></path><path d="M243.15845944 435.18813138l422.46527778 0 1e-8 38.40593473-422.4652778 0 1e-8-38.40593473Z" p-id="16172"></path><path d="M243.15845944 550.40593471l422.46527778 0 1e-8 38.40593473-422.4652778 0 1e-8-38.40593473Z" p-id="16173"></path></svg>