<?xml version="1.0" standalone="no"?><!DOCTYPE svg PUBLIC "-//W3C//DTD SVG 1.1//EN" "http://www.w3.org/Graphics/SVG/1.1/DTD/svg11.dtd"><svg t="1569817119112" class="icon" viewBox="0 0 1024 1024" version="1.1" xmlns="http://www.w3.org/2000/svg" p-id="24744" xmlns:xlink="http://www.w3.org/1999/xlink" width="200" height="200"><defs><style type="text/css"></style></defs><path d="M942.9721476 520.91604604c0 84.50823533-68.75626635 153.25587052-153.27313285 153.25587052l-156.57888792 0c-9.52886203 0-17.2624319-7.73356987-17.26243191-17.2624319 0-9.53749319 7.73356987-17.2624319 17.26243191-17.2624319l156.57888792 0c65.47640392 0 118.74826905-53.26323397 118.74826905-118.73100672 0-65.30377981-53.00429736-118.46343897-118.25628935-118.73100672-0.35388024 0.0258935-0.69049731 0.04315582-1.02711437 0.05178698-5.01473645 0.12083714-9.85684878-1.93339247-13.23165402-5.65344679-3.37480524-3.71142314-4.97158063-8.71752842-4.3587638-13.70637052 1.12205803-9.11456364 1.63993121-16.66687823 1.63993122-23.77900011 0-51.25216019-19.95537099-99.43160755-56.18921615-135.65682071-36.24247549-36.24247549-84.42192286-56.18921616-135.66545187-56.18921616-39.95389863 0-78.22471023 12.18727731-110.66945095 35.24125459-31.72834991 22.55336726-55.6281863 53.72931934-69.10151458 90.15305012-2.04559844 5.51534731-6.75824247 9.61517451-12.50663205 10.87533199-5.74838958 1.25152632-11.74708458-0.50924203-15.90733078-4.67811937-16.26984218-16.30436684-37.9083002-25.28083186-60.93638485-25.28083186-47.50621238 0-86.15679771 38.64195417-86.15679771 86.13953538 0 0.26756776 0.03452465 0.82859677 0.07768133 1.37236346 0.05178698 0.77680979 0.10357481 1.54498758 0.12946829 2.33042852 0.28483008 7.98387445-4.94568714 15.12189066-12.65336268 17.25380073-27.29190479 7.53505142-51.90813283 24.08109252-69.31729535 46.57404081-17.97019154 23.20933993-27.47316008 51.03638025-27.47316008 80.47745745 0 72.74388757 59.20150999 131.9367664 131.95402957 131.9367664l143.37312825 0c9.52886203 0 17.2624319 7.72493786 17.26243189 17.2624319 0 9.52886203-7.73356987 17.2624319-17.26243189 17.2624319l-143.37312825 0c-91.79298132 0-166.47889337-74.67728005-166.47889338-166.4616302 0-37.15738474 11.99739002-72.29506453 34.68885675-101.61530544 19.23898018-24.8492703 45.46061394-43.93288869 74.82401066-54.67012208 4.27245215-62.68852119 56.6380392-112.38706263 120.4054626-112.38706264 23.94299306 0 46.81571507 6.93086659 66.33952535 19.84316585 16.58056576-33.62721687 41.19679379-62.55905289 72.11380926-84.52549765 38.32259858-27.24011782 83.50701444-41.6283545 130.66797776-41.6283545 60.47029864 0 117.3154866 23.545957 160.07453114 66.29636952 42.75904369 42.75904369 66.30500069 99.60423166 66.30500068 160.07453114 0 3.1244998-0.08631248 6.30078743-0.25030543 9.58928102C883.65843164 377.52565546 942.9721476 442.42376804 942.9721476 520.91604604zM610.90337746 772.38652243l-86.0532229 86.04459175c-3.36617408 3.37480524-7.78535685 5.05789227-12.20453963 5.05789227s-8.83836471-1.68308703-12.20453964-5.05789227l-86.0532229-86.04459174c-6.7409793-6.7409793-6.7409793-17.66809912 0-24.40907842s17.66809912-6.74961047 24.40907841 0l56.58625138 56.5776202 0-302.55001246c0-9.52886203 7.72493786-17.2624319 17.2624319-17.26243191 9.53749319 0 17.2624319 7.73356987 17.2624319 17.26243191l0 302.55001246 56.58625138-56.57762021c6.7409793-6.74961047 17.66809912-6.7409793 24.40907842 0S617.64435677 765.64554314 610.90337746 772.38652243z" p-id="24745"></path></svg>