<?xml version="1.0" standalone="no"?><!DOCTYPE svg PUBLIC "-//W3C//DTD SVG 1.1//EN" "http://www.w3.org/Graphics/SVG/1.1/DTD/svg11.dtd"><svg t="1569813418627" class="icon" viewBox="0 0 1024 1024" version="1.1" xmlns="http://www.w3.org/2000/svg" p-id="12313" xmlns:xlink="http://www.w3.org/1999/xlink" width="200" height="200"><defs><style type="text/css"></style></defs><path d="M348.7230108 855.59583072L920.69591106 283.64702314c12.74295852-12.74924374 12.74295852-33.46375274 0-46.21404368l-69.34725309-69.33677807-69.31477978-69.32211324c-12.76600401-12.7670512-33.46375274-12.7670512-46.23918357 0L163.72751802 670.85697784c-3.67047491 2.98435545-6.51027426 7.06126442-7.97050327 11.93532843L92.45075162 893.42560464c-2.68162559 8.95202018-0.02513989 18.23191012 6.14469314 24.40698117l1.71582174 1.33348038 1.33138494 1.71372632c6.17507106 6.16878583 15.45496202 8.82631873 24.4090766 6.15202556l210.6395836-63.31359555C341.62298885 862.23494801 345.7229423 859.32915585 348.7230108 855.59583072zM770.46517805 156.54111993l46.66237788 46.66237787 45.77723171 45.78351694c6.39085802 6.3845728 6.39085802 16.7413042 0 23.10806956l-80.86881505 80.86776785L666.48096103 237.40993395l80.86881505-80.86881505C753.74168131 150.15759432 764.08269964 150.15759432 770.46517805 156.54111993zM151.20034646 868.27489081l49.67082602-165.23840803 442.49543377-442.50381442 115.55291615 115.55291614L316.39161632 818.62082504 151.20034646 868.27489081z" p-id="12314"></path></svg>