<?xml version="1.0" standalone="no"?><!DOCTYPE svg PUBLIC "-//W3C//DTD SVG 1.1//EN" "http://www.w3.org/Graphics/SVG/1.1/DTD/svg11.dtd"><svg t="1569817066272" class="icon" viewBox="0 0 1024 1024" version="1.1" xmlns="http://www.w3.org/2000/svg" p-id="23839" xmlns:xlink="http://www.w3.org/1999/xlink" width="200" height="200"><defs><style type="text/css"></style></defs><path d="M121.13269068 695.93755751L121.13269068 190.10927516c0-39.08673125 29.88985322-68.97658366 68.97658367-68.97658367l505.82828236-1e-8c39.08673125 0 68.97658366 29.88985322 68.97658367 68.97658368l-1e-8 22.99219428 22.99219429 0L787.90633546 190.10927516c0-50.5828284-41.38595036-91.96877876-91.96877875-91.96877877L190.10927516 98.14049639C139.52644675 98.14049639 98.14049639 139.52644675 98.14049639 190.10927516l0 505.82828235c0 50.5828284 41.38595036 91.96877876 91.96877877 91.96877876l22.99219428 0 0-22.99219427L190.10927516 764.91414119C151.0225439 764.91414119 121.13269068 735.02428796 121.13269068 695.93755751zM833.89072484 236.09366454L328.06244249 236.09366454c-50.5828284 0-91.96877876 41.38595036-91.96877876 91.96877875l0 505.82828236c0 50.5828284 41.38595036 91.96877876 91.96877876 91.96877876l505.82828235 0c50.5828284 0 91.96877876-41.38595036 91.96877877-91.96877876L925.85950361 328.06244249C925.85950361 277.47961489 884.47355325 236.09366454 833.89072484 236.09366454zM902.86730932 833.89072484c0 39.08673125-29.88985322 68.97658366-68.97658367 68.97658367L328.06244249 902.86730932c-39.08673125 0-68.97658366-29.88985322-68.97658368-68.97658367L259.08585881 328.06244249c0-39.08673125 29.88985322-68.97658366 68.97658368-68.97658368l505.82828235 1e-8c39.08673125 0 68.97658366 29.88985322 68.97658367 68.97658367L902.86730932 833.89072484z" p-id="23840"></path></svg>