<?xml version="1.0" standalone="no"?><!DOCTYPE svg PUBLIC "-//W3C//DTD SVG 1.1//EN" "http://www.w3.org/Graphics/SVG/1.1/DTD/svg11.dtd"><svg t="1582115842899" class="icon" viewBox="0 0 1024 1024" version="1.1" xmlns="http://www.w3.org/2000/svg" p-id="7457" xmlns:xlink="http://www.w3.org/1999/xlink" width="200" height="200"><defs><style type="text/css"></style></defs><path d="M512 997.45185223C243.88494222 997.45185223 26.54814777 780.11505778 26.54814777 512S243.88494222 26.54814777 512 26.54814777s485.45185223 217.33679445 485.45185223 485.45185223-217.33679445 485.45185223-485.45185223 485.45185223z m0-97.09037113a388.3614811 388.3614811 0 1 0 0-776.7229622 388.3614811 388.3614811 0 0 0 0 776.7229622z m-242.72592555-339.81629553h97.09037a145.63555555 145.63555555 0 0 0 291.2711111 0h97.09037a242.72592555 242.72592555 0 0 1-485.4518511 0z m48.54518443-97.09037114a72.81777778 72.81777778 0 1 1 0-145.63555555 72.81777778 72.81777778 0 0 1 0 145.63555555z m388.36148224 0a72.81777778 72.81777778 0 1 1 0-145.63555555 72.81777778 72.81777778 0 0 1 0 145.63555555z" p-id="7458"></path></svg>