<?xml version="1.0" standalone="no"?><!DOCTYPE svg PUBLIC "-//W3C//DTD SVG 1.1//EN" "http://www.w3.org/Graphics/SVG/1.1/DTD/svg11.dtd"><svg t="1569813659487" class="icon" viewBox="0 0 1024 1024" version="1.1" xmlns="http://www.w3.org/2000/svg" p-id="15750" xmlns:xlink="http://www.w3.org/1999/xlink" width="200" height="200"><defs><style type="text/css"></style></defs><path d="M918.72844618 198.74199652h-283.05173611V251.12769098h83.43689236v82.87360505h-83.43689236v26.40407985h83.43689236v82.97922219h-83.43689236v27.14339411h83.43689236v78.47292534h-83.43689236v31.43845748h83.43689236v78.64895228h-83.43689236v31.43845829h83.43689236v79.10662327h-83.43689236v57.70171531h283.05173611c4.47109113-1.33780644 8.2028672-6.61862241 11.19532986-15.77203649 2.99246266-9.22382551 4.54150173-16.72258418 4.54150173-22.39065973V208.31787588c0-4.50629603-1.54903908-7.21711543-4.54150173-8.16766149a38.72598353 38.72598353 0 0 0-11.19532986-1.40821787zM882.00917272 769.56299741h-135.7873819v-79.03621184h135.7873819v79.10662327-0.07041143z m0-110.47467013h-135.7873819v-78.684158h135.7873819v78.684158z m0-110.12261547h-135.7873819v-78.12087068h135.7873819v78.19128128-0.0704106z m0-105.61631945h-135.7873819V360.47578731h135.7873819v82.90881076-0.03520571z m0-109.80576651h-135.7873819v-82.38072917h135.7873819v82.90881077-0.5280816zM89.53472223 185.68077863v654.85638545l498.50902777 86.21812238V97.24471354L89.53472223 185.96242188v-0.28164325z m295.47925609 495.37574309c-1.90109375-5.13999394-10.84327519-26.96736718-26.68572311-65.58773438a4290.13489583 4290.13489583 0 0 0-28.12914668-67.45362241h-0.88013546l-53.47706334 127.26766493-71.46704255-4.82314498 84.7746988-158.42447916-77.6279948-158.42447917 72.87526042-3.83739322 48.16104167 123.95835332h0.95054687l54.39240451-129.59122396 75.30443577-4.75273437-89.66825521 171.45049216 92.41427952 174.900625-80.93730641-4.75273437v0.07041061z" fill="" p-id="15751"></path></svg>