<?xml version="1.0" standalone="no"?><!DOCTYPE svg PUBLIC "-//W3C//DTD SVG 1.1//EN" "http://www.w3.org/Graphics/SVG/1.1/DTD/svg11.dtd"><svg t="1569818612804" class="icon" viewBox="0 0 1024 1024" version="1.1" xmlns="http://www.w3.org/2000/svg" p-id="33352" xmlns:xlink="http://www.w3.org/1999/xlink" width="200" height="200"><defs><style type="text/css"></style></defs><path d="M512 98.14049639C509.75882954 98.14049639 287.28571514 98.74206624 98.52419427 148.90781156l0 362.24475048 0 0.44866493c0.3445744 4.70344212 6.39975443 75.937049 58.09670312 160.76699302 31.36202584 51.47656447 73.1014882 97.58279102 124.05544753 137.08180069 63.31772504 49.0939753 141.13557717 88.04238372 231.3229373 115.75909786 89.9239038-27.66430999 167.56085485-66.43756046 230.76587513-115.31904719 50.92309124-39.37769065 92.67116786-85.36403456 124.09708404-136.66400468 52.03721557-84.99864188 58.26109344-157.00610621 58.61284654-161.62986502l0-0.44866493L925.47508793 148.90781156C736.71930938 98.74206624 514.24978471 98.14049639 512 98.14049639zM837.47362215 655.22563717c-29.24002105 47.73864848-68.19776151 90.60587475-115.79211932 127.405717-57.49513326 44.47021568-128.00154454 80.25858854-209.6893993 106.46061086-81.85942458-26.23791493-152.53022619-62.16268197-210.20195379-106.87410015C254.13979883 745.2780387 215.19856829 702.28734002 186.04612703 654.43670456 141.05043507 580.60084208 133.83518828 519.28380359 132.98523726 510.16549985L132.98523726 175.7623715C310.47127478 133.39693207 509.20822827 132.6072825 511.99928221 132.60297496c2.78674641 0.00430754 201.52585408 0.7896496 379.01404497 43.15939654l0.00071778 334.34282691C890.10738305 519.4682944 882.60140077 581.51396487 837.47362215 655.22563717z" p-id="33353"></path><path d="M480.49942661 251.04544732L428.81755309 251.04544732 308.18128991 389.05042143 721.65996679 389.05042143 721.65996679 354.5620993 390.00912779 354.5620993Z" p-id="33354"></path><path d="M308.18128991 509.56751895L639.83212808 509.56751895 549.34254786 613.08345314 601.02442139 613.08345314 721.65996679 475.07847901 308.18128991 475.07847901Z" p-id="33355"></path></svg>