<?xml version="1.0" standalone="no"?><!DOCTYPE svg PUBLIC "-//W3C//DTD SVG 1.1//EN" "http://www.w3.org/Graphics/SVG/1.1/DTD/svg11.dtd"><svg t="1569818427794" class="icon" viewBox="0 0 1024 1024" version="1.1" xmlns="http://www.w3.org/2000/svg" p-id="30019" xmlns:xlink="http://www.w3.org/1999/xlink" width="200" height="200"><defs><style type="text/css"></style></defs><path d="M673.94716555 111.54399657v29.28229011c142.98964496 62.47516958 242.91773294 205.1540876 242.91773294 371.17339618 0 223.59933727-181.2642918 404.86267679-404.86299395 404.8626768-223.59902012 0-404.86235966-181.26333953-404.86235966-404.8626768 0-166.0189906 99.92840596-308.69759062 242.9174158-371.1730782v-29.2822901c-158.26351092 64.06498726-269.90813406 219.21964207-269.90813406 400.4553683 0 238.50598108 193.34709685 431.8537122 431.85307792 431.85371221 238.50661619 0 431.85307792-193.34773114 431.85307708-431.85371221 0.00095228-181.23540908-111.64430516-336.39069819-269.90781607-400.45568629z" fill="" p-id="30020"></path><path d="M538.99357508 269.08290135c0 14.90696094-12.08439161 26.99071826-26.99135339 26.99071827-14.90632665 0-26.99071826-12.08375734-26.99071827-26.99071827v-161.94526101c0-14.90664379 12.08439161-26.99071826 26.99071827-26.99071826 14.90696094 0 26.99135254 12.08407447 26.99135339 26.99071826v161.94526101z" fill="" p-id="30021"></path></svg>