<?xml version="1.0" standalone="no"?><!DOCTYPE svg PUBLIC "-//W3C//DTD SVG 1.1//EN" "http://www.w3.org/Graphics/SVG/1.1/DTD/svg11.dtd"><svg t="1569813647197" class="icon" viewBox="0 0 1024 1024" version="1.1" xmlns="http://www.w3.org/2000/svg" p-id="15515" xmlns:xlink="http://www.w3.org/1999/xlink" width="200" height="200"><defs><style type="text/css"></style></defs><path d="M722.2320804 456.34278771c-3.98620235-11.12503072-16.21198013-16.91731346-27.32632341-12.93111111-11.11434326 3.9755149-16.90662601 16.20129268-12.94179764 27.31563595l102.61531346 287.17753569L159.33333333 890.16553569 159.33333333 130.30779765l425.4976766 83.51787895 17.10967661 38.5261617c4.78771726 10.78305059 17.43028275 15.62420235 28.21333333 10.86854562 10.79373712-4.78771726 15.65626288-17.41959621 10.86854562-28.21333334l-21.60884823-48.68937398c-2.83201987-6.36937399-8.58155556-10.95404065-15.42115177-12.30058627L142.07404065 83.36038392C135.82222223 82.12070732 129.3139196 83.77717163 124.37658628 87.82749503 119.44993948 91.88850497 116.58585817 97.93727281 116.58585817 104.33870732l0 812.20201987c0 6.45486902 2.90682837 12.54638393 7.91896928 16.60739386C128.34141373 936.24731346 133.09707045 937.91446431 137.95959621 937.91446431c1.47478771 0 2.96026288-0.16030261 4.42436406-0.45953569l674.97193947-142.78725294c6.02739386-1.28242458 11.22121229-5.1083234 14.23490876-10.48381843 3.00300993-5.38618157 3.5373532-11.79830261 1.47478771-17.61195935L722.2320804 456.34278771z" p-id="15516"></path><path d="M926.8108085 203.80139386c-2.82133333-6.10220235-8.34644444-10.52656549-14.91886902-11.93723216l-149.61616171-32.06060614c-11.57387895-2.44729268-22.9126468 4.88389882-25.38131346 16.42571725s4.88389882 22.90195935 16.42571726 25.38131346l83.04765673 17.8043234c-230.93254562 63.7364851-330.92957542 210.56337399-370.39618156 294.15606053-5.04420235 10.68686902-0.47022223 23.41492955 10.20595934 28.45913098C479.11650497 543.39801987 482.21569739 544.06060614 485.28282837 544.06060614c8.01515176 0 15.69900993-4.52054562 19.34323215-12.24715176 36.91244444-78.18513098 131.83321229-216.53733333 354.32313098-274.10749503l-45.16270732 83.87054562c-5.58923216 10.3983234-1.70989882 23.36149503 8.68842457 28.95072719 3.22743451 1.74195935 6.68998013 2.56484824 10.10977779 2.56484823 7.60905058 0 14.97230261-4.07169739 18.8409494-11.24258628l74.8080804-138.92929268C929.42909125 216.97830261 929.63214183 209.90359621 926.8108085 203.80139386z" p-id="15517"></path></svg>