<?xml version="1.0" standalone="no"?><!DOCTYPE svg PUBLIC "-//W3C//DTD SVG 1.1//EN" "http://www.w3.org/Graphics/SVG/1.1/DTD/svg11.dtd"><svg t="1569813568196" class="icon" viewBox="0 0 1024 1024" version="1.1" xmlns="http://www.w3.org/2000/svg" p-id="14226" xmlns:xlink="http://www.w3.org/1999/xlink" width="200" height="200"><defs><style type="text/css"></style></defs><path d="M424.64152777 770.7140625V320.54975694c0-27.38677083 22.28045139-49.66722223 49.66722223-49.66722221h432.86986285c27.38677083 0 49.66722223 22.28045139 49.66722222 49.66722221V770.7140625c0 27.38677083-22.28045139 49.66722223-49.66722222 49.66722223h-101.61208333v-15.0425191c0-39.43621527-32.09266667-71.52980035-71.53806598-71.52980036s-71.53439236 32.08899306-71.53439236 71.52980036v15.0434375H474.30875c-27.38677083-0.0009184-49.66722223-22.28045139-49.66722223-49.66722223z m309.38693577-66.97911458c50.92176042 0 93.21328993 37.64532986 100.50540798 86.56864583h72.64565973c10.80041667 0 19.58953125-8.78911458 19.58953125-19.58953125V320.54975694c0-10.80500868-8.78911458-19.59412327-19.58953125-19.59412326H474.30875c-10.80041667 0-19.58953125 8.78911458-19.58953125 19.59412326V770.7140625c0 10.80041667 8.78911458 19.58953125 19.58953125 19.58953125h159.21889757c7.29211806-48.92331598 49.58456598-86.56864583 100.50081597-86.56864583zM95.66046875 770.7140625V588.91623264c0-7.23701389 2.19498264-20.41150173 21.17836806-51.15503472 11.50299479-18.62520833 27.46024306-40.78626736 44.92826388-62.39628473 17.523125-21.67981598 35.50085938-41.47139583 50.61317708-55.72959896 25.88977431-24.42032986 37.91166667-27.55208333 45.4930816-27.55208333H405.05199652c27.38677083 0 49.66722223 22.27585938 49.66722223 49.66263021V770.7140625c0 27.38677083-22.28045139 49.66722223-49.66722223 49.66722223h-49.66722221V805.33784723c0-39.43621527-32.09450348-71.52980035-71.53898438-71.52980036s-71.53898438 32.08899306-71.53898437 71.53071875v15.0434375h-66.97911458c-27.38677083 0-49.66722223-22.28045139-49.66722223-49.66722222z m188.18532118-66.97911458c50.92084202 0 93.21237152 37.64992188 100.50448959 86.56864583h20.7007986c10.80041667 0 19.58953125-8.78911458 19.58953125-19.58953125V441.74677952c0-10.80500868-8.78911458-19.59412327-19.58953125-19.59412327H258.48409723c-1.45107639 0.4637934-9.39526042 3.67361111-28.97101563 22.72128473-14.19391493 13.81277777-30.86751736 32.50227431-46.94415799 52.61988715-16.13633681 20.18190104-30.69761285 40.60258681-41.01586805 57.49201389-15.64039931 25.60966146-15.81489583 33.59976563-15.81489583 33.93039062V770.7140625c0 10.80041667 8.78544098 19.58953125 19.58953125 19.58953125h38.01820138c7.28660764-48.92331598 49.57905556-86.56864583 100.49989757-86.56864583zM95.66046875 629.92291667v-41.00668403c0-32.67217882 60.9681684-107.49904514 73.19210937-122.1659375l4.50476563-5.40939237h127.80493056c27.38677083 0 49.66722223 22.27677777 49.66722221 49.65803821v69.26134548c0 27.38217882-22.28045139 49.66263021-49.66722221 49.66263021H95.66046875z m91.83109375-138.51350694c-16.37052952 20.0349566-31.40019098 40.57044271-42.70113715 58.38745659-18.84103298 29.70114583-19.05226563 38.74741319-19.05226562 39.11936632v10.93358507h175.42411458c10.80041667 0 19.58953125-8.78911458 19.58953125-19.58953125V510.99894098c0-10.80041667-8.78911458-19.58953125-19.58953125-19.58953125H187.4915625z m-5.2578559 313.9330295c0-56.02716146 45.58584027-101.60749132 101.61208333-101.60749131s101.61208333 45.58032986 101.61208334 101.60749131S339.87295139 906.94993056 283.84670833 906.94993056s-101.61208333-45.58032986-101.61208333-101.60749133z m30.07309896-0.004592c0 39.44539931 32.09358507 71.53898438 71.53898437 71.53898437s71.53806598-32.09358507 71.53806597-71.53898437c0-39.43621527-32.09358507-71.53071875-71.53806597-71.53071875S212.30680556 765.89703993 212.30680556 805.33784723z m420.11416667 0.004592c0-56.02716146 45.58032986-101.60749132 101.60749131-101.60749131 56.03175348 0 101.61208333 45.58032986 101.61208334 101.60749131s-45.58032986 101.60749132-101.61208334 101.60749133c-56.02716146 0-101.60749132-45.58032986-101.60749131-101.60749133z m30.07309895-0.004592c0 39.44539931 32.08899306 71.53898438 71.53439236 71.53898437s71.53806598-32.09358507 71.53806598-71.53898437c0-39.43621527-32.09358507-71.53071875-71.53898438-71.53071875s-71.53439236 32.08991146-71.53439237 71.53071875z" p-id="14227"></path></svg>