<?xml version="1.0" standalone="no"?><!DOCTYPE svg PUBLIC "-//W3C//DTD SVG 1.1//EN" "http://www.w3.org/Graphics/SVG/1.1/DTD/svg11.dtd"><svg t="1569814296128" class="icon" viewBox="0 0 1024 1024" version="1.1" xmlns="http://www.w3.org/2000/svg" p-id="16523" xmlns:xlink="http://www.w3.org/1999/xlink" width="200" height="200"><defs><style type="text/css"></style></defs><path d="M505.48333333 211.94583333L353.0125 121.38333333 81.51666667 264.55833333l113.75416666 116.53333334L505.48333333 211.94583333 505.48333333 211.94583333 505.48333333 211.94583333zM505.48333333 551.57916667L195.27083333 382.52916667 83.43333333 514.875l291.90833334 172.97916667L505.48333333 551.57916667 505.48333333 551.57916667 505.48333333 551.57916667zM508.74166667 551.57916667l134.8375 135.4125 296.50833333-168.57083334-121.13333333-135.89166666L508.74166667 551.57916667 508.74166667 551.57916667 508.74166667 551.57916667zM647.50833333 739.125L507.1125 603.61666667 378.8875 739.60416667 199.775 628.24583333l0 105.60833334 310.11666667 180.07083333 312.99166666-177.48333333-0.47916666-108.19583334L647.50833333 739.125 647.50833333 739.125 647.50833333 739.125zM940.18333333 264.55833333L661.2125 121.38333333l-152.56666667 90.5625 310.2125 169.05L940.18333333 264.55833333 940.18333333 264.55833333 940.18333333 264.55833333zM940.18333333 264.55833333" p-id="16524"></path></svg>