<?xml version="1.0" standalone="no"?><!DOCTYPE svg PUBLIC "-//W3C//DTD SVG 1.1//EN" "http://www.w3.org/Graphics/SVG/1.1/DTD/svg11.dtd"><svg t="1569818558269" class="icon" viewBox="0 0 1024 1024" version="1.1" xmlns="http://www.w3.org/2000/svg" p-id="32520" xmlns:xlink="http://www.w3.org/1999/xlink" width="200" height="200"><defs><style type="text/css"></style></defs><path d="M916.15 905.748c-7.656-59.979-28.098-116.23-60.758-167.194-28.123-43.884-65.115-82.581-107.684-112.822 58.704-61.02 90.967-140.973 90.967-225.892 0-87.081-33.911-168.949-95.486-230.524S599.745 73.83 512.665 73.83c-87.08 0-168.948 33.911-230.523 95.486s-95.486 143.443-95.486 230.524c0 84.914 32.258 164.862 90.956 225.881-92.642 65.618-153.626 166.303-168.301 279.012-1.069 8.215 4.723 15.741 12.938 16.811 8.211 1.073 15.741-4.723 16.811-12.938 13.845-106.329 72.215-201.127 160.759-261.805 49.927 43.164 110.931 69.752 176.236 77.004l0.237 0.026c2.196 0.242 4.396 0.466 6.601 0.664 0.51 0.046 1.022 0.087 1.533 0.131 1.868 0.159 3.737 0.311 5.611 0.438 0.908 0.063 1.819 0.111 2.729 0.167 1.546 0.092 3.091 0.188 4.64 0.259 1.377 0.064 2.756 0.105 4.136 0.151 1.138 0.038 2.274 0.088 3.414 0.114 2.566 0.06 5.136 0.094 7.71 0.094s5.143-0.034 7.71-0.094c1.141-0.026 2.277-0.076 3.416-0.114 1.379-0.047 2.758-0.087 4.134-0.151 1.55-0.071 3.096-0.166 4.643-0.259 0.909-0.055 1.818-0.104 2.726-0.166 1.875-0.128 3.746-0.279 5.614-0.439 0.51-0.044 1.02-0.085 1.529-0.131 2.207-0.198 4.408-0.422 6.605-0.664l0.232-0.026c65.307-7.252 126.311-33.84 176.239-77.004 88.842 60.877 147.256 156.015 160.881 262.745 0.966 7.573 7.422 13.103 14.86 13.103 0.633 0 1.273-0.04 1.918-0.123 8.216-1.048 14.026-8.56 12.977-16.778zM512.665 103.83c163.22 0 296.01 132.79 296.01 296.01 0 140.168-97.93 257.89-228.962 288.348-0.321 0.074-0.644 0.145-0.966 0.218-1.932 0.442-3.872 0.866-5.818 1.27-0.636 0.132-1.273 0.257-1.909 0.385-1.643 0.33-3.291 0.647-4.944 0.95-0.84 0.153-1.682 0.301-2.524 0.447a289.073 289.073 0 0 1-11.425 1.755c-1.052 0.141-2.105 0.279-3.16 0.409-1.316 0.162-2.637 0.31-3.959 0.454-1.089 0.119-2.177 0.239-3.269 0.345-1.319 0.129-2.643 0.242-3.967 0.353-1.087 0.092-2.173 0.188-3.263 0.268-1.382 0.101-2.769 0.182-4.156 0.264-1.029 0.061-2.057 0.13-3.087 0.181-1.562 0.076-3.131 0.127-4.7 0.179-0.861 0.029-1.719 0.07-2.581 0.091-2.434 0.059-4.874 0.093-7.322 0.093s-4.888-0.034-7.322-0.093c-0.862-0.021-1.721-0.062-2.582-0.091-1.568-0.052-3.137-0.103-4.699-0.179-1.031-0.05-2.059-0.12-3.089-0.181-1.386-0.082-2.773-0.163-4.154-0.264-1.09-0.08-2.177-0.176-3.265-0.268-1.323-0.112-2.646-0.224-3.964-0.353-1.092-0.107-2.182-0.227-3.271-0.346-1.32-0.144-2.64-0.292-3.955-0.453-1.056-0.13-2.11-0.268-3.163-0.409a282.502 282.502 0 0 1-11.42-1.753 267.3 267.3 0 0 1-7.466-1.396c-0.639-0.128-1.279-0.254-1.917-0.386a293.693 293.693 0 0 1-5.808-1.268c-0.325-0.074-0.651-0.145-0.976-0.22-131.03-30.46-228.959-148.181-228.959-288.347 0.002-163.223 132.791-296.013 296.012-296.013z" fill="" p-id="32521"></path><path d="M382.357 509.603H643.85c8.284 0 15-6.716 15-15s-6.716-15-15-15H382.357c-8.284 0-15 6.716-15 15s6.716 15 15 15zM382.357 381.799H530.85c8.284 0 15-6.716 15-15s-6.716-15-15-15H382.357c-8.284 0-15 6.716-15 15s6.716 15 15 15z" fill="" p-id="32522"></path></svg>