<?xml version="1.0" standalone="no"?><!DOCTYPE svg PUBLIC "-//W3C//DTD SVG 1.1//EN" "http://www.w3.org/Graphics/SVG/1.1/DTD/svg11.dtd"><svg t="1569818627434" class="icon" viewBox="0 0 1024 1024" version="1.1" xmlns="http://www.w3.org/2000/svg" p-id="33590" xmlns:xlink="http://www.w3.org/1999/xlink" width="200" height="200"><defs><style type="text/css"></style></defs><path d="M934.93422254 555.62844413a20.44444413 20.44444413 0 0 1 1.22666667 5.49955587c3.61866667 44.67111079-0.08177746 115.71555588-11.04 213.76711079a20.44444413 20.44444413 0 0 1-20.32177842 18.19555588H810.28444412a20.44444413 20.44444413 0 1 1 1e-8-40.88888921h76.19644508c6.624-62.56 10.01777746-112.77155588 10.16088825-150.40977746a94.35111079 94.35111079 0 0 1-61.53777746 13.59555587A336.57688921 336.57688921 0 0 1 512 857.71555588 336.57688921 336.57688921 0 0 1 188.93688921 615.38755588a94.35111079 94.35111079 0 0 1-57.93955588-11.44888921c1.43111079 41.37955588 4.55911079 92.94044413 9.36355588 148.24266666h71.55555492a20.44444413 20.44444413 0 0 1 0 40.88888921H121.67466667a20.44444413 20.44444413 0 0 1-20.36266667-18.56355587c-8.01422254-86.80711079-12.02133333-166.56088921-12.144-216.40444413 0-0.67466667 0.04088921-1.34933333 0.10222254-2.04444508a94.53511079 94.53511079 0 0 1-6.58311175-34.75555492c0-17.35733333 4.66133333-33.61066667 12.79822254-47.59466667 1.04266667-2.24888921 1.63555588-3.65955588 1.53333334-3.18933333 13.14577746-65.72888921 36.75911079-134.03377746 74.39733333-184.98133333 95.23022254-128.92266667 181.64888921-179.74755588 263.03822254-146.832 121.35822254-69.71555588 244.82222254-36.75911079 365.056 95.02577746 58.63466667 64.27733333 98.78755588 139.79911079 120.336 226.32l0.32711079 1.5128892A94.392 94.392 0 0 1 941.33333333 521.30222254c0 12.10311079-2.26933333 23.67466667-6.39911079 34.32622158z m-66.77155587-126.65333334a469.62933333 469.62933333 0 0 0-98.86933334-167.66488825C658.17777746 139.50222254 552.50044413 113.49688921 446.53688921 179.08266667a20.44444413 20.44444413 0 0 1-19.83111175 0.94044412c-61.37422254-30.38044413-133.50222254 9.40444413-222.43555492 129.82222254-24.49244413 33.16088921-42.872 76.46222254-55.67022254 121.13333334a94.73955588 94.73955588 0 0 1 40.33688921-3.78222254c2.16711079-7.46222254 4.6-14.84266667 7.27822158-22.12088825a20.44444413 20.44444413 0 0 1 19.36088921-13.39111175c43.30133333 0.34755588 83.904-11.61244413 122.23733333-36.10488825 36.67733333-23.42933333 61.86488921-64.15466667 75.29688921-123.42311175 4.57955588-20.24 32.91555587-21.54844413 39.376-1.84 17.15288921 52.54222254 67.13955587 93.84 152.10666667 123.17777841 87.56355588 30.23733333 154.15111079 41.29777746 198.88355492 33.81511079a20.44444413 20.44444413 0 0 1 22.42755587 12.81866667c3.43466667 8.87288921 6.50133333 17.90933333 9.15911079 27.06844413a95.55733333 95.55733333 0 0 1 33.09955588 1.77866666zM130.40444412 494.96977746a53.89155588 53.89155588 0 0 0 66.07644509 76.76888921 20.44444413 20.44444413 0 0 1 27.19111079 14.63822254C253.72533333 720.14488921 373.05955588 816.82666667 512 816.82666667c138.94044412 0 258.27466667-96.66133333 288.328-230.40888921a20.44444413 20.44444413 0 0 1 27.19111079-14.65866667 53.89155588 53.89155588 0 1 0 0-100.89333333 20.44444413 20.44444413 0 0 1-27.19111079-14.63822159c-2.00355587-8.95466667-4.43644413-17.78666667-7.25777746-26.47555587-51.04977746 4.00711079-118.10755588-8.68888921-201.80711175-37.59733333-71.392-24.656-122.83022254-58.328-153.43555492-101.30222255-17.50044413 43.89422254-43.44444413 77.13688921-77.99555587 99.21688921-40.56177746 25.90311079-83.904 40.03022254-129.72 42.23822254-2.47377746 7.85066667-4.62044413 15.84444412-6.44 23.92a20.44444413 20.44444413 0 0 1-27.19111079 14.63822159 53.87111079 53.87111079 0 0 0-66.07644509 24.12444508zM675.55555588 532.44444413a40.88888921 40.88888921 0 1 1 25.10577745-73.15022159l34.89866667 3.14844413L716.44444413 491.55555587a40.88888921 40.88888921 0 0 1-40.88888825 40.88888825z m-329.76888921-1e-8a40.88888921 40.88888921 0 0 1-40.88888921-40.88888825l-19.11555492-29.1128892 34.87822159-3.14844413A40.88888921 40.88888921 0 1 1 345.78666667 532.44444413z m75.66488921 180.64711176a20.44444413 20.44444413 0 0 1 20.15822158-35.57333334A142.35466667 142.35466667 0 0 0 512 696c24.32888921 0 47.73777746-6.05155588 68.57066667-17.45955587a20.44444413 20.44444413 0 0 1 19.62666666 35.85955587A183.24355587 183.24355587 0 0 1 512 736.88888921a183.24355587 183.24355587 0 0 1-90.54844413-23.79733334z" fill="#3D3D3D" p-id="33591"></path></svg>