<?xml version="1.0" standalone="no"?><!DOCTYPE svg PUBLIC "-//W3C//DTD SVG 1.1//EN" "http://www.w3.org/Graphics/SVG/1.1/DTD/svg11.dtd"><svg t="1569813642615" class="icon" viewBox="0 0 1024 1024" version="1.1" xmlns="http://www.w3.org/2000/svg" p-id="15398" xmlns:xlink="http://www.w3.org/1999/xlink" width="200" height="200"><defs><style type="text/css"></style></defs><path d="M843.82387692 84.14122446L701.00913167 84.14122446l-0.19613346 0.17652021c-0.10787383 0-0.19613346-0.03726575-0.2991035-0.03726575-13.38514325 0-24.40099229 9.87140833-26.39076829 22.68089991l-0.23830204 0.21574671c-7.24125579 31.66872588-17.65987725 73.22847333-51.58021784 73.22847334l-235.92627104-1.45433121c-33.47217504 0-43.48381917-40.98899863-51.18795092-72.03303875-1.30821125-12.82910483-11.56698462-22.89664663-24.50298195-23.87241204l-0.35500213-0.35990496L179.63185204 82.68591192c-19.69574525 0-35.68750533 15.97214683-35.68750533 35.68750533l0 785.31046092c0 19.71437813 15.99077971 35.68652496 35.68750533 35.68652496l664.17241067 1.4543312c19.70064808 0 35.68750533-15.97214683 35.68750533-35.68652495L879.491769 119.82872979C879.51138225 100.11337129 863.50589213 84.14122446 843.82387692 84.14122446L843.82387692 84.14122446 843.82387692 84.14122446zM843.82387692 905.13919071l-664.19202488-1.45433121L179.63185204 118.37439858l121.70683738 0c8.70931608 34.94023629 25.28359333 96.26045292 85.11025225 96.26045292l235.92627104 1.45433121c60.32974175 0 77.33060958-62.10965521 85.23479725-96.26045292L843.80426367 119.82872979l0 785.31046092L843.82387692 905.13919071 843.82387692 905.13919071 843.82387692 905.13919071zM411.54032496 118.48227146l200.39763437 1.45433121c9.8665055 0 17.84130125-7.99833146 17.84130125-17.84620409 0-9.848853-7.97479575-17.84130125-17.84130125-17.84130125L411.54032496 82.79476612c-9.85277546 0-17.84620408 7.99244825-17.84620409 17.84130125C393.69412087 110.48295962 401.6875495 118.48227146 411.54032496 118.48227146L411.54032496 118.48227146 411.54032496 118.48227146zM257.72934488 387.26878146c0 9.84787262 7.99244825 17.84130125 17.84130124 17.84130125l477.0049743 1.45433121c9.8665055 0 17.84620408-7.99342862 17.84620408-17.84130125 0-9.848853-7.97969954-17.84620408-17.84620408-17.84620409l-477.0049743-1.4543312C265.72179217 369.42257642 257.72934488 377.4199275 257.72934488 387.26878146L257.72934488 387.26878146 257.72934488 387.26878146zM752.57562042 541.51125496l-477.0049743-1.45433121c-9.848853 0-17.84130125 7.97479575-17.84130124 17.84130125 0 9.87140833 7.99244825 17.84620408 17.84130125 17.84620408l477.00497429 1.45433121c9.8665055 0 17.84620408-7.97479575 17.84620408-17.84620408C770.4218245 549.48605071 762.44212592 541.51125496 752.57562042 541.51125496L752.57562042 541.51125496 752.57562042 541.51125496zM752.57562042 710.87955963l-477.0049743-1.45433121c-9.848853 0-17.84130125 7.97479575-17.84130124 17.84620408 0 9.8665055 7.99244825 17.84130125 17.84130125 17.84130125l477.00497429 1.45433121c9.8665055 0 17.84620408-7.97479575 17.84620408-17.84130125C770.4218245 718.85435538 762.44212592 710.87955963 752.57562042 710.87955963L752.57562042 710.87955963 752.57562042 710.87955963zM752.57562042 710.87955963" p-id="15399"></path></svg>