<?xml version="1.0" standalone="no"?><!DOCTYPE svg PUBLIC "-//W3C//DTD SVG 1.1//EN" "http://www.w3.org/Graphics/SVG/1.1/DTD/svg11.dtd"><svg t="1569818209959" class="icon" viewBox="0 0 1024 1024" version="1.1" xmlns="http://www.w3.org/2000/svg" p-id="26567" xmlns:xlink="http://www.w3.org/1999/xlink" width="200" height="200"><defs><style type="text/css"></style></defs><path d="M861.30866721 788.29170491L156.82082569 788.29170491c-34.8384231 0-63.17880216-28.34037905-63.17880215-63.17880216L93.64202354 498.04573717l830.85219355 0 0 227.06716558C924.49421709 759.95132585 896.14709032 788.29170491 861.30866721 788.29170491L861.30866721 788.29170491zM122.16459074 526.56155667l0 198.55134608c0 19.10951273 15.55346994 34.66298267 34.66298266 34.66298267l704.48109381 0c19.11626044 0 34.66298267-15.55346994 34.66298267-34.66298267L895.97164988 526.56155667 122.16459074 526.56155667 122.16459074 526.56155667zM924.49421709 455.62288882L93.64202354 455.62288882 93.64202354 314.1639111c0-34.8384231 28.34037905-63.17880216 63.17880215-63.17880216l704.48109382 0c34.8384231 0 63.18554987 28.34037905 63.18554986 63.17880216L924.48746937 455.62288882 924.49421709 455.62288882zM122.16459074 427.10032161l773.80705914 0L895.97164988 314.1639111c0-19.10951273-15.54672223-34.66298267-34.66298267-34.66298266L156.82082569 279.50092844c-19.10951273 0-34.66298267 15.55346994-34.66298267 34.66298266L122.15784302 427.10032161 122.16459074 427.10032161zM122.16459074 427.10032161" p-id="26568"></path><path d="M635.84070874 607.77023807L566.38653694 607.77023807c-13.69784987 0-24.81132709 11.1067295-24.81132709 24.81132708l0 12.07839964c0 13.69784987 11.1067295 24.81132709 24.81132709 24.81132709l69.4541718 0c13.69784987 0 24.81132709-11.1067295 24.8113271-24.81132709l0-12.07839964C660.64528812 618.87696756 649.53855862 607.77023807 635.84070874 607.77023807L635.84070874 607.77023807zM462.19515767 607.45309573L186.84813206 607.45309573c-13.70459758 0-24.80457938 11.1067295-24.80457937 24.81132709l0 12.07839963c0 13.69784987 11.1067295 24.81132709 24.80457937 24.8113271l275.35377332 0c13.69110217 0 24.80457938-11.1067295 24.80457939-24.8113271l0-12.07839963C487.00648477 618.55982523 475.88625985 607.45309573 462.19515767 607.45309573L462.19515767 607.45309573zM462.19515767 607.45309573" p-id="26569"></path></svg>