<?xml version="1.0" standalone="no"?><!DOCTYPE svg PUBLIC "-//W3C//DTD SVG 1.1//EN" "http://www.w3.org/Graphics/SVG/1.1/DTD/svg11.dtd"><svg t="1569813532326" class="icon" viewBox="0 0 1024 1024" version="1.1" xmlns="http://www.w3.org/2000/svg" p-id="13838" xmlns:xlink="http://www.w3.org/1999/xlink" width="200" height="200"><defs><style type="text/css"></style></defs><path d="M727.56359036 371.90575197L727.56359036 371.90575197l60.48975403-38.77456761c-29.13684426-45.35603754-69.02320365-83.10997496-116.10566758-109.67268685l-35.2493511 62.61653791C673.54534865 306.86357181 704.76104627 336.40923205 727.56359036 371.90575197z" p-id="13839"></path><path d="M292.03717217 651.0877144l-60.49069356 38.77550714c29.13590474 45.35697798 69.02414409 83.10997496 116.10566758 109.67268686l35.24935111-62.61747745 0 0C346.05541389 716.12895504 314.83877581 686.58423433 292.03717217 651.0877144z" p-id="13840"></path><path d="M762.44547657 566.76444856l70.23273643 15.36396926c11.46940788-52.67431722 9.96101674-107.57503746-4.54960665-159.64975705l-69.26661436 19.37036728c6.20554747 22.16817389 9.64336234 45.49418919 9.64336234 69.64817582C768.50629294 530.48318928 766.32781951 548.94100402 762.44547657 566.76444856z" p-id="13841"></path><path d="M257.15434644 456.22901781l-70.23273644-15.36396925c-11.47034741 52.67431722-9.96007721 107.57503746 4.54960664 159.64975705l69.26567392-19.36942777c-6.20554747-22.16817389-9.64242281-45.49512964-9.64242281-69.64911534C251.09352914 492.50933757 253.27200258 474.05152283 257.15434644 456.22901781z" p-id="13842"></path><path d="M454.53078638 764.14840655l-15.36208928 70.22709744c52.67431722 11.46846836 107.57409794 9.96101674 159.64881752-4.54960665l-19.4004413-69.37375247c-22.17945097 6.19239042-45.46223612 9.75050045-69.61810181 9.75050045C490.81204566 770.2017058 472.3476524 768.0420284 454.53078638 764.14840655z" p-id="13843"></path><path d="M565.06809618 258.84411938l15.36302881-70.226157c-52.67431722-11.47034741-107.57503746-9.96007721-159.64881753 4.54960665l19.39950178 69.37375247c22.18039141-6.19239042 45.46223612-9.75143997 69.6181018-9.75143997C528.78777735 252.78988152 547.25123015 254.949558 565.06809618 258.84411938z" p-id="13844"></path><path d="M649.31241887 729.13776762l38.85351168 60.61098963c45.35603754-29.13684426 83.10997496-69.02320365 109.67268686-116.10566759l-62.70394047-35.29822114C714.347081 675.18813152 684.80517977 706.33804304 649.31241887 729.13776762z" p-id="13845"></path><path d="M370.28646368 293.85475923l-38.85257214-60.61098963c-45.35697798 29.13590474-83.10997496 69.02414409-109.67268685 116.10566758l62.70300002 35.29822115C305.25274201 347.80345489 334.79370279 316.65542333 370.28646368 293.85475923z" p-id="13846"></path><path d="M509.79897151 511.49626342l0.00093953 0 0 0.00093953-0.00093953 0 0-0.00093953Z" p-id="13847"></path><path d="M509.79897151 511.49626342l-69.61716227-248.95494192c-25.04492366 6.99216587-48.53352655 17.59131182-69.89534556 31.31343773L509.79897151 511.49626342 509.79897151 511.49626342z" p-id="13848"></path><path d="M758.8629306 441.84808761c-7.00814241-25.03458611-17.57721525-48.58051663-31.29840071-69.94233564L509.80367007 511.49626342 758.8629306 441.84808761z" p-id="13849"></path><path d="M509.79897151 511.49720295l0.00187997-0.00093953 126.8965347-225.42028847 0 0c-22.06291483-12.44774747-46.16427239-21.66631637-71.62929-27.23185465L509.79897151 511.49720295 509.79897151 511.49720295z" p-id="13850"></path><path d="M509.79991104 511.49908292l69.6181018 248.95306195c25.04492366-6.99122635 48.5325861-17.59131182 69.89440511-31.31343772L509.79991104 511.49908292 509.79991104 511.49908292z" p-id="13851"></path><path d="M509.79991104 511.49814247L509.79897151 511.49814247 509.79991104 511.49814247Z" p-id="13852"></path><path d="M382.90243682 736.91749142c22.06291483 12.44774747 46.16333194 21.66631637 71.62834956 27.23091513l55.26724561-252.64744457L382.90243682 736.91749142z" p-id="13853"></path><path d="M509.79897151 511.49720295L284.46514515 384.64765833c-12.44962652 22.06573433-21.759357 46.1022453-27.30985919 71.58135948L509.79897151 511.49720295 509.79897151 511.49720295z" p-id="13854"></path><path d="M509.79897151 511.49720295L260.73689148 581.14537876c7.00814241 25.03364566 17.57815477 48.5795771 31.29934116 69.94045568l0.00093953 0.00093952 217.76085982-139.58863149L509.79897151 511.49720295z" p-id="13855"></path><path d="M509.80085056 511.49720295L509.80085056 511.49720295l225.33382638 126.84860509c12.45056696-22.06667478 21.76029744-46.10318483 27.31079872-71.58135948L509.80085056 511.49720295z" p-id="13856"></path><path d="M509.80085056 511.49720295l0 0 0 0.00093952 0 0 0-0.00093952Z" p-id="13857"></path><path d="M509.79991104 511.49720295l0.00093953 0 0 0.00093952-0.00093953 0 0-0.00093952Z" p-id="13858"></path><path d="M509.79897151 511.49626342l0.00093953 0 0 0.00187997-0.00093953 0 0-0.00187997Z" p-id="13859"></path><path d="M509.79991104 511.49626342l0.00093953 0 0 0.00093953-0.00093953 0 0-0.00093953Z" p-id="13860"></path><path d="M509.79897151 511.49814247L509.79897151 511.49720295 509.79897151 511.49720295 509.79803199 511.49908292 509.79991104 511.49814247Z" p-id="13861"></path><path d="M509.79897151 511.49626342l0.00093953 0 0 0.00093953-0.00093953 0 0-0.00093953Z" p-id="13862"></path><path d="M509.79897151 511.49720295L509.79897151 511.49720295 509.79897151 511.49720295Z" p-id="13863"></path><path d="M509.79897151 511.49720295L509.79897151 511.49720295 509.79897151 511.49720295Z" p-id="13864"></path><path d="M509.79803199 511.49720295l0.00281949 0 0 0.00281949-0.00281949 0 0-0.00281949Z" p-id="13865"></path><path d="M509.79897151 511.49720295L509.79897151 511.49720295 509.79897151 511.49720295Z" p-id="13866"></path><path d="M509.79897151 511.49720295L509.79897151 511.49720295 509.79897151 511.49720295Z" p-id="13867"></path><path d="M509.79897151 511.49720295L509.79897151 511.49814247 509.79991104 511.49814247 509.79991104 511.49814247 509.79991104 511.49814247Z" p-id="13868"></path><path d="M509.79991104 511.49814247L509.79991104 511.49814247 509.79991104 511.49814247Z" p-id="13869"></path><path d="M509.79991104 511.49814247L509.79991104 511.49814247 509.79991104 511.49814247Z" p-id="13870"></path><path d="M509.79897151 511.49814247L509.79897151 511.49720295 509.79897151 511.49720295Z" p-id="13871"></path><path d="M509.79897151 511.49720295L509.79897151 511.49720295 509.79897151 511.49720295Z" p-id="13872"></path><path d="M510.34781912 101.59181053c-226.38453057 0-409.90539242 183.51992231-409.90539242 409.90539242 0 226.38359104 183.52086184 409.90539242 409.90539242 409.90539242 226.38547101 0 409.90539242-183.52180137 409.90539242-409.90539242C920.25321154 285.11173285 736.73234969 101.59181053 510.34781912 101.59181053zM510.34781912 894.9564196c-211.77898659 0-383.46015618-171.68116957-383.46015618-383.46015618 0-211.77992613 171.68116957-383.46015618 383.46015618-383.46015617s383.46015618 171.68023005 383.46015617 383.46015617C893.80703485 723.27525002 722.1268048 894.9564196 510.34781912 894.9564196z" p-id="13873"></path><path d="M788.05334439 333.13118436c-29.13590474-45.35603754-69.02320365-83.10997496-116.10566758-109.67268685-47.9179524-27.03261543-103.20869258-42.5300378-162.14776485-42.5300378-182.56789682 0-330.56874416 147.9999069-330.56874415 330.56874416 0 65.71602239 19.25383116 126.89653469 52.3153108 178.36507906 29.1349643 45.35697798 69.02414409 83.10997496 116.10566758 109.67268685 47.9179524 27.03261543 103.20869258 42.53097732 162.14776485 42.53097733 182.56789682 0 330.56874416-148.00178595 330.56874416-330.56874416C840.3686552 445.78024103 821.1138836 384.59878829 788.05334439 333.13118436zM509.79991104 828.84285922c-56.58203562 0-109.66046934-14.87808827-155.66215504-40.82992639-45.19815032-25.5007297-83.49153641-61.74251695-111.46114035-105.2856669-31.74011021-49.40942656-50.22329949-108.14362062-50.22329949-171.23100251 0-175.26559459 142.08100029-317.34565535 317.34565535-317.34565535 56.58203562 0 109.66046934 14.87714874 155.66215506 40.82898595 45.19908985 25.5007297 83.49059688 61.74345739 111.46114033 105.2856669 31.73917069 49.40942656 50.22329949 108.14362062 50.22329949 171.23194203C827.14650684 686.76185802 685.06550563 828.84285922 509.79991104 828.84285922z" p-id="13874"></path></svg>