<?xml version="1.0" standalone="no"?><!DOCTYPE svg PUBLIC "-//W3C//DTD SVG 1.1//EN" "http://www.w3.org/Graphics/SVG/1.1/DTD/svg11.dtd"><svg t="1569817974688" class="icon" viewBox="0 0 1024 1024" version="1.1" xmlns="http://www.w3.org/2000/svg" p-id="25089" xmlns:xlink="http://www.w3.org/1999/xlink" width="200" height="200"><defs><style type="text/css"></style></defs><path d="M925.85950361 729.6900989l-167.87176116-101.3783345 81.37512489 0 0-53.81897935-170.4928716 0-112.60427354-67.99366734 0-39.17869941 230.105884 0 0-71.59769413L575.73436356 395.72272336 749.55535507 180.91239712 617.53417343 180.91239712l-108.01733044 206.53313618L399.43021502 180.91239712l-118.76043366 0 167.59585508 214.79308237-75.40865065 0L127.52452116 247.5437772 98.14049639 294.3099011l167.87176116 101.3783345L237.61114912 395.6882356l0 71.59769413 146.95461234 0 83.15127167 50.21495337 0 56.97465806L184.63713266 574.47554116l0 53.81897935 283.09714433 0L467.73427699 843.08760288l88.54868988 0L556.28296687 628.29452051l94.87729123 0 245.33246463 148.16170229L925.85950361 729.6900989zM556.26572301 574.49278505l0-3.48331722 5.75954449 3.48331722L556.26572301 574.49278505z" p-id="25090"></path></svg>