<?xml version="1.0" standalone="no"?><!DOCTYPE svg PUBLIC "-//W3C//DTD SVG 1.1//EN" "http://www.w3.org/Graphics/SVG/1.1/DTD/svg11.dtd"><svg t="1569814984593" class="icon" viewBox="0 0 1024 1024" version="1.1" xmlns="http://www.w3.org/2000/svg" p-id="18421" xmlns:xlink="http://www.w3.org/1999/xlink" width="200" height="200"><defs><style type="text/css"></style></defs><path d="M115.46603838 700.45666634L930.42879683 700.45666634 930.42879683 762.40374876 115.46603838 762.40374876 115.46603838 700.45666634Z" p-id="18422"></path><path d="M115.46603838 825.80038913L930.42879683 825.80038913 930.42879683 885.69643568 115.46603838 885.69643568 115.46603838 825.80038913Z" p-id="18423"></path><path d="M261.60280856 480.60592681l-76.41861017 0c-11.76187612 0-21.30430238 9.22163967-21.30430238 20.5975672l0 44.77291913c0 11.38194342 9.54242723 20.58754265 21.30430238 20.58754265l41.78257714 0c-0.30374593-3.17980626-0.51225715-6.40271918-0.51225715-9.67074208C226.45351622 526.58179879 240.08598435 499.44818482 261.60280856 480.60592681L261.60280856 480.60592681zM206.45141101 458.19290215l410.41057076 0 0-37.53214247-0.18545564 0c0.09723902-1.2019507 0.18545564-2.41994087 0.18545564-3.64595127L616.86198079 151.88290125c0-22.75586662-19.06580754-41.20014716-42.5695097-41.20014717L206.45742495 110.68275408c-23.51573203 0-42.57351933 18.44428152-42.57351933 41.20014717l-0.00400961 0 0 265.13190716C163.87989601 439.76566227 182.94169391 458.19290215 206.45141101 458.19290215L206.45141101 458.19290215zM330.93502192 478.17896789c-45.27414956 0-81.93415129 35.52321011-81.93415128 79.33176222 0 43.7895042 36.66000172 79.30168761 81.93415128 79.3016876 45.27013994 0 81.9652271-35.5121834 81.96522711-79.3016876C412.89924588 513.70217898 376.20516088 478.17896789 330.93502192 478.17896789L330.93502192 478.17896789zM863.36715824 480.60592681l-1.85254819 0 0-130.51040701-92.7507054-152.22371357L658.16638406 197.87180623c-11.76388045 0-21.28325113 9.22264184-21.28325112 20.58654048l0 262.1475801L404.01944601 480.60592681c21.5458957 18.84526547 35.15129764 45.98389221 35.15129764 76.28628475 0 3.26802289-0.18144504 6.4909358-0.48719627 9.67074207l193.66344974 0c-0.27066481-2.97730898-0.45812477-5.98870221-0.45812478-9.05322568 0-30.76553009 14.1507402-58.25602019 36.42041274-76.9048033 18.45330391-15.43890321 42.40009354-24.81692606 68.69665219-24.81692606 26.27650955 0 50.24134397 9.37802285 68.69665219 24.81692606 22.27067566 18.64878311 36.41941057 46.13927321 36.41941056 76.9048033 0 3.06452345-0.20951437 6.07591668-0.48017917 9.05322568l21.72633858 0c11.7558612 0 21.29828746-9.21662692 21.29828746-20.58754265l0-44.77291913C884.66644885 489.82756649 875.12301944 480.60592681 863.36715824 480.60592681L863.36715824 480.60592681zM661.54668329 353.1901169L661.54668329 241.62221439c0 0-1.03053021-16.93557744 18.52949068-16.93557744l78.23707412 0 78.23707413 128.50347995L661.54668329 353.1901169 661.54668329 353.1901169zM738.88956226 478.17896789c-45.27414956 0-81.96823456 35.52321011-81.96823455 79.33176222 0 43.7895042 36.69809463 79.30168761 81.96823455 79.3016876 45.27414956 0 81.95921216-35.5121834 81.95921217-79.3016876C820.84877443 513.70217898 784.16371182 478.17896789 738.88956226 478.17896789L738.88956226 478.17896789z" p-id="18424"></path></svg>