<?xml version="1.0" standalone="no"?><!DOCTYPE svg PUBLIC "-//W3C//DTD SVG 1.1//EN" "http://www.w3.org/Graphics/SVG/1.1/DTD/svg11.dtd"><svg t="1569816979096" class="icon" viewBox="0 0 1024 1024" version="1.1" xmlns="http://www.w3.org/2000/svg" p-id="22810" xmlns:xlink="http://www.w3.org/1999/xlink" width="200" height="200"><defs><style type="text/css"></style></defs><path d="M873.09241689 623.42682144c-31.34985739-46.57455222-73.66699165-81.53193885-122.81280769-101.67525689 21.72762395-15.6668455 39.93744209-36.66294044 53.18094622-61.17603283 15.31280164-28.349376 23.38306196-60.64254207 23.38306195-93.46839059 0-102.52803377-77.08133255-185.87141628-171.751694-185.87141628-13.45043388 0-24.41771071 11.29707114-24.41771071 25.152473s10.96727685 25.15247299 24.41771071 25.152473c67.76949371 0 122.91627257 60.85593838 122.91627256 135.5672786 0 74.81723007-55.14677885 135.67316844-122.91627256 135.67316844-13.45043388 0-24.41771071 11.29707114-24.41771071 25.15247301l0 0.10669815c0 13.85540186 10.96727685 25.15247299 24.41771071 25.15247299 121.88162381 0 221.10443981 108.9226481 221.1044398 242.7843729 0 13.85540186 10.96727685 25.15247299 24.41771072 25.15247299s24.41771071-11.29707114 24.41771069-25.15247299C924.92831972 733.41564274 907.02889619 673.83846558 873.09241689 623.42682144L873.09241689 623.42682144zM620.94851432 580.68936112c-25.55582435-18.65116052-53.49134085-33.46522912-82.87536559-43.91033166 62.18239042-38.9011767 100.36092963-108.28326751 100.36092962-183.63318001 0-118.40827559-93.53224782-214.75428304-208.48172495-214.75428304-115.05294199 0-208.58518981 96.34600744-208.5851898 214.86098119 0 40.28663606 10.96727685 79.61379704 31.66025202 113.71840676 17.5890289 28.88286676 41.38595036 52.96916654 69.5283966 70.34156586-30.00481401 10.55099239-58.25072512 25.47175913-84.22040897 44.44301413-28.349376 20.67600047-53.18094622 45.61507718-74.08085115 74.17784946C121.00623398 715.40386282 98.14049639 786.06471483 98.14049639 860.4559606c0 13.85540186 10.96727685 25.15247299 24.41771072 25.15247299s24.41771071-11.29707114 24.41771072-25.15247299c0-77.48225894 29.38402476-150.59474352 82.66843584-205.69544817 53.18094622-54.9940065 123.53706182-85.26233262 198.13523733-85.36903076 2.48315701 0.2133963 4.96631404 0 7.44947108-0.53268246l1.96583264-0.42598428c72.63234288 1.4921575 140.8156961 31.65378546 192.7550638 85.36903077 53.28441108 55.10070465 82.56497096 128.10649106 82.56497098 205.69544817 0 13.85540186 10.96727685 25.15247299 24.4177107 25.15247299s24.41771071-11.29707114 24.41771072-25.15247299c0-74.39124577-22.86573757-145.05209777-66.21752058-204.52257681C674.23292541 626.30443829 649.29789033 601.36536161 620.94851432 580.68936112L620.94851432 580.68936112zM429.9523534 188.6965124c88.04860939 0 159.74976839 73.85856333 159.74976841 164.5560352s-71.70115899 164.55603519-159.74976841 164.55603519-159.74976839-73.85856333-159.74976837-164.55603519C270.20258503 262.44837757 341.90374403 188.6965124 429.9523534 188.6965124L429.9523534 188.6965124z" p-id="22811"></path></svg>