<?xml version="1.0" standalone="no"?><!DOCTYPE svg PUBLIC "-//W3C//DTD SVG 1.1//EN" "http://www.w3.org/Graphics/SVG/1.1/DTD/svg11.dtd"><svg t="1569813442294" class="icon" viewBox="0 0 1024 1024" version="1.1" xmlns="http://www.w3.org/2000/svg" p-id="12784" xmlns:xlink="http://www.w3.org/1999/xlink" width="200" height="200"><defs><style type="text/css"></style></defs><path d="M902.93277431 346.84262931c-2.62610033-6.20907482-5.3951177-12.33775881-8.29811978-18.38828506-0.0256804-0.04912772-0.04354503-0.10048853-0.06922544-0.14961626-20.7129198-43.13079505-48.41872497-82.18733833-82.55133013-116.3199435-38.95828783-38.95828783-84.33109372-69.54811392-134.85672827-90.91867533C624.83522447 98.93630104 569.26841515 87.71508148 512 87.71508148s-112.83522447 11.22121956-165.15737069 33.35102768c-50.52563456 21.37056143-95.89844044 51.96038751-134.85672827 90.91867533-38.95828783 38.95828783-69.54811392 84.33109372-90.91867535 134.85672828C98.93630104 399.16477553 87.71508148 454.73158485 87.71508148 512s11.22121956 112.83522447 33.35214421 165.15737069c2.62610033 6.20907482 5.3951177 12.33775881 8.29811978 18.38828506 0.0256804 0.04912772 0.04354503 0.10048853 0.06922544 0.14961626 20.7129198 43.13079505 48.41872497 82.18733833 82.55133013 116.3199435 38.95828783 38.95828783 84.33109372 69.54811392 134.85672827 90.91867533C399.16477553 925.06369896 454.73158485 936.28491852 512 936.28491852s112.83522447-11.22121956 165.15737069-33.35102768c50.52563456-21.37056143 95.89844044-51.96038751 134.85672827-90.91867533 38.95828783-38.95828783 69.54811392-84.33109372 90.91867535-134.85672828C925.06369896 624.83522447 936.28491852 569.26841515 936.28491852 512S925.06369896 399.16477553 902.93277431 346.84262931zM132.37665185 512c0-38.40783398 5.67648559-75.94141772 16.6118711-111.65392593l253.72126474 0c-0.4209353 0.36287526-0.84298714 0.72351744-1.24159166 1.12212196L156.70715885 646.22923321C140.73729783 603.90122989 132.37665185 558.59541636 132.37665185 512zM400.34607407 512c0-61.56597476 50.08795117-111.65392593 111.65392593-111.65392593s111.65392593 50.08795117 111.65392593 111.65392593-50.08795117 111.65392593-111.65392593 111.65392593S400.34607407 573.56597476 400.34607407 512zM622.53180397 622.53180397l244.76103718-244.76103718C883.26270217 420.09877011 891.62334815 465.40458364 891.62334815 512c0 38.40783398-5.67648559 75.94141772-16.6118711 111.65392593L621.29021231 623.65392593C621.71114761 623.29105067 622.13319945 622.93040849 622.53180397 622.53180397zM780.43501909 243.56609745c27.15870095 27.15870095 49.68488049 57.71279777 67.20449802 90.69760056L668.29539859 513.60781653c0.00558269-0.53593884 0.02009771-1.06964461 0.0200977-1.60781653L668.31549629 165.854965C709.53924228 184.49335485 747.48594556 210.61814044 780.43501909 243.56609745zM623.65392593 148.98852295l0 253.72126474c-0.36287526-0.4209353-0.7224009-0.84298714-1.12212196-1.24159166L377.77076679 156.70715885C420.09877011 140.73729783 465.40458364 132.37665185 512 132.37665185 550.40783398 132.37665185 587.94141772 138.05313745 623.65392593 148.98852295zM243.56498091 243.56609745c27.15870095-27.15870095 57.71279777-49.68488049 90.69760057-67.20449802L513.60781653 355.70460141c-0.53593884-0.00558269-1.06964461-0.02009771-1.60781653-0.0200977L165.854965 355.68450371C184.49335485 314.46075772 210.61702391 276.51405444 243.56498091 243.56609745zM243.56498091 780.43390255c-27.15870095-27.15870095-49.68488049-57.71279777-67.20449802-90.69760056L355.70460141 510.39218347c-0.00558269 0.53593884-0.02009771 1.06964461-0.0200977 1.60781653l0 346.145035C314.46075772 839.50664515 276.51405444 813.38185956 243.56498091 780.43390255zM400.34607407 875.01147705L400.34607407 621.29021231c0.36287526 0.4209353 0.7224009 0.84298714 1.12212196 1.24159166l244.76103718 244.76103718C603.90122989 883.26270217 558.59541636 891.62334815 512 891.62334815 473.59216602 891.62334815 436.05858228 885.94686255 400.34607407 875.01147705zM780.43501909 780.43390255c-27.15870095 27.15870095-57.71279777 49.68488049-90.69760057 67.20449802L510.39218347 668.29539859c0.53593884 0.00558269 1.06964461 0.02009771 1.60781653 0.0200977l346.145035 0C839.50664515 709.53924228 813.38297609 747.48594556 780.43501909 780.43390255z" p-id="12785"></path></svg>