<svg version="1.1" xmlns="http://www.w3.org/2000/svg" xmlns:xlink="http://www.w3.org/1999/xlink" x="0px" y="0px" viewBox="0 0 64 64" xml:space="preserve" width="64" height="64"><title>gift</title><g class="nc-icon-wrapper" fill="#020202"><polyline fill="none" stroke="#020202" stroke-width="2" stroke-linecap="square" stroke-miterlimit="10" points="56,24 56,60 8,60 8,24 " stroke-linejoin="miter"/> <rect x="2" y="14" fill="none" stroke="#020202" stroke-width="2" stroke-linecap="square" stroke-miterlimit="10" width="60" height="10" stroke-linejoin="miter"/> <path data-color="color-2" fill="none" stroke="#020202" stroke-width="2" stroke-linecap="square" stroke-miterlimit="10" d="M14,8 c0-3.314,2.686-6,6-6c8.875,0,12,12,12,12s-8.686,0-12,0S14,11.314,14,8z" stroke-linejoin="miter"/> <path data-color="color-2" fill="none" stroke="#020202" stroke-width="2" stroke-linecap="square" stroke-miterlimit="10" d="M50,8 c0-3.314-2.686-6-6-6c-8.875,0-12,12-12,12s8.686,0,12,0S50,11.314,50,8z" stroke-linejoin="miter"/> <polyline data-color="color-2" fill="none" stroke="#020202" stroke-width="2" stroke-linecap="square" stroke-miterlimit="10" points=" 38,14 38,60 26,60 26,14 " stroke-linejoin="miter"/></g></svg>