<?xml version="1.0" standalone="no"?><!DOCTYPE svg PUBLIC "-//W3C//DTD SVG 1.1//EN" "http://www.w3.org/Graphics/SVG/1.1/DTD/svg11.dtd"><svg t="1578827131343" class="icon" viewBox="0 0 1024 1024" version="1.1" xmlns="http://www.w3.org/2000/svg" p-id="34221" xmlns:xlink="http://www.w3.org/1999/xlink" width="200" height="200"><defs><style type="text/css"></style></defs><path d="M139.537 682.667H352.53c-5.837-42.872-9.557-88.747-10.752-136.534H103.765c3.994 48.367 16.384 94.379 35.738 136.534z m39.731 68.266a409.941 409.941 0 0 0 238.626 159.813c-22.016-40.824-40.448-95.574-53.725-159.813h-184.9z m705.195-68.266c19.354-42.155 31.744-88.167 35.738-136.534H682.223a1244.399 1244.399 0 0 1-10.752 136.534h212.992z m-39.731 68.266H659.797c-13.278 64.205-31.71 118.99-53.726 159.813a409.941 409.941 0 0 0 238.627-159.813z m-425.848-68.266h186.232c4.847-42.155 7.919-88.167 8.943-136.534H409.94c1.024 48.367 4.096 94.379 8.943 136.534z m9.933 68.266C447.42 854.29 477.73 921.6 512 921.6c34.27 0 64.58-67.31 83.183-170.667H428.817zM103.8 477.867h237.978c1.195-47.787 4.915-93.662 10.752-136.534H139.537A407.074 407.074 0 0 0 103.8 477.867z m816.402 0a407.074 407.074 0 0 0-35.738-136.534H671.47c5.837 42.872 9.557 88.747 10.752 136.534H920.2z m-510.26 0H614.06a1471.932 1471.932 0 0 0-8.943-136.534H418.884a1471.932 1471.932 0 0 0-8.943 136.534z m-230.673-204.8h184.9c13.278-64.205 31.71-118.99 53.726-159.813a409.941 409.941 0 0 0-238.592 159.813z m665.464 0a409.941 409.941 0 0 0-238.626-159.813c22.016 40.824 40.448 95.574 53.725 159.813h184.9z m-415.915 0h166.366C576.58 169.71 546.27 102.4 512 102.4c-34.27 0-64.58 67.31-83.183 170.667zM512 989.867C248.081 989.867 34.133 775.919 34.133 512S248.081 34.133 512 34.133 989.867 248.081 989.867 512 775.919 989.867 512 989.867z" p-id="34222"></path></svg>