<?xml version="1.0" standalone="no"?><!DOCTYPE svg PUBLIC "-//W3C//DTD SVG 1.1//EN" "http://www.w3.org/Graphics/SVG/1.1/DTD/svg11.dtd"><svg t="1569816698845" class="icon" viewBox="0 0 1024 1024" version="1.1" xmlns="http://www.w3.org/2000/svg" p-id="18958" xmlns:xlink="http://www.w3.org/1999/xlink" width="200" height="200"><defs><style type="text/css"></style></defs><path d="M512.00074099 512.00191062c-101.11626018 0-185.48994563-73.00058822-203.20596076-169.07036955 11.8072193-8.31053947 19.52806455-22.02759761 19.52806454-37.56263315 0-25.36129611-20.55780724-45.92502975-45.91910334-45.92502974-25.36129611 0-45.91910336 20.56373363-45.91910336 45.92502974 0 18.37682764 10.80562815 34.22893386 26.40289158 41.56158935 19.88069596 119.55087214 124.01210198 210.99051671 249.11913774 210.99051671 125.10110936 0 229.23251457-91.43964456 249.11321053-210.99051671 15.59726424-7.33265469 26.3969652-23.18476171 26.39696521-41.56158935 0-25.36129611-20.55188005-45.92502975-45.91317696-45.92502974s-45.92502975 20.56373363-45.92502975 45.92502974c0 15.53503555 7.72677163 29.25802008 19.53399174 37.56263315C697.48920544 439.00724878 613.12292757 512.00191062 512.00074099 512.00191062L512.00074099 512.00191062zM833.43594729 98.72701562l-22.93140093 1e-8c-0.00592638 0-0.01777998 0-0.02963356 0L649.75805106 98.72701562c-0.00592638 0-0.01777998 0-0.02963356 1e-8l-2.86549926 0c0.01777998 0.06371069 0.03407794 0.13334778 0.04593072 0.19705928-11.33161168 1.40015329-20.11183238 11.04861734-20.11183238 22.7624932 0 11.71387586 8.78022069 21.36233911 20.11183238 22.76249321-0.01777998 0.06963708-0.02963356 0.13334778-0.04593072 0.19705927l186.57154623 0c25.31536539 0 45.92502975 20.60966516 45.92502975 45.91910336l0 642.87782096c0 25.31536539-20.60966516 45.91910336-45.92502975 45.91910335L190.56405271 879.36214664c-25.31536539 0-45.91910336-20.60373797-45.91910335-45.91910334L144.64494936 190.56522233c0-25.30943819 20.60373797-45.91910336 45.91910335-45.91910334L354.17604728 144.64611899c-0.01777998-0.06371069-0.02815155-0.12742139-0.04593072-0.19705929 11.33161168-1.40015329 20.11183238-11.04861734 20.11183238-22.7624932 0-11.71387586-8.78022069-21.36233911-20.11183238-22.76249321 0.01185359-0.06963708 0.02815155-0.13334778 0.04593072-0.19705928l-2.86401808 0c-0.01185359 0-0.01777998 0-0.02963355 0L190.56405271 98.72701562c-0.02222517 0-0.04000515 0-0.05778349 1e-8C139.88146483 98.76109277 98.725846 139.93449156 98.725846 190.56522233l0 642.87782096c0 50.64851075 41.18525157 91.83820671 91.83820671 91.83820671l642.87189377 0c50.65443632 0 91.83820671-41.19117876 91.83820671-91.83820671L925.274154 190.56522233C925.274154 139.91226719 884.09038362 98.72701562 833.43594729 98.72701562L833.43594729 98.72701562zM833.43594729 98.72701562" p-id="18959"></path></svg>