<?xml version="1.0" standalone="no"?><!DOCTYPE svg PUBLIC "-//W3C//DTD SVG 1.1//EN" "http://www.w3.org/Graphics/SVG/1.1/DTD/svg11.dtd"><svg t="1569813616174" class="icon" viewBox="0 0 1024 1024" version="1.1" xmlns="http://www.w3.org/2000/svg" p-id="14930" xmlns:xlink="http://www.w3.org/1999/xlink" width="200" height="200"><defs><style type="text/css"></style></defs><path d="M806.91740033 551.71609142c21.57274458-43.28180154 24.96977942-90.08812596 24.96977942-141.56929621 0-179.74181546-138.76066175-327.14706938-321.08653775-327.14706938-182.33176017 0-321.09144154 147.38073687-321.09144154 327.14706938 0 51.48705442 3.39703579 98.31299208 24.96977941 141.59773571L92.77601 761.52814233c0 0 83.40879275 30.69590254 169.63210413 48.46659571 57.49560987 64.00920988 104.18523421 132.79231317 104.1852342 132.79231317l113.9124843-217.60836571c6.98530125 0.43149438 17.13620079 0 24.23329737 0 7.09317508 0 17.27545525 0.43149438 24.23329738 0l121.16550841 205.98156096c0 0 51.57825708-57.12884038 109.04934992-121.16550842 86.222331-17.76971183 169.63210413-48.46659571 169.63210412-48.46659571L806.91740033 551.71609142 806.91740033 551.71609142zM359.34032421 858.46133375c0 0-40.41138525-51.91070292-79.20859025-89.65859233-55.02726713-15.64656458-126.77297071-31.50691608-126.77297071-31.50691609l84.81605158-145.39880675c44.92540167 58.63612717 118.69422358 113.99878317 193.28092359 132.17155084L359.34032421 858.46133375zM504.73913096 688.82922963c-70.97980071 0-271.82756233-42.438427-278.68145404-278.68145405-4.31003804-148.55361708 130.44459296-290.79761254 278.68145404-290.79761254 148.23293767 0 289.93952758 142.18417533 290.79761254 290.79761254C796.83416775 634.84735467 575.719913 688.82922963 504.73913096 688.82922963zM650.13793675 858.46133375l-72.69989308-133.28264729c74.58866075-18.17276671 161.06106213-74.64652013 205.98156096-133.28264729l84.81605158 145.39880675c-0.02451704-0.02941988-71.74570263 15.8358335-126.77297071 31.50691608L650.13793675 858.46133375zM510.80064296 217.41798758c-103.87828483 0-188.08338071 84.254129-188.08338071 188.18537038 0 103.93222175 84.20509587 188.18537038 188.08338071 188.18537037 103.873382 0 188.07847788-84.25216729 188.07847787-188.18537037C698.8781395 301.67211658 614.67304363 217.41798758 510.80064296 217.41798758L510.80064296 217.41798758zM516.85626983 555.54658233c-46.66804938 0-149.73826371-18.46892908-157.51594562-157.51496525-4.14528521-74.10715288 83.32935842-145.39880675 157.51594562-145.39880675 74.18266379 0 143.52278779 83.31562933 145.39880675 157.51496525C664.71753517 507.53501671 563.52432017 555.54658233 516.85626983 555.54658233z" p-id="14931"></path></svg>