<?xml version="1.0" standalone="no"?><!DOCTYPE svg PUBLIC "-//W3C//DTD SVG 1.1//EN" "http://www.w3.org/Graphics/SVG/1.1/DTD/svg11.dtd"><svg t="1569814855317" class="icon" viewBox="0 0 1024 1024" version="1.1" xmlns="http://www.w3.org/2000/svg" p-id="17346" xmlns:xlink="http://www.w3.org/1999/xlink" width="200" height="200"><defs><style type="text/css"></style></defs><path d="M538.52126516 916.35331668c-9.71828288 0-19.4286583-3.69911533-26.82372595-11.087857a6.3164885 6.3164885 0 0 1 0-8.93860617 6.31965148 6.31965148 0 0 1 8.94018765 0c9.87643232 9.86378037 25.92860015 9.85112842 35.78131005-0.01265195 9.84796543-9.85903589 9.84163944-25.89855175-0.0253039-35.75600613a6.3164885 6.3164885 0 0 1 0-8.93860616 6.3164885 6.3164885 0 0 1 8.93860615 0c14.79171682 14.77906486 14.80278727 38.83675717 0.02530392 53.63479995-7.39664915 7.39348617-17.12125802 11.09892747-26.83637793 11.09892746zM601.12471967 853.78939953c-10.14370487 0-19.67537142-3.95057293-26.8427039-11.12423136a6.3164885 6.3164885 0 0 1 0-8.93860617 6.3164885 6.3164885 0 0 1 8.93860616 0c9.54431851 9.55064449 26.20536165 9.5759484 35.75600615 0.02530392 9.85903589-9.8574544 9.85270991-25.90487773-0.01265196-35.76865809l-49.16549687-49.19080079a6.31965148 6.31965148 0 1 1 8.93860616-8.93860615l49.16549687 49.19080078c14.7980428 14.79171682 14.7980428 38.86206108 0.01265196 53.6474519-7.14677304 7.15309902-16.66420614 11.09734598-26.79051457 11.09734596zM663.68072933 791.1970155c-9.71828288 0-19.4270768-3.69753383-26.82372595-11.09418299l-49.16549687-49.16707836a6.31965148 6.31965148 0 1 1 8.93860616-8.93860617l49.16549688 49.16707837c9.86536186 9.86378037 25.90487773 9.86378037 35.76865808 0 9.86536186-9.86536186 9.86536186-25.91752967 0-35.78289153l-49.17814882-49.15284493c-2.4702942-2.46871271-2.4702942-6.46989345 0-8.93860616s6.47147494-2.4702942 8.93860615 0l49.17814883 49.15284492c14.7980428 14.79329831 14.7980428 38.86996855 0 53.66168536-7.39348617 7.39506766-17.10386156 11.09260149-26.82214446 11.09260149zM726.2667874 728.61095743c-9.71037541 0-19.41916933-3.69278934-26.81739997-11.07678654l-49.18447481-49.19554527a6.31965148 6.31965148 0 0 1 0-8.93860617 6.3164885 6.3164885 0 0 1 8.93860617 0l49.17814883 49.19080078c9.86536186 9.84163944 25.90487773 9.85270991 35.75758762 0 9.86378037-9.86536186 9.86378037-25.91594818 0-35.78131004L578.75290035 507.43106277a6.3164885 6.3164885 0 0 1 0-8.93860615 6.3164885 6.3164885 0 0 1 8.93860616-1e-8l165.38793639 165.37528444c14.7964613 14.79329831 14.7964613 38.86838706 0 53.66010385-7.3824157 7.39032317-17.09437261 11.08311252-26.8126555 11.08311253zM261.77398443 634.05024625a6.3164885 6.3164885 0 0 1-5.63644591-3.45240219c-27.37883048-53.70280421-36.38702239-106.49783066-36.75709208-108.72141175a6.32281447 6.32281447 0 0 1 5.192046-7.2717111c3.47612462-0.51873015 6.69762864 1.75862174 7.27803708 5.19204602 0.0869822 0.53138211 9.09359261 53.16509612 35.54724889 105.06183376a6.3164885 6.3164885 0 0 1-5.62379398 9.19164526zM451.07253415 408.95140857a6.29751057 6.29751057 0 0 1-2.43866431-0.48868177c-43.89279465-18.37854603-73.66917058-33.85504991-73.96491004-34.01003636a6.32914045 6.32914045 0 0 1-2.67905146-8.5321621 6.30541803 6.30541803 0 0 1 8.53216212-2.67905147c0.29099496 0.15498645 29.62613397 15.40375514 72.989128 33.55298449a6.32597746 6.32597746 0 0 1-2.43866431 12.15694721zM751.54381187 641.80431313a6.31965148 6.31965148 0 0 1-5.14301968-9.99504439c37.73761857-52.91205703 45.01091117-128.6608927 45.07891542-129.42001001 0.32104335-3.46979864 3.30216025-6.07451987 6.87159302-5.72342811a6.32597746 6.32597746 0 0 1 5.72184662 6.87159302c-0.29732094 3.23415599-7.67341067 79.94770322-47.37366375 135.61946792a6.32755896 6.32755896 0 0 1-5.15567163 2.64742157zM484.87855773 898.48559333h-0.00632598c-10.12472693 0-19.65006751-3.95057293-26.811074-11.10999793-14.77906486-14.77432037-14.77906486-38.83992015-0.00632597-53.64270742l26.82372595-26.82372596c14.34731689-14.33308344 39.32543892-14.32201298 53.63638145 0.01265196 14.78539084 14.78539084 14.78539084 38.84940913 0 53.63638145l-26.80632951 26.80474802c-7.17365846 7.17207696-16.70058051 11.12264989-26.83005194 11.12264988z m26.82372596-90.0344743a25.16948286 25.16948286 0 0 0-17.89144578 7.40297514l-26.811074 26.811074c-9.84638393 9.87168784-9.85270991 25.91752967 0 35.77023958a25.11096755 25.11096755 0 0 0 17.87246784 7.40771961h0.00632598c6.75456244 0 13.10742531-2.63476962 17.88986428-7.41879008l26.80632952-26.80474801c9.8574544-9.85903589 9.8574544-25.90013325 0-35.75758764a25.08250065 25.08250065 0 0 0-17.87246784-7.4108826zM422.29091817 835.90586124c-10.12472693 0-19.64374152-3.94424695-26.80474801-11.10525344-14.77906486-14.7964613-14.77906486-38.86206108 0-53.66010386l35.75758763-35.75758763c14.33466494-14.31568702 39.33809087-14.32833896 53.63479994 0 14.79171682 14.79329831 14.79171682 38.85731659 0 53.64903339l-35.75600614 35.75600614c-7.16891397 7.16733247-16.70058051 11.11790539-26.83163342 11.1179054z m35.78131005-98.97940643a25.13943445 25.13943445 0 0 0-17.88986427 7.39506765l-35.75758763 35.75758763c-9.85270991 9.86378037-9.85270991 25.91752967 0 35.78131006a25.10306008 25.10306008 0 0 0 17.86614185 7.40297512 25.16157537 25.16157537 0 0 0 17.89144578-7.41404558l35.75600613-35.75600614c9.85903589-9.85903589 9.85903589-25.9112037 0-35.77023959a25.06668571 25.06668571 0 0 0-17.86614186-7.39664915zM359.71593057 773.3118957c-10.1373789 0-19.65639349-3.93792097-26.80632952-11.10209044-7.16733247-7.15309902-11.11790539-16.68002109-11.12423137-26.81107401a37.69017375 37.69017375 0 0 1 11.10050895-26.83637791l26.83005194-26.81739997c14.32833896-14.34099092 39.3317649-14.32992045 53.6474519 0.01265195 7.16733247 7.14993603 11.11316092 16.66895063 11.11316092 26.80474802 0 10.12472693-3.94582845 19.651649-11.11316092 26.81739998l-26.83005193 26.83005194c-7.16733247 7.16416948-16.69267305 11.10209046-26.81739997 11.10209044z m26.81898146-90.0328928a25.11096755 25.11096755 0 0 0-17.87879381 7.40771961l-26.83005193 26.81739998a25.12203802 25.12203802 0 0 0-7.39506766 17.88986429 25.15208641 25.15208641 0 0 0 7.42037157 17.8787938c9.53166655 9.54431851 26.18796523 9.54431851 35.74493568 0l26.83005193-26.83005193a25.12361951 25.12361951 0 0 0 7.4093011-17.87879382c0-6.75298094-2.63002514-13.09319186-7.40297512-17.85981587a25.128364 25.128364 0 0 0-17.89777176-7.42511606zM297.13619847 710.73848959h-0.00632597c-10.13105291 0-19.65006751-3.93950247-26.80474803-11.10209046-14.78697233-14.7964613-14.78697233-38.86047958 0-53.64745191l17.87879383-17.8787938c14.32833896-14.33466494 39.29380904-14.31094254 53.62214799 0.01265196 7.16733247 7.16575098 11.11316092 16.68634707 11.11948689 26.81107399s-3.93950247 19.64532302-11.10683493 26.811074l-17.87879382 17.87879381c-7.16891397 7.16891397-16.69425454 11.11474241-26.82372596 11.11474241z m17.86614187-81.08954216a25.09831561 25.09831561 0 0 0-17.85981589 7.40297513l-17.87879382 17.87879382c-9.85270991 9.85903589-9.85270991 25.90329624 0 35.76865809a25.09357112 25.09357112 0 0 0 17.86614187 7.39664915h0.00632597c6.75456244 0 13.10584382-2.63002514 17.8851198-7.40930111l17.87879381-17.87879382c4.77769448-4.77769448 7.40297513-11.12423138 7.40297513-17.87246782s-2.63635112-13.09319186-7.41404559-17.87246785c-4.78718345-4.77769448-11.13372034-7.41404559-17.88670128-7.41404559zM431.25482824 540.86701668c-9.71828288 0-19.43498427-3.70385981-26.83005192-11.10050897-14.78539084-14.78539084-14.78539084-38.83675717 0-53.62214799l58.10568452-58.12940694c54.49987736-54.49987736 177.19221034-72.55738005 182.38267485-73.3038454 3.42077232-0.55036003 6.6565098 1.90095623 7.15626201 5.3644289a6.32439596 6.32439596 0 0 1-5.36601039 7.15468051c-1.23514709 0.17238289-123.72346729 18.21090763-175.2359018 69.72334215l-58.10410304 58.12940693c-9.85270991 9.85270991-9.85270991 25.89222577 0 35.74493568 9.85903589 9.86536186 25.89697026 9.86536186 35.75758763 0.01265196 3.2847638-3.2847638 80.91557778-79.97142563 120.69174259-40.23796118a6.31965148 6.31965148 0 0 1 0 8.93860616 6.3164885 6.3164885 0 0 1-8.93860615 0c-25.64551265-25.60755679-82.91142366 20.34750652-102.81453028 40.23796118-7.38874168 7.39032317-17.09911709 11.08785701-26.80474802 11.08785701zM824.60727011 500.34438651a6.29434758 6.29434758 0 0 1-4.46930308-1.8519299L650.27914606 328.62256519a6.31965148 6.31965148 0 0 1 0-8.93860615 6.3164885 6.3164885 0 0 1 8.93860617 0l169.85882097 169.86989141a6.31965148 6.31965148 0 0 1-4.46930309 10.79053606zM887.19332817 473.51433458a6.29434758 6.29434758 0 0 1-4.46930307-1.85192989L677.09654605 266.04757758a6.31965148 6.31965148 0 0 1 0-8.93860615 6.3164885 6.3164885 0 0 1 8.93860616 0l205.62747905 205.61482709a6.31965148 6.31965148 0 0 1-4.46930309 10.79053606z" fill="" p-id="17347"></path><path d="M654.74844915 330.4744951a6.31965148 6.31965148 0 0 1-4.46930309-10.79053606l26.81739999-26.81898148a6.31965148 6.31965148 0 1 1 8.93860616 8.93860616l-26.81739998 26.81898147a6.29434758 6.29434758 0 0 1-4.46930308 1.85192992zM824.60727011 500.34438651a6.29434758 6.29434758 0 0 1-4.46930308-1.8519299 6.3164885 6.3164885 0 0 1 0-8.93860615l26.81739997-26.81898148a6.31965148 6.31965148 0 1 1 8.93860617 8.94018766l-26.81739998 26.81739997a6.30067356 6.30067356 0 0 1-4.46930308 1.8519299zM681.56584913 267.89950749a6.31965148 6.31965148 0 0 1-4.46930308-10.79053606l147.61035821-147.60877672a6.31965148 6.31965148 0 1 1 8.93860616 8.93860616l-147.61035821 147.60877671a6.29434758 6.29434758 0 0 1-4.46930308 1.85192991zM887.19332817 473.51433458a6.29434758 6.29434758 0 0 1-4.46930307-1.85192989 6.3164885 6.3164885 0 0 1 0-8.93860617l23.34918282-23.32387892a6.31965148 6.31965148 0 1 1 8.93860617 8.93860616l-23.34918283 23.32387893a6.29909207 6.29909207 0 0 1-4.46930309 1.85192989zM198.79887876 518.19787643a6.31965148 6.31965148 0 0 1-4.47088458-10.79053608L364.19788561 337.56117136c2.46871271-2.4702942 6.46989345-2.4702942 8.93860615 0s2.4702942 6.46989345 0 8.93860616L203.26818184 516.34594651a6.30858103 6.30858103 0 0 1-4.46930309 1.85192992zM136.22389115 491.39312841a6.29909207 6.29909207 0 0 1-4.46930308-1.85192992 6.3164885 6.3164885 0 0 1 0-8.93860615l205.62747905-205.6148271a6.3164885 6.3164885 0 0 1 8.93860616 0 6.3164885 6.3164885 0 0 1 0 8.93860617L140.69319422 489.54119849a6.30067356 6.30067356 0 0 1-4.46930307 1.85192992z" fill="" p-id="17348"></path><path d="M198.79887876 518.19787643a6.31016252 6.31016252 0 0 1-4.47088458-1.85192992l-26.81739997-26.80474802c-2.4702942-2.4702942-2.4702942-6.46989345 0-8.93860616s6.46989345-2.4702942 8.93860615 0l26.81898148 26.80474803a6.31965148 6.31965148 0 0 1-4.46930309 10.79053606zM368.66877018 348.35170743a6.29909207 6.29909207 0 0 1-4.46930308-1.85192991l-26.81898148-26.81739998a6.3164885 6.3164885 0 0 1 0-8.93860616 6.3164885 6.3164885 0 0 1 8.93860616 0l26.81898148 26.81739998a6.3164885 6.3164885 0 0 1 0 8.93860616 6.30067356 6.30067356 0 0 1-4.46930308 1.8519299zM136.22389115 491.39312841a6.29909207 6.29909207 0 0 1-4.46930308-1.85192992l-22.29907057-22.29907056a6.32123298 6.32123298 0 0 1 8.93860616-8.94018765l22.29907056 22.29907056a6.3164885 6.3164885 0 0 1 0 8.93860616 6.29592908 6.29592908 0 0 1-4.46930307 1.85351141zM341.8497887 285.77830131a6.30858103 6.30858103 0 0 1-4.46930308-1.8519299L171.94352291 118.48782719c-2.4702942-2.4702942-2.4702942-6.46989345 0-8.93860616s6.46989345-2.4702942 8.93860616 0l165.43696271 165.43696271a6.3164885 6.3164885 0 0 1 0 8.93860617 6.29751057 6.29751057 0 0 1-4.46930308 1.8535114zM126.08651225 435.91746901a18.85773882 18.85773882 0 0 1-13.42214269-5.55578972c-7.37767123-7.41404559-7.36501927-19.43972875 0.01265196-26.81739997 7.13728408-7.16100649 19.67537142-7.16733247 26.82372596 0.00632597a18.80238653 18.80238653 0 0 1 5.54313776 13.39683878 18.81661998 18.81661998 0 0 1-5.54946374 13.41423522 18.80396802 18.80396802 0 0 1-13.40790925 5.55578972z m0-25.28651343c-1.69219897 0-3.27843783 0.65473867-4.46297709 1.84560393a6.3449554 6.3449554 0 0 0-0.00632598 8.95758409c2.35800811 2.35168212 6.55054966 2.37066005 8.93228018-0.00632598a6.28169563 6.28169563 0 0 0 1.85192991-4.47562906c0-1.69219897-0.65473867-3.27843783-1.84560393-4.46930307a6.25639171 6.25639171 0 0 0-4.46930309-1.85192991z" fill="" p-id="17349"></path></svg>