<?xml version="1.0" standalone="no"?><!DOCTYPE svg PUBLIC "-//W3C//DTD SVG 1.1//EN" "http://www.w3.org/Graphics/SVG/1.1/DTD/svg11.dtd"><svg t="1569818542686" class="icon" viewBox="0 0 1024 1024" version="1.1" xmlns="http://www.w3.org/2000/svg" p-id="32284" xmlns:xlink="http://www.w3.org/1999/xlink" width="200" height="200"><defs><style type="text/css"></style></defs><path d="M895.33333333 144.8625v210.83333333H128.66666667v-210.83333333h766.66666666m38.33333334-38.33333333H90.33333333v287.5h843.33333334v-287.5z m-38.33333334 370.10833333v402.5H128.66666667v-402.5h766.66666666m38.33333334-38.33333333H90.33333333v479.16666666h843.33333334v-479.16666666zM650.95833333 231.1125H219.70833333v38.33333333h431.25v-38.33333333z m153.33333334 0h-38.33333334v38.33333333h38.33333334v-38.33333333z m-76.66666667 0h-38.33333333v38.33333333h38.33333333v-38.33333333zM258.04166667 543.72083333h-38.33333334v268.33333334h38.33333334v-268.33333334z m109.25 0h-38.33333334v268.33333334h38.33333334v-268.33333334z m109.25 0h-38.33333334v268.33333334h38.33333334v-268.33333334z m109.25 0h-38.33333334v268.33333334h38.33333334v-268.33333334z m109.25 0h-38.33333334v268.33333334h38.33333334v-268.33333334z m109.25 0h-38.33333334v268.33333334h38.33333334v-268.33333334z" fill="" p-id="32285"></path></svg>