<?xml version="1.0" standalone="no"?><!DOCTYPE svg PUBLIC "-//W3C//DTD SVG 1.1//EN" "http://www.w3.org/Graphics/SVG/1.1/DTD/svg11.dtd"><svg t="1569813462391" class="icon" viewBox="0 0 1024 1024" version="1.1" xmlns="http://www.w3.org/2000/svg" p-id="13020" xmlns:xlink="http://www.w3.org/1999/xlink" width="200" height="200"><defs><style type="text/css"></style></defs><path d="M511.99950933 128.90873879c102.34059683 0 198.53730621 39.86123004 270.86258488 112.22867729 72.36646592 72.34489192 112.20808271 168.54160033 112.20808271 270.86258488 0 102.34157817-39.84161679 198.51769296-112.20808271 270.88415887-72.36646592 72.34587229-168.56317529 112.20808271-270.86258488 112.20808271-102.30038996 0-198.53828658-39.86123004-270.86356525-112.22867729-72.36646592-72.34489192-112.20808271-168.54160033-112.2080827-270.86258488s39.84161679-198.51769296 112.2080827-270.86258487C313.46122275 168.76996883 409.698139 128.90873879 511.99950933 128.90873879M511.99950933 83.90292146c-114.34103658 0-221.86642758 44.54392175-302.72057966 125.39807383C128.42674025 290.13455279 83.90341212 397.63935017 83.90341212 512s44.52332812 221.84583396 125.37649888 302.69802433c80.85317075 80.87474571 188.37954308 125.39807383 302.72057967 125.39807384 114.34005621 0 221.82327863-44.54490213 302.67742975-125.39807384 80.89533933-80.83257713 125.41964783-188.33737354 125.41964783-302.69802433S895.57227937 290.15416604 814.67595871 209.30099529C733.82278796 128.42722996 626.33956554 83.90292146 511.99950933 83.90292146L511.99950933 83.90292146 511.99950933 83.90292146zM511.99950933 83.90292146" p-id="13021"></path><path d="M628.22048829 305.60165508c-27.84313875-24.87367392-64.21318921-37.31149221-109.15624241-37.31149221-50.92022804 0-91.22177871 14.94538658-120.73597575 44.92049884-29.59951554 29.93294271-44.39780275 70.71502087-44.39780276 122.36682716l0.0833568 0c0.75315321 16.20064225 14.13045154 29.13958167 30.56057054 29.13958167 16.42913863 0 29.80839771-12.93893942 30.55959016-29.13958167l0.04216859 0c0-0.37657708 0-0.75217283 0-1.14934354 0-0.10395042 0.04216858-0.22947675 0.04216858-0.33440754 0-0.06276317-0.04216858-0.12552537-0.04216858-0.2098635 0.50210246-76.60981833 34.1557015-114.9039405 100.9617775-114.9039405 25.83669063 0 47.19957171 7.5030945 63.96409921 22.45044279 16.76452654 14.96598117 25.125706 34.15472017 25.125706 57.56621796 0 27.27827313-15.55144042 54.91252971-46.69747021 82.92336242l-23.16044608 20.65287779c-22.65834458 20.27630071-37.24872904 37.89793183-43.64562992 52.84331938-6.39591954 14.98755613-9.57426558 39.13063217-9.57426559 72.45080404l0.04216859 0.06178183c-0.08433717 0.85710458-0.16769396 1.71420821-0.16769396 2.57131279 0 15.74070933 12.79281946 28.49136021 28.51195383 28.49136021 15.05031833 0 27.34103629-11.58071371 28.42761667-26.33781271l0.08335679-0.08335679 0.33538888-10.493152c0-34.30280183 16.22025646-64.69567746 48.82944275-91.26394729 54.59969617-44.62825892 81.85737567-87.39619063 81.85737566-128.17826879C670.06855225 362.81385225 656.14698287 330.45571671 628.22048829 305.60165508L628.22048829 305.60165508zM628.22048829 305.60165508" p-id="13022"></path><path d="M473.49552462 729.60248154c0 10.07440729 4.13842067 20.06643721 11.24532484 27.21551092 7.14907275 7.14907275 17.18229183 11.308088 27.25865987 11.308088 10.07440729 0 20.10860675-4.15901525 27.2576795-11.308088 7.06473558-7.14907275 11.24532483-17.14110362 11.24532484-27.21551092 0-10.09696263-4.18058925-20.12920037-11.24532484-27.23708492-7.14907275-7.14809238-17.18229183-11.28749342-27.2576795-11.28749341-10.07538767 0-20.10958713 4.13940104-27.25865987 11.28749341C477.63394529 709.47230079 473.49552462 719.50551892 473.49552462 729.60248154L473.49552462 729.60248154zM473.49552462 729.60248154" p-id="13023"></path></svg>