<?xml version="1.0" standalone="no"?><!DOCTYPE svg PUBLIC "-//W3C//DTD SVG 1.1//EN" "http://www.w3.org/Graphics/SVG/1.1/DTD/svg11.dtd"><svg t="1569818242100" class="icon" viewBox="0 0 1024 1024" version="1.1" xmlns="http://www.w3.org/2000/svg" p-id="27134" xmlns:xlink="http://www.w3.org/1999/xlink" width="200" height="200"><defs><style type="text/css"></style></defs><path d="M534.11542711 257.44146069c-138.85930243 0-251.42686996 112.56756752-251.42686995 251.42686995s112.56756752 251.42686996 251.42686995 251.42686996 251.42686996-112.56756752 251.42686996-251.42686996-112.56846879-251.42686996-251.42686996-251.42686995z m0 439.99657201c-104.14380088 0-188.56970206-84.42590118-188.56970205-188.56970206s84.42590118-188.56970206 188.56970205-188.56970205 188.56970206 84.42590118 188.56970206 188.56970205-84.42590118 188.56970206-188.56970206 188.56970206zM647.04595569 816.19125496c0 15.54519519-12.60187519 28.14707038-28.14707039 28.14707128h-171.56455576c-15.54519519 0-28.14707038-12.60187519-28.14707039-28.14707127 0-15.54519519 12.60187519-28.14707038 28.14707039-28.14707039h171.56455576c15.54519519 0.00090038 28.14707038 12.60187519 28.14707038 28.14707039zM592.09288078 900.63246699c0 15.54519519-12.60187519 28.14707038-28.14707126 28.14707126h-61.65930457c-15.54519519 0-28.14707038-12.60187519-28.14707126-28.14707126 0-15.54519519 12.60187519-28.14707038 28.14707126-28.14707038h61.65930457c15.54519519 0 28.14707038 12.60187519 28.14707126 28.14707038zM562.2624975 168.18448071c0 15.54519519-12.60187519 28.14707038-28.14707039 28.14707038-15.54519519 0-28.14707038-12.60187519-28.14707126-28.14707038V111.89033906c0-15.54519519 12.60187519-28.14707038 28.14707126-28.14707039 15.54519519 0 28.14707038 12.60187519 28.14707039 28.14707039v56.29414165zM833.59190031 302.77200612c-10.99241627 10.99241627-28.81355073 10.99241627-39.80596699 0-10.99241627-10.99241627-10.99241627-28.81355073 0-39.80596699l39.80596699-39.805967c10.99241627-10.99241627 28.81355073-10.99241627 39.805967 0 10.99241627 10.99241627 10.99241627 28.81355073 0 39.805967l-39.805967 39.80596699zM244.87032099 302.77200612c10.99241627 10.99241627 28.81355073 10.99241627 39.80596787 0 10.99241627-10.99241627 10.99241627-28.81355073 0-39.80596699l-39.80596787-39.805967c-10.99241627-10.99241627-28.81355073-10.99241627-39.80596699 0-10.99241627 10.99241627-10.99241627 28.81355073 0 39.805967l39.80596699 39.80596699zM219.34503931 557.20614234c15.28310653 2.84334798 29.97718908-7.24121505 32.82053619-22.52432158 2.84334798-15.28310653-7.24121505-29.97718908-22.52432158-32.82053619l-55.34485776-10.29621548c-15.28310653-2.84334798-29.97718908 7.24121505-32.82053619 22.52432157-2.84334798 15.28310653 7.24121505 29.97718908 22.52432158 32.82053619l55.34485776 10.29621549zM848.88491454 557.20614234c-15.28310653 2.84334798-29.97718908-7.24121505-32.82053707-22.52432158-2.84334798-15.28310653 7.24121505-29.97718908 22.52432157-32.82053619l55.34485776-10.29621548c15.28310653-2.84334798 29.97718908 7.24121505 32.8205362 22.52432157 2.84334798 15.28310653-7.24121505 29.97718908-22.52432158 32.82053619l-55.34485688 10.29621549z" p-id="27135"></path></svg>