<?xml version="1.0" standalone="no"?><!DOCTYPE svg PUBLIC "-//W3C//DTD SVG 1.1//EN" "http://www.w3.org/Graphics/SVG/1.1/DTD/svg11.dtd"><svg t="1569816923791" class="icon" viewBox="0 0 1024 1024" version="1.1" xmlns="http://www.w3.org/2000/svg" p-id="21668" xmlns:xlink="http://www.w3.org/1999/xlink" width="200" height="200"><defs><style type="text/css"></style></defs><path d="M119.25691479 400.9004333c-10.36360135 0-18.77594119-8.41145971-18.77594119-18.77594119v-225.31481481c0-10.36448148 8.41233984-18.77594119 18.77682132-18.77594119s18.77594119 8.41145971 18.77594119 18.77594119v225.31481481c0 10.36448148-8.41145971 18.77682132-18.77594119 18.77682134z" p-id="21669"></path><path d="M325.79578842 400.9004333H119.25779492c-10.36448148 0-18.77682132-8.41145971-18.77682132-18.77594119s8.41233984-18.77594119 18.77682132-18.77594119h206.53799349c10.36448148 0 18.77682132 8.41145971 18.77682132 18.77594119s-8.41233984 18.77682132-18.77682132 18.77682134zM513.55784071 607.43930694c-10.36360135 0-18.77594119-8.41145971-18.77594119-18.77594119v-337.97222223c0-10.36448148 8.41233984-18.77594119 18.77682133-18.77594119s18.77594119 8.41145971 18.77594118 18.77594119v337.97222222c0 10.36448148-8.41145971 18.77594119-18.77594118 18.7759412z" p-id="21670"></path><path d="M620.22592267 664.16231155c-5.23856944 0-10.43929304-2.17745646-14.13850463-6.42147221l-163.35324074-186.8229472c-6.81577315-7.81120696-6.0271713-19.65871759 1.78403567-26.49385373 7.82968981-6.81577315 19.67720045-6.0078083 26.49297358 1.78403567l163.35324075 186.82382732c6.81577315 7.81032682 6.0271713 19.65871759-1.78315552 26.4929736-3.56807132 3.07959585-7.98019306 4.6383167-12.35534911 4.6383167z" p-id="21671"></path><path d="M513.55784071 926.63558797c-227.77391479 0-413.07686711-185.30295233-413.07686711-413.07686712 0-10.36448148 8.41233984-18.77682132 18.77682132-18.77682133s18.77594119 8.41233984 18.77594119 18.77682133c0 207.06431481 168.46066993 375.5241046 375.52498474 375.5241046 207.06431481 0 375.5241046-168.45978979 375.5241046-375.5241046S720.62303566 138.03373611 513.55872085 138.03373611c-152.76344444 0-289.07890741 91.2525-347.32278704 232.46856019-3.9245264 9.57587964-14.87077777 14.15698749-24.5223491 10.19549537-9.57587964-3.94300925-14.15698749-14.92710648-10.19549537-24.52146897C195.56470559 200.8587236 345.53107783 100.4809736 513.55872085 100.4809736c227.77391479 0 413.07686711 185.30295233 413.07686712 413.07774725S741.33263563 926.63558797 513.55872085 926.63558797z" p-id="21672"></path></svg>