<?xml version="1.0" standalone="no"?><!DOCTYPE svg PUBLIC "-//W3C//DTD SVG 1.1//EN" "http://www.w3.org/Graphics/SVG/1.1/DTD/svg11.dtd"><svg t="1569818376972" class="icon" viewBox="0 0 1024 1024" version="1.1" xmlns="http://www.w3.org/2000/svg" p-id="28973" xmlns:xlink="http://www.w3.org/1999/xlink" width="200" height="200"><defs><style type="text/css"></style></defs><path d="M238.98897777 126.51182223l705.33333334 0 0 47.02222221-705.33333334 0 0-47.02222221Z" p-id="28974"></path><path d="M484.02177777 670.88808889l460.30053334 0 0 47.02222222-460.30053334 0 0-47.02222222Z" p-id="28975"></path><path d="M484.02177777 307.97057777l460.30053334 0 0 47.02222223-460.30053334 0 0-47.02222223Z" p-id="28976"></path><path d="M484.02177777 489.42933333l460.30053334 0 0 47.02222223-460.30053334 0 0-47.02222223Z" p-id="28977"></path><path d="M313.19004444 495.82435556L313.66026667 495.35413333 121.99768889 303.69155556 88.75297777 336.93626667 247.64106667 495.87137777 88.75297777 654.75946667 121.99768889 688.00417777 313.66026667 496.3416Z" p-id="28978"></path><path d="M238.98897777 852.29982223l705.33333334 0 0 47.02222221-705.33333334 0 0-47.02222221Z" p-id="28979"></path></svg>