<?xml version="1.0" standalone="no"?><!DOCTYPE svg PUBLIC "-//W3C//DTD SVG 1.1//EN" "http://www.w3.org/Graphics/SVG/1.1/DTD/svg11.dtd"><svg t="1569813469910" class="icon" viewBox="0 0 1024 1024" version="1.1" xmlns="http://www.w3.org/2000/svg" p-id="13139" xmlns:xlink="http://www.w3.org/1999/xlink" width="200" height="200"><defs><style type="text/css"></style></defs><path d="M512 923.44444444C285.13737007 923.44444444 100.55555556 738.88222223 100.55555556 512S285.13737007 100.55555556 512 100.55555556c226.84303673 0 411.44444444 184.58181451 411.44444444 411.44444444 0 226.88222223-184.60140772 411.44444444-411.44444444 411.44444444z m0-783.70370339C306.72840772 139.74074104 139.74074104 306.72840772 139.74074104 512s166.98766667 372.25925896 372.25925896 372.25925896 372.25925896-166.98766667 372.25925896-372.25925896S717.27159228 139.74074104 512 139.74074104z" p-id="13140"></path><path d="M512 682.47514784m-29.38888889 0a29.38888889 29.38888889 0 1 0 58.77777778 0 29.38888889 29.38888889 0 1 0-58.77777778 0Z" p-id="13141"></path><path d="M512 592.62351883a19.59259229 19.59259229 0 0 1-19.59259229-19.59259321V286.48925895a19.59259229 19.59259229 0 1 1 39.18518457 0v286.54166666a19.59259229 19.59259229 0 0 1-19.59259228 19.59259322z" p-id="13142"></path></svg>