<?xml version="1.0" standalone="no"?><!DOCTYPE svg PUBLIC "-//W3C//DTD SVG 1.1//EN" "http://www.w3.org/Graphics/SVG/1.1/DTD/svg11.dtd"><svg t="1569813651445" class="icon" viewBox="0 0 1024 1024" version="1.1" xmlns="http://www.w3.org/2000/svg" p-id="15633" xmlns:xlink="http://www.w3.org/1999/xlink" width="200" height="200"><defs><style type="text/css"></style></defs><path d="M708.67165217 562.79652174l185.82365218 185.76730435c19.47965217 19.47965217 30.20973913 45.39652174 30.20973913 72.96417391s-10.73008696 53.48556522-30.264 72.96521739c-19.42434783 19.4786087-45.34121739 30.20973913-72.90991305 30.20973913-27.56765217 0-53.43026087-10.73008696-72.96521739-30.20973913l-208.27513043-208.3293913-176.02852174 192.37147826c-29.98956522 30.04486957-68.83826087 46.1666087-110.16313044 46.16660869s-80.22782609-16.12278261-109.44730434-45.34121739c-29.27373913-29.21843478-45.34121739-68.06608696-45.34121739-109.392 0-41.37913043 16.06747826-80.22782609 45.34121739-109.44730435l250.31478261-229.07373913-145.92939131-145.9293913c-10.23443478 4.89704348-21.46121739 7.75721739-33.12626087 7.75721739-20.69008696 0-40.11443478-8.03373913-54.75130435-22.67060869l-54.31095652-54.31095653c-10.0706087-10.0706087-10.0706087-26.41252174 0-36.48208695l72.96521739-72.96417392c10.0706087-10.0706087 26.41252174-10.0706087 36.48208696 0l54.31095652 54.31095653c23.71617391 23.77147826 28.50365217 59.09843478 14.85808696 87.82121739l147.58017391 147.58017391 30.81495652-28.17286957c-2.03582609-12.43617391-3.46643478-24.81704348-3.46643478-36.92243478 0-127.992 104.16417391-232.15513043 232.15513044-232.15513043 21.24 0 42.70017391 3.02713043 63.77530434 9.024 8.80382609 2.53043478 15.57286957 9.51965217 17.88208696 18.37982608 2.31026087 8.80382609-0.27443478 18.21391304-6.71269565 24.70643479l-44.57113044 44.51582608c-28.94504348 28.99930435-28.94504348 76.15513043 0 105.15547826 28.1186087 28.1186087 77.09113043 28.1186087 105.15547826 0l44.51582609-44.57113043c6.49252174-6.43826087 15.95791304-9.024 24.70643478-6.71269565 8.91443478 2.31026087 15.84730435 9.13356522 18.37878261 17.88208695 5.99791304 21.07617391 9.024 42.53426087 9.024 63.77530435 0 122.54295652-95.52521739 222.96626087-216.03234782 231.32973913zM234.12486957 197.64173913l-36.09704348-36.04173913-36.42886957 36.42782609 36.04173913 36.09704348c9.79513043 9.73982609 26.688 9.73982609 36.48208696 0 10.0706087-10.0706087 10.0706087-26.41252174 0-36.48208696zM785.04695652 858.01217391c19.47965217 19.47965217 53.48556522 19.47965217 72.96521739 0 9.73982609-9.73982609 15.07826087-22.6706087 15.07826087-36.48208695 0-13.75617391-5.3373913-26.74226087-15.07826087-36.48208696l-200.34991304-200.35095652-72.96417391 72.96417391 200.35095652 200.35095652zM873.08834783 329.04486957l-8.52939131 8.5293913c-23.77147826 23.77147826-55.41182609 36.92243478-89.03373913 36.92243478-33.67617391 0-65.26121739-13.15095652-89.08695652-36.92243478-49.02886957-49.08313043-49.02886957-128.98121739 0-178.11965217l8.58365217-8.52939131c-100.14782609-0.4946087-183.01669565 80.17356522-183.01669565 180.53947826 0 13.15095652 1.59547826 26.85286957 4.78747826 40.66434783 0.27443478 1.10086957 0 2.20069565 0.10956522 3.30156522 0.16486957 1.76034783 0.33078261 3.52173913 0.1106087 5.28208695-0.16486957 1.65078261-0.66052174 3.19095652-1.15513044 4.73321739-0.44034783 1.59547826-0.93495652 3.0813913-1.70608696 4.56730435-0.88069565 1.59547826-1.98052174 2.91652174-3.19095652 4.29286957-0.71478261 0.8253913-1.04556522 1.87095652-1.92626087 2.64104347l-328.72591304 300.82852174c-18.70852174 18.70852174-29.4386087 44.62643478-29.4386087 72.19408696 0 27.5133913 10.73008696 53.43026087 30.264 72.90991304 39.01252174 39.01252174 106.91582609 38.95826087 145.87408696 0l300.11269565-327.90052174c0.77113043-0.88069565 1.87095652-1.32104348 2.75165218-2.03582608 1.32104348-1.10086957 2.58573913-2.20069565 4.12695652-3.02713044 1.54121739-0.8253913 3.0813913-1.32104348 4.73321739-1.81565217 1.54121739-0.44034783 2.97078261-0.88069565 4.56730435-1.10086957 1.81565217-0.16486957 3.52173913 0 5.3373913 0.16486957 1.10086957 0.1106087 2.20069565-0.16486957 3.30156522 0.05530435 13.6466087 3.19095652 27.29321739 4.78747826 40.60904348 4.78747826 99.54156522 0 180.53947826-80.99895652 180.53947826-180.54052174 0-0.8253913 0-1.65078261 0-2.42086957zM254.09808696 821.52904348c-28.50365217 0-51.6146087-23.05565217-51.6146087-51.6146087 0-28.44730435 23.11095652-51.55930435 51.6146087-51.55930435 28.50469565 0 51.55930435 23.11095652 51.55930434 51.55930435 0 28.55895652-23.05565217 51.6146087-51.55930434 51.6146087z" p-id="15634"></path></svg>