<?xml version="1.0" standalone="no"?><!DOCTYPE svg PUBLIC "-//W3C//DTD SVG 1.1//EN" "http://www.w3.org/Graphics/SVG/1.1/DTD/svg11.dtd"><svg t="1569813628367" class="icon" viewBox="0 0 1024 1024" version="1.1" xmlns="http://www.w3.org/2000/svg" p-id="15164" xmlns:xlink="http://www.w3.org/1999/xlink" width="200" height="200"><defs><style type="text/css"></style></defs><path d="M623.18034208 141.89278888c-2.21631067 25.1649325-15.91820992 45.53439662-22.68482237 54.20742829-12.94874604 16.61448508-32.4365895 28.84930442-51.48705442 33.00635795 1.78775837-25.29143921 17.79619058-46.83672467 23.43111104-53.6847322C584.89504617 160.37446571 604.39171588 147.79052842 623.18034208 141.89278888L623.18034208 141.89278888zM673.85049975 338.16180921c38.59322567 0 66.26965083 8.59653942 98.76802217 39.56212654-51.91462633 39.66509658-73.27260363 109.50928379-68.55656959 176.57621717 4.86999988 69.59607758 40.44865004 141.69089912 99.77026538 173.77542858-11.89452763 25.35027896-17.67066425 35.31190958-35.38644013 62.18026329-30.86359746 47.1475965-65.74303133 95.13660679-109.69364891 95.58477233l-0.76786363 0c-17.61378621 0-28.86989804-5.17008375-44.45075833-12.30150495-20.0997805-9.215341-45.14801388-20.69504638-87.32166009-20.69504638l-1.27879137 0c-42.42371658 0.25399283-67.91030888 11.60032696-88.39156929 20.72838871-16.03196792 7.147112-27.62150692 12.31523404-45.43436867 12.31523404l-1.08952246 0c-45.20881533-0.34127304-84.40024896-51.27719188-113.49962279-95.62792129-92.05828871-140.17772721-91.91216875-292.65696033-45.05092704-364.92045621 35.00201812-53.75043746 89.77431204-87.12160321 142.92752192-87.12160321 27.64013979 0 50.07489179 7.99538937 73.84433379 16.46248096 23.46445338 8.35235321 47.72815196 17.00479029 76.124388 17.00479029 26.93896179 0 48.62742513-8.19936871 69.59705892-16.12513133 22.6093105-8.55240913 46.01982792-17.39803854 79.89211575-17.39803854L673.85049975 338.16180921zM673.85638392 80.26562288c-46.23949804 3.13323537-100.19097179 32.59741892-131.79399338 70.80622258-28.65709342 34.83236246-52.31964196 86.41650275-43.03663496 136.54337071 1.22387408 0.04314896 2.42127038 0.05491729 3.63141538 0.05491729 49.22171063 0 99.63199129-29.5534245 129.21287396-67.50627363 28.35700858-36.32493979 49.80030438-87.50112238 41.98731937-139.89921733L673.85638392 80.26562288zM690.96316387 282.01559879c-77.89645558 0-110.73217654 36.95943217-164.80721491 36.95943217-55.58428688 0-97.93739538-36.89765033-165.33187271-36.89765034-66.15785454 0-136.39725075 40.15445033-181.09611775 108.81104788-62.60979596 96.55465358-51.99798312 278.1548355 49.720871 433.04356971 36.27394496 55.29793208 84.92294504 117.60077867 148.39671012 118.09601658 0.4805275 0 0.94340346 0 1.40922055 0 55.40678629 0 71.68882458-35.981706 147.70043495-36.43575475 0.42659058 0 0.82278092 0 1.24544905 0 75.04173008 0 89.97534833 36.376915 145.27524212 36.376915 0.35696288 0 0.711965 0 1.09540663 0 63.52672067-0.65900942 114.797048-69.57744471 151.0160747-124.90675837 26.14952417-39.63077292 35.86010308-59.6874035 56.13444209-104.56573375C734.68430567 656.92808588 710.96291642 449.18426396 856.52059088 369.40492488c-44.37034363-55.37148225-106.70653254-87.39030646-165.55644567-87.39030646L690.96316387 282.01559879" p-id="15165"></path></svg>