<?xml version="1.0" standalone="no"?><!DOCTYPE svg PUBLIC "-//W3C//DTD SVG 1.1//EN" "http://www.w3.org/Graphics/SVG/1.1/DTD/svg11.dtd"><svg t="1569813634855" class="icon" viewBox="0 0 1024 1024" version="1.1" xmlns="http://www.w3.org/2000/svg" p-id="15281" xmlns:xlink="http://www.w3.org/1999/xlink" width="200" height="200"><defs><style type="text/css"></style></defs><path d="M127.04352464 291.20890434L99.1128116 291.20890434l39.12013913-197.85126955 798.90476522 0-30.63318261 197.85126955-26.1042087 0c0.25154783-54.20744348-5.59749566-93.34205217-17.54490434-117.42274782-11.94518261-24.08069565-26.752-38.8429913-44.39819131-44.30692174s-48.93718261-8.20424348-93.85850435-8.20424348L592.26787247 121.2749913 489.87788986 702.11895652c-11.33968696 64.32834783-17.28111305 106.61509565-17.82093913 126.84243479-0.54205218 20.24403478 5.02761739 35.21335652 16.67227826 44.92354782s35.86893913 14.55749565 72.70288696 14.55749565l40.06956522 0-4.92076523 27.91735653L186.21625507 916.35979131l4.92076522-27.91735653 42.48709565 0c35.2 0 60.3648-4.43547826 75.49996523-13.34093912 15.13516521-8.90657392 26.27227826-22.76173913 33.43471304-41.5844174 7.15909565-18.80598261 16.81140869-62.61648696 28.93690435-131.39812174l102.3899826-580.84396522L351.86828986 121.2749913c-53.02650435 0-89.09022608 2.5344-108.18893913 7.58650435-19.11986087 5.06991305-38.90866087 20.34643479-59.3842087 45.8317913C163.82070725 200.17864348 144.72867247 239.02274783 127.04352464 291.20890434z" p-id="15282"></path></svg>