<?xml version="1.0" standalone="no"?><!DOCTYPE svg PUBLIC "-//W3C//DTD SVG 1.1//EN" "http://www.w3.org/Graphics/SVG/1.1/DTD/svg11.dtd"><svg t="1569818280914" class="icon" viewBox="0 0 1024 1024" version="1.1" xmlns="http://www.w3.org/2000/svg" p-id="27601" xmlns:xlink="http://www.w3.org/1999/xlink" width="200" height="200"><defs><style type="text/css"></style></defs><path d="M0 0" p-id="27602"></path><path d="M989.866667 256H34.133333a17.066667 17.066667 0 0 1 0-34.133333h955.733334c9.386667 0 17.066667 7.645867 17.066666 17.066666s-7.68 17.066667-17.066666 17.066667zM989.866667 392.533333H34.133333a17.066667 17.066667 0 0 1 0-34.133333h955.733334c9.386667 0 17.066667 7.645867 17.066666 17.066667s-7.68 17.066667-17.066666 17.066666zM989.866667 529.066667H34.133333a17.066667 17.066667 0 0 1 0-34.133334h955.733334c9.386667 0 17.066667 7.645867 17.066666 17.066667s-7.68 17.066667-17.066666 17.066667zM989.866667 665.6H34.133333c-9.4208 0-17.066667-7.68-17.066666-17.066667s7.645867-17.066667 17.066666-17.066666h955.733334c9.386667 0 17.066667 7.68 17.066666 17.066666s-7.68 17.066667-17.066666 17.066667zM989.866667 802.133333H34.133333c-9.4208 0-17.066667-7.68-17.066666-17.066666s7.645867-17.066667 17.066666-17.066667h955.733334c9.386667 0 17.066667 7.68 17.066666 17.066667s-7.68 17.066667-17.066666 17.066666z" p-id="27603"></path></svg>