<?xml version="1.0" standalone="no"?><!DOCTYPE svg PUBLIC "-//W3C//DTD SVG 1.1//EN" "http://www.w3.org/Graphics/SVG/1.1/DTD/svg11.dtd"><svg t="1569818301704" class="icon" viewBox="0 0 1024 1024" version="1.1" xmlns="http://www.w3.org/2000/svg" p-id="27720" xmlns:xlink="http://www.w3.org/1999/xlink" width="200" height="200"><defs><style type="text/css"></style></defs><path d="M80.14660493 80.14660493" p-id="27721"></path><path d="M915.06316901 296.07330247H108.93683099a14.39511346 14.39511346 0 0 1 1e-8-28.79022607h806.126338c7.91731252 0 14.39511346 6.44901098 14.39511261 14.39511262s-6.47780092 14.39511346-14.39511261 14.39511345zM915.06316901 411.23420753H108.93683099a14.39511346 14.39511346 0 0 1 1e-8-28.79022605h806.126338c7.91731252 0 14.39511346 6.44901098 14.39511261 14.39511345s-6.47780092 14.39511346-14.39511261 14.3951126zM915.06316901 526.39511346H108.93683099a14.39511346 14.39511346 0 0 1 1e-8-28.79022691h806.126338c7.91731252 0 14.39511346 6.44901098 14.39511261 14.39511345s-6.47780092 14.39511346-14.39511261 14.39511345zM915.06316901 641.55601852H108.93683099c-7.94610247 0-14.39511346-6.47780092-14.3951126-14.39511345s6.44901098-14.39511346 14.39511261-14.3951126h806.126338c7.91731252 0 14.39511346 6.47780092 14.39511261 14.3951126s-6.47780092 14.39511346-14.39511261 14.39511345zM915.06316901 756.71692359H483.20977395c-7.94610247 0-14.39511346-6.47780092-14.39511346-14.39511261s6.44901098-14.39511346 14.39511346-14.39511345h431.85339505c7.91731252 0 14.39511346 6.47780092 14.39511261 14.39511345s-6.47780092 14.39511346-14.3951126 14.39511262z" p-id="27722"></path></svg>