<?xml version="1.0" standalone="no"?><!DOCTYPE svg PUBLIC "-//W3C//DTD SVG 1.1//EN" "http://www.w3.org/Graphics/SVG/1.1/DTD/svg11.dtd"><svg t="1569817031873" class="icon" viewBox="0 0 1024 1024" version="1.1" xmlns="http://www.w3.org/2000/svg" p-id="23615" xmlns:xlink="http://www.w3.org/1999/xlink" width="200" height="200"><defs><style type="text/css"></style></defs><path d="M588.7297589 879.11407268a211.31666254 211.31666254 0 0 0 10.51203139-15.20933676c1.94513967-3.06256032 3.84889339-6.29066445 5.73195413-9.58084751 1.42781529-2.48315701 2.85563057-4.96631404 4.22136692-7.55293594 1.88306073-3.51780578 3.70404256-7.20115537 5.50433141-10.90519792 1.32435041-2.69008678 2.62800785-5.29740164 3.89027933-8.0909533 1.84167479-4.05582312 3.62127065-8.31857603 5.38017355-12.60202188 1.13811363-2.75216569 2.29692024-5.38017355 3.39364794-8.23580412 1.96583266-5.02839297 3.80750743-10.30510163 5.66987519-15.62319628 0.82771901-2.33830619 1.65543801-4.55245453 2.48315702-6.93214667 2.5866219-7.80125165 5.04908594-15.85081899 7.42877809-24.21078096 0.49663141-1.80028884 0.95187686-3.72473554 1.44850826-5.5871033 1.80028884-6.64244503 3.57988471-13.36766196 5.2560157-20.36188757 0.78633306-3.331569 1.51058719-6.84937478 2.27622726-10.2637157 1.24157852-5.69056817 2.52454297-11.38113634 3.70404256-17.25794131 0.1655438-0.95187686 0.41385952-1.84167479 0.57940331-2.79355165l0.7449471 0.28970167c1.24157852 0.51732438 2.4210781 1.09672769 3.62127066 1.61405206 5.15255082 2.19345537 10.26371568 4.51106859 15.31280163 6.95283965l6.20789255 3.10394629a377.64679703 377.64679703 0 0 1 32.48797104 18.52021278l4.01443719 2.50385c5.7526471 3.7661215 11.38113634 7.69778677 16.94754667 11.7536099l4.30413884 3.33156901c4.09720908 3.10394628 8.15303222 6.26997148 12.14677643 9.53946155l5.46294545 4.63522644c3.62127065 3.10394628 7.20115537 6.26997148 10.69826817 9.51876858 1.69682397 1.55197314 3.39364794 3.10394628 5.0697789 4.69730536 0.74494711 0.72425413 1.44850826 1.48989422 2.21414836 2.21414835-52.91193754 51.67035902-118.07411638 85.89653999-189.13379315 99.94707013 0.82771901-1.0760347 1.5933591-2.31761322 2.4210781-3.4143409zM248.59932585 782.58134345c0.76564008-0.74494711 1.48989422-1.55197314 2.27622728-2.27622726 1.5933591-1.55197314 3.2487971-3.04186735 4.86284918-4.55245454 3.57988471-3.29018306 7.18046239-6.51828719 10.88450494-9.66361941a367.63139705 367.63139705 0 0 1 17.63041485-14.174688c1.40712232-1.0760347 2.77285868-2.19345537 4.20067395-3.24879711 5.56641033-4.07651611 11.21559255-8.00818139 16.96823967-11.77430286l3.93166528-2.48315703a393.82870364 393.82870364 0 0 1 19.92733508-11.83638181c4.17998099-2.31761322 8.40134792-4.55245453 12.66410082-6.70452395 2.06929752-1.03464876 4.09720908-2.0899905 6.1665066-3.10394629 5.06977893-2.44177107 10.18094379-4.75938429 15.3541876-6.97353263 1.20019256-0.51732438 2.35899917-1.09672769 3.57988469-1.57266611l0.7449471-0.31039463 0.60009629 2.77285867c1.17949958 5.95957685 2.44177107 11.69153097 3.72473554 17.42348511 0.76564008 3.37295495 1.44850826 6.82868181 2.23484131 10.07747891 1.67613099 7.09769049 3.4971128 13.92637229 5.3387876 20.69297518 0.47593843 1.73820992 0.91049091 3.55919172 1.36573636 5.29740165 2.37969213 8.33926899 4.86284917 16.4302223 7.44947106 24.23147394 0.76564008 2.31761322 1.61405206 4.42829668 2.37969215 6.70452396 1.88306073 5.38017355 3.7661215 10.76034708 5.75264711 15.87151195 1.09672769 2.79355165 2.25553429 5.40086653 3.39364792 8.13233925 1.75890288 4.30413884 3.51780578 8.58758469 5.38017354 12.66410081 1.28296446 2.79355165 2.5866219 5.40086653 3.89027935 8.07026032 1.80028884 3.72473554 3.62127065 7.4080851 5.50433139 10.9258909 1.38642933 2.60731487 2.81424463 5.0904719 4.24205991 7.59432188 1.86236776 3.2487971 3.7661215 6.45620826 5.69056818 9.51876859a249.74351745 249.74351745 0 0 0 10.49133841 15.1679508c0.82771901 1.11742066 1.63474503 2.37969213 2.48315703 3.45572685-71.10106271-14.02983717-136.22185561-48.25601812-189.13379315-99.92637714z m102.43022715-261.31089057c0 13.14003925 0.28970167 26.19730658 0.76564009 39.13041607 0.12415785 3.51780578 0.41385952 6.95283965 0.55871033 10.44995245 0.47593843 9.62223346 0.97256984 19.24446691 1.69682396 28.72184958 0.37247356 4.82146322 0.86910497 9.53946156 1.30365744 14.29884583 0.72425413 8.07026032 1.48989422 16.14052064 2.40038512 24.0866231 0.62078925 5.15255082 1.30365743 10.22232974 1.98652562 15.31280165 0.62078925 4.71799834 1.13811363 9.51876859 1.82098181 14.15399502-1.80028884 0.70356114-3.51780578 1.51058719-5.31809463 2.23484132a443.98847547 443.98847547 0 0 0-21.66554501 9.60154048c-2.4210781 1.13811363-4.8421562 2.27622728-7.2425413 3.47641983-5.2560157 2.60731487-10.44995247 5.40086653-15.58181031 8.25649709-1.5933591 0.86910497-3.20741116 1.69682397-4.78007727 2.5866219-6.663138 3.80750743-13.20211817 7.80125165-19.65832642 11.98123262l-4.65591941 3.16602521a423.79213169 423.79213169 0 0 0-14.34023181 9.97401405c-2.1727624 1.57266611-4.32483182 3.22810413-6.47690122 4.86284916a388.5933809 388.5933809 0 0 0-30.12897188 25.24542973c-1.90375372 1.73820992-3.80750743 3.43503387-5.66987518 5.21462973-0.72425413 0.68286818-1.48989422 1.34504339-2.19345538 2.02791158a375.90858712 375.90858712 0 0 1-89.45573171-234.7824964H351.00886003zM223.82983457 267.94705072c0.76564008 0.74494711 1.5933591 1.44850826 2.35899917 2.19345537 1.90375372 1.80028884 3.86958636 3.53849875 5.79403306 5.33878761a405.25122592 405.25122592 0 0 0 30.62560326 25.55582434c2.15206942 1.61405206 4.28344586 3.26949009 6.47690123 4.8421562 4.90423512 3.55919172 9.87054917 6.97353264 14.89894212 10.30510164 1.48989422 0.97256984 2.91770951 2.00721859 4.40760372 2.95909544 6.55967314 4.22136695 13.24350411 8.23580413 20.01010701 12.0846975 1.65543801 0.93118388 3.35226198 1.77959587 5.00769998 2.69008677 5.17324379 2.85563057 10.40856652 5.60779627 15.70596817 8.23580414 2.44177107 1.20019256 4.92492809 2.35899917 7.38739213 3.51780577a409.51397882 409.51397882 0 0 0 22.05871156 9.60154049c1.77959587 0.70356114 3.4971128 1.48989422 5.27670867 2.17276239-0.86910497 5.21462974-1.57266611 10.57411031-2.35899918 15.87151196-0.53801736 3.51780578-1.0760347 7.03561156-1.57266611 10.59480331-1.61405206 11.9191537-3.06256032 23.98315823-4.22136694 36.2540925l-0.12415785 1.55197314a1011.12084624 1011.12084624 0 0 0-2.69008677 35.69538218c-0.20692974 3.89027934-0.37247356 7.86333057-0.55871033 11.79499586-0.2483157 5.29740164-0.5794033 10.55341735-0.76564009 15.93359088H135.22251485A375.8465082 375.8465082 0 0 1 223.85052755 267.94705072zM445.5757566 147.1621546a171.06882581 171.06882581 0 0 0-10.9258909 13.07796032c-0.12415785 0.1655438-0.20692974 0.3310876-0.35178057 0.47593841-2.79355165 3.72473554-5.5043314 7.73917272-8.21511115 11.89846075-0.62078925 0.99326281-1.28296446 1.96583266-1.90375371 2.97978842-2.69008678 4.28344586-5.3387876 8.75312851-7.90471652 13.45043386-0.47593843 0.84841199-0.91049091 1.73820992-1.34504338 2.5866219-2.31761322 4.30413884-4.55245453 8.77382148-6.76660289 13.38835495l-1.44850827 3.02117437c-2.4210781 5.21462974-4.75938429 10.63618924-7.03561156 16.24398551l-1.57266611 3.89027934c-2.15206942 5.38017355-4.22136695 10.90519793-6.24927851 16.61645908l-0.64148222 1.77959585c-2.15206942 6.16650661-4.20067397 12.58132892-6.20789255 19.14100205l-1.40712231 4.67661239c-1.98652562 6.62175207-3.89027934 13.38835494-5.71126117 20.38258055l-0.62078924 2.5866219c-1.67613099 6.47690123-3.2487971 13.09865329-4.7593843 19.86525617l-1.09672768 4.86284916-0.70356116 3.14533224-1.24157852-0.45524545c-1.55197314-0.62078925-3.04186735-1.32435041-4.55245453-1.96583265a373.6737458 373.6737458 0 0 1-34.08133013-16.55438015c-2.06929752-1.11742066-4.11790206-2.21414835-6.12512065-3.37295494a390.53852057 390.53852057 0 0 1-14.48508262-8.75312851c-1.20019256-0.76564008-2.40038512-1.44850826-3.60057768-2.23484131a376.23967472 376.23967472 0 0 1-17.32002023-11.93984669c-1.48989422-1.09672769-2.93840247-2.27622728-4.42829668-3.39364794a379.71609455 379.71609455 0 0 1-12.31232024-9.6636194c-1.86236776-1.53128017-3.72473554-3.10394628-5.5871033-4.67661239a382.42687431 382.42687431 0 0 1-10.82242603-9.60154048c-1.73820992-1.61405206-3.4971128-3.18671818-5.17324378-4.82146322-0.82771901-0.76564008-1.57266611-1.61405206-2.37969216-2.37969214 56.90568175-55.58133134 127.9860515-90.98701187 205.39847166-102.78200772a139.92589816 139.92589816 0 0 0-8.42204092 8.52550577z m329.84602438 94.25650195c-0.80702602 0.78633306-1.57266611 1.61405206-2.40038512 2.40038512-1.65543801 1.61405206-3.39364794 3.16602521-5.11116487 4.75938428a400.96778007 400.96778007 0 0 1-16.4302223 14.31953883c-4.05582312 3.31087602-8.1737252 6.53898015-12.35370618 9.68431238-1.46920125 1.09672769-2.91770951 2.27622728-4.40760372 3.35226198-5.6698752 4.13859504-11.46390825 8.15303222-17.32002022 11.96053967l-3.60057767 2.23484131c-4.75938429 3.0004814-9.60154049 5.93888388-14.48508263 8.75312851-2.02791157 1.15880661-4.07651611 2.25553429-6.12512066 3.37295494a374.04621936 374.04621936 0 0 1-34.10202309 16.55438015c-1.51058719 0.64148223-3.0004814 1.34504339-4.5110686 1.96583265l-1.28296447 0.45524545c-0.20692974-1.05534174-0.45524545-2.06929752-0.68286817-3.14533224l-1.09672768-4.86284916c-1.53128017-6.78729585-3.10394628-13.42974089-4.75938429-19.90664212l-0.62078927-2.52454296a633.03949671 633.03949671 0 0 0-13.32627601-44.24158095l-0.62078927-1.67613099a451.93457793 451.93457793 0 0 0-6.29066444-16.76130989l-1.53128017-3.80750743c-2.27622728-5.60779627-4.65591941-11.05004875-7.0769975-16.28537148-0.45524545-0.99326281-0.95187686-1.96583266-1.4278153-2.95909544a328.56305992 328.56305992 0 0 0-6.78729586-13.49181984l-1.30365743-2.48315701a263.00771455 263.00771455 0 0 0-7.94610246-13.53320577l-1.86236777-2.89701652a218.41435302 218.41435302 0 0 0-8.29788305-12.0019256L589.37124113 160.21942193a175.47642953 175.47642953 0 0 0-8.85659338-10.76034709l-2.04860455-2.27622727a143.94033536 143.94033536 0 0 0-8.44273386-8.56689171c77.39172719 11.79499585 148.47209693 47.20067639 205.39847164 102.78200771z m-102.98893748 243.72186166c-0.20692974-5.9181909-0.55871033-11.73291693-0.82771901-17.58902891-0.20692974-3.80750743-0.3310876-7.65640082-0.55871033-11.44321526a1013.68677514 1013.68677514 0 0 0-2.81424462-36.62656606l-0.37247356-3.37295497a912.39466164 912.39466164 0 0 0-3.82820041-32.40519913c-0.51732438-3.82820041-1.09672769-7.57362893-1.65543801-11.38113634-0.74494711-4.94562108-1.40712232-9.97401405-2.21414833-14.85755618 1.80028884-0.70356114 3.53849875-1.51058719 5.33878758-2.21414836a462.69492502 462.69492502 0 0 0 22.03801858-9.60154049c2.44177107-1.15880661 4.88354215-2.27622728 7.30462024-3.47641982a403.51301602 403.51301602 0 0 0 15.80943302-8.27719006c1.63474503-0.91049091 3.31087602-1.73820992 4.92492811-2.64870083 6.76660288-3.84889339 13.45043388-7.86333057 20.03079996-12.10539048 1.44850826-0.95187686 2.89701653-1.98652562 4.34552479-2.93840247 5.06977893-3.35226198 10.05678594-6.76660288 14.96102105-10.34648759 2.19345537-1.55197314 4.30413884-3.18671818 6.43551529-4.80077025a428.82052466 428.82052466 0 0 0 18.83060741-15.10587187c4.03513016-3.41434091 7.98748841-6.95283965 11.87776776-10.55341735 1.92444669-1.73820992 3.84889339-3.45572686 5.71126115-5.23532272 0.78633306-0.74494711 1.63474503-1.44850826 2.40038511-2.21414835a375.90858712 375.90858712 0 0 1 88.60731974 217.19346749H672.4328435z m-246.45333439-109.32098788l0.6621752 0.16554382c8.85659338 1.86236776 17.79595866 3.39364794 26.77670988 4.67661238l2.3383062 0.3310876c9.02213718 1.24157852 18.0856603 2.1727624 27.19056938 2.81424464l1.03464877 0.06207892c9.31183883 0.64148223 18.62367765 1.03464876 28.01828838 1.03464876 9.37391776 0 18.70644957-0.39316653 28.0182884-1.03464876 0.37247356 0 0.74494711-0.04138596 1.09672768-0.06207892 9.08421609-0.62078925 18.10635329-1.57266611 27.1077975-2.81424464l2.46246404-0.35178057a415.72187138 415.72187138 0 0 0 26.65255202-4.65591941c0.26900868-0.04138596 0.51732438-0.12415785 0.76564009-0.18623678 8.31857603-1.75890288 16.55438015-3.82820041 24.74879832-6.10442768 0.78633306-0.20692974 1.5933591-0.37247356 2.37969214-0.60009628 0.5794033 3.64196364 1.24157852 7.24254132 1.7589029 10.92589089 0.49663141 3.39364794 1.01395579 6.78729585 1.44850826 10.22232975 1.34504339 9.99470702 2.52454297 20.11357187 3.53849875 30.3359016 0.14485082 1.38642933 0.3310876 2.75216569 0.45524545 4.13859504 1.09672769 11.62945205 1.94513967 23.46583385 2.62800786 35.38498755 0.20692974 3.22810413 0.3310876 6.51828719 0.47593841 9.78777728 0.2483157 5.04908594 0.37247356 10.16025081 0.53801736 15.25072269H387.94582072c0.14485082-5.11116486 0.26900868-10.26371568 0.51732437-15.33349462 0.1655438-3.2487971 0.28970167-6.53898015 0.47593844-9.78777724 0.68286818-11.87776775 1.55197314-23.69345658 2.62800785-35.28152269 0.14485082-1.53128017 0.35178058-3.04186735 0.49663141-4.55245453 1.03464876-10.11886486 2.19345537-20.0928789 3.49711281-29.94273508 0.45524545-3.43503387 0.97256984-6.82868181 1.44850827-10.24302272 0.53801736-3.68334958 1.20019256-7.24254132 1.77959586-10.90519792 0.78633306 0.22762273 1.61405206 0.39316653 2.40038511 0.62078924 8.23580413 2.27622728 16.47160824 4.34552479 24.79018427 6.10442768zM603.04929772 649.35996925c-1.92444669-0.45524545-3.84889339-0.91049091-5.79403305-1.32435042a421.14343086 421.14343086 0 0 0-21.52069419-3.84889338 412.12129369 412.12129369 0 0 0-30.29451566-3.62127066c-3.55919172-0.28970167-7.11838348-0.45524545-10.6775752-0.66217521-5.17324379-0.26900868-10.32579462-0.45524545-15.47834543-0.55871033-2.4210781-0.04138596-4.82146322-0.2483157-7.26323428-0.24831571-2.4210781 0-4.8421562 0.20692974-7.26323429 0.24831571-5.17324379 0.10346488-10.30510163 0.28970167-15.45765245 0.55871033-3.55919172 0.20692974-7.11838348 0.37247356-10.65688223 0.66217521a411.19010981 411.19010981 0 0 0-30.33590162 3.62127066c-7.24254132 1.11742066-14.48508262 2.37969213-21.66554501 3.86958636l-5.5871033 1.28296446c-7.18046239 1.61405206-14.31953883 3.43503387-21.41722931 5.4215595-1.01395579 0.28970167-2.04860455 0.47593843-3.04186735 0.78633305-0.47593843-3.26949009-0.99326281-6.49759421-1.40712231-9.78777725a840.30033611 840.30033611 0 0 1-4.01443719-36.89557476c-0.39316653-4.51106859-0.82771901-9.02213718-1.15880661-13.55389874-0.64148223-8.69104958-1.11742066-17.44417807-1.53128016-26.2593855-0.18623677-3.64196364-0.43455247-7.24254132-0.55871033-10.88450494a1037.00775818 1037.00775818 0 0 1-0.72425413-36.89557475h249.66074555A1037.13191602 1037.13191602 0 0 1 636.15805801 558.16602763c-0.14485082 3.64196364-0.39316653 7.20115537-0.55871033 10.82242602-0.41385952 8.81520742-0.91049091 17.5890289-1.55197314 26.28007848-0.35178058 4.55245453-0.76564008 9.08421609-1.17949958 13.59528468a946.16559712 946.16559712 0 0 1-3.99374421 36.91626773c-0.41385952 3.29018306-0.93118388 6.49759421-1.40712231 9.76708428-1.03464876-0.31039463-2.06929752-0.49663141-3.10394629-0.78633304a400.03659618 400.03659618 0 0 0-21.31376443-5.40086653z m-195.05198404-328.89414751c0.82771901-3.68334958 1.65543801-7.32531321 2.52454298-10.90519792 0.78633306-3.16602521 1.5933591-6.24927851 2.40038511-9.31183883l2.73147272-10.30510164a572.0159129 572.0159129 0 0 1 14.44369667-43.95187928 449.03756141 449.03756141 0 0 1 6.41482231-15.76804709 364.98269622 364.98269622 0 0 1 6.70452395-14.52646858c1.20019256-2.44177107 2.44177107-4.80077024 3.6833496-7.13907644 1.09672769-2.06929752 2.19345537-4.13859504 3.31087602-6.10442768 1.24157852-2.23484132 2.54523596-4.34552479 3.82820041-6.43551529 1.11742066-1.86236776 2.23484132-3.72473554 3.39364793-5.46294543 1.30365743-2.00721859 2.62800785-3.84889339 3.97305123-5.73195413 1.13811363-1.61405206 2.27622728-3.2487971 3.45572686-4.75938429 1.36573636-1.77959587 2.73147273-3.37295495 4.11790206-4.98700702 1.15880661-1.38642933 2.29692024-2.77285868 3.47641982-4.03513015 1.42781529-1.55197314 2.85563057-2.89701653 4.28344587-4.24205993 1.15880661-1.11742066 2.31761322-2.27622728 3.45572685-3.31087602 1.48989422-1.26227148 2.97978842-2.31761322 4.49037562-3.43503387 1.11742066-0.82771901 2.25553429-1.75890288 3.37295496-2.50385001 1.57266611-1.01395579 3.16602521-1.80028884 4.75938428-2.62800785 1.05534174-0.55871033 2.11068346-1.24157852 3.1867182-1.69682395 1.77959587-0.76564008 3.53849875-1.24157852 5.29740164-1.77959587 0.91049091-0.26900868 1.80028884-0.6621752 2.71077975-0.86910497 2.6693938-0.5794033 5.35948057-0.91049091 8.00818139-0.91049092 2.69008678 0 5.38017355 0.3310876 8.02887436 0.91049092 0.88979793 0.20692974 1.77959587 0.62078925 2.69008677 0.86910497 1.75890288 0.51732438 3.51780578 1.01395579 5.31809462 1.77959587 1.03464876 0.45524545 2.0899905 1.13811363 3.16602521 1.655438 1.5933591 0.84841199 3.16602521 1.65543801 4.75938429 2.69008678 1.13811363 0.72425413 2.23484132 1.61405206 3.35226198 2.46246404 1.51058719 1.11742066 3.04186735 2.19345537 4.53176157 3.47641982 1.13811363 0.99326281 2.27622728 2.15206942 3.39364793 3.24879713 1.44850826 1.36573636 2.89701653 2.73147273 4.34552477 4.28344586 1.15880661 1.24157852 2.29692024 2.62800785 3.4350339 3.97305123 1.40712232 1.65543801 2.79355165 3.26949009 4.15928801 5.0697789 1.15880661 1.48989422 2.27622728 3.10394628 3.43503387 4.69730537 1.34504339 1.88306073 2.69008678 3.7661215 3.99374421 5.79403306 1.13811363 1.71751695 2.25553429 3.55919172 3.37295496 5.38017354a201.71512205 201.71512205 0 0 1 7.13907644 12.56063594 246.8671939 246.8671939 0 0 1 6.87006775 13.88498635 355.02937516 355.02937516 0 0 1 12.89172354 31.45332227 584.80417156 584.80417156 0 0 1 5.9181909 17.506257 492.53419524 492.53419524 0 0 1 5.54571736 18.58229172c0.95187686 3.37295495 1.86236776 6.84937478 2.79355165 10.34648759 0.78633306 3.04186735 1.5933591 6.10442767 2.35899917 9.2497599 0.86910497 3.57988471 1.69682397 7.24254132 2.54523595 10.96727683 0.74494711 3.16602521 1.44850826 6.35274338 2.15206941 9.62223346l0.64148224 3.18671819-0.47593844 0.12415785c-7.49085701 2.21414835-15.08517891 4.09720908-22.70019378 5.83541901-1.5933591 0.35178058-3.18671818 0.74494711-4.75938428 1.0760347a376.48799043 376.48799043 0 0 1-28.0182884 4.84215618c-7.24254132 0.97256984-14.48508262 1.75890288-21.78970286 2.33830622l-5.7526471 0.33108759a386.02745198 386.02745198 0 0 1-25.63859625 0.76564008 387.16556562 387.16556562 0 0 1-21.04475575-0.76564008l-5.71126115-0.33108759a385.36527679 385.36527679 0 0 1-49.80799127-7.1804624c-1.61405206-0.3310876-3.18671818-0.72425413-4.80077023-1.0760347a376.19828877 376.19828877 0 0 1-22.74157973-5.83541901l-0.41385951-0.12415785 0.62078926-3.18671819c0.70356114-3.26949009 1.44850826-6.47690123 2.1727624-9.66361939z m210.8407241 385.61359247a565.80802035 565.80802035 0 0 1-7.49085701 32.11549749 694.24931728 694.24931728 0 0 1-5.56641032 19.84456319 442.20887959 442.20887959 0 0 1-5.98026983 18.7478355 490.83737127 490.83737127 0 0 1-6.37343636 17.54764297 307.68384795 307.68384795 0 0 1-6.72521693 16.30606444c-1.11742066 2.48315701-2.21414835 4.96631404-3.31087603 7.34600619-1.24157852 2.62800785-2.50385 5.13185785-3.76612148 7.63570783-1.13811363 2.25553429-2.27622728 4.53176156-3.45572686 6.68383099-1.28296446 2.37969213-2.5866219 4.63522644-3.93166528 6.91145372-1.15880661 2.00721859-2.31761322 4.03513016-3.51780578 5.95957684-1.34504339 2.15206942-2.71077975 4.159288-4.09720908 6.18719958-1.17949958 1.73820992-2.35899917 3.53849875-3.57988471 5.1732438-1.40712232 1.92444669-2.8349376 3.68334958-4.26275289 5.44225248-1.20019256 1.46920125-2.4210781 3.04186735-3.62127066 4.4076037-1.46920125 1.65543801-2.95909545 3.10394628-4.42829669 4.5938405-1.22088554 1.22088554-2.40038512 2.50385-3.62127064 3.62127065-1.53128017 1.36573636-3.08325331 2.52454297-4.63522646 3.72473553-1.17949958 0.93118388-2.33830619 1.94513967-3.53849875 2.7521657-1.65543801 1.11742066-3.26949009 1.98652562-4.92492809 2.89701653-1.11742066 0.60009629-2.23484132 1.34504339-3.31087604 1.8416748-1.86236776 0.84841199-3.72473554 1.38642933-5.54571734 1.96583262-0.93118388 0.28970167-1.86236776 0.72425413-2.79355165 0.95187686-2.77285868 0.62078925-5.56641033 0.99326281-8.31857603 0.99326282-2.77285868 0-5.5871033-0.35178058-8.33926898-0.99326282-0.93118388-0.20692974-1.86236776-0.6621752-2.77285867-0.95187686-1.86236776-0.5794033-3.70404256-1.11742066-5.54571735-1.96583262-1.09672769-0.49663141-2.19345537-1.24157852-3.29018306-1.82098183-1.65543801-0.93118388-3.31087602-1.77959587-4.96631404-2.9177095-1.17949958-0.78633306-2.31761322-1.77959587-3.47641983-2.69008677-1.57266611-1.22088554-3.14533223-2.40038512-4.71799835-3.80750744-1.17949958-1.0760347-2.33830619-2.33830619-3.51780577-3.51780577-1.51058719-1.51058719-3.04186735-3.0004814-4.55245454-4.69730538-1.15880661-1.34504339-2.33830619-2.85563057-3.5178058-4.28344586-1.44850826-1.80028884-2.89701653-3.60057767-4.34552478-5.56641032-1.17949958-1.5933591-2.33830619-3.331569-3.4971128-5.02839297-1.40712232-2.06929752-2.81424463-4.13859504-4.22136693-6.37343635-1.13811363-1.86236776-2.27622728-3.80750743-3.41434091-5.75264711a209.08182122 209.08182122 0 0 1-4.03513017-7.13907644c-1.11742066-2.06929752-2.21414835-4.26275289-3.31087602-6.43551527a312.25699547 312.25699547 0 0 1-10.7603471-23.56929874c-1.03464876-2.50385-2.06929752-5.11116486-3.10394627-7.71847973a543.45960716 543.45960716 0 0 1-6.37343636-17.58902891 549.02601748 549.02601748 0 0 1-11.56737313-38.63378466 648.51784215 648.51784215 0 0 1-9.66361941-42.83445862l-0.72425412-3.89027934a372.41147432 372.41147432 0 0 1 23.6727636-6.2492785c1.75890288-0.41385952 3.47641983-0.84841199 5.23532272-1.2415785a373.71513176 373.71513176 0 0 1 22.32772022-4.13859504l6.29066446-0.91049092c7.42877809-1.03464876 14.87824916-1.86236776 22.34841319-2.48315702 1.94513967-0.14485082 3.89027934-0.20692974 5.81472602-0.35178056a379.55055075 379.55055075 0 0 1 26.38354336-0.78633308c7.24254132 0.04138596 14.46438965 0.3310876 21.68623798 0.80702604 1.92444669 0.10346488 3.82820041 0.20692974 5.75264711 0.35178059a397.59482511 397.59482511 0 0 1 51.02887679 7.51154999l5.11116486 1.22088553c7.88402354 1.82098181 15.72666113 3.82820041 23.50721982 6.18719958 0.08277189 0.02069298 0.1655438 0.04138596 0.20692975 0.08277189a535.32726791 535.32726791 0 0 1-2.87632354 14.52646858h0.02069296z m181.35323448 49.97353507c-0.72425413-0.70356114-1.51058719-1.38642933-2.27622727-2.08999049-1.77959587-1.71751695-3.64196364-3.37295495-5.46294545-5.04908596a393.89078255 393.89078255 0 0 0-30.31520863-25.39028055c-2.13137644-1.61405206-4.24205991-3.2487971-6.39412933-4.82146321a424.49569284 424.49569284 0 0 0-14.46438965-10.03609296c-1.53128017-1.01395579-3.02117438-2.0899905-4.55245455-3.10394629a417.17037964 417.17037964 0 0 0-19.67901939-12.00192559c-1.55197314-0.86910497-3.12463925-1.65543801-4.65591942-2.52454298a422.75748293 422.75748293 0 0 0-15.72666113-8.31857601c-2.37969213-1.20019256-4.78007727-2.31761322-7.18046239-3.45572686a424.99232425 424.99232425 0 0 0-21.68623799-9.60154048c-1.80028884-0.72425413-3.53849875-1.53128017-5.31809462-2.23484132 0.68286818-4.67661239 1.17949958-9.47738264 1.82098182-14.21607395 0.68286818-5.06977893 1.38642933-10.13955783 1.96583264-15.27141568 0.93118388-7.9254095 1.67613099-15.93359089 2.40038512-23.96246527 0.43455247-4.82146322 0.95187686-9.60154049 1.30365743-14.48508262 0.72425413-9.29114586 1.22088554-18.72714254 1.67613099-28.16313922 0.18623677-3.68334958 0.45524545-7.30462025 0.60009629-11.00866281 0.49663141-12.91241651 0.76564008-25.9282979 0.78633305-39.04764415h216.61406419a376.01205199 376.01205199 0 0 1-89.45573171 234.7824964zM925.85971052 512a412.20406559 412.20406559 0 0 0-111.82483787-282.7901988l-0.04138594-0.04138597A415.30801186 415.30801186 0 0 0 512.00020692 98.14049639 415.2666259 415.2666259 0 0 0 210.00692716 229.16841523 412.30753046 412.30753046 0 0 0 98.14070333 512c0 105.3893226 39.73051234 205.83302412 111.86622383 282.83158477A415.30801186 415.30801186 0 0 0 512.00020692 925.85950361h0.04138595a415.30801186 415.30801186 0 0 0 301.95189384-131.02791884l0.04138595-0.04138596A412.24545155 412.24545155 0 0 0 925.85971052 512z" p-id="23616"></path></svg>