<?xml version="1.0" standalone="no"?><!DOCTYPE svg PUBLIC "-//W3C//DTD SVG 1.1//EN" "http://www.w3.org/Graphics/SVG/1.1/DTD/svg11.dtd"><svg t="1569818486094" class="icon" viewBox="0 0 1024 1024" version="1.1" xmlns="http://www.w3.org/2000/svg" p-id="31212" xmlns:xlink="http://www.w3.org/1999/xlink" width="200" height="200"><defs><style type="text/css"></style></defs><path d="M269.673417 500.004805l510.629793 0 0 25.582655-510.629793 0 0-25.582655Z" p-id="31213"></path><path d="M544.488842 218.734318l18.110479 18.110479-296.489723 296.489723-18.110479-18.110479 296.489723-296.489723Z" p-id="31214"></path><path d="M268.345739 496.343939l294.97527 294.97527-19.495411 19.495411-294.97527-294.97527 19.495411-19.495411Z" p-id="31215"></path><path d="M511.425414 959.450868c-60.465117 0-119.128191-11.845793-174.359097-35.20685-53.340859-22.561855-101.242845-54.857399-142.375661-95.991238-41.132816-41.133839-73.42836-89.035826-95.989191-142.376685-23.361057-55.231929-35.204803-113.89398-35.204803-174.35705 0-60.465117 11.844769-119.129214 35.204803-174.36012 22.560832-53.340859 54.856375-101.242845 95.989191-142.375661 41.132816-41.132816 89.034802-73.42836 142.375661-95.990215 55.231929-23.361057 113.89398-35.204803 174.359097-35.204803S630.553605 75.431993 685.785533 98.79305c53.341882 22.560832 101.243869 54.856375 142.376685 95.990215s73.429383 89.034802 95.990215 142.375661c23.361057 55.231929 35.205826 113.895003 35.205826 174.36012 0 60.46307-11.844769 119.126144-35.205826 174.35705-22.560832 53.340859-54.856375 101.242845-95.990215 142.376685-41.132816 41.132816-89.034802 73.429383-142.375661 95.991238C630.553605 947.605076 571.89053 959.450868 511.425414 959.450868zM511.425414 89.183182c-232.875838 0-422.333818 189.459003-422.333818 422.335864s189.459003 422.334841 422.333818 422.334841c232.876861 0 422.335864-189.459003 422.335864-422.334841S744.303298 89.183182 511.425414 89.183182z" p-id="31216"></path></svg>