<?xml version="1.0" standalone="no"?><!DOCTYPE svg PUBLIC "-//W3C//DTD SVG 1.1//EN" "http://www.w3.org/Graphics/SVG/1.1/DTD/svg11.dtd"><svg t="1569818775283" class="icon" viewBox="0 0 1024 1024" version="1.1" xmlns="http://www.w3.org/2000/svg" p-id="35605" xmlns:xlink="http://www.w3.org/1999/xlink" width="200" height="200"><defs><style type="text/css"></style></defs><path d="M715.60009953 928.7760787l-278.74259028 0c-11.3502338 0-20.5881412-9.12525-20.58814119-20.33466203s9.23790741-20.30649769 20.58814119-20.30649769l278.74259028 0c59.22963194 0 87.84461342-32.13552547 101.36350232-59.08881018 0.67594444-1.63353241 0.90125926-3.12624306 1.23923148-4.90059722 2.56295602-12.8711088 6.9002662-34.47316667 35.37442593-68.58019677 20.5318125-24.61564352 17.01126852-50.75216203 12.8711088-81.00067592-1.29556019-9.60404398-2.59112036-19.15175926-3.12624306-28.61498148-2.36580556-40.3595162 8.22399075-57.79325 22.92578241-81.95826389 2.67561342-4.33731019 5.54837731-9.0689213 8.61829167-14.36381944 13.49072453-23.26375464 12.73028703-52.13221527-2.02783333-77.19848843-18.02518519-30.64281481-51.93506481-48.97780786-90.66104861-48.97780788-68.60836111 0-147.69386111 2.3376412-148.45429862 2.33764121-6.8439375 0.25347917-12.2233287-2.39396991-16.25083102-7.04108796-4.08383102-4.64711806-5.74552777-10.87143981-4.64711806-16.89861111 0.28164352-1.40821759 26.10835417-141.24422453 26.10835417-202.69884027 0-63.03181944-47.82306944-69.81942824-68.32671759-69.81942825-32.41716898 0-58.77900231 34.50133102-58.77900232 76.94500926 0 52.75183102 0 70.55170139-27.88270834 109.05237037-38.47250464 53.11796759-111.10836806 142.2581412-165.83170369 142.25814121L303.44297453 457.58647223l0 450.82678008c0 11.23757639-9.23790741 20.33466203-20.5881412 20.33466204L165.01518519 928.74791435c-43.17595139 0-78.3250625-34.67031714-78.3250625-77.28298149L86.69012269 494.22829398c0-42.5845 35.12094676-77.25481714 78.3250625-77.25481713l173.12627083 0c24.50298611 0 78.94467825-51.48443519 132.28796065-125.21870833 20.22200464-27.91087269 20.22200464-34.47316667 20.22200463-85.45064352 0-65.96091203 43.88006019-117.58616898 99.92712037-117.58616898 50.52684723 0 109.53116435 28.9529537 109.53116435 110.46058796 0 49.40027315-14.78628473 141.32871759-22.39065972 185.40592825 29.20643286-0.7041088 79.0855-1.71802547 124.45827084-1.71802548 53.56859723 0 100.82837964 25.854875 126.28895369 69.1998125 22.19350926 37.74023148 23.01027547 81.78927777 2.16865509 117.7551551-3.23890047 5.57654167-6.25248611 10.53346759-9.04075694 15.12425695-13.65971065 22.41882408-18.78562269 30.81180092-17.15209028 58.6663449 0.50695833 8.4211412 1.71802547 16.98310417 2.84459955 25.54506713 4.47813194 32.92412731 10.05467361 73.90325925-21.91186575 112.20677778-21.85553703 26.22101158-24.81279398 40.92280324-26.78429861 50.63950464-0.92942361 4.64711806-1.91517592 9.46322223-4.33731019 14.30749073C827.38441203 899.73863194 778.29394675 928.7760787 715.60009953 928.7760787L715.60009953 928.7760787zM165.01518519 457.61463658c-20.44731944 0-37.12061574 16.41981714-37.12061575 36.6136574l0 357.2929676c0 20.22200464 16.6732963 36.64182176 37.12061575 36.64182175l97.25150695 0L262.26669214 457.61463658 165.01518519 457.61463658 165.01518519 457.61463658zM165.01518519 457.61463658" p-id="35606"></path></svg>