<?xml version="1.0" standalone="no"?><!DOCTYPE svg PUBLIC "-//W3C//DTD SVG 1.1//EN" "http://www.w3.org/Graphics/SVG/1.1/DTD/svg11.dtd"><svg t="1569818322994" class="icon" viewBox="0 0 1024 1024" version="1.1" xmlns="http://www.w3.org/2000/svg" p-id="27952" xmlns:xlink="http://www.w3.org/1999/xlink" width="200" height="200"><defs><style type="text/css"></style></defs><path d="M540.4625 659.29583333L369.1125 830.74166667c-23.67083333 23.67083333-55.2 36.8-88.74166667 36.8-33.54166667 0-65.07083333-13.03333333-88.74166666-36.8S154.73333333 775.54166667 154.73333333 742c0-33.54166667 13.03333333-65.07083333 36.8-88.74166667l171.44583334-171.44583333c13.5125-13.5125 13.5125-35.3625 0-48.77916667-13.5125-13.5125-35.3625-13.5125-48.77916667 0L142.75416667 604.38333333C105.95416667 641.18333333 85.73333333 690.05833333 85.73333333 742c0 51.94166667 20.22083333 100.81666667 57.02083334 137.52083333 37.95 37.95 87.78333333 56.925 137.52083333 56.925 49.83333333 0 99.66666667-18.975 137.52083333-56.925l171.44583334-171.44583333c13.5125-13.5125 13.5125-35.3625 0-48.77916667s-35.26666667-13.41666667-48.77916667 0z m342.79583333-520.27916666c-75.9-75.9-199.2375-75.9-275.1375 0L436.675 310.4625c-13.5125 13.5125-13.5125 35.3625 0 48.77916667 13.5125 13.5125 35.3625 13.5125 48.77916667 0l171.44583333-171.44583334c48.97083333-48.97083333 128.60833333-48.97083333 177.57916667 0 23.67083333 23.67083333 36.8 55.2 36.8 88.74166667s-13.03333333 65.07083333-36.8 88.74166667L663.03333333 536.725c-13.5125 13.5125-13.5125 35.3625 0 48.77916667 6.70833333 6.70833333 15.525 10.0625 24.4375 10.0625s17.63333333-3.35416667 24.4375-10.0625l171.44583334-171.44583334c75.80416667-75.80416667 75.80416667-199.2375-0.09583334-275.04166666zM487.5625 585.3125l97.75-97.75c13.5125-13.5125 13.5125-35.3625 0-48.77916667-13.5125-13.5125-35.3625-13.5125-48.77916667 0l-97.75 97.75c-13.5125 13.5125-13.5125 35.3625 0 48.77916667 6.70833333 6.70833333 15.525 10.0625 24.4375 10.0625s17.5375-3.35416667 24.34166667-10.0625z" p-id="27953"></path></svg>