<?xml version="1.0" standalone="no"?><!DOCTYPE svg PUBLIC "-//W3C//DTD SVG 1.1//EN" "http://www.w3.org/Graphics/SVG/1.1/DTD/svg11.dtd"><svg t="1569818412022" class="icon" viewBox="0 0 1025 1024" version="1.1" xmlns="http://www.w3.org/2000/svg" p-id="29665" xmlns:xlink="http://www.w3.org/1999/xlink" width="200.1953125" height="200"><defs><style type="text/css"></style></defs><path d="M904.93005188 341.69396387C883.47564065 290.96958053 852.76271384 245.41622855 813.64586272 206.29937743S728.97565961 136.4695995 678.25127627 115.01518826C625.72985524 92.80025293 569.94448137 81.537042 512.443713 81.537042S399.15757077 92.80025293 346.63614975 115.01518826C295.9117664 136.4695995 250.3584144 167.1825263 211.24156329 206.29937743S141.41178537 290.96958053 119.95737412 341.69396387C97.7424388 394.21538489 86.47922787 450.00075876 86.47922787 507.50152714s11.26321092 113.28614224 33.47814625 165.80756327c20.7063111 48.95485589 50.03840304 93.09187594 87.22421517 131.27604231 4.82138551-11.22682646 13.39303335-20.45516955 24.1379875-26.12404688-33.46927199-34.69480732-59.92610365-74.67956108-78.6614416-118.97543041C132.29880766 611.35344346 121.9762683 560.21818189 121.9762683 507.50152714c0-52.71665474 10.32253936-103.85191632 30.68097948-151.98501572 19.66624783-46.4957984 47.82161286-88.25451677 83.68338537-124.1171767 35.86265994-35.86265994 77.62226573-64.018025 124.1171767-83.68427282C408.59268411 127.35662179 459.72705827 117.03408244 512.443713 117.03408244s103.85102891 10.32253936 151.98501572 30.68097946c46.4957984 19.66624783 88.25451677 47.82161286 124.1171767 83.68427282 35.86177253 35.86265994 64.018025 77.6213783 83.68427282 124.1171767C892.58861835 403.64961083 902.91115772 454.78487239 902.91115772 507.50152714c0 52.71665474-10.32253936 103.85191632-30.68097948 151.98501572-19.66624783 46.4957984-47.82072544 88.25451677-83.68427282 124.1171767s-77.62226573 64.018025-124.1171767 83.68427281C616.29562933 887.64643249 565.16036774 897.96897184 512.443713 897.96897184s-103.85191632-10.32253936-151.98501571-30.68097947c-18.45846104-7.80757404-36.15639796-16.97468474-53.0494395-27.40815233-3.31364873 11.90481992-10.65532412 22.12441788-20.4702558 29.10491086 18.97228069 11.85068695 38.89943176 22.20694849 59.69714776 31.00400255C399.15757077 922.20280135 454.94294465 933.46601227 512.443713 933.46601227s113.28614224-11.26321092 165.80756327-33.47814625c50.72438335-21.45529867 96.27773533-52.16733804 135.39458645-91.28418917S883.47564065 724.03347375 904.93005188 673.30909041C927.1449872 620.78766939 938.40819813 565.00229551 938.40819813 507.50152714S927.1449872 394.21538489 904.93005188 341.69396387z" p-id="29666"></path></svg>