<?xml version="1.0" standalone="no"?><!DOCTYPE svg PUBLIC "-//W3C//DTD SVG 1.1//EN" "http://www.w3.org/Graphics/SVG/1.1/DTD/svg11.dtd"><svg t="1569818401211" class="icon" viewBox="0 0 1024 1024" version="1.1" xmlns="http://www.w3.org/2000/svg" p-id="29553" xmlns:xlink="http://www.w3.org/1999/xlink" width="200" height="200"><defs><style type="text/css"></style></defs><path d="M889.98698558 352.31384302c-18.36724178-43.42321409-43.79418415-82.89724153-75.66943125-117.59279946 6.31024663-12.43078278 9.86968093-26.49289462 9.86968093-41.38804487 0-50.56931765-40.99453519-91.56385282-91.56385283-91.56385282-26.66288302 0-50.659478 11.39958025-67.39351208 29.58650223-48.69568414-19.6313572-100.20604488-29.58650223-153.23033933-29.58650223-55.37314438 0-109.09899504 10.84922928-159.68240053 32.24527734-48.85534208 20.66256067-92.72372097 50.24061019-130.39173474 87.90862395-37.67083134 37.66895265-67.24794199 81.53920931-87.90956283 130.39173474C112.61884503 402.90100496 101.76773707 456.62685562 101.76773707 512.00093887c0 55.3722055 10.85110797 109.09899504 32.24527735 159.68333942 20.66256067 48.85346431 50.24061019 92.72278208 87.90956285 130.39173472 37.66707487 37.66895265 81.53639266 67.24606329 130.39173473 87.90956286 50.58434437 21.3951092 104.31019504 32.24527735 159.6833394 32.24527736s109.09899504-10.85016907 159.68615698-32.24527736c48.85252544-20.66349955 92.72278208-50.24154909 130.39079587-87.90956286 37.67083134-37.66895265 67.24794199-81.53827042 87.90956283-130.39173472 21.39323051-50.58434437 32.24527735-104.31113391 32.24527737-159.68333942C922.23226293 456.62685562 911.38021609 402.90194385 889.98698558 352.31384302zM856.98380248 657.72735357c-18.85654698 44.58120444-45.8528337 84.62248738-80.24128399 119.01375522-34.39220766 34.3893901-74.43161191 61.38849438-119.01657279 80.24316267-46.14585256 19.51490077-95.1758793 29.41275738-145.72735357 29.41275737-50.5486567 0-99.57868343-9.895977-145.72923133-29.41275737-44.58120444-18.85654698-84.62248738-45.85377258-119.01375524-80.24316267-34.39126876-34.39126876-61.38849438-74.43255079-80.24128397-119.01375522-19.51865814-46.14585256-29.41557402-95.1768191-29.41557401-145.72829244s9.89691682-99.58150101 29.41557401-145.72735357c18.85279051-44.58120444 45.85095501-84.62436514 80.24128397-119.01375524 34.39126876-34.3893901 74.43255079-61.38755458 119.01375524-80.24410156 46.15054882-19.51771833 95.18057554-29.41463514 145.72923133-29.41463512 46.43981122 0 91.5920276 8.35856477 134.40572452 24.8484166-3.45800367 9.64991608-5.34572501 20.04646857-5.34572501 30.88630626 0 50.56931765 40.99453519 91.56385282 91.56385283 91.56385282 22.55309865 0 43.19593635-8.15852293 59.1532824-21.67873649 27.29212315 30.62803616 49.19625961 65.19680626 65.20807653 103.05265365 19.51771833 46.14585256 29.41463514 95.1758793 29.41463515 145.72735355S876.50245969 611.58150101 856.98380248 657.72735357z" p-id="29554"></path></svg>