<?xml version="1.0" standalone="no"?><!DOCTYPE svg PUBLIC "-//W3C//DTD SVG 1.1//EN" "http://www.w3.org/Graphics/SVG/1.1/DTD/svg11.dtd"><svg t="1569816930888" class="icon" viewBox="0 0 1024 1024" version="1.1" xmlns="http://www.w3.org/2000/svg" p-id="21783" xmlns:xlink="http://www.w3.org/1999/xlink" width="200" height="200"><defs><style type="text/css"></style></defs><path d="M841.98289977 645.18408374c-17.78302555 42.11343778-43.24508485 79.86195109-75.73952243 112.35638868s-70.24295091 57.95649689-112.35638868 75.73952243c-43.56841259 18.42968101-89.804279 27.72535345-137.57595217 27.72535347s-94.0075396-9.29567244-137.49512023-27.72535347c-42.11343778-17.78302555-79.86195109-43.24508485-112.35638868-75.73952243s-57.95649689-70.24295091-75.73952243-112.35638868C172.29032413 601.69650309 162.91381974 555.46063668 162.91381974 507.68896351s9.29567244-94.0075396 27.72535348-137.57595217c17.78302555-42.11343778 43.24508485-79.86195109 75.73952243-112.35638868s70.24295091-57.95649689 112.35638866-75.73952243c35.00022755-14.79224397 71.77875766-23.76458869 109.68893486-26.67453833C504.18624635 154.13008288 516.31103649 141.03530954 516.31103649 125.27308235l0 0c0-17.62136168-15.03473978-31.52445438-32.57526952-30.15031149C270.42029236 111.69331738 102.45153289 290.08939638 102.45153289 507.68896351c0 228.5927102 185.26679341 413.85950361 413.8595036 413.8595036 217.59956713 0 395.99564611-167.96875948 412.56619265-381.28423409 1.37414289-17.54052973-12.52894982-32.57526951-30.15031149-32.57526951l0 0c-15.76222718 0-28.93783247 12.12479014-30.15031149 27.8061854C865.66665653 573.40532609 856.77514375 610.1838562 841.98289977 645.18408374z" p-id="21784"></path></svg>