<?xml version="1.0" standalone="no"?><!DOCTYPE svg PUBLIC "-//W3C//DTD SVG 1.1//EN" "http://www.w3.org/Graphics/SVG/1.1/DTD/svg11.dtd"><svg t="1582122921158" class="icon" viewBox="0 0 1024 1024" version="1.1" xmlns="http://www.w3.org/2000/svg" p-id="7336" xmlns:xlink="http://www.w3.org/1999/xlink" width="200" height="200"><defs><style type="text/css"></style></defs><path d="M814.07 124.38C733.41 44.17 626.14 0 512 0S290.59 44.17 209.93 124.38c-166.13 165.21-166.13 434.03 0 599.24L512 1024l302.07-300.38c166.13-165.21 166.13-434.03 0-599.24z m-62.26 538.85L512 901.68 272.19 663.23c-132.64-131.92-132.64-346.54 0-478.45C336.28 121.05 421.44 85.95 512 85.95s175.72 35.1 239.81 98.82c132.64 131.92 132.64 346.54 0 478.46z" fill="#333333" p-id="7337"></path><path d="M512 213.33c-56.99 0-110.56 22.19-150.84 62.48-40.3 40.29-62.49 93.86-62.49 150.85s22.19 110.56 62.48 150.84C401.44 617.81 455.01 640 512 640c56.98 0 110.55-22.19 150.84-62.48l0.01-0.01c40.29-40.29 62.48-93.86 62.48-150.84 0-56.99-22.19-110.56-62.48-150.84-40.29-40.31-93.86-62.5-150.85-62.5z m90.51 303.84l-0.01 0.01c-24.17 24.18-56.31 37.49-90.5 37.49s-66.33-13.31-90.51-37.5C397.31 493 384 460.85 384 426.67s13.31-66.33 37.5-90.51c24.17-24.18 56.31-37.49 90.5-37.49s66.33 13.31 90.51 37.5c24.18 24.17 37.49 56.31 37.49 90.5s-13.31 66.33-37.49 90.5z" fill="#333333" p-id="7338"></path></svg>