<?xml version="1.0" standalone="no"?><!DOCTYPE svg PUBLIC "-//W3C//DTD SVG 1.1//EN" "http://www.w3.org/Graphics/SVG/1.1/DTD/svg11.dtd"><svg t="1569817088183" class="icon" viewBox="0 0 1024 1024" version="1.1" xmlns="http://www.w3.org/2000/svg" p-id="24293" xmlns:xlink="http://www.w3.org/1999/xlink" width="200" height="200"><defs><style type="text/css"></style></defs><path d="M400.35549622 428.06493536l-113.44522153 0 0-132.35275802q0-43.21722713 17.10681871-80.58212198t47.26884254-65.7262 71.12835328-44.56776589 89.58571078-16.20645985q43.21722713 0 83.28319861 16.20645985t71.12835329 44.56776589 49.51973929 65.7262 18.45735749 80.58212198l0 132.35275802-108.94342714 0 0-107.14270938q0-56.72261032-31.51256168-87.78499301t-85.53409538-31.06238181q-48.61938041 0-78.33122433 31.06238181t-29.71184393 87.78499301l0 107.14270938zM788.41018236 482.08646905q24.30969064 0 41.86668926 17.5569986t17.55699859 41.86668925l0 279.111259q0 24.30969064-8.5534098 45.46812477t-23.40933176 36.91471496-35.11399721 24.75986964-44.56776588 9.00358881l-454.68124504 0q-24.30969064 0-44.117586-9.00358881t-33.76345844-23.85951076-21.60861401-34.66381732-7.65305093-42.31686826l0-285.41377116q0-24.30969064 17.10681873-41.86668924t41.41650937-17.5569986l54.02153368 0 113.44522155 0 225.08972531 0 108.94342713 0 54.02153369 0z" p-id="24294"></path></svg>