<?xml version="1.0" standalone="no"?><!DOCTYPE svg PUBLIC "-//W3C//DTD SVG 1.1//EN" "http://www.w3.org/Graphics/SVG/1.1/DTD/svg11.dtd"><svg t="1582196002889" class="icon" viewBox="0 0 1024 1024" version="1.1" xmlns="http://www.w3.org/2000/svg" p-id="8006" xmlns:xlink="http://www.w3.org/1999/xlink" width="200" height="200"><defs><style type="text/css"></style></defs><path d="M467.62666667 705.87733333c0-23.7568 19.79733333-43.008 44.37333333-43.008 24.43946667 0 44.37333333 19.2512 44.37333333 43.008s-19.79733333 43.008-44.37333333 43.008c-11.74186667 0-23.07413333-4.5056-31.40266667-12.56106666-8.192-8.192-12.97066667-19.11466667-12.97066666-30.44693334z m421.0688 129.16053334c-11.74186667 0-23.07413333-4.5056-31.40266667-12.56106667s-12.97066667-18.97813333-12.97066667-30.44693333V490.42773333H179.67786667V791.89333333c0 71.40693333 59.52853333 129.16053333 132.98346666 129.16053334h509.67893334c7.3728-0.13653333 14.88213333-0.8192 22.1184-2.18453334v2.18453334c16.93013333-0.27306667 32.49493333 8.87466667 40.1408 23.48373333 7.64586667 14.60906667 6.144 32.22186667-3.95946667 45.32906667-10.10346667 13.1072-27.0336 19.52426667-43.69066667 16.52053333-4.9152 0.27306667-9.69386667 0.68266667-14.7456 0.68266667H312.5248c-122.33386667 0-221.5936-96.39253333-221.5936-215.31306667V404.41173333h842.00106667V791.89333333c0 11.4688-4.64213333 22.39146667-12.97066667 30.44693334-8.192 8.192-19.52426667 12.6976-31.26613333 12.6976z m-66.49173334-473.77066667c-24.30293333-1.91146667-44.10026667-19.6608-47.78666666-43.008h-0.54613334C752.4352 193.87733333 641.70666667 102.94613333 512 102.94613333s-240.4352 91.06773333-261.87093333 215.31306667h0.13653333c-3.95946667 23.48373333-24.02986667 41.23306667-48.46933333 43.008-16.24746667 0-31.1296-8.73813333-38.912-22.528-7.7824-13.9264-7.09973333-30.72 1.77493333-43.96373333C197.15413333 133.25653333 342.69866667 16.7936 512 16.7936s314.84586667 116.59946667 347.3408 277.98186667c4.096 7.23626667 6.41706667 15.29173333 7.23626667 23.48373333 0 11.4688-4.64213333 22.39146667-12.97066667 30.44693333s-19.6608 12.56106667-31.40266667 12.56106667z m0 0" p-id="8007"></path></svg>