<?xml version="1.0" standalone="no"?><!DOCTYPE svg PUBLIC "-//W3C//DTD SVG 1.1//EN" "http://www.w3.org/Graphics/SVG/1.1/DTD/svg11.dtd"><svg t="1569816965976" class="icon" viewBox="0 0 1024 1024" version="1.1" xmlns="http://www.w3.org/2000/svg" p-id="22470" xmlns:xlink="http://www.w3.org/1999/xlink" width="200" height="200"><defs><style type="text/css"></style></defs><path d="M512 943.33689539c-208.07739731 0-377.41622324-171.24727043-377.41622324-381.71734387 0-146.97869487 81.20857741-278.43347739 211.83731674-343.03574107a27.80062165 27.80062165 0 0 1 37.42829564 12.98881425 28.48424281 28.48424281 0 0 1-12.84639325 37.88404442 326.25852257 326.25852257 0 0 0-182.12825161 293.41618955c0 179.96344889 144.95631415 326.40094358 323.09677193 326.4009436 178.16894156 0 323.12525572-146.43749468 323.1252547-326.4009436 0-125.92883954-70.95424985-238.64099043-182.49854598-293.64406394a28.51272761 28.51272761 0 0 1-12.90336285-37.88404342 27.82910543 27.82910543 0 0 1 37.42829563-13.04578385c130.91358234 64.5452951 212.29306454 196.08553102 212.29306553 343.32058406 0 210.47007341-169.28185735 381.71734387-377.41622324 381.71734387z" p-id="22471"></path><path d="M512.02848379 80.69158839c14.86877498 0 26.94609367 12.0773187 26.94609469 26.97457849v269.57487795a26.97457848 26.97457848 0 0 1-53.89218837 0V107.66616687c0-14.92574358 12.04883489-26.97457848 26.94609368-26.97457847z" p-id="22472"></path></svg>