<?xml version="1.0" standalone="no"?><!DOCTYPE svg PUBLIC "-//W3C//DTD SVG 1.1//EN" "http://www.w3.org/Graphics/SVG/1.1/DTD/svg11.dtd"><svg t="1569814514735" class="icon" viewBox="0 0 1024 1024" version="1.1" xmlns="http://www.w3.org/2000/svg" p-id="17108" xmlns:xlink="http://www.w3.org/1999/xlink" width="200" height="200"><defs><style type="text/css"></style></defs><path d="M739.58673919 369.84825774L284.37727275 369.84825774c-9.9506217 0-18.01188563 8.06126309-18.01188564 18.01188564 0 9.9506217 8.06126309 18.01188563 18.01188563 18.01188562l455.20946645 0c9.98660977 0 18.02987924-8.07925755 18.02987925-18.01188562C757.61661844 377.92751444 749.57334896 369.84825774 739.58673919 369.84825774z" p-id="17109"></path><path d="M284.37727275 530.02987924l372.45555961 0c9.98660977 0 18.02987924-8.09725116 18.02987926-18.02987924s-8.04326948-18.01188563-18.02987926-18.01188563L284.37727275 493.98811437c-9.9506217 0-18.01188563 8.06126309-18.01188564 18.01188563S274.42665104 530.02987924 284.37727275 530.02987924z" p-id="17110"></path><path d="M739.58673919 618.09198377L284.37727275 618.09198377c-9.9506217 0-18.01188563 8.06126309-18.01188564 18.02987925 0 9.98660977 8.06126309 18.02987924 18.01188563 18.02987924l455.20946645 0c9.98660977 0 18.02987924-8.04326948 18.02987925-18.02987924C757.61661844 626.17124132 749.57334896 618.09198377 739.58673919 618.09198377z" p-id="17111"></path><path d="M656.83283236 742.26782931L284.37727275 742.26782931c-9.9506217 0-18.01188563 8.06126309-18.01188564 18.02987923 0 9.98660977 8.06126309 18.01188563 18.01188563 18.01188565l372.45555962 0c9.98660977 0 18.02987924-8.02527587 18.02987926-18.01188565C674.86271162 750.3290924 666.81944214 742.26782931 656.83283236 742.26782931z" p-id="17112"></path><path d="M739.58673919 183.61148112l-29.52797588 0c-10.88630462-24.34573514-35.23203975-41.40394426-63.57241881-41.40394426l-56.44683779 0C581.83429304 106.72358234 549.91312903 80.14660493 512 80.14660493c-37.98510516 0-69.85228665 26.57697741-78.05750116 62.06093193l-56.44683778 0c-28.35837267 0-52.70410781 17.0582091-63.60840604 41.40394426l-20.04519481 0c-80.77457849 0-151.63452334 66.43344756-151.63452335 142.16973671L142.20753686 801.70165281c0 75.70030109 70.85994485 142.15174226 151.63452335 142.15174226l445.74467898 0c78.3633976 0 142.18773033-63.7883455 142.16973672-142.15174227L881.75647591 325.78121699C881.77446951 247.38183217 817.98612401 183.61148112 739.58673919 183.61148112zM377.49566106 178.24930089l72.44340701 1e-8c9.93262809 0 18.01188563-8.06126309 18.01188563-18.01188563 0-24.27375987 19.77528644-44.0490463 44.0490463-44.0490463 24.29175348 0 44.03105268 19.75729283 44.03105268 44.0490463 0 9.9506217 8.04326948 18.01188563 17.99389119 18.01188563l72.46140063 0c18.55170237 0 33.70255842 15.11486882 33.70255842 33.72055288 0 18.58768959-15.15085689 33.72055288-33.70255842 33.72055287l-269.00867707 0c-18.60568405 0-33.72055288-15.13286244-33.72055287-33.72055287C343.77510901 193.36416973 358.92596506 178.24930089 377.49566106 178.24930089zM845.71471104 801.70165281c0 58.51613503-47.61183681 106.10997824-106.10997823 106.10997822L293.84206022 907.81163019c-61.57509687 0-115.59275846-49.59116514-115.59275848-106.10997823L178.24930089 325.78121699c0-56.53680669 54.01766245-106.12797184 115.59275848-106.12797184l14.66502182 0c3.88668056 34.81817998 33.16274168 62.07892554 68.97058624 62.07892554l269.00867707-1e-8c35.80784372 0 65.06591125-27.26074555 68.9525918-62.07892553l24.14780206 0c58.51613503 0 106.10997824 47.61183681 106.10997822 106.12797184L845.69671742 801.70165281z" p-id="17113"></path></svg>