<?xml version="1.0" standalone="no"?><!DOCTYPE svg PUBLIC "-//W3C//DTD SVG 1.1//EN" "http://www.w3.org/Graphics/SVG/1.1/DTD/svg11.dtd"><svg t="1569818635199" class="icon" viewBox="0 0 1024 1024" version="1.1" xmlns="http://www.w3.org/2000/svg" p-id="33708" xmlns:xlink="http://www.w3.org/1999/xlink" width="200" height="200"><defs><style type="text/css"></style></defs><path d="M509.17866667 583.72848117a50.07866667 50.07866667 0 0 1 43.14288889-12.02985124c2.70377777 0.50940772 54.52618549 18.2602966 79.03651883 24.92177778 35.03155556 9.50240772 71.1407034 12.65681451 108.44499999 9.46322222 19.573-1.68496327 29.17337007 23.25640771 13.51888889 35.12951791-37.93125895 28.80111111-81.7402966 45.494-131.01566667 50.0002966-29.48685216 2.70377777-56.36788889 1.15596327-80.64311111-4.78059228a64.34207438 64.34207438 0 0 1-32.48451882-19.33788889 64.34207438 64.34207438 0 0 1-32.48451883 19.33788889c-24.25562993 5.93655556-51.13666667 7.48437007-80.62351791 4.78059228-49.27537007-4.5062966-93.08440772-21.21877777-131.03525986-50.0002966-15.63488889-11.87311111-6.03451883-36.83407439 13.51888888-35.12951791 37.3042966 3.19359228 73.43303673 0.03918549 108.46459321-9.46322222 24.49074104-6.66148117 76.33274104-24.41237007 79.03651791-24.92177778a50.07866667 50.07866667 0 0 1 43.1232966 12.02985124zM943.03703673 520.91462993a110.42385216 110.42385216 0 0 1-107.26944444 110.38466667c-46.39525896 136.36444444-175.41248117 231.58444444-323.76759229 231.58444445-148.35511111 0-277.37233333-95.22-323.76759229-231.58444445a110.42385216 110.42385216 0 0 1 0-220.78892653C234.62766667 274.14592561 363.64488889 178.92592561 512 178.92592561c148.35511111 0 277.37233333 95.22 323.76759229 231.58444446A110.42385216 110.42385216 0 0 1 943.03703673 520.91462993zM512 218.11111111c-144.31903673 0-265.06818549 100.98022223-295.4367034 236.12992562a71.23866667 71.23866667 0 1 0 0 133.3471855c30.36851883 135.1497034 151.11766667 236.11033333 295.4367034 236.11033333 144.31903673 0 265.06818549-100.96062993 295.4367034-236.12992563a71.23866667 71.23866667 0 1 0 0-133.34718549C777.06818549 319.11092561 656.31903673 218.11111111 512 218.11111111z m156.74074105 293.88888889a39.18518549 39.18518549 0 1 1 0-78.37037007 39.18518549 39.18518549 0 0 1 0 78.37037007z m-313.4814821 0a39.18518549 39.18518549 0 1 1 0-78.37037007 39.18518549 39.18518549 0 0 1 0 78.37037007z m44.39681543 140.20459229c25.33322223 2.31192562 47.90388889 0.99922223 67.73159229-3.84014785a25.41159229 25.41159229 0 0 0 18.92644444-29.50644444 10.97185216 10.97185216 0 0 0-12.85274104-8.69911111c-0.58777777 0.11755556-50.54888889 17.30025896-76.176 24.27522222-14.38096327 3.89892562-28.91866667 6.85740772-43.6327034 8.85585216 14.59648117 4.46711111 29.91788889 7.44518549 46.00340771 8.91462902z m221.43548118-17.77048118c-25.62711111-6.97496327-75.60781451-24.15766667-76.19559229-24.27522222a10.97185216 10.97185216 0 0 0-12.83314876 8.69911111c-2.56662993 13.32296327 5.76022223 26.29325896 18.92644444 29.50644444 19.80811111 4.83937007 42.37877777 6.15207438 67.73159321 3.84014785a228.05777777 228.05777777 0 0 0 46.00340679-8.91462902 343.47774105 343.47774105 0 0 1-43.63270339-8.85585216zM297.20640771 394.67955556c-9.60037007-2.54703673-15.90918549-13.06825896-14.06748209-23.5307034 1.8417034-10.46244444 11.12859229-16.90840772 20.72896327-14.38096327 47.17896327 12.40211111 98.94259229 13.4797034 149.94211111 1.70455555 63.06855556-14.5572966 116.86981451-43.59351883 159.81677777-87.22622221 7.01414784-7.1317034 18.22111111-6.36759229 25.03933334 1.70455554 6.79862993 8.07214784 6.64188889 20.39588889-0.39185215 27.5275923-47.29651883 48.06062993-106.54451883 80.23166667-175.66718457 96.19962993-56.074 12.93111111-113.12762993 11.75555556-165.40066667-1.99844444z" fill="#000000" p-id="33709"></path></svg>