<?xml version="1.0" standalone="no"?><!DOCTYPE svg PUBLIC "-//W3C//DTD SVG 1.1//EN" "http://www.w3.org/Graphics/SVG/1.1/DTD/svg11.dtd"><svg t="1569816842418" class="icon" viewBox="0 0 1312 1024" version="1.1" xmlns="http://www.w3.org/2000/svg" p-id="20502" xmlns:xlink="http://www.w3.org/1999/xlink" width="256.25" height="200"><defs><style type="text/css"></style></defs><path d="M361.33004509 932.53887488c0.2365756 0.1520842 0.55764261 0.08449141 0.79421905 0.23657563 1.92640289 0.98009964 3.937298 1.68982728 6.10027649 1.68982726 1.16598106 0 2.31506351-0.1520842 3.48104457-0.47315203l286.94957653-78.30659779 286.9495765 78.30659779c1.16598106 0.32106701 2.3319613 0.47315203 3.48104458 0.47315203 2.16297931 0 4.1738736-0.70972764 6.0664801-1.72362367 0.27037201-0.13518642 0.55764261-0.08449141 0.79421905-0.2365756l237.64041532-145.22375945c5.03568544-3.09238395 7.41834175-9.19266044 5.81300587-14.87048073l-131.58685338-462.0663808c-1.08148966-3.88660299-3.90350078-7.04657974-7.65491737-8.60122142-3.75141658-1.50394668-7.94218797-1.26737026-11.50772395 0.69282903l-131.01231134 73.50748795c-6.3368521 3.56553598-8.60122142 11.62601176-5.03568545 17.97976247 3.56553598 6.3875471 11.59221537 8.63501782 18.01355887 5.03568544l116.41220344-65.34562216 124.28679861 436.34720956-211.61707487 129.35628129-50.27236223-402.14510471c-0.89560823-7.26625755-7.73940876-12.30194299-14.75219209-11.45702895-7.21556255 0.89560823-12.35263801 7.50283315-11.45702896 14.73529431l50.35685363 402.88862875-261.65286148-71.42900086 0-72.08803351c0-7.28315533-5.9143959-13.19755123-13.19755123-13.19755123s-13.19755123 5.9143959-13.19755125 13.19755123l0 72.08803351-261.68665788 71.42900086 50.35685363-402.88862875c0.89560823-7.23246117-4.2245686-13.83968609-11.45702895-14.73529431-7.18176615-0.84491406-13.83968609 4.1907714-14.7521921 11.45702895l-50.23856583 402.14510471-211.61707486-129.32248406 124.2867986-436.31341235 116.41220344 65.34562217c6.3875471 3.53173876 14.41422731 1.30116665 18.01355887-5.03568544 3.56553598-6.37064932 1.30116665-14.3973287-5.03568545-17.97976247l-131.04610856-73.54128436c-3.51484098-1.9770979-7.70561237-2.24747072-11.49082536-0.69282902-3.75141658 1.55464086-6.57342853 4.69771981-7.65491734 8.60122142l-131.58685339 462.0663808c-1.63913227 5.71161669 0.74352403 11.77809678 5.81300587 14.87048074l237.60661893 145.22375944zM649.71597468 706.54136995c2.53474133 2.3319613 5.72851447 3.48104458 8.95608483 3.48104457 3.17687535 0 6.3368521-1.13218466 8.87159343-3.41345096 8.78710203-7.99288298 215.55437204-197.74359238 215.55437204-392.64827503 0-125.85833809-98.56762738-224.42596548-224.42596547-224.42596548s-224.42596548 98.56762738-224.42596547 224.42596548c0 191.52502809 206.68277861 384.43571424 215.48677924 392.56378362zM658.65516089 115.9636211c112.88046468 0 198.030863 85.13349972 198.030863 198.03086299 0 160.98984841-158.23543008 325.74801118-197.94637159 364.54644668-39.62645093-39.25468892-198.09845579-206.19272878-198.0984558-364.54644668 0-112.89736329 85.15039832-198.030863 198.03086301-198.03086299zM777.48381787 313.97758631c0-65.51460497-53.31405199-118.81175836-118.81175836-118.81175836s-118.81175836 53.31405199-118.81175835 118.81175836 53.31405199 118.81175836 118.81175835 118.81175836 118.81175836-53.31405199 118.81175835-118.81175836zM658.65516089 406.39424219c-50.96519208 0-92.41665588-41.4514638-92.41665587-92.41665588s41.4514638-92.41665588 92.41665587-92.41665589 92.41665588 41.4514638 92.41665589 92.41665589-41.4514638 92.41665588-92.41665589 92.41665588z" p-id="20503"></path></svg>