<?xml version="1.0" standalone="no"?><!DOCTYPE svg PUBLIC "-//W3C//DTD SVG 1.1//EN" "http://www.w3.org/Graphics/SVG/1.1/DTD/svg11.dtd"><svg t="1569818126510" class="icon" viewBox="0 0 1024 1024" version="1.1" xmlns="http://www.w3.org/2000/svg" p-id="25544" xmlns:xlink="http://www.w3.org/1999/xlink" width="200" height="200"><defs><style type="text/css"></style></defs><path d="M756.27788273 925.85950361H267.72211727A169.7858953 169.7858953 0 0 1 98.14049639 756.27788273V144.10218818A46.02978379 46.02978379 0 0 1 144.10218818 98.14049639h239.2050734l158.44867819 111.12515827 154.83983462 108.16318198h59.78424514a169.7858953 169.7858953 0 0 1 169.61566648 169.61566647v268.96101398a169.7858953 169.7858953 0 0 1-169.71780329 169.85398652zM144.10218818 108.35420541A35.78202837 35.78202837 0 0 0 108.35420541 144.10218818v612.17569455a159.57218629 159.57218629 0 0 0 159.36791187 159.40195746h488.55576545a159.57218629 159.57218629 0 0 0 159.40195746-159.40195746v-268.96101399a159.57218629 159.57218629 0 0 0-159.40195746-159.40195746H693.25929565L527.1162895 211.71694451 380.07292046 108.35420541z m622.42344916 651.77084089H267.14334042a53.3155629 53.3155629 0 0 1 0-106.66517141h499.38229692a53.3155629 53.3155629 0 0 1 0 106.66517141zM267.14334042 663.7076295a43.10185389 43.10185389 0 0 0 0 86.23775339h499.38229692a43.10185389 43.10185389 0 0 0 0-86.23775339z m499.38229692-73.74298093H267.14334042a53.3155629 53.3155629 0 0 1 0-106.66517224h499.38229692a53.3155629 53.3155629 0 0 1 0 106.66517224zM267.14334042 493.51318615a43.10185389 43.10185389 0 0 0 0 86.2377526h499.38229692a43.10185389 43.10185389 0 0 0 0-86.23775259zM213.89586953 337.07320418V221.59019668h129.6119713l152.01404154 106.18853218H267.72211727a158.04012933 158.04012933 0 0 0-47.2894743 7.21768792z m10.21370901-105.23525208v91.48078991a168.39002156 168.39002156 0 0 1 43.68063075-5.75372298h195.32016825L340.27349971 231.8039065z" fill="" p-id="25545"></path></svg>