<?xml version="1.0" standalone="no"?><!DOCTYPE svg PUBLIC "-//W3C//DTD SVG 1.1//EN" "http://www.w3.org/Graphics/SVG/1.1/DTD/svg11.dtd"><svg t="1569814864721" class="icon" viewBox="0 0 1417 1024" version="1.1" xmlns="http://www.w3.org/2000/svg" p-id="17465" xmlns:xlink="http://www.w3.org/1999/xlink" width="276.7578125" height="200"><defs><style type="text/css"></style></defs><path d="M1163.30351877 90.71396926h-907.38931733c-71.56053193 0.07271603-129.55156998 58.06489028-129.62428602 129.61860509v583.32803418c0.07271603 71.56053193 58.06489028 129.55156998 129.61974126 129.62428602h907.39613446c71.56053193-0.07271603 129.55270617-58.06489028 129.62428603-129.61860508v-583.32803419c-0.07271603-71.56053193-58.06489028-129.55156998-129.61860508-129.62428602zM255.91192905 155.52099942h907.39045353c35.77515312 0.05340085 64.76044645 29.04323893 64.80703016 64.81384729v129.63110315h-1037.00337766v-129.62428602c0.04544752-35.77628931 29.03301323-64.76612739 64.80248541-64.81839204zM1163.30351877 868.47900058h-907.38931733c-35.77515312-0.05340085-64.76044645-29.04323893-64.80589399-64.81384729v-388.8796752h1037.00337766v388.87626663c-0.04658371 35.77628931-29.03301323 64.76499121-64.80248541 64.81952822z" p-id="17466"></path><path d="M585.67574002 496.83302573c-1.69860114-0.66353381-3.66534265-1.0464292-5.72070682-1.0464292-6.89438909 0-12.78097938 4.31978696-15.10221157 10.39725684l-82.0873142 218.92525816-82.06231808-218.80368603c-2.4053101-6.1229174-8.26463187-10.37680546-15.11925438-10.37680546-8.94861707 0-16.20090539 7.25342451-16.2009054 16.20090539 0 2.00082716 0.36244399 3.91644021 1.02597781 5.68434882l97.17930007 259.13949798c2.36554352 6.19676961 8.26122331 10.51996515 15.16697428 10.51996515s12.80029457-4.32092315 15.12948007-10.40748253l97.25428848-259.36219084c0.66580619-1.70087351 1.04983775-3.67215978 1.04983777-5.73206872 0-6.89552528-4.31978696-12.78438793-10.4018016-15.10334774zM709.6088601 495.79568603c-0.00454474 0-0.00795332 0-0.01022569 0-8.94293614 0-16.19408827 7.25001594-16.19408828 16.19408828 0 0.00568094 0 0.00795332 0 0.01136188v259.24970823c0.00340856 8.94861707 7.25683307 16.1997692 16.20431397 16.19976921s16.20090539-7.25342451 16.20431397-16.19976921v-259.25084442c0-0.00454474 0-0.00795332 0-0.01022569 0-8.94293614-7.25001594-16.19408827-16.19408828-16.19408828-0.00568094 0-0.00795332 0-0.01136188 0zM968.85970451 495.79568603h-129.62428602c-0.00454474 0-0.00795332 0-0.01022568 0-8.94293614 0-16.19295208 7.25001594-16.1929521 16.19408828 0 0.00568094 0 0.00795332 0 0.01136188v259.24970823c0 8.94975327 7.2545607 16.20431397 16.20431397 16.20431396s16.20431397-7.2545607 16.20431397-16.20431396v-113.41997206h113.41997206c44.74535777 0 81.01702507-36.27280348 81.01702506-81.01702507s-36.27280348-81.01702507-81.01702506-81.01702507zM968.85970451 625.41997206h-113.41997206v-97.21679428h113.41997206c0.22382905-0.00568094 0.48628849-0.00795332 0.75329268-0.00795332 26.85039599 0 48.61407809 21.76595446 48.61407809 48.61407809 0 26.85039599-21.76595446 48.61407809-48.61407809 48.61407807-0.26359563 0-0.52946363-0.00340856-0.79192307-0.00795332z" p-id="17467"></path></svg>