<?xml version="1.0" standalone="no"?><!DOCTYPE svg PUBLIC "-//W3C//DTD SVG 1.1//EN" "http://www.w3.org/Graphics/SVG/1.1/DTD/svg11.dtd"><svg t="1569818528583" class="icon" viewBox="0 0 1024 1024" version="1.1" xmlns="http://www.w3.org/2000/svg" p-id="32048" xmlns:xlink="http://www.w3.org/1999/xlink" width="200" height="200"><defs><style type="text/css"></style></defs><path d="M903 156.9375v97.65416667c-12.17083333 10.54166667-19.8375 26.06666667-19.8375 43.4125s7.66666667 32.87083333 19.8375 43.4125v525.74166666H329.15V770.94166667h-115v96.21666666H121v-526.125c11.88333333-10.54166667 19.35833333-25.875 19.35833333-43.02916666s-7.475-32.4875-19.35833333-43.02916667V156.9375h782m38.33333333-38.33333333H82.66666667v160.1375h0.19166666c10.54166667 0 19.16666667 8.625 19.16666667 19.16666666s-8.625 19.16666667-19.16666667 19.16666667H82.66666667v588.32083333h169.81666666V809.17916667h38.33333334v96.21666666H941.33333333V317.075h-0.67083333c-10.54166667 0-19.16666667-8.625-19.16666667-19.16666667s8.625-19.16666667 19.16666667-19.16666666h0.67083333V118.60416667zM483.15416667 770.94166667h-38.33333334v115h38.33333334v-115z m-81.65 0h-38.33333334v115h38.33333334v-115z m163.3 0h-38.33333334v115h38.33333334v-115z m81.65 0h-38.33333334v115h38.33333334v-115z m81.74583333 0h-38.33333333v115h38.33333333v-115z m81.65 0h-38.33333333v115h38.33333333v-115z m-38.33333333-422.05v214.37916666H252.48333333V348.89166667h519.03333334m38.33333333-38.33333334H214.15v291.04583334h595.60416667V310.55833333h0.09583333z" fill="" p-id="32049"></path></svg>