<?xml version="1.0" standalone="no"?><!DOCTYPE svg PUBLIC "-//W3C//DTD SVG 1.1//EN" "http://www.w3.org/Graphics/SVG/1.1/DTD/svg11.dtd"><svg t="1569817006286" class="icon" viewBox="0 0 1024 1024" version="1.1" xmlns="http://www.w3.org/2000/svg" p-id="23156" xmlns:xlink="http://www.w3.org/1999/xlink" width="200" height="200"><defs><style type="text/css"></style></defs><path d="M696.1656 475.81946667c10.7824 10.75786667 25.04853333 16.66426667 40.25306667 16.66426666s29.4952-5.9248 40.21626666-16.66426666l148.04026667-148.00346667c10.75786667-10.75786667 16.66426667-25.03626667 16.66426667-40.2408s-5.9064-29.48293333-16.66426667-40.2408l-148.00346667-148.00346667c-21.50346667-21.50346667-58.95973333-21.50346667-80.4632 0L548.16213333 247.3344a56.54933333 56.54933333 0 0 0-16.66426666 40.2408c0 15.18 5.9064 29.46453333 16.66426666 40.2224l148.00346667 148.02186667zM575.76213333 274.9344l148.04026667-148.00346667c3.35493333-3.3856 7.8568-5.23173333 12.61626667-5.23173333s9.26133333 1.84613333 12.61626666 5.23786667l148.05253334 148.00346666c3.35493333 3.35493333 5.23786667 7.84453333 5.23786666 12.62853334 0 4.7656-1.88293333 9.24906667-5.23786666 12.604l-148.00346667 148.02186666c-6.74666667 6.75893333-18.5288 6.75893333-25.2632 0l-148.05866667-148.0096a17.74373333 17.74373333 0 0 1-5.23786666-12.604c0.00613333-4.784 1.88906667-9.2736 5.23786666-12.64693333z m160.65653334 256.58186667c-112.976 0-204.9024 91.93866667-204.9024 204.90853333 0 112.976 91.9264 204.90853333 204.9024 204.90853333s204.9024-91.93253333 204.9024-204.90853333c0-112.96986667-91.9264-204.90853333-204.9024-204.90853333z m0 370.79066666c-91.4848 0-165.88826667-74.40346667-165.88826667-165.88213333s74.40346667-165.88213333 165.88826667-165.88213333c91.47253333 0 165.88826667 74.40346667 165.88826666 165.88213333s-74.41573333 165.88213333-165.88826666 165.88213333zM287.58133333 531.51626667c-113.00053333 0-204.91466667 91.93866667-204.91466666 204.90853333C82.66666667 849.4008 174.5808 941.33333333 287.58133333 941.33333333c113.00053333 0 204.89626667-91.93253333 204.89626667-204.90853333-0.00613333-112.96986667-91.90186667-204.90853333-204.89626667-204.90853333z m0 370.79066666c-91.4664 0-165.88213333-74.40346667-165.88213333-165.88213333S196.11493333 570.54266667 287.58133333 570.54266667s165.86986667 74.40346667 165.86986667 165.88213333-74.40346667 165.88213333-165.86986667 165.88213333zM287.58133333 82.66666667C174.5808 82.66666667 82.66666667 174.5992 82.66666667 287.5752c0 112.96986667 91.91413333 204.90853333 204.90853333 204.90853333 113.00053333 0 204.89626667-91.91413333 204.89626667-204.90853333S400.57573333 82.66666667 287.58133333 82.66666667z m0 370.79066666c-91.4664 0-165.88213333-74.41573333-165.88213333-165.88213333S196.11493333 121.6992 287.58133333 121.6992 453.4512 196.11493333 453.4512 287.58133333 379.04773333 453.45733333 287.58133333 453.45733333z" p-id="23157"></path></svg>