<?xml version="1.0" standalone="no"?><!DOCTYPE svg PUBLIC "-//W3C//DTD SVG 1.1//EN" "http://www.w3.org/Graphics/SVG/1.1/DTD/svg11.dtd"><svg t="1582071920306" class="icon" viewBox="0 0 1024 1024" version="1.1" xmlns="http://www.w3.org/2000/svg" p-id="8597" xmlns:xlink="http://www.w3.org/1999/xlink" width="200" height="200"><defs><style type="text/css"></style></defs><path d="M509.62534982 263.56226631c66.42819908 0 120.37482125-53.89467147 120.37482125-120.37482126s-53.94662217-120.37482125-120.37482125-120.37482125c-66.53377632 0-120.37482125 53.89299563-120.37482124 120.37482125s53.84104494 120.37482125 120.37482124 120.37482126m0 120.37482125c-66.53377632 0-120.37482125 53.89467147-120.37482124 120.37649707 0 66.4801498 53.84104494 120.31951889 120.37482124 120.31951889 66.42819908 0 120.37482125-53.83936909 120.37482125-120.31951889 0-66.4801498-53.94662217-120.37649708-120.37482125-120.37649707m0 361.07418888c-66.53377632 0-120.37482125 53.94662217-120.37482124 120.37482126 0 66.53377632 53.84104494 120.37482125 120.37482124 120.37482123 66.42819908 0 120.37482125-53.84104494 120.37482125-120.37482123 0-66.42819908-53.94662217-120.37482125-120.37482125-120.37482126" p-id="8598"></path></svg>