<?xml version="1.0" standalone="no"?><!DOCTYPE svg PUBLIC "-//W3C//DTD SVG 1.1//EN" "http://www.w3.org/Graphics/SVG/1.1/DTD/svg11.dtd"><svg t="1578827373548" class="icon" viewBox="0 0 1024 1024" version="1.1" xmlns="http://www.w3.org/2000/svg" p-id="7141" xmlns:xlink="http://www.w3.org/1999/xlink" width="200" height="200"><defs><style type="text/css"></style></defs><path d="M457.149337 512a54.857143 54.857143 0 1 0 109.714286 0 54.857143 54.857143 0 1 0-109.714286 0z m228.571429 0a54.857143 54.857143 0 1 0 109.714285 0 54.857143 54.857143 0 1 0-109.714285 0z m-457.142857 0a54.857143 54.857143 0 1 0 109.714285 0 54.857143 54.857143 0 1 0-109.714285 0z m755.657142-198.4c-25.828571-61.371429-62.857143-116.457143-110.057142-163.771429a507.828571 507.828571 0 0 0-163.771429-110.057142C647.549337 13.371429 580.80648 0 512.00648 0h-2.285714c-69.257143 0.342857-136.342857 14.057143-199.428572 41.028571a508.971429 508.971429 0 0 0-162.285714 110.285715c-46.742857 47.2-83.428571 102.057143-108.8 163.2-26.285714 63.314286-39.542857 130.628571-39.2 199.885714A513.6 513.6 0 0 0 54.863623 742.857143v173.714286a52.571429 52.571429 0 0 0 52.571428 52.571428h173.828572A513.6 513.6 0 0 0 509.720766 1024h2.4c68.457143 0 134.857143-13.257143 197.371428-39.2a507.977143 507.977143 0 0 0 163.2-108.8c47.2-46.742857 84.342857-101.371429 110.285715-162.285714 26.971429-63.085714 40.685714-130.171429 41.028571-199.428572 0.342857-69.6-13.142857-137.142857-39.771429-200.685714z m-172.685714 500.571429C731.435051 893.485714 625.149337 937.142857 512.00648 937.142857h-1.942857c-68.914286-0.342857-137.371429-17.485714-197.828572-49.714286l-9.6-5.142857H141.720766V721.371429l-5.142857-9.6C104.349337 651.314286 87.20648 582.857143 86.863623 513.942857c-0.457143-113.942857 43.085714-220.914286 122.971428-301.485714 79.771429-80.571429 186.4-125.142857 300.342858-125.6h1.942857c57.142857 0 112.571429 11.085714 164.8 33.028571 50.971429 21.371429 96.685714 52.114286 136 91.428572 39.2 39.2 70.057143 85.028571 91.428571 136 22.171429 52.8 33.257143 108.8 33.028572 166.628571-0.685714 113.828571-45.371429 220.457143-125.828572 300.228572z" p-id="7142"></path></svg>