<?xml version="1.0" standalone="no"?><!DOCTYPE svg PUBLIC "-//W3C//DTD SVG 1.1//EN" "http://www.w3.org/Graphics/SVG/1.1/DTD/svg11.dtd"><svg t="1579012840628" class="icon" viewBox="0 0 1024 1024" version="1.1" xmlns="http://www.w3.org/2000/svg" p-id="6993" xmlns:xlink="http://www.w3.org/1999/xlink" width="200" height="200"><defs><style type="text/css"></style></defs><path d="M772.65493333 934.01173333H276.1696a62.10986667 62.10986667 0 0 1-62.0608-62.05973333V766.944h620.60586667v105.00693333c0 34.23253333-27.8272 62.05973333-62.05973334 62.05973334M276.1696 89.98826667h496.48533333c34.23253333 0 62.05973333 27.8272 62.05973334 62.05973333v540.42453333H214.1088V152.048c0-34.23253333 27.82826667-62.05973333 62.0608-62.05973333m496.48533333-74.4736H276.1696a136.7072 136.7072 0 0 0-136.53333333 136.53333333v719.904c0 75.26613333 61.26613333 136.53333333 136.53333333 136.53333333h496.48533333c75.2672 0 136.53333333-61.2672 136.53333334-136.53333333v-719.904c0-75.26613333-61.26613333-136.53333333-136.53333334-136.53333333M524.41173333 797.4784a49.648 49.648 0 1 0 0.0256 99.32266667 49.648 49.648 0 0 0-0.0256-99.32266667" p-id="6994"></path></svg>