<?xml version="1.0" standalone="no"?><!DOCTYPE svg PUBLIC "-//W3C//DTD SVG 1.1//EN" "http://www.w3.org/Graphics/SVG/1.1/DTD/svg11.dtd"><svg t="1569817109575" class="icon" viewBox="0 0 1024 1024" version="1.1" xmlns="http://www.w3.org/2000/svg" p-id="24630" xmlns:xlink="http://www.w3.org/1999/xlink" width="200" height="200"><defs><style type="text/css"></style></defs><path d="M925.85950361 512a413.85950361 413.85950361 0 1 0-413.85950361 413.85950361h413.85950361v-34.48829224H677.19891826A413.85950361 413.85950361 0 0 0 925.85950361 512zM132.62878863 512a379.37121137 379.37121137 0 1 1 379.37121137 379.37121137A379.37121137 379.37121137 0 0 1 132.62878863 512z" p-id="24631"></path><path d="M512 512m-43.11036469 0a43.11036469 43.11036469 0 1 0 86.22072937 0 43.11036469 43.11036469 0 1 0-86.22072937 0Z" p-id="24632"></path><path d="M793.07957927 512a103.4648759 103.4648759 0 1 0-62.76869111 48.28360848A103.4648759 103.4648759 0 0 0 793.07957927 512z m-29.83237201-17.24414572a68.97658366 68.97658366 0 1 1 6.89765811-51.73243794 68.97658366 68.97658366 0 0 1-6.89765811 51.73243794zM293.68911184 463.37150833a103.4648759 103.4648759 0 1 0 126.74447299 73.11517869 103.4648759 103.4648759 0 0 0-126.74447299-73.11517869z m44.66233784 166.57845019a68.97658366 68.97658366 0 1 1 48.80093367-84.49631505 68.97658366 68.97658366 0 0 1-48.80093367 84.49631505zM536.48668702 603.56641517a103.4648759 103.4648759 0 1 0 126.74447298 73.1151787 103.4648759 103.4648759 0 0 0-126.74447298-73.1151787zM580.97658366 770.66218975a68.97658366 68.97658366 0 1 1 48.80093369-84.49631504A68.97658366 68.97658366 0 0 1 580.97658366 770.66218975zM460.26756205 423.88241429a103.4648759 103.4648759 0 1 0-100.01604644-76.73645016 103.4648759 103.4648759 0 0 0 100.01604644 76.73645016zM443.02341634 253.33781025a68.97658366 68.97658366 0 1 1-48.80093369 84.49631504A68.97658366 68.97658366 0 0 1 443.02341634 253.33781025z" p-id="24633"></path></svg>