<?xml version="1.0" standalone="no"?><!DOCTYPE svg PUBLIC "-//W3C//DTD SVG 1.1//EN" "http://www.w3.org/Graphics/SVG/1.1/DTD/svg11.dtd"><svg t="1569818822099" class="icon" viewBox="0 0 1024 1024" version="1.1" xmlns="http://www.w3.org/2000/svg" p-id="36319" xmlns:xlink="http://www.w3.org/1999/xlink" width="200" height="200"><defs><style type="text/css"></style></defs><path d="M601.93808354 940.09609721c-0.34715625 0-0.69431346-0.00784492-1.04343141-0.02549742-8.71912271-0.44914592-16.16926163-6.43318529-18.48461988-14.85026241L478.36111137 546.93925496 98.06769667 440.92507417c-8.39550217-2.34085567-14.35208242-9.79295533-14.78455717-18.50030971-0.43247475-8.70539362 4.75820358-16.71059058 12.88206042-19.87030375L911.86559533 85.28174175c7.48348125-2.9116045 15.97508892-1.12580783 21.65610138 4.55226254 5.67610867 5.67709 7.46386704 14.1736005 4.55324387 21.65610138L620.80124029 927.18951975C617.76313004 934.99956363 610.24728683 940.09609721 601.93808354 940.09609721zM167.51471317 418.24907804l332.76433733 92.76338917c6.85094963 1.91034167 12.19657321 7.27557946 14.0843605 14.13241325l90.87069904 330.36660362 278.42059571-715.8095075L167.51471317 418.24907804z" p-id="36320"></path></svg>