<?xml version="1.0" standalone="no"?><!DOCTYPE svg PUBLIC "-//W3C//DTD SVG 1.1//EN" "http://www.w3.org/Graphics/SVG/1.1/DTD/svg11.dtd"><svg t="1582964051702" class="icon" viewBox="0 0 1024 1024" version="1.1" xmlns="http://www.w3.org/2000/svg" p-id="7667" xmlns:xlink="http://www.w3.org/1999/xlink" width="200" height="200"><defs><style type="text/css"></style></defs><path d="M512 806.4c32.49493333 0 62.35022187 11.37777813 85.8339552 30.3104L512 942.93333333l-85.8339552-106.22293333A135.94168853 135.94168853 0 0 1 512 806.4zM93.66186667 50.59697813l804.49991146 804.54542187-64.35271146 64.35271146-235.7475552-235.74755626A272.7936 272.7936 0 0 0 512 669.86666666c-64.98986667 0-124.7004448 22.7100448-171.57688853 60.6208l-57.16195627-70.81528853a362.40497813 362.40497813 0 0 1 210.35235627-80.37262293L375.46666667 461.15271146a499.21137813 499.21137813 0 0 0-178.03946667 92.34204374L140.17422187 482.67946666A590.91626667 590.91626667 0 0 1 303.37706667 389.06311146L199.42968853 285.07022186a728.58737813 728.58737813 0 0 0-144.95288853 91.3408L-2.77617813 305.6412448a820.0192 820.0192 0 0 1 134.3488-88.38257814L29.2636448 114.9952l64.39822187-64.39822187zM625.77777813 455.28177813l-103.94737813-103.90186667L512 351.28888853c140.85688853 0 270.19946667 49.19751147 371.82577813 131.39057813l-57.25297813 70.81528854a498.80177813 498.80177813 0 0 0-200.79502187-98.21297707zM512 123.73333333c195.01511147 0 374.10133333 68.13013333 514.73066667 181.90791147l-57.20746667 70.76977706A725.12853333 725.12853333 0 0 0 512 214.7555552c-39.9587552 0-79.18933333 3.18577813-117.41866667 9.4208L317.44 146.944A822.7043552 822.7043552 0 0 1 512 123.73333333z" p-id="7668"></path></svg>