<?xml version="1.0" standalone="no"?><!DOCTYPE svg PUBLIC "-//W3C//DTD SVG 1.1//EN" "http://www.w3.org/Graphics/SVG/1.1/DTD/svg11.dtd"><svg t="1582369422614" class="icon" viewBox="0 0 1024 1024" version="1.1" xmlns="http://www.w3.org/2000/svg" p-id="7453" xmlns:xlink="http://www.w3.org/1999/xlink" width="200" height="200"><defs><style type="text/css"></style></defs><path d="M131.81157946 83.24937735v848.11263135h731.13157839V83.24937735H131.81157946zM44.07578918-4.48641291h906.60315784v1023.58421082H44.07578918V-4.48641291z m248.58473729 350.94315783a73.11315785 73.11315785 0 1 1 0-146.22631567 73.11315785 73.11315785 0 0 1 0 146.22631567z m204.71684218 0a73.11315785 73.11315785 0 1 1 0-146.22631567 73.11315785 73.11315785 0 0 1 0 146.22631567z m204.71684216 0a73.11315785 73.11315785 0 1 1 0-146.22631567 73.11315785 73.11315785 0 0 1 0 146.22631567zM219.54736865 814.38095574v-87.73578919h350.94315784v87.73578919H219.54736865z m0-204.71684217v-87.73578919h555.66v87.73578919H219.54736865z" fill="#333333" p-id="7454"></path></svg>