<?xml version="1.0" standalone="no"?><!DOCTYPE svg PUBLIC "-//W3C//DTD SVG 1.1//EN" "http://www.w3.org/Graphics/SVG/1.1/DTD/svg11.dtd"><svg t="1569818363745" class="icon" viewBox="0 0 1024 1024" version="1.1" xmlns="http://www.w3.org/2000/svg" p-id="28856" xmlns:xlink="http://www.w3.org/1999/xlink" width="200" height="200"><defs><style type="text/css"></style></defs><path d="M379.75 182.51790123l529 0 0 44.08333334-529 0 0-44.08333334z" p-id="28857"></path><path d="M379.75 491.10123457l529 0 0 44.08333333-529 0 0-44.08333333z" p-id="28858"></path><path d="M379.75 799.6845679l529 0 0 44.08333333-529 0 0-44.08333333z" p-id="28859"></path><path d="M115.25 94.35123457l0 44.08333333 44.08333333 0 0 176.33333333 44.08333334 0 0-220.41666666z" p-id="28860"></path><path d="M203.41666667 402.9345679l-88.16666667 0 0 44.08333333 88.16666667 0 0 44.08333334-88.16666667 0 0 132.25 132.25 0 0-44.08333334-88.16666667 0 0-44.08333333 88.16666667 0 0-132.25z" p-id="28861"></path><path d="M203.41666667 711.51790123l-88.16666667 0 0 44.08333334 88.16666667 0 0 44.08333333-88.16666667 0 0 44.08333333 88.16666667 0 0 44.08333334-88.16666667 0 0 44.08333333 132.25 0 0-220.41666667z" p-id="28862"></path></svg>