<?xml version="1.0" standalone="no"?><!DOCTYPE svg PUBLIC "-//W3C//DTD SVG 1.1//EN" "http://www.w3.org/Graphics/SVG/1.1/DTD/svg11.dtd"><svg t="1569818385227" class="icon" viewBox="0 0 1024 1024" version="1.1" xmlns="http://www.w3.org/2000/svg" p-id="29202" xmlns:xlink="http://www.w3.org/1999/xlink" width="200" height="200"><defs><style type="text/css"></style></defs><path d="M940.27499149 143.10097217c0 5.41623167-4.39045275 9.80668442-9.80668442 9.80668441l-690.93975604 0c-5.41623167 0-9.80668442-4.39045275-9.80668442-9.80668441l0-17.65203234c0-5.41623167 4.39045275-9.80668442 9.80668442-9.80668441l690.93975604 0c5.41623167 0 9.80668442 4.39045275 9.80668442 9.80668441L940.27499149 143.10097217z" p-id="29203"></path><path d="M940.27499149 901.15767604c0 5.41623167-4.39045275 9.80668442-9.80668442 9.80668442l-690.93975604 0c-5.41623167 0-9.80668442-4.39045275-9.80668442-9.80668442l0-17.65203233c0-5.41623167 4.39045275-9.80668442 9.80668442-9.80668442l690.93975604 0c5.41623167 0 9.80668442 4.39045275 9.80668442 9.80668442L940.27499149 901.15767604z" p-id="29204"></path><path d="M940.27499149 332.61514837c0 5.41623167-4.39045275 9.80668442-9.80668442 9.80668442l-420.43217329 0c-5.41623167 0-9.80668442-4.39045275-9.80668442-9.80668442l0-13.4508485c0-5.41623167 4.39045275-9.80668442 9.80668442-9.80668441l420.43217329 0c5.41623167 0 9.80668442 4.39045275 9.80668442 9.80668441L940.27499149 332.61514837z" p-id="29205"></path><path d="M940.27499149 522.12932458c0 5.41623167-4.39045275 9.80668442-9.80668442 9.80668442l-420.43217329 0c-5.41623167 0-9.80668442-4.39045275-9.80668442-9.80668442l0-13.4508485c0-5.41623167 4.39045275-9.80668442 9.80668442-9.80668441l420.43217329 0c5.41623167 0 9.80668442 4.39045275 9.80668442 9.80668441L940.27499149 522.12932458z" p-id="29206"></path><path d="M940.27499149 711.64350079c0 5.41623167-4.39045275 9.80668442-9.80668442 9.80668442l-420.43217329 0c-5.41623167 0-9.80668442-4.39045275-9.80668442-9.80668442l0-13.4508485c0-5.41623167 4.39045275-9.80668442 9.80668442-9.80668441l420.43217329 0c5.41623167 0 9.80668442 4.39045275 9.80668442 9.80668441L940.27499149 711.64350079z" p-id="29207"></path><path d="M299.77885845 667.24569804L136.03272649 506.23465038 298.83153253 342.11096096c5.18185208-5.22402067 6.26451-12.55059496 2.41930867-16.36441471l-9.0515695-8.97801933c-3.84520133-3.81381975-11.16294842-2.67134075-16.3448005 2.55169954L101.34942511 495.24626046c-1.46707992 1.47884825-2.59288775 3.12735121-3.38330575 4.81606296l-0.18730721 0.19024929c-3.79714858 3.8618725-2.62230762 11.17471675 2.623288 16.33303312l176.68703309 173.73522075c5.246576 5.15831638 12.57805313 6.20959271 16.37520171 2.34772021l8.93879283-9.090796C306.19929503 679.71685867 305.02543445 672.40401442 299.77885845 667.24569804z" p-id="29208"></path></svg>