<?xml version="1.0" standalone="no"?><!DOCTYPE svg PUBLIC "-//W3C//DTD SVG 1.1//EN" "http://www.w3.org/Graphics/SVG/1.1/DTD/svg11.dtd"><svg t="1569814871400" class="icon" viewBox="0 0 1024 1024" version="1.1" xmlns="http://www.w3.org/2000/svg" p-id="17583" xmlns:xlink="http://www.w3.org/1999/xlink" width="200" height="200"><defs><style type="text/css"></style></defs><path d="M253.33781025 356.80268615a155.19731385 155.19731385 0 1 0 0 310.3946277 155.19731385 155.19731385 0 0 0 0-310.3946277z m0 258.66218975a103.4648759 103.4648759 0 1 1 0.05173245-206.98148424A103.4648759 103.4648759 0 0 1 253.33781025 615.4648759z" fill="" p-id="17584"></path><path d="M382.66890512 486.13378103h517.3243795a25.86621897 25.86621897 0 0 1 0 51.73243794h-517.3243795a25.86621897 25.86621897 0 0 1 0-51.73243794z" fill="" p-id="17585"></path><path d="M615.4648759 382.66890512c14.22642044 0 25.86621897 11.63979853 25.86621897 25.86621898v103.4648759a25.86621897 25.86621897 0 0 1-51.73243794 0V408.5351241c0-14.22642044 11.63979853-25.86621897 25.86621897-25.86621897zM796.52840872 382.66890512c14.22642044 0 25.86621897 11.63979853 25.86621898 25.86621898v103.4648759a25.86621897 25.86621897 0 0 1-51.73243795 0V408.5351241c0-14.22642044 11.63979853-25.86621897 25.86621896-25.86621897z" fill="" p-id="17586"></path></svg>