<?xml version="1.0" standalone="no"?><!DOCTYPE svg PUBLIC "-//W3C//DTD SVG 1.1//EN" "http://www.w3.org/Graphics/SVG/1.1/DTD/svg11.dtd"><svg t="1569818587125" class="icon" viewBox="0 0 1024 1024" version="1.1" xmlns="http://www.w3.org/2000/svg" p-id="32994" xmlns:xlink="http://www.w3.org/1999/xlink" width="200" height="200"><defs><style type="text/css"></style></defs><path d="M511.95304167 87.28104167c-234.83670833 0-425.21058333 190.37291667-425.21058334 425.21058333S277.11633333 937.70125 511.95304167 937.70125s425.21058333-190.37291667 425.21058333-425.21058333S746.79070833 87.28104167 511.95304167 87.28104167zM792.29333333 792.83095833c-36.41954167 36.41954167-78.82195833 65.0095-126.0285 84.976375-48.85870833 20.6655-100.777375 31.14391667-154.31179166 31.14391667s-105.452125-10.47841667-154.31179167-31.14391667c-47.20654167-19.966875-89.60895833-48.55683333-126.0285-84.976375-36.41954167-36.41954167-65.0095-78.82195833-84.976375-126.0285-20.6655-48.85870833-31.14391667-100.777375-31.14391667-154.31179166s10.47841667-105.452125 31.14391667-154.31179167c19.966875-47.20654167 48.55683333-89.60895833 84.976375-126.0285s78.82195833-65.0095 126.0285-84.976375c48.85870833-20.6655 100.777375-31.14391667 154.31179167-31.14391667s105.452125 10.47841667 154.31179166 31.14391667c47.20654167 19.966875 89.60895833 48.55683333 126.0285 84.976375s65.0095 78.82195833 84.976375 126.0285c20.6655 48.85870833 31.14391667 100.777375 31.14391667 154.31179167s-10.47841667 105.452125-31.14391667 154.31179166c-19.966875 47.2075-48.55683333 89.60895833-84.976375 126.0285z" fill="" p-id="32995"></path><path d="M314.536375 343.111c-25.09683333 0-45.51316667 20.41729167-45.51316667 45.514125s20.41729167 45.51316667 45.51316667 45.51316667 45.51316667-20.41729167 45.51316667-45.51316667-20.41633333-45.514125-45.51316667-45.514125zM314.536375 466.97845833c-25.09683333 0-45.51316667 20.41729167-45.51316667 45.51316667s20.41729167 45.51316667 45.51316667 45.51316667 45.51316667-20.41729167 45.51316667-45.51316667-20.41633333-45.51316667-45.51316667-45.51316667zM314.536375 590.844c-25.09683333 0-45.51316667 20.41729167-45.51316667 45.51316667s20.41729167 45.51316667 45.51316667 45.51316666 45.51316667-20.41729167 45.51316667-45.51316666-20.41633333-45.51316667-45.51316667-45.51316667zM726.93020833 374.250125H430.60204167c-7.93883333 0-14.375 6.43616667-14.375 14.375s6.43616667 14.375 14.375 14.375h296.329125c7.93883333 0 14.375-6.43616667 14.375-14.375s-6.43616667-14.375-14.37595834-14.375zM726.93020833 498.116625H430.60204167c-7.93883333 0-14.375 6.43616667-14.375 14.375s6.43616667 14.375 14.375 14.375h296.329125c7.93883333 0 14.375-6.43616667 14.375-14.375s-6.43616667-14.375-14.37595834-14.375zM726.93020833 621.983125H430.60204167c-7.93883333 0-14.375 6.43616667-14.375 14.375s6.43616667 14.375 14.375 14.375h296.329125c7.93883333 0 14.375-6.43616667 14.375-14.375s-6.43616667-14.375-14.37595834-14.375z" fill="" p-id="32996"></path></svg>