<?xml version="1.0" standalone="no"?><!DOCTYPE svg PUBLIC "-//W3C//DTD SVG 1.1//EN" "http://www.w3.org/Graphics/SVG/1.1/DTD/svg11.dtd"><svg t="1569817981201" class="icon" viewBox="0 0 1024 1024" version="1.1" xmlns="http://www.w3.org/2000/svg" p-id="25201" xmlns:xlink="http://www.w3.org/1999/xlink" width="200" height="200"><defs><style type="text/css"></style></defs><path d="M700.04398609 207.29390969L323.99140228 207.29390969c-23.97751771 0-43.41328977 20.26005284-43.41328978 45.25691747l0 331.70625958c0 24.99254863 19.43577206 45.25691747 43.41328978 45.25691747L700.04398609 629.51400506c23.97838057 0 43.41328977-20.26436884 43.41328977-45.25691747l0-331.70625959C743.45727586 227.55482624 724.02150379 207.29390969 700.04398609 207.29390969L700.04398609 207.29390969 700.04398609 207.29390969zM323.97931797 237.45310512l376.07934101 0c7.99164277 0 14.46764374 6.75392647 14.46764373 15.08218713l0 177.60711938c-23.30773587-19.93897152-63.72254101-46.82434624-112.20235506-46.82434622-44.70106732 0-88.77291919 36.10869203-131.38523226 71.02713875-32.65361605 26.75417985-66.4197961 54.42240608-90.11248372 54.42240608-33.23104453 0-61.67694256-25.4664023-71.31801141-35.18256219L309.50822194 252.53529141C309.5090848 244.20703157 315.98853892 237.45310512 323.97931797 237.45310512L323.97931797 237.45310512 323.97931797 237.45310512zM700.05865898 599.35481048l-376.07934101 0c-7.9907799 0-14.47109687-6.75478934-14.47109686-15.0865023l0-71.58557833c17.34356552 12.81304047 42.42846835 26.25615926 71.3180114 26.25615926 33.70317162 0 69.79114904-29.56623033 107.99549992-60.87424013 38.75156986-31.74733881 78.81163274-64.57530554 113.50221606-64.57530555 62.17237457 0 111.48510055 57.05665275 111.97535369 57.62976607l0.22700137-0.20973821 0 113.35893774C714.52630355 592.6000203 708.05030174 599.35481048 700.05865898 599.35481048L700.05865898 599.35481048 700.05865898 599.35481048zM425.07933966 418.56795033c32.00109654 0 57.93962593-27.04246309 57.93962593-60.40038562 0-33.35706053-25.93853024-60.39607046-57.93962593-60.39607046-31.99505396 0-57.93703735 27.03987364-57.93703733 60.39607046C367.14230317 391.5254881 393.08428571 418.56795033 425.07933966 418.56795033L425.07933966 418.56795033 425.07933966 418.56795033zM425.29770988 327.92723653c15.93149854 0 28.8429341 13.46383342 28.8429341 30.07460865 0 16.60645924-12.91229927 30.0702935-28.8429341 30.0702935-15.93322426 0-28.84897583-13.46383342-28.84897583-30.0702935C396.4487332 341.39365936 409.36448477 327.92723653 425.29770988 327.92723653L425.29770988 327.92723653 425.29770988 327.92723653zM425.29770988 327.92723653" p-id="25202"></path><path d="M691.82793139 730.60971075L321.52546373 730.60971075c-12.7811044 0-23.14374207-16.56503-23.14374208-29.34613441s10.36263767-29.3461344 23.14374207-29.3461344l370.30246767 0c12.7811044 0 23.14374207 16.56503 23.14374206 29.3461344S704.60903579 730.60971075 691.82793139 730.60971075z" p-id="25203"></path><path d="M691.82793139 828.14245132L321.52546373 828.14245132c-12.7811044 0-23.14374207-11.81786046-23.14374208-24.59896572s10.36263767-24.59896571 23.14374207-24.5989657l370.30246767 0c12.7811044 0 23.14374207 11.81786046 23.14374206 24.5989657S704.60903579 828.14245132 691.82793139 828.14245132z" p-id="25204"></path><path d="M766.60101793 940.16268738L257.43436958 940.16268738c-76.56837955 0-138.86331783-62.29493827-138.86331783-138.86331782L118.57105176 222.70063044c0-76.56837955 62.29493827-138.86331783 138.86331782-138.86331782l509.16664835 0c76.56837955 0 138.86331783 62.29493827 138.86331783 138.86331782l0 578.59787625C905.46433576 877.86688625 843.16939833 940.16268738 766.60101793 940.16268738zM257.43436958 130.1247976c-51.04587427 0-92.57583285 41.52995856-92.57583283 92.57583284l0 578.59787625c0 51.04587427 41.52995856 92.57583285 92.57583283 92.57583285l509.16664835 0c51.04587427 0 92.57583285-41.52995856 92.57583284-92.57583285L859.17685077 222.70063044c0-51.04587427-41.52995856-92.57583285-92.57583284-92.57583284L257.43436958 130.1247976z" p-id="25205"></path></svg>