<?xml version="1.0" standalone="no"?><!DOCTYPE svg PUBLIC "-//W3C//DTD SVG 1.1//EN" "http://www.w3.org/Graphics/SVG/1.1/DTD/svg11.dtd"><svg t="1569814236635" class="icon" viewBox="0 0 1024 1024" version="1.1" xmlns="http://www.w3.org/2000/svg" p-id="16044" xmlns:xlink="http://www.w3.org/1999/xlink" width="200" height="200"><defs><style type="text/css"></style></defs><path d="M302.04929167 793.396375h281.09258333v-380.61166667h-65.83558333v314.74158334H302.04929167z" fill="#333333" p-id="16045"></path><path d="M719.43604167 82.88037501H236.07475v240.95566666h65.83654167V148.75045833h363.12208332v179.79195834h179.16137501v545.539875H301.91129167V671.513625h-65.83654167v268.43875h673.95654167V266.96470833z" fill="#333333" p-id="16046"></path><path d="M654.19270833 421.99525h123.855v64.22366667h-123.855zM654.19270833 575.172375h123.855v64.22366667h-123.855zM654.19270833 728.3495h123.855v64.22366667h-123.855z" fill="#333333" p-id="16047"></path><path d="M237.57358333 432.12866667h110.04733334v50.79645834H237.57358333z" fill="#333333" p-id="16048"></path><path d="M462.75508333 671.513625V323.83604167H115.25383333v347.67758333h347.50125zM232.95537499 540.56120833v79.90870834h-57.92837499V374.49066667h57.92837501v0.00191666h123.29341666c27.00679167 0 48.9785 23.40920833 48.9785 52.18316667v61.70325c0 28.77395833-21.97170833 52.18316667-48.9785 52.18316667H232.95537499z" fill="#333333" p-id="16049"></path><path d="M356.24879167 540.56120833c27.00679167 0 48.9785-23.40920833 48.9785-52.18316666v-61.70325c0-28.77395833-21.97170833-52.18316667-48.9785-52.18316668H232.95537499v-0.00191666h-57.92837499v245.97925h57.92837501v-79.90870833h123.29341666zM237.57358333 432.12866667h110.04733334v50.79645834H237.57358333v-50.79645834z" fill="#ffffff" p-id="16050"></path></svg>