<?xml version="1.0" standalone="no"?><!DOCTYPE svg PUBLIC "-//W3C//DTD SVG 1.1//EN" "http://www.w3.org/Graphics/SVG/1.1/DTD/svg11.dtd"><svg t="1569816878563" class="icon" viewBox="0 0 1024 1024" version="1.1" xmlns="http://www.w3.org/2000/svg" p-id="20976" xmlns:xlink="http://www.w3.org/1999/xlink" width="200" height="200"><defs><style type="text/css"></style></defs><path d="M512 98.14049639C283.43153938 98.14049639 98.14049639 283.43153938 98.14049639 512s185.29104299 413.85950361 413.85950361 413.85950361 413.85950361-185.29104299 413.85950361-413.85950361S740.56846062 98.14049639 512 98.14049639z m256.05940147 669.91890508a360.8337547 360.8337547 0 1 1 77.59865693-115.12084084 360.98733537 360.98733537 0 0 1-77.59865694 115.12084084z" p-id="20977"></path><path d="M641.33109488 512a25.86621897 25.86621897 0 0 0 0-51.73243795H548.57645027l111.04691134-111.03882815a25.86621897 25.86621897 0 0 0-36.57645028-36.57645026L512 423.69111178 400.96117186 312.64420044a25.86621897 25.86621897 0 0 0-36.57645027 36.57645027L475.42354973 460.26756205H382.66890512a25.86621897 25.86621897 0 0 0 0 51.73243795h103.46487591v51.73243795H382.66890512a25.86621897 25.86621897 0 0 0 0 51.73243795h103.46487591v77.59865694a25.86621897 25.86621897 0 0 0 51.73243794 0v-77.59865694h103.4648759a25.86621897 25.86621897 0 0 0 0-51.73243795H537.86621897v-51.73243795h103.46487591z" p-id="20978"></path></svg>