<?xml version="1.0" standalone="no"?><!DOCTYPE svg PUBLIC "-//W3C//DTD SVG 1.1//EN" "http://www.w3.org/Graphics/SVG/1.1/DTD/svg11.dtd"><svg t="1569813540326" class="icon" viewBox="0 0 1024 1024" version="1.1" xmlns="http://www.w3.org/2000/svg" p-id="13990" xmlns:xlink="http://www.w3.org/1999/xlink" width="200" height="200"><defs><style type="text/css"></style></defs><path d="M118.39880921 313.33939844L826.88044942 313.33939844C859.43794073 313.33939844 885.92113075 339.99054453 885.92113075 372.74825283L885.92113075 727.88065337 905.60119159 708.14059332 787.52083307 708.14059332 807.20089228 727.88065337 807.20089228 648.92041392 807.20089228 629.18035385 787.52083307 629.18035385 236.47916693 629.18035385 216.79910691 629.18035385 216.79910691 648.92041392 216.79910691 727.88065337 236.47916693 708.14059332 197.16011752 708.14059332C164.57796254 708.14059332 138.07886925 681.48717983 138.07886925 648.73174054L138.07886925 293.59933999 118.39880921 313.33939844 118.39880921 313.33939844ZM118.39880921 273.85927991L98.71875 273.85927991 98.71875 293.59933999 98.71875 648.73174054C98.71875 703.26707022 142.81559139 747.62071183 197.16011752 747.62071183L236.47916693 747.62071183 256.15922615 747.62071183 256.15922615 727.88065337 256.15922615 648.92041392 236.47916693 668.66047398 787.52083307 668.66047398 767.84077465 648.92041392 767.84077465 727.88065337 767.84077465 747.62071183 787.52083307 747.62071183 905.60119159 747.62071183 925.28125 747.62071183 925.28125 727.88065337 925.28125 372.74825283C925.28125 318.21519053 881.20486685 273.85927991 826.88044942 273.85927991L118.39880921 273.85927991 118.39880921 273.85927991ZM708.80059458 905.54118993L728.48065542 885.80113067 295.51934458 885.80113067 315.19940542 905.54118993 315.19940542 725.36064512C315.19940542 714.45851176 306.38834199 705.62058506 295.51934458 705.62058506 284.6503496 705.62058506 275.83928617 714.45851176 275.83928617 725.36064512L275.83928617 905.54118993C275.83928617 916.44332329 284.6503496 925.28125 295.51934458 925.28125L728.48065542 925.28125C739.3496504 925.28125 748.16071383 916.44332329 748.16071383 905.54118993L748.16071383 725.36064512C748.16071383 714.45851176 739.3496504 705.62058506 728.48065542 705.62058506 717.61165801 705.62058506 708.80059458 714.45851176 708.80059458 725.36064512L708.80059458 905.54118993ZM265.99925575 451.51981729L521.84003042 451.51981729 521.84003042 412.03969877 265.99925575 412.03969877 265.99925575 451.51981729 265.99925575 451.51981729ZM275.83928617 293.59933999L275.83928617 135.67886188 256.15922615 155.41892194 767.84077465 155.41892194 748.16071383 135.67886188 748.16071383 293.59937067 787.52083307 293.59937067 787.52083307 135.67886188 787.52083307 115.93880181 767.84077465 115.93880181 256.15922615 115.93880181 236.47916693 115.93880181 236.47916693 135.67886188 236.47916693 293.59933999 275.83928617 293.59933999 275.83928617 293.59933999Z" p-id="13991"></path></svg>