<?xml version="1.0" standalone="no"?><!DOCTYPE svg PUBLIC "-//W3C//DTD SVG 1.1//EN" "http://www.w3.org/Graphics/SVG/1.1/DTD/svg11.dtd"><svg t="1569814520944" class="icon" viewBox="0 0 1024 1024" version="1.1" xmlns="http://www.w3.org/2000/svg" p-id="17229" xmlns:xlink="http://www.w3.org/1999/xlink" width="200" height="200"><defs><style type="text/css"></style></defs><path d="M87.7305 488.548625h51.591875q20.63675 0 33.30016667-3.751875t24.85820833-14.07025l15.00845833-15.00845833q9.38016667-9.38016667 19.69854167-21.57495834t21.10633333-24.85820833 20.168125-23.92q18.76033333-23.451375 33.76975-18.29170833t22.51316667 22.04358333l41.2735 113.50308333q31.89333333-89.1135 56.28195833-161.34308333 10.318375-30.955125 20.63675-60.50341667t18.76033334-54.4065 14.07025-41.2735 6.5665-21.10633333q4.69008333-15.94666667 14.07025-25.79641667t20.63675-9.84975q12.19479167 0 25.32683333 7.035125t16.884875 28.61008334q0.93820833 5.62829167 3.751875 30.01691666t7.50470833 60.973 9.84975 81.14016667 10.787 90.52033333q12.19479167 107.87479167 28.14145834 241.07641667 20.63675-67.53854167 37.521625-122.88325 6.5665-23.451375 13.601625-46.43316667t13.133-42.21170833 9.84975-32.36195833 5.62829166-16.884875q4.69008333-15.00845833 11.25658334-22.51316667t17.82308333-10.318375q21.57495833-5.62829167 32.36195833 6.09691667t10.787 23.92q0 10.318375-1.87641666 17.82308333-0.93820833 3.751875-0.93820834 6.5665l33.76975 91.928125q0.93820833-0.93820833 2.81366667-3.751875 2.81366667-4.69008333 9.38016667-19.69854167 7.50470833-15.94666667 24.85820833-21.10633333t33.30016667-4.22145833q10.318375 0.93820833 20.63675 0.93820833h43.14991666v71.291375q-5.62829167 0.93820833-11.25658333 0.93820833h-24.388625q-13.133-0.93820833-24.388625 7.035125t-15.94666667 15.47804167q-3.751875 7.50470833-13.133 29.07966667t-16.884875 44.088125q-3.751875 11.25658333-12.19479166 15.00845833t-17.3535 3.28325-16.884875-5.15966667-10.787-11.25658333-9.38016667-22.98179167-13.133-33.30016666q-8.44195833-19.69854167-16.884875-42.21170834-24.388625 77.85691667-44.088125 143.52-8.44195833 28.14145833-16.884875 55.34470834t-15.47804167 50.18504166-11.72520833 38.92845834-5.62829167 21.57495833q-4.69008333 22.51316667-17.82308333 35.64520833t-31.89333333 12.19479167q-19.69854167-1.87641667-28.14145834-16.884875t-10.318375-34.707q0-4.69008333-2.34504166-29.07966667t-6.09691667-61.91025-7.97333333-83.48520833-8.91154167-93.80358333q-10.318375-111.62666667-24.388625-249.518375-26.26504167 76.91966667-46.90179167 137.89170833-8.44195833 26.26504167-17.3535 51.591875t-15.94666666 45.96358333-11.72520834 34.707l-5.62829166 16.884875q-4.69008333 12.19479167-12.66341667 22.51316667t-24.85820833 9.38016667q-16.884875 0-25.32683334-11.72520834t-13.133-26.73366666q-2.81366667-7.50470833-10.318375-29.07966667t-15.94666666-44.088125q-10.318375-26.26504167-21.57495834-58.158375-6.5665 8.44195833-14.07025 16.884875-6.5665 7.50470833-14.07025 16.41529167t-15.00845833 17.3535q-15.00845833 17.82308333-28.14145833 24.388625t-30.955125 4.69008333q-9.38016667-0.93820833-24.85820834-0.468625t-31.42470833 0.468625q-17.82308333 0.93820833-39.39804167 0.93820833v-73.16683333z" p-id="17230"></path></svg>