<?xml version="1.0" standalone="no"?><!DOCTYPE svg PUBLIC "-//W3C//DTD SVG 1.1//EN" "http://www.w3.org/Graphics/SVG/1.1/DTD/svg11.dtd"><svg t="1569814303078" class="icon" viewBox="0 0 1024 1024" version="1.1" xmlns="http://www.w3.org/2000/svg" p-id="16640" xmlns:xlink="http://www.w3.org/1999/xlink" width="200" height="200"><defs><style type="text/css"></style></defs><path d="M102.38419786 268.95571786h183.1317014C298.01336066 312.67593481 338.23930435 344.80987622 385.91356807 344.80987622c47.68262288 0 87.90856658-32.13394139 100.40602896-75.85415836H921.61580214a20.89876511 20.89876511 0 1 0 0-41.79753119H489.4962097C483.00087342 175.73886453 439.07166815 135.82222223 385.91356807 135.82222223s-97.07894519 39.9166423-103.57428149 91.33596444H102.38419786a20.89876511 20.89876511 0 1 0 0 41.79753119zM385.91356807 177.61975342c34.57491786 0 62.6962963 28.11301926 62.69629629 62.67957693 0 34.58327703-28.12137844 62.71301564-62.69629629 62.71301566s-62.6962963-28.1297386-62.69629629-62.71301566c0-34.5665577 28.1297386-62.67957696 62.69629629-62.67957693zM921.61580214 503.02189036H718.73894748C710.44631703 453.65064658 667.52025252 415.86567934 615.80834733 415.86567934s-94.63796971 37.78496822-102.93059918 87.15621102H102.38419786a20.89876511 20.89876511 0 1 0 0 41.7975312h411.93974518c11.05962667 45.83517268 52.30543045 80.03391178 101.48440427 80.03391177s90.41641844-34.19874009 101.48440528-80.03391177H921.61580214a20.89876511 20.89876511 0 1 0 0-41.7975312zM615.80834733 583.05580214c-34.57491786 0-62.6962963-28.1297386-62.6962963-62.71301467 0-34.5665577 28.12137844-62.67957696 62.69629628-62.67957792s62.6962963 28.11301926 62.69629632 62.67957792c0 34.58327703-28.12137844 62.71301564-62.69629632 62.71301467zM921.61580214 770.52608822H489.4962097C483.00087342 719.10676511 439.07166815 679.19012378 385.91356807 679.19012378s-97.07894519 39.9166423-103.57428149 91.33596444H102.38419786a20.89876511 20.89876511 0 1 0 0 41.79753022h183.1317014c12.4974614 43.72021696 52.73176526 75.85415934 100.40602896 75.85415933 47.68262288 0 87.90856658-32.13394139 100.406028-75.85415933H921.61580214a20.89876511 20.89876511 0 1 0 0-41.79753022zM385.91356807 846.38024658c-34.57491786 0-62.6962963-28.1297386-62.69629629-62.71301465 0-34.5665577 28.12137844-62.67957696 62.69629629-62.67957794s62.6962963 28.11301926 62.69629629 62.67957794c0.00835919 34.58327703-28.11301926 62.71301564-62.69629629 62.71301465z" p-id="16641"></path></svg>