<?xml version="1.0" standalone="no"?><!DOCTYPE svg PUBLIC "-//W3C//DTD SVG 1.1//EN" "http://www.w3.org/Graphics/SVG/1.1/DTD/svg11.dtd"><svg t="1569814897293" class="icon" viewBox="0 0 1024 1024" version="1.1" xmlns="http://www.w3.org/2000/svg" p-id="18068" xmlns:xlink="http://www.w3.org/1999/xlink" width="200" height="200"><defs><style type="text/css"></style></defs><path d="M227.90596775 852.45585144c-11.6785751 0-21.83385734-9.6475188-21.83385735-21.83385735l0-62.96275231c0-125.41774118 75.65685597-237.12585016 192.44260607-283.84015053l15.7406885-6.60093396-13.70963137-10.66304654c-43.66771553-34.527961-69.05592199-85.81213823-69.05592201-141.15842884 0-99.01400616 80.73449709-179.24073897 179.24073897-179.24073897 99.01400616 0 179.24073897 80.73449709 179.24073897 179.24073897 0 55.34629063-24.88044218 106.63046784-69.055922 141.15842884l-13.70963136 10.66304654 15.74068849 6.60093396c117.29351437 46.71430037 192.44260606 157.91464506 192.44260606 283.84015053l0 62.96275231c0 11.6785751-9.6475188 21.83385734-21.83385735 21.83385735L227.90596775 852.45585144 227.90596775 852.45585144zM512.25388171 505.14518431c-144.71277797 0-262.51405662 117.29351437-262.51405661 262.51405663l-1e-8 41.12889496 524.52034898 0 0-41.12889496C774.2601749 622.94646298 656.96665968 505.14518431 512.25388171 505.14518431L512.25388171 505.14518431zM511.74611829 189.82365763c-75.14909169 0-136.08078772 60.93169603-136.08078773 136.08078771s60.93169603 136.08078772 136.08078771 136.08078772c75.14909169 0 136.08078772-60.93169603 136.08078773-136.08078772S586.89520997 189.82365763 511.74611829 189.82365763L511.74611829 189.82365763z" p-id="18069"></path><path d="M101.98046227 757.50395869c-11.6785751 0-21.83385734-9.6475188-21.83385734-21.83385734l0-48.74535666c0-90.88978019 50.26864949-173.65533356 130.49538232-215.29199197l11.17081081-5.58540541-8.63199025-9.64751881c-24.88044218-27.4192636-38.59007442-62.45498803-38.59007441-99.01400616 0-68.54815773 46.71430037-127.95656175 113.23140182-143.6972494 1.523292-0.50776429 3.55434913-0.50776429 5.07764113-0.50776429 10.15528225 0 18.7872725 6.60093397 21.32609391 16.75621622 2.53882056 11.6785751-4.56987685 23.35715019-15.74068851 25.89597076-47.22206465 11.6785751-79.71896853 53.31523434-79.71896853 102.06059099 0 41.12889497 24.37267875 78.70344082 61.9472246 95.45965704 2.53882056 1.01552856 4.56987685 2.53882056 6.60093396 4.56987684 0.50776429 0.50776429 0.50776429 0.50776429 1.01552856 1.01552857 1.01552856 1.01552856 1.523292 2.53882056 2.53882057 4.56987683l0.50776427 0.50776428c0.50776429 1.01552856 0.50776429 1.523292 1.01552858 2.53882057 0 0.50776429 0.50776429 1.01552856 0.50776427 1.523292 0 0.50776429 0 1.523292 0 2.53882056l0 0.50776428c0.50776429 2.03105629 0.50776429 3.55434913 0.50776428 5.07764113 0 0.50776429-0.50776429 1.01552856-0.50776428 1.523292l-0.50776427 1.01552855c-0.50776429 1.01552856-0.50776429 1.523292-0.50776429 2.53882058 0 0.50776429 0 1.01552856-0.50776429 1.52329199-3.04658485 6.60093397-9.13975454 11.6785751-16.75621622 12.69410365l-0.50776426 0-0.50776429 0c-88.35095878 22.34162163-150.29818338 101.55282672-150.29818338 192.95037036l0 48.74535665C123.30655619 748.36420416 113.65903738 757.50395869 101.98046227 757.50395869L101.98046227 757.50395869z" p-id="18070"></path><path d="M922.01953773 757.50395869c-11.6785751 0-21.83385734-9.6475188-21.83385737-21.83385734l1e-8-48.74535666c0-91.39754363-61.94722459-170.60874872-150.29818337-192.95037035l-0.50776428 0-0.50776429 0c-7.61646168-1.01552856-13.70963137-5.58540541-16.75621622-12.69410365 0-0.50776429 0-1.01552856-0.50776427-1.52329201 0-1.01552856-0.50776429-1.523292-0.50776429-2.53882055l-0.50776427-1.01552857c0-0.50776429-0.50776429-1.01552856-0.50776429-1.523292 0-1.523292 0-2.53882056 0.50776429-4.56987685l0-0.50776428c0-0.50776429 0-1.523292 0-2.53882055 0.50776429-0.50776429 0.50776429-1.01552856 0.50776427-1.523292 0 0 0.50776429-0.50776429 0.50776429-1.52329201l0.50776427-1.01552856c1.01552856-2.53882056 2.03105629-3.55434913 3.04658485-4.56987685 0.50776429-0.50776429 0.50776429-0.50776429 1.01552857-1.01552855 1.523292-1.523292 4.06211341-3.55434913 6.60093397-4.56987685 37.57454585-16.75621621 61.94722459-54.33076206 61.94722459-95.45965703 0-47.22206465-31.98914043-88.85872307-77.18014798-101.04506244-11.6785751-3.04658485-18.7872725-15.23292422-15.23292421-26.91149932 2.53882056-9.6475188 11.17081081-16.24845195 20.81832962-16.24845192 2.03105629 0 3.55434913 0.50776429 5.58540541 0.50776427 64.48604516 17.2639805 109.1692884 76.16462024 109.1692884 142.68172169 0 36.55901728-13.70963137 71.59474257-38.59007439 99.01400616l-8.63199027 9.6475188 11.17081082 5.58540541c80.73449709 41.63665926 130.49538232 124.40221262 130.49538231 215.29199198l1e-8 48.74535665C943.85339507 748.36420416 934.20587624 757.50395869 922.01953773 757.50395869L922.01953773 757.50395869z" p-id="18071"></path></svg>