<?xml version="1.0" standalone="no"?><!DOCTYPE svg PUBLIC "-//W3C//DTD SVG 1.1//EN" "http://www.w3.org/Graphics/SVG/1.1/DTD/svg11.dtd"><svg t="1569818236322" class="icon" viewBox="0 0 1024 1024" version="1.1" xmlns="http://www.w3.org/2000/svg" p-id="27022" xmlns:xlink="http://www.w3.org/1999/xlink" width="200" height="200"><defs><style type="text/css"></style></defs><path d="M353.57552083 142.34288194h-211.23263889v211.23263889h211.23263889v-211.23263889zM406.38368056 89.53472223v316.84895833H89.53472223V89.53472223h316.84895833z m-211.23263889 105.61631944H300.76736111V300.76736111H195.15104167V195.15104167z m686.50607639-52.80815973h-211.23263889v211.23263889h211.23263889v-211.23263889zM934.46527777 89.53472223v316.84895833H617.61631944V89.53472223H934.46527777z m-211.23263888 105.61631944h105.61631944V300.76736111H723.23263889V195.15104167zM353.57552083 670.42447917h-211.23263889v211.23263889h211.23263889v-211.23263889z m52.80815973-52.80815973V934.46527777H89.53472223V617.61631944h316.84895833z m-211.23263889 105.61631945H300.76736111v105.61631944H195.15104167V723.23263889zM459.19184027 89.53472223H512v52.80815971h-52.80815973V89.53472223zM512 142.34288194h52.80815973V195.15104167H512V142.34288194zM459.19184027 195.15104167H512v52.80815972h-52.80815973V195.15104167zM512 247.95920139h52.80815973V300.76736111H512V247.95920139zM459.19184027 300.76736111H512v52.80815972h-52.80815973V300.76736111zM512 353.57552083h52.80815973v52.80815973H512v-52.80815973z m-52.80815973 52.80815973H512v52.80815971h-52.80815973V406.38368056z m0 105.61631944H512v52.80815973h-52.80815973V512zM512 564.80815973h52.80815973v52.80815971H512v-52.80815971z m-52.80815973 52.80815971H512v52.80815973h-52.80815973V617.61631944zM512 670.42447917h52.80815973V723.23263889H512v-52.80815972zM459.19184027 723.23263889H512v52.80815972h-52.80815973V723.23263889zM512 776.04079861h52.80815973v52.80815972H512v-52.80815972z m-52.80815973 52.80815972H512v52.80815973h-52.80815973V828.84895833zM512 881.65711806h52.80815973V934.46527777H512v-52.80815971zM881.65711806 512H934.46527777v52.80815973h-52.80815971V512z m-739.31423612 0H195.15104167v52.80815973H142.34288194V512z m52.80815973-52.80815973h52.80815972V512H195.15104167v-52.80815973z m-105.61631944 0h52.80815971V512H89.53472223v-52.80815973z m211.23263888 0h52.80815972V512H300.76736111v-52.80815973zM353.57552083 512h52.80815973v52.80815973h-52.80815973V512z m52.80815973-52.80815973h52.80815971V512H406.38368056v-52.80815973zM564.80815973 512h52.80815971v52.80815973h-52.80815971V512z m52.80815971-52.80815973h52.80815973V512H617.61631944v-52.80815973zM670.42447917 512H723.23263889v52.80815973h-52.80815972V512z m52.80815972-52.80815973h52.80815972V512H723.23263889v-52.80815973zM776.04079861 512h52.80815972v52.80815973h-52.80815972V512z m52.80815972-52.80815973h52.80815973V512H828.84895833v-52.80815973z m52.80815973 158.42447917H934.46527777v52.80815973h-52.80815971V617.61631944z m-316.84895833 0h52.80815971v52.80815973h-52.80815971V617.61631944z m52.80815971-52.80815971h52.80815973v52.80815971H617.61631944v-52.80815971z m52.80815973 52.80815971H723.23263889v52.80815973h-52.80815972V617.61631944z m105.61631944 0h52.80815972v52.80815973h-52.80815972V617.61631944z m52.80815972-52.80815971h52.80815973v52.80815971H828.84895833v-52.80815971z m52.80815973 158.42447916H934.46527777v52.80815972h-52.80815971V723.23263889z m-316.84895833 0h52.80815971v52.80815972h-52.80815971V723.23263889z m52.80815971-52.80815972h52.80815973V723.23263889H617.61631944v-52.80815972z m105.61631945 0h52.80815972V723.23263889H723.23263889v-52.80815972z m52.80815972 52.80815972h52.80815972v52.80815972h-52.80815972V723.23263889z m52.80815972-52.80815972h52.80815973V723.23263889H828.84895833v-52.80815972z m52.80815973 158.42447916H934.46527777v52.80815973h-52.80815971V828.84895833zM617.61631944 776.04079861h52.80815973v52.80815972H617.61631944v-52.80815972z m52.80815973 52.80815972H723.23263889v52.80815973h-52.80815972V828.84895833z m52.80815972-52.80815972h52.80815972v52.80815972H723.23263889v-52.80815972z m52.80815972 52.80815972h52.80815972v52.80815973h-52.80815972V828.84895833z m-158.42447917 52.80815973h52.80815973V934.46527777H617.61631944v-52.80815971z m105.61631945 0h52.80815972V934.46527777H723.23263889v-52.80815971z m105.61631944 0h52.80815973V934.46527777H828.84895833v-52.80815971z" fill="#2F4050" p-id="27023"></path></svg>