<?xml version="1.0" standalone="no"?><!DOCTYPE svg PUBLIC "-//W3C//DTD SVG 1.1//EN" "http://www.w3.org/Graphics/SVG/1.1/DTD/svg11.dtd"><svg t="1569817042130" class="icon" viewBox="0 0 1024 1024" version="1.1" xmlns="http://www.w3.org/2000/svg" p-id="23727" xmlns:xlink="http://www.w3.org/1999/xlink" width="200" height="200"><defs><style type="text/css"></style></defs><path d="M906.86084548 495.6680434H526.55852083V115.38408681c0-8.75972569-7.08455902-15.84612152-15.84520312-15.84612154-227.5370434-0.0009184-411.9918125 184.44650348-411.9918125 411.97344446S283.17719271 923.48944618 510.71423611 923.48944618c227.536125 0 411.9927309-184.44925868 411.99273091-411.97619966-0.0009184-8.75788889-7.10476389-15.84520312-15.84612154-15.84520312zM510.71331771 891.56576563c-209.9128941 0-380.06996875-170.14972743-380.06996875-380.05251911 0-204.59258681 161.66368577-371.38830729 364.22476562-379.69985242V511.51324652c0 8.74043923 7.08639583 15.84520312 15.84520313 15.84520313h379.71546527C882.11631944 729.90942708 715.31325173 891.56576563 510.71331771 891.56576563z m63.38264931-427.58721007h345.65466146C897.94682813 274.50012327 747.735625 124.29626736 558.25076389 102.49430382v345.6372118c0 8.74319444 7.08731423 15.84703993 15.84520313 15.84703994z m15.84520312-323.90321008c146.21247743 31.03466667 261.17262673 146.00767361 292.20913021 292.21004862H589.94117014V140.07534548z" fill="#494949" p-id="23728"></path></svg>