<?xml version="1.0" standalone="no"?><!DOCTYPE svg PUBLIC "-//W3C//DTD SVG 1.1//EN" "http://www.w3.org/Graphics/SVG/1.1/DTD/svg11.dtd"><svg t="1569816758571" class="icon" viewBox="0 0 1024 1024" version="1.1" xmlns="http://www.w3.org/2000/svg" p-id="19549" xmlns:xlink="http://www.w3.org/1999/xlink" width="200" height="200"><defs><style type="text/css"></style></defs><path d="M512 492.78140432C738.34576074 492.78140432 924.77784448 408.03954972 924.77784448 291.18931909 924.77784448 174.33908765 738.34576074 89.59723223 512 89.59723223 285.65423844 89.59723223 99.22215634 174.33908765 99.22215634 291.18931909 99.22215634 408.03954972 285.65423844 492.78140432 512 492.78140432L512 492.78140432ZM512 441.57349191C310.6852946 441.57349191 150.43006874 368.73020847 150.43006874 291.18931909 150.43006874 213.64842889 310.6852946 140.80514463 512 140.80514463 713.3147054 140.80514463 873.56993208 213.64842889 873.56993208 291.18931909 873.56993208 368.73020847 713.3147054 441.57349191 512 441.57349191L512 441.57349191ZM904.255247 437.55223636C917.56534069 457.65066632 924.77784448 479.39178237 924.77784448 502.37507589 924.77784448 619.22530569 738.34576074 703.96716194 512 703.96716194 285.65423844 703.96716194 99.22215634 619.22530569 99.22215634 502.37507589 99.22215634 479.39178237 106.43465931 457.65066632 119.74475464 437.55223636 132.48085497 447.78995047 146.51581326 457.50331588 161.71962403 466.62106381 154.34495959 478.2508464 150.43006874 490.25558179 150.43006874 502.37507589 150.43006874 579.9159661 310.6852946 652.75924953 512 652.75924953 713.3147054 652.75924953 873.56993208 579.9159661 873.56993208 502.37507589 873.56993208 490.25558179 869.65504041 478.2508464 862.28037431 466.62106381 877.4841851 457.50331588 891.51914503 447.78995047 904.255247 437.55223636ZM904.255247 652.75924953C917.56534069 672.85767948 924.77784448 694.59879472 924.77784448 717.58208906 924.77784448 834.43232051 738.34576074 919.1741751 512 919.1741751 285.65423844 919.1741751 99.22215634 834.43232051 99.22215634 717.58208906 99.22215634 694.59879472 106.43465931 672.85767948 119.74475464 652.75924953 132.48085497 662.99696613 146.51581326 672.71033151 161.71962403 681.82807698 154.34495959 693.45785957 150.43006874 705.46259496 150.43006874 717.58208906 150.43006874 795.12297928 310.6852946 867.96626269 512 867.96626269 713.3147054 867.96626269 873.56993208 795.12297928 873.56993208 717.58208906 873.56993208 705.46259496 869.65504041 693.45785957 862.28037431 681.82807698 877.4841851 672.71033151 891.51914503 662.99696613 904.255247 652.75924953Z" p-id="19550"></path></svg>