<?xml version="1.0" standalone="no"?><!DOCTYPE svg PUBLIC "-//W3C//DTD SVG 1.1//EN" "http://www.w3.org/Graphics/SVG/1.1/DTD/svg11.dtd"><svg t="1569818171097" class="icon" viewBox="0 0 1024 1024" version="1.1" xmlns="http://www.w3.org/2000/svg" p-id="25993" xmlns:xlink="http://www.w3.org/1999/xlink" width="200" height="200"><defs><style type="text/css"></style></defs><path d="M512 932.84888889c-71.944 0-140.12622223-14.57688889-191.85066667-40.43911112-55.95644444-28.21333333-86.99111111-67.712-86.9911111-110.50222221 0-24.45155556 9.87466667-47.96266667 29.624-69.12266667 3.76177777-4.232 9.40444444-6.58311111 15.0471111-6.58311112 4.70222223 0 8.93422223 1.41066667 12.696 4.232 4.232 3.29155556 7.05333333 7.52355556 7.52355556 13.16622223 0.94044444 6.11288889-0.94044444 12.22577777-5.17244445 16.928-12.696 13.63644444-18.80888889 27.27288889-18.80888888 41.84977777 0 26.80266667 23.04088889 53.13511111 64.42044444 74.29511112 45.61155556 23.04088889 107.21066667 35.73688889 173.04177777 35.73688888 65.83111111 0 127.43022223-12.696 173.04177779-35.73688888 41.37955556-21.16 64.42044444-47.49244444 64.42044444-74.29511112 0-14.10666667-6.11288889-28.21333333-18.80888889-41.84977777-4.232-4.70222223-6.11288889-10.34488889-5.17244444-16.928 0.94044444-5.17244444 3.29155556-9.87466667 7.52355556-12.696 3.76177777-2.82133333 7.99377777-4.232 12.696-4.232 5.64266667 0 11.28533333 2.35111111 15.51733333 6.58311111 19.74933333 21.16 29.624 44.67111111 29.624 69.12266666 0 42.79022223-31.03466667 81.81866667-86.99111112 110.50222223-51.25422223 25.392-119.43644444 39.96888889-191.38044444 39.96888889z m-14.10666667-156.11377778l-180.0951111-160.816c-34.32622223-31.03466667-61.59911111-66.30133333-79.93777779-105.32977778-18.80888889-39.02844444-28.21333333-80.408-28.21333333-122.25777777 0-79.46755556 31.50488889-153.76266667 88.40177778-210.18933333C355.416 122.18577777 431.592 91.15111111 512 91.15111111s156.584 31.03466667 213.48088889 86.99111112c56.89688889 55.95644444 88.40177777 130.72177777 88.40177778 210.18933333 0 42.32-9.40444444 83.22933333-28.21333334 122.25777777s-45.61155556 74.76533333-79.93777777 105.32977778L512 788.96088889l-14.10666667-12.22577778z m14.10666667-644.67466667c-69.59288889 0-134.95377777 26.80266667-184.32711111 75.23555556-49.37333333 48.43288889-76.176 112.85333333-76.176 181.03555556 0 36.20711111 7.99377777 71.944 23.98133334 105.32977777 15.98755556 33.856 39.96888889 65.36088889 70.53333333 92.63377778l165.98844444 148.12 165.98844444-148.12c30.56444444-27.27288889 54.07555556-58.30755556 70.53333333-92.63377778 15.98755556-33.38577777 23.98133333-68.65244444 23.98133334-105.32977777 0-68.65244444-27.27288889-132.60266667-76.176-181.03555556-49.37333333-48.90311111-114.73422223-75.23555556-184.32711111-75.23555556z m0 397.808c-31.50488889 0-60.65866667-12.22577777-82.75911111-33.856-22.10044444-21.63022223-34.32622223-50.784-34.32622222-81.34844444s12.22577777-59.71822223 34.32622222-81.34844444l2.35111111-2.35111112c21.63022223-20.21955556 50.31377777-31.50488889 80.408-31.50488888 30.09422223 0 58.77777777 11.28533333 80.87822223 31.97511111l1.88088888 1.88088889c22.10044444 21.63022223 34.32622223 50.784 34.32622222 81.34844444s-12.22577777 59.71822223-34.32622222 81.34844444c-22.10044444 21.63022223-51.25422223 33.856-82.75911111 33.856zM458.39466667 361.52888889c-14.10666667 14.10666667-22.10044444 32.91555556-22.10044444 52.66488888 0 19.74933333 7.99377777 38.55822223 22.10044444 52.6648889S491.78044444 488.48888889 512 488.48888889c20.21955556 0 39.02844444-7.99377777 53.60533333-21.63022222 14.10666667-14.10666667 22.10044444-32.91555556 22.10044444-52.6648889 0-20.21955556-7.99377777-38.55822223-22.10044444-52.66488888l-0.47022222-0.47022222-0.94044444-0.94044444c-14.10666667-13.16622223-32.44533333-20.68977777-52.19466667-20.68977779-19.74933333 0-38.088 7.52355556-52.19466667 20.68977779l-0.94044444 0.94044444-0.47022222 0.47022222z" p-id="25994"></path></svg>