<?xml version="1.0" standalone="no"?><!DOCTYPE svg PUBLIC "-//W3C//DTD SVG 1.1//EN" "http://www.w3.org/Graphics/SVG/1.1/DTD/svg11.dtd"><svg t="1569818679569" class="icon" viewBox="0 0 1024 1024" version="1.1" xmlns="http://www.w3.org/2000/svg" p-id="34298" xmlns:xlink="http://www.w3.org/1999/xlink" width="200" height="200"><defs><style type="text/css"></style></defs><path d="M170.666667 128v768h682.666666V128H170.666667z m-42.666667-0.064C128 104.405333 146.986667 85.333333 170.666667 85.333333h682.666666c23.573333 0 42.666667 19.029333 42.666667 42.602667v768.128C896 919.594667 877.013333 938.666667 853.333333 938.666667H170.666667c-23.573333 0-42.666667-19.029333-42.666667-42.602667V127.936z m42.666667 376.448v55.978667c15.445333 10.666667 38.464 23.210667 69.76 35.498666 42.304 16.618667 91.648 29.205333 148.458666 36.608a128.064 128.064 0 0 0 246.229334 0c56.810667-7.402667 106.154667-19.989333 148.48-36.608 31.274667-12.288 54.293333-24.810667 69.738666-35.498666v-55.978667l-14.421333 13.226667c-1.984 1.834667-7.04 5.738667-15.424 11.050666-14.613333 9.258667-33.024 18.645333-55.509333 27.477334-36.586667 14.378667-79.210667 25.578667-128.256 32.64a128 128 0 0 0-255.445334 0c-49.045333-7.061333-91.669333-18.261333-128.256-32.64-22.485333-8.832-40.896-18.218667-55.509333-27.477334a125.824 125.824 0 0 1-15.424-11.050666L170.666667 504.384zM512 682.666667a85.333333 85.333333 0 1 1 0-170.666667 85.333333 85.333333 0 0 1 0 170.666667z" fill="#3D3D3D" p-id="34299"></path></svg>