<?xml version="1.0" standalone="no"?><!DOCTYPE svg PUBLIC "-//W3C//DTD SVG 1.1//EN" "http://www.w3.org/Graphics/SVG/1.1/DTD/svg11.dtd"><svg t="1569818338125" class="icon" viewBox="0 0 1024 1024" version="1.1" xmlns="http://www.w3.org/2000/svg" p-id="28288" xmlns:xlink="http://www.w3.org/1999/xlink" width="200" height="200"><defs><style type="text/css"></style></defs><path d="M187.76447099 274.04877933C257.07694091 204.73630941 349.27764075 166.51728395 447.30836142 166.51728395s190.23142052 38.17584012 259.54389043 107.53149538S814.38374723 435.56194908 814.38374723 533.59266975v55.83864398l92.67573858-92.67573857a21.59266975 21.59266975 0 0 1 30.53203502 30.53203503l-129.55601852 129.55601851a21.50629908 21.50629908 0 0 1-30.57522037 0l-129.55601852-129.55601851a21.59266975 21.59266975 0 0 1 30.53203503-30.53203503l92.67573858 92.67573857V533.59266975c0-178.61456419-145.2754821-323.8900463-323.89004628-323.89004629s-323.8900463 145.2754821-323.89004631 323.89004629 145.2754821 323.8900463 323.89004631 323.8900463a21.59266975 21.59266975 0 0 1 0 43.18533951c-98.03072067 0-190.23142052-38.17584012-259.54389044-107.53149537s-107.53149536-161.51316975-107.53149538-259.54389044c0-98.03072067 38.17584012-190.23142052 107.53149538-259.54389042z" p-id="28289"></path></svg>