<?xml version="1.0" standalone="no"?><!DOCTYPE svg PUBLIC "-//W3C//DTD SVG 1.1//EN" "http://www.w3.org/Graphics/SVG/1.1/DTD/svg11.dtd"><svg t="1569818885374" class="icon" viewBox="0 0 1024 1024" version="1.1" xmlns="http://www.w3.org/2000/svg" p-id="37156" xmlns:xlink="http://www.w3.org/1999/xlink" width="200" height="200"><defs><style type="text/css"></style></defs><path d="M905.75 616.0625c-11.25-2.8125-22.5 2.8125-28.125 11.25-67.5 180-281.25 270-478.125 199.6875-196.875-70.3125-300.9375-270-233.4375-450 67.5-180 281.25-270 478.125-199.6875 81.5625 28.125 151.875 81.5625 196.875 151.875l-81.5625 0c-11.25 0-22.5 8.4375-22.5 19.6875 0 11.25 8.4375 19.6875 22.5 19.6875l135 0c11.25 0 22.5-8.4375 22.5-19.6875l0-123.75c0-11.25-8.4375-19.6875-22.5-19.6875-11.25 0-22.5 8.4375-22.5 19.6875l0 78.75c-50.625-75.9375-123.75-132.1875-216.5625-165.9375-219.375-75.9375-455.625 25.3125-534.375 225-75.9375 202.5 39.375 427.5 258.75 503.4375 219.375 75.9375 455.625-25.3125 534.375-225C922.625 632.9375 917 621.6875 905.75 616.0625z" p-id="37157"></path></svg>