<?xml version="1.0" standalone="no"?><!DOCTYPE svg PUBLIC "-//W3C//DTD SVG 1.1//EN" "http://www.w3.org/Graphics/SVG/1.1/DTD/svg11.dtd"><svg t="1569818580577" class="icon" viewBox="0 0 1024 1024" version="1.1" xmlns="http://www.w3.org/2000/svg" p-id="32876" xmlns:xlink="http://www.w3.org/1999/xlink" width="200" height="200"><defs><style type="text/css"></style></defs><path d="M621.16 829.061H402.562c-8.284 0-15 6.716-15 15 0 68.539 55.76 124.3 124.299 124.3S636.16 912.6 636.16 844.061c0-8.285-6.716-15-15-15zM511.861 938.36c-46.894 0-85.902-34.405-93.107-79.3h186.215c-7.206 44.895-46.214 79.3-93.108 79.3zM804.406 614.89h-4.237V409.685c0-33.834-5.811-66.973-17.27-98.495-11.072-30.458-27.133-58.677-47.737-83.872-38.456-47.027-91.107-80.892-149.385-96.349 0.003-0.275 0.005-0.551 0.005-0.827 0-40.76-33.16-73.92-73.92-73.92s-73.92 33.16-73.92 73.92c0 0.275 0.001 0.551 0.005 0.827-58.277 15.457-110.928 49.321-149.385 96.348-20.604 25.196-36.666 53.415-47.738 83.873-11.459 31.522-17.27 64.66-17.27 98.495V614.89h-4.237c-53.494 0-97.014 43.521-97.014 97.015 0 53.493 43.52 97.014 97.014 97.014h585.089c53.493 0 97.014-43.521 97.014-97.014 0-53.495-43.521-97.015-97.014-97.015z m0 164.028H219.317c-36.952 0-67.014-30.063-67.014-67.014 0-36.952 30.062-67.015 67.014-67.015h34.237V409.685c0-120.982 85.727-227.189 203.839-252.537l14.645-3.143-3.122-14.649a44.35 44.35 0 0 1-0.975-9.212c0-24.218 19.703-43.92 43.92-43.92s43.92 19.702 43.92 43.92c0 3.077-0.328 6.177-0.975 9.214l-3.119 14.648 14.643 3.143c118.111 25.349 203.838 131.556 203.838 252.537V644.89h34.237c36.951 0 67.014 30.063 67.014 67.015 0.001 36.95-30.062 67.013-67.013 67.013z" fill="" p-id="32877"></path></svg>