<?xml version="1.0" standalone="no"?><!DOCTYPE svg PUBLIC "-//W3C//DTD SVG 1.1//EN" "http://www.w3.org/Graphics/SVG/1.1/DTD/svg11.dtd"><svg t="1569816710502" class="icon" viewBox="0 0 1024 1024" version="1.1" xmlns="http://www.w3.org/2000/svg" p-id="19076" xmlns:xlink="http://www.w3.org/1999/xlink" width="200" height="200"><defs><style type="text/css"></style></defs><path d="M512.13484633 151.23086414c-230.42912497 0-417.41895024 144.71645441-417.41895024 329.79462704 0 71.13261962 29.9758594 154.53019699 76.50162154 196.12294782C194.45919048 697.92804483 122.71796004 814.09498181 141.95285649 839.7415098c22.00274843 29.33666942 151.45261367-72.67141082 188.91627336-56.72124344C368.33278953 798.97043466 447.25208894 811.13576683 512.13484633 811.13576683c230.42912497 0 411.20755806-145.12383952 417.03721153-330.11027657C934.52922249 311.02846383 747.11228483 151.23086414 512.13484633 151.23086414zM511.99773614 777.59799891C452.63687361 777.59799891 374.2531913 762.2071223 338.74064066 749.97866094c-35.22254752-12.12883485-165.29680725 60.69349617-165.29680725 60.69349618s48.24407906-125.46774886 26.77300317-148.7557827c-38.70159776-41.97843498-69.99134895-114.35392449-69.99134895-179.43297669 0-169.32824462 171.07812702-297.78381394 381.8975214-297.78381394s381.45955807 142.17547546 381.54833456 297.78381394C893.77097101 659.22940617 722.8181178 777.59799891 511.99773614 777.59799891zM327.84974388 476.74449348m-59.13990767 0a55.06283854 55.06283854 0 1 0 118.27981625 0 55.06283854 55.06283854 0 1 0-118.27981625 0ZM504.65296513 476.74449348m-59.13990767 0a55.06283854 55.06283854 0 1 0 118.27981626 0 55.06283854 55.06283854 0 1 0-118.27981626 0ZM681.45618547 476.74449348m-59.13990766 0a55.06283854 55.06283854 0 1 0 118.27981625 0 55.06283854 55.06283854 0 1 0-118.27981625 0Z" p-id="19077"></path></svg>