<?xml version="1.0" standalone="no"?><!DOCTYPE svg PUBLIC "-//W3C//DTD SVG 1.1//EN" "http://www.w3.org/Graphics/SVG/1.1/DTD/svg11.dtd"><svg t="1569818595015" class="icon" viewBox="0 0 1024 1024" version="1.1" xmlns="http://www.w3.org/2000/svg" p-id="33113" xmlns:xlink="http://www.w3.org/1999/xlink" width="200" height="200"><defs><style type="text/css"></style></defs><path d="M651.6881441 98.30914236H240.07563194c-40.57778993 0-73.47222223 32.89443229-73.47222221 73.47222222v680.61819619c0 40.57778993 32.89443229 73.47222223 73.47222221 73.47222221h544.98020833c40.57778993 0 73.47222223-32.89443229 73.47222223-73.47222221V301.34687327L651.6881441 98.30914236z m179.28783507 754.0895c0 25.32036458-20.59977431 45.92013889-45.9201389 45.92013889h-544.98020833c-25.32036458 0-45.92013889-20.59977431-45.92013888-45.92013889V171.78136458c0-25.32036458 20.59977431-45.92013889 45.92013888-45.92013889h400.35013889l190.55020834 187.04833854v539.48907813z" fill="" p-id="33114"></path><path d="M304.63475521 276.56469271h60.47590452v60.47590452c0 7.60804861 6.16799306 13.77604167 13.77604166 13.77604166s13.77604167-6.16799306 13.77604167-13.77604166v-60.47590452h60.47590451c7.60804861 0 13.77604167-6.16799306 13.77604166-13.77604167s-6.16799306-13.77604167-13.77604166-13.77604167H392.66274306v-60.47682291c0-7.60804861-6.16799306-13.77604167-13.77604167-13.77604167s-13.77604167 6.16799306-13.77604166 13.77604167v60.47682291h-60.47590452c-7.60804861 0-13.77604167 6.16799306-13.77604167 13.77604167s6.16799306 13.77604167 13.77604167 13.77604167zM291.36934548 512.20572223c0 7.60896702 6.16799306 13.77604167 13.77604167 13.77604166h414.84069792c7.60804861 0 13.77604167-6.16799306 13.77604166-13.77604166 0-7.60804861-6.16799306-13.77604167-13.77604166-13.77604167H305.14538715c-7.60804861 0-13.77604167 6.16799306-13.77604167 13.77604167zM719.98608507 635.45904861H305.14538715c-7.60804861 0-13.77604167 6.16799306-13.77604167 13.77604166s6.16799306 13.77604167 13.77604167 13.77604167h414.84069792c7.60804861 0 13.77604167-6.16799306 13.77604166-13.77604167s-6.16799306-13.77604167-13.77604166-13.77604166zM719.98608507 772.48749827H305.14538715c-7.60804861 0-13.77604167 6.16799306-13.77604167 13.77604166s6.16799306 13.77604167 13.77604167 13.77604167h414.84069792c7.60804861 0 13.77604167-6.16799306 13.77604166-13.77604167s-6.16799306-13.77604167-13.77604166-13.77604166z" fill="" p-id="33115"></path></svg>