<?xml version="1.0" standalone="no"?><!DOCTYPE svg PUBLIC "-//W3C//DTD SVG 1.1//EN" "http://www.w3.org/Graphics/SVG/1.1/DTD/svg11.dtd"><svg t="1569818480873" class="icon" viewBox="0 0 1024 1024" version="1.1" xmlns="http://www.w3.org/2000/svg" p-id="31091" xmlns:xlink="http://www.w3.org/1999/xlink" width="200" height="200"><defs><style type="text/css"></style></defs><path d="M242.04415 500.004805l510.629793 0 0 25.582655-510.629793 0 0-25.582655Z" p-id="31092"></path><path d="M774.866453 515.245795l-18.111203 18.111203-296.489723-296.489723 18.111203-18.111203 296.489723 296.489723Z" p-id="31093"></path><path d="M774.00467 515.858414l-294.97527 294.97527-19.495411-19.495411 294.97527-294.97527 19.495411 19.495411Z" p-id="31094"></path><path d="M337.06734 924.244019c-53.340859-22.561855-101.242845-54.857399-142.375661-95.991238-41.132816-41.133839-73.429383-89.035826-95.990215-142.376685-23.361057-55.231929-35.205826-113.89398-35.205826-174.35705 0-60.465117 11.844769-119.129214 35.205826-174.36012 22.560832-53.340859 54.856375-101.242845 95.990215-142.375661s89.034802-73.42836 142.376685-95.990215c55.231929-23.361057 113.895003-35.204803 174.36012-35.204803S630.555651 75.431993 685.786557 98.79305c53.341882 22.560832 101.243869 54.856375 142.376685 95.990215s73.42836 89.034802 95.990215 142.375661c23.360034 55.231929 35.20378 113.895003 35.20378 174.36012 0 60.46307-11.843746 119.126144-35.20378 174.35705-22.561855 53.340859-54.856375 101.242845-95.990215 142.376685-41.132816 41.132816-89.034802 73.429383-142.376685 95.991238-55.230905 23.361057-113.89398 35.20685-174.359097 35.20685S392.299269 947.605076 337.06734 924.244019zM89.091596 511.519046c0 232.876861 189.459003 422.334841 422.335864 422.334841 232.874815 0 422.334841-189.459003 422.334841-422.334841S744.303298 89.183182 511.42746 89.183182C278.550599 89.183182 89.091596 278.642185 89.091596 511.519046z" p-id="31095"></path></svg>