<?xml version="1.0" standalone="no"?><!DOCTYPE svg PUBLIC "-//W3C//DTD SVG 1.1//EN" "http://www.w3.org/Graphics/SVG/1.1/DTD/svg11.dtd"><svg t="1569817077866" class="icon" viewBox="0 0 1308 1024" version="1.1" xmlns="http://www.w3.org/2000/svg" p-id="24063" xmlns:xlink="http://www.w3.org/1999/xlink" width="255.46875" height="200"><defs><style type="text/css"></style></defs><path d="M355.25268049 441.15035636c0 0 159.98338393-122.519708 321.80823459-122.51970801 165.65805647 0 285.81896351 122.519708 285.81896352 122.51970801l248.29493188-99.65719696L683.60397143 80.14660493 108.59104937 338.23394918l130.66650254 54.50616876 0 121.94571244c-12.44683385 5.64880519-21.21566173 18.06977255-21.21566174 32.63891109 0 14.87584472 9.02380021 27.60474885 21.88080706 33.07495062l-26.78686744 74.73643046 78.3934966 0-26.55776162-74.09592102c14.39053513-4.70282105 24.94786446-17.76676159 24.94786447-33.71422945 0-15.79473006-10.35285856-28.83034034-24.51305641-33.63786052l0-110.00882323L355.25268049 441.15035636zM892.25379838 446.58976412c-36.28365929-26.1315763-109.86717193-65.88753846-221.73593878-65.88753848-166.60404061 0-248.29616333 88.20561734-248.29616333 88.20561735L422.22169627 651.86336377c0 0 53.19805025 62.02969763 210.12669473 68.1182384-0.17121301-3.87508546-0.27221693-7.768647-0.27221693-11.68314836 0-9.36499559 0.50132192-18.61297411 1.46085544-27.7229974-99.44164055-4.03398137-175.37656372-25.60192329-175.37656371-51.58938454 0-28.85620685 93.62901193-52.26931072 209.11419588-52.26931073 0.08129555 0 0.16628633 0.00123146 0.24634959 0.00123146C712.63385503 499.30373708 796.32757184 447.1502103 892.25379838 446.58976412M1112.281299 687.13452507l-20.55051726 0c-9.40687441 0-19.37542731-7.36217005-22.18751238-16.33177351l-11.78415228-28.65296837c-4.44661728-8.30692189-2.63224935-20.55051725 3.98717503-27.19457668l14.59623736-14.54327206c6.66992593-6.67115822 6.66992593-17.5856944 0-24.23098612l-24.23221759-24.20635109c-6.67238968-6.64405942-17.56229167-6.64405942-24.23221758 0l-14.57037086 14.57037086c-6.62065584 6.64652318-18.88888626 8.45965881-27.19703961 4.01304153l-28.62710186-11.78168853c-8.9720672-2.78868233-16.36010376-12.78063796-16.36010376-22.21214742l0-20.52464993c0-9.40564296-7.71937691-17.12501986-17.09915336-17.12501985l-34.22540552 0c-9.42904654 0-17.1496549 7.71937691-17.14965491 17.12501985l0 20.52341848c0 9.43150945-7.31166767 19.42469738-16.3083699 22.21214741l-28.67883488 11.78168852c-8.30692189 4.44661728-20.50124718 2.63348164-27.14407429-4.01304152l-14.62210387-14.57037086c-6.64652318-6.64405942-17.53396141-6.64405942-24.18048374 0l-24.20511878 24.20635108c-6.67238968 6.64405942-6.67238968 17.55859645 0 24.20388733l14.54327205 14.56913856c6.66992593 6.64529087 8.48675762 18.88765481 4.01427298 27.19457669l-11.78415227 28.67760341c-2.78621858 8.9720672-12.78063796 16.33300495-22.21091596 16.33300496l-20.52588222-0.02586651c-9.40687441 0-17.12501986 7.71937691-17.12501986 17.12378841l0 34.22417322c0 9.43150945 7.71937691 17.15088721 17.12501986 17.15088721l20.52588222 0c9.430278 0 19.40006234 7.36217005 22.16041441 16.33300495l11.83465383 28.65173692c4.42198223 8.33278838 2.63348164 20.60225026-4.01427299 27.19580814l-14.5950059 14.56913855c-6.62065584 6.67115822-6.62065584 17.5598279 0 24.23098615l24.25685262 24.23098611c6.64529087 6.64529087 17.5327291 6.64529087 24.18048375 0l14.59500591-14.59500589c6.62065584-6.61942438 18.83715241-8.45965881 27.12067155-3.96253999l28.73056872 11.78292082c8.9979337 2.78621858 16.30836991 12.75353917 16.3083699 22.21214743l0 20.47168462c0 9.37854415 7.72060921 17.09915337 17.14965491 17.09915335l34.22540553 0c9.37977646 0 17.09915337-7.72060921 17.09915336-17.09915335L941.12471051 906.28132479c0-9.4573768 7.38680509-19.42592885 16.36010376-22.21091597l28.67883487-11.78292083c8.28228684-4.49711882 20.55174872-2.65688439 27.22167463 3.96253998l14.49523429 14.59500592c6.67115822 6.64529087 17.5598279 6.64529087 24.23221759 0l24.23221757-24.23098614c6.66992593-6.67115822 6.66992593-17.5598279 0-24.23098613l-14.59623734-14.56913856c-6.61942438-6.59478934-8.43502378-18.86301975-3.98717504-27.19580814l11.78415227-28.65173692c2.80962132-8.97083491 12.80527301-16.33300495 22.18751239-16.33300494l20.55051725 0c9.40810671 0 17.09915337-7.69227895 17.09915337-17.12501987l0-34.25127202C1129.38045236 694.85390197 1121.68571051 687.13452507 1112.281299 687.13452507M906.9535026 806.90743125c-47.26101582 0-85.57829382-38.28894859-85.57829383-85.54750066 0-47.2597835 38.31481509-85.54750066 85.57829382-85.54750066 47.26101582 0 85.57706236 38.28771715 85.57706237 85.54750066C992.53056496 768.61848264 954.2132861 806.90743125 906.9535026 806.90743125" p-id="24064"></path></svg>