<?xml version="1.0" standalone="no"?><!DOCTYPE svg PUBLIC "-//W3C//DTD SVG 1.1//EN" "http://www.w3.org/Graphics/SVG/1.1/DTD/svg11.dtd"><svg t="1569816895494" class="icon" viewBox="0 0 1024 1024" version="1.1" xmlns="http://www.w3.org/2000/svg" p-id="21218" xmlns:xlink="http://www.w3.org/1999/xlink" width="200" height="200"><defs><style type="text/css"></style></defs><path d="M974.389 311.154c24.815 24.822 25.321 64.564 1.113 88.763l-426.518 576.324c-24.197 24.197-63.935 23.694-88.763-1.126l-413.255-413.254c-24.815-24.819-25.315-64.557-1.114-88.759l576.313-426.524c24.206-24.202 63.943-23.698 88.766 1.121l263.459 263.456zM732.853 244.446c-17.117 0-30.989 13.873-30.989 30.989 0 17.118 13.873 30.989 30.989 30.989s30.989-13.873 30.989-30.989c0.001-17.117-13.873-30.989-30.989-30.989zM371.054 766.768c13.216-4.314 25.713-12.358 37.491-24.138 13.557-13.557 21.607-27.594 24.138-42.113 2.533-14.518-1.403-26.979-11.811-37.388-7.462-7.461-15.955-11.503-25.474-12.121-9.52-0.614-22.974 3.049-40.366 10.99-13.971 6.029-23.676 9.229-29.12 9.603-5.443 0.38-10.427-1.694-14.945-6.213-4.587-4.587-6.265-10.303-5.034-17.152 1.233-6.846 5.067-13.489 11.504-19.927 10.75-10.749 23.111-17.631 37.081-20.644l-19.414-19.414c-11.641 4.931-22.289 12.223-31.945 21.878-12.463 12.463-19.927 25.986-22.391 40.572s1.335 26.912 11.402 36.978c7.053 7.053 14.944 11.18 23.675 12.377 8.732 1.2 21.93-1.966 39.597-9.501 14.381-6.574 24.702-10.149 30.97-10.734 6.265-0.581 11.591 1.319 15.972 5.7 10.272 10.272 7.565 23.248-8.113 38.929-11.709 11.71-26.294 18.971-43.757 21.776l20.542 20.541zM395.193 578.081c2.053-20.405 9.894-37.423 23.521-51.050 15.339-15.339 32.288-13.729 50.845 4.829l-28.966 38.415c-21.638 28.624-21.842 53.551-0.614 74.779 10.134 10.134 21.431 14.928 33.894 14.381 12.462-0.547 24.206-6.333 35.23-17.359 15.339-15.339 20.202-33.689 14.585-55.055l0.513-0.513 17.565 17.565 19.927-19.927-73.133-73.133c-28.761-28.761-56.836-29.443-84.226-2.054-14.791 14.791-24.309 31.364-28.555 49.714l19.415 19.412zM484.761 547.060l10.887 10.887c9.313 9.314 14.207 19.894 14.688 31.74 0.479 11.849-3.664 22.151-12.429 30.917-6.301 6.301-13.077 9.658-20.338 10.067-7.259 0.412-13.591-2.089-19.001-7.498-6.162-6.162-9.194-12.717-9.090-19.67 0.102-6.949 4.193-15.698 12.274-26.244l23.009-30.197zM615.104 530.727l-168.143-168.144-20.133 20.133 168.144 168.144 20.132-20.133zM681.766 340.397c-17.187-17.187-34.735-26.381-52.641-27.579-17.907-1.198-34.29 5.633-49.149 20.492-14.997 14.996-21.898 33.194-20.697 54.594 1.196 21.399 10.494 40.796 27.886 58.188 18.489 18.489 37.541 28.333 57.161 29.531 19.62 1.2 37.646-6.42 54.080-22.855 16.501-16.501 26.226-33.278 29.172-50.329l-17.975-17.975c-2.464 18.766-10.067 34.512-22.803 47.248-11.298 11.299-23.399 16.797-36.31 16.486-12.908-0.307-25.594-6.351-38.057-18.129l79.501-79.501-10.17-10.171zM596.308 413.94c-8.080-11.091-12.172-22.545-12.274-34.358-0.103-11.812 3.852-21.725 11.861-29.735 8.697-8.694 18.25-12.633 28.658-11.812 10.406 0.822 20.782 6.334 31.122 16.538l-59.367 59.37z" p-id="21219"></path></svg>