<?xml version="1.0" standalone="no"?><!DOCTYPE svg PUBLIC "-//W3C//DTD SVG 1.1//EN" "http://www.w3.org/Graphics/SVG/1.1/DTD/svg11.dtd"><svg t="1569818770961" class="icon" viewBox="0 0 1024 1024" version="1.1" xmlns="http://www.w3.org/2000/svg" p-id="35486" xmlns:xlink="http://www.w3.org/1999/xlink" width="200" height="200"><defs><style type="text/css"></style></defs><path d="M636.15785108 367.14917375L636.15785108 201.6053723C636.15785108 190.17695734 626.89329085 180.91239712 615.4648759 180.91239712 604.03646095 180.91239712 594.77190072 190.17695734 594.77190072 201.6053723L594.77190072 367.14917375C594.77190072 378.57758868 604.03646095 387.84214892 615.4648759 387.84214892 626.89329085 387.84214892 636.15785108 378.57758868 636.15785108 367.14917375L636.15785108 367.14917375ZM615.4648759 139.52644675L760.31570215 139.52644675 739.62272699 118.83347158 739.62272699 408.64307111C739.62272699 442.81327917 711.73809096 470.61404964 677.48552 470.61404964L325.82150482 470.61404964C291.52016069 470.61404964 263.68429785 442.81872644 263.68429785 408.64307111L263.68429785 118.83347158C263.68429785 107.40505662 254.4197376 98.14049639 242.99132267 98.14049639 231.56290772 98.14049639 222.29834748 107.40505662 222.29834748 118.83347158L222.29834748 408.64307111C222.29834748 465.6890682 268.67682164 512 325.82150482 512L677.48552 512C734.56706213 512 781.00867733 465.69805913 781.00867733 408.64307111L781.00867733 118.83347158 781.00867733 98.14049639 760.31570215 98.14049639 615.4648759 98.14049639C604.03646095 98.14049639 594.77190072 107.40505662 594.77190072 118.83347158 594.77190072 130.26188652 604.03646095 139.52644675 615.4648759 139.52644675L615.4648759 139.52644675Z" p-id="35487"></path><path d="M781.00867733 884.47355325L201.67095287 884.47355325C167.28749318 884.47355325 139.52644675 856.80947523 139.52644675 822.52707325L139.52644675 179.54719748 139.52644675 118.83347158 118.83347158 139.52644675 180.91239712 139.52644675 822.58325952 139.52644675C856.81300677 139.52644675 884.47355325 167.18235347 884.47355325 201.49867496L884.47355325 905.16652842C884.47355325 916.59494338 893.73811348 925.85950361 905.16652842 925.85950361 916.59494338 925.85950361 925.85950361 916.59494338 925.85950361 905.16652842L925.85950361 201.49867496C925.85950361 144.32396917 879.66828066 98.14049639 822.58325952 98.14049639L180.91239712 98.14049639 118.83347158 98.14049639 98.14049639 98.14049639 98.14049639 118.83347158 98.14049639 179.54719748 98.14049639 822.52707325C98.14049639 879.6987834 144.46301789 925.85950361 201.67095287 925.85950361L781.00867733 925.85950361C792.43709228 925.85950361 801.70165252 916.59494338 801.70165252 905.16652842 801.70165252 893.73811348 792.43709228 884.47355325 781.00867733 884.47355325L781.00867733 884.47355325Z" p-id="35488"></path></svg>