<?xml version="1.0" standalone="no"?><!DOCTYPE svg PUBLIC "-//W3C//DTD SVG 1.1//EN" "http://www.w3.org/Graphics/SVG/1.1/DTD/svg11.dtd"><svg t="1569818495146" class="icon" viewBox="0 0 1131 1024" version="1.1" xmlns="http://www.w3.org/2000/svg" p-id="31453" xmlns:xlink="http://www.w3.org/1999/xlink" width="220.8984375" height="200"><defs><style type="text/css"></style></defs><path d="M568.06439907 962.47334226c-252.3928659 0-456.86303424-204.47016952-456.86303542-456.86303544S315.67153316 48.74727258 568.06439907 48.74727258s456.86303424 204.47016952 456.86303424 456.86303424-204.47016952 456.86303424-456.86303424 456.86303544z m0-881.7776062c-233.22378641 0-424.91457077 191.69078435-424.91457077 424.91457076 0 233.22378641 191.69078435 424.91457077 424.91457077 424.91457079s424.91457077-191.69078435 424.91457077-424.91457079c0-236.41863299-191.69078435-424.91457077-424.91457077-424.91457076z" fill="" p-id="31454"></path><path d="M750.17064368 454.49276504H385.95815446c-9.58453975 0-15.97423174-6.38969318-15.97423293-15.97423174s6.38969318-15.97423174 15.97423293-15.97423291h361.01764263c9.58453975 0 15.97423174 6.38969318 15.97423174 15.97423291s-6.38969318 15.97423174-12.77938515 15.97423174zM782.11910716 623.81962332H354.0096898c-9.58453975 0-15.97423174-6.38969318-15.97423174-15.97423174s6.38969318-15.97423174 15.97423174-15.97423173H785.31395374c9.58453975 0 15.97423174 6.38969318 15.97423174 15.97423173s-9.58453975 15.97423174-19.16907832 15.97423174z" fill="" p-id="31455"></path><path d="M580.84378421 818.70525429c-9.58453975 0-15.97423174-6.38969318-15.97423173-15.97423174V444.9082253c0-9.58453975 6.38969318-15.97423174 15.97423173-15.97423173s15.97423174 6.38969318 15.97423174 15.97423173v357.82279725c0 9.58453975-9.58453975 15.97423174-15.97423174 15.97423174z" fill="" p-id="31456"></path><path d="M574.45409106 444.9082253c-3.19484659 0-9.58453975-3.19484659-12.77938517-6.389692L446.660236 320.30921565c-6.38969318-6.38969318-6.38969318-15.97423174 0-22.36392374 6.38969318-6.38969318 15.97423174-6.38969318 22.36392371 0l115.01447109 118.20931651c6.38969318 6.38969318 6.38969318 15.97423174 0 22.36392488-3.19484659 6.38969318-6.38969318 6.38969318-9.58453974 6.389692z" fill="" p-id="31457"></path><path d="M584.0386308 444.9082253c-3.19484659 0-9.58453975 0-9.58453974-3.19484659-6.38969318-6.38969318-6.38969318-15.97423174 0-22.36392372l115.01447107-118.20931767c6.38969318-6.38969318 15.97423174-6.38969318 22.36392374 0 6.38969318 6.38969318 6.38969318 15.97423174 0 22.36392488l-115.01446992 118.20931651c-3.19484659 3.19484659-6.38969318 3.19484659-12.77938515 3.19484659z" fill="" p-id="31458"></path></svg>