<?xml version="1.0" standalone="no"?><!DOCTYPE svg PUBLIC "-//W3C//DTD SVG 1.1//EN" "http://www.w3.org/Graphics/SVG/1.1/DTD/svg11.dtd"><svg t="1581831175030" class="icon" viewBox="0 0 1024 1024" version="1.1" xmlns="http://www.w3.org/2000/svg" p-id="7155" xmlns:xlink="http://www.w3.org/1999/xlink" width="200" height="200"><defs><style type="text/css"></style></defs><path d="M979.24740779 926.5758811L728.94843221 667.19895666C845.69960334 511.66018333 835.40802333 286.87170333 697.46688 143.93040555 622.75584 66.50083555 524.81592889 27.78604999 426.90028999 27.78604999 328.98465223 27.78604999 231.04474112 66.50083555 156.33370112 143.93040555 6.91162112 298.78954667 6.91162112 549.84097223 156.33370112 704.67584 231.04474112 782.10540999 328.98465223 820.82019555 426.90028999 820.82019555 509.79119445 820.82019555 592.51219001 792.7610789 661.30071666 737.29820445L911.59969223 996.67512889 979.24740779 926.5758811ZM223.98141667 634.57659221C112.08476445 518.62641778 112.08476445 329.97982777 223.98141667 214.02965333 278.18211555 157.86287445 350.24744334 126.9153189 426.90028999 126.9153189 503.55313778 126.9153189 575.61846557 157.86287445 629.81916445 214.02965333 741.71581667 329.97982777 741.71581667 518.62641778 629.81916445 634.57659221 575.61846557 690.74337223 503.55313778 721.69092779 426.90028999 721.69092779 350.24744334 721.69092779 278.18211555 690.74337223 223.98141667 634.57659221Z" p-id="7156"></path></svg>