<?xml version="1.0" standalone="no"?><!DOCTYPE svg PUBLIC "-//W3C//DTD SVG 1.1//EN" "http://www.w3.org/Graphics/SVG/1.1/DTD/svg11.dtd"><svg t="1569813550195" class="icon" viewBox="0 0 1024 1024" version="1.1" xmlns="http://www.w3.org/2000/svg" p-id="14107" xmlns:xlink="http://www.w3.org/1999/xlink" width="200" height="200"><defs><style type="text/css"></style></defs><path d="M506.04845522 103.22140327c-229.61611396 0-415.75581048 186.13969735-415.75581049 415.75581047 0 229.61611396 186.13969735 415.75581048 415.75581049 415.75581048s415.75581048-186.13969735 415.75581047-415.75581047C921.8042657 289.3611006 735.66373746 103.22140327 506.04845522 103.22140327zM506.04845522 901.47255982c-211.24635911 0-382.49534607-171.24898696-382.49534608-382.49534607 0-211.24635911 171.24898696-382.49534607 382.49534608-382.49534607s382.49534607 171.24898696 382.49534607 382.49534607C888.54380129 730.22357286 717.29481432 901.47255982 506.04845522 901.47255982z" p-id="14108"></path><path d="M421.06464187 834.28060018L500.00253482 556.53326798 346.10303751 556.45427439 526.59926545 201.74638393 478.99771963 468.9867357 662.90064982 468.81544417Z" p-id="14109"></path><path d="M506.04845522 103.11580179c-229.36998586 0-415.31178297 185.94096538-415.31178298 415.31095208 0 229.37164932 185.94179712 415.31178297 415.31178298 415.31178298 229.37081759 0 415.31178297-185.94013449 415.31178297-415.31178298C921.36023901 289.05676718 735.41927279 103.11580179 506.04845522 103.11580179zM506.04845522 890.3801943c-205.42411427 0-371.95260955-166.52766354-371.95260954-371.95344126 0-205.42328255 166.52849527-371.95260955 371.95260954-371.95260955 205.42494601 0 371.95177865 166.529327 371.95177864 371.95260954C878.00023386 723.85253077 711.47340122 890.3801943 506.04845522 890.3801943z" p-id="14110"></path></svg>