<?xml version="1.0" standalone="no"?><!DOCTYPE svg PUBLIC "-//W3C//DTD SVG 1.1//EN" "http://www.w3.org/Graphics/SVG/1.1/DTD/svg11.dtd"><svg t="1569818521955" class="icon" viewBox="0 0 1024 1024" version="1.1" xmlns="http://www.w3.org/2000/svg" p-id="31930" xmlns:xlink="http://www.w3.org/1999/xlink" width="200" height="200"><defs><style type="text/css"></style></defs><path d="M627 227.18333333v67.08333334H397v-67.08333334h230m38.33333333-38.33333333H358.66666667v143.75h306.66666666v-143.75z m0 178.5375H358.66666667v38.33333333h306.66666666v-38.33333333z m0 75.325H358.66666667v38.33333333h306.66666666v-38.33333333zM512 605.91666667c-10.54166667 0-19.16666667 8.625-19.16666667 19.16666666s8.625 19.16666667 19.16666667 19.16666667 19.16666667-8.625 19.16666667-19.16666667-8.625-19.16666667-19.16666667-19.16666666z m0 69.09583333c-10.54166667 0-19.16666667 8.625-19.16666667 19.16666667s8.625 19.16666667 19.16666667 19.16666666 19.16666667-8.625 19.16666667-19.16666666-8.625-19.16666667-19.16666667-19.16666667z m0 110.4c5.27083333 0 9.58333333 4.3125 9.58333333 9.58333333s-4.3125 9.58333333-9.58333333 9.58333334-9.58333333-4.3125-9.58333333-9.58333334 4.3125-9.58333333 9.58333333-9.58333333m0-38.33333333c-26.45 0-47.91666667 21.46666667-47.91666667 47.91666666s21.46666667 47.91666667 47.91666667 47.91666667 47.91666667-21.46666667 47.91666667-47.91666667-21.46666667-47.91666667-47.91666667-47.91666666zM761.16666667 121v782H262.83333333V121h498.33333334m38.33333333-38.33333333H224.5v858.66666666h575V82.66666667z" fill="" p-id="31931"></path></svg>