<?xml version="1.0" standalone="no"?><!DOCTYPE svg PUBLIC "-//W3C//DTD SVG 1.1//EN" "http://www.w3.org/Graphics/SVG/1.1/DTD/svg11.dtd"><svg t="1569818551174" class="icon" viewBox="0 0 1024 1024" version="1.1" xmlns="http://www.w3.org/2000/svg" p-id="32402" xmlns:xlink="http://www.w3.org/1999/xlink" width="200" height="200"><defs><style type="text/css"></style></defs><path d="M566.81666667 123.875l14.85416666 96.50416667 3.45 22.52083333 21.37083334 7.7625c7.85833333 2.875 15.71666667 6.13333333 23.38333333 9.67916667l20.60416667 9.67916666 18.4-13.5125 78.775-57.7875 77.625 77.625-57.7875 78.775-13.41666667 18.4 9.67916667 20.60416667c3.64166667 7.66666667 6.9 15.525 9.67916666 23.38333333l7.7625 21.37083334 22.52083334 3.45L900.125 456.99166667v109.825l-96.50416667 14.85416666-22.52083333 3.45-7.7625 21.37083334c-2.875 7.85833333-6.13333333 15.71666667-9.775 23.47916666l-9.67916667 20.60416667 13.41666667 18.4 57.7875 78.775-77.625 77.625-78.775-57.7875-18.4-13.5125-20.4125 9.67916667c-7.66666667 3.64166667-15.525 6.9-23.38333333 9.67916666l-21.37083334 7.7625-3.45 22.52083334L566.81666667 900.125H456.99166667l-14.85416667-96.50416667-3.45-22.52083333-21.37083333-7.7625c-7.85833333-2.875-15.71666667-6.13333333-23.38333334-9.67916667l-20.60416666-9.67916666-18.4 13.41666666-78.775 57.7875-77.625-77.625 57.7875-78.775 13.5125-18.4-9.58333334-20.50833333c-3.64166667-7.66666667-6.9-15.525-9.67916666-23.38333333l-7.7625-21.37083334-22.52083334-3.45L123.875 566.81666667V456.99166667l96.50416667-14.85416667 22.52083333-3.45 7.7625-21.37083333c2.77916667-7.7625 6.0375-15.62083333 9.67916667-23.2875l9.67916666-20.60416667-13.5125-18.30416667-57.7875-78.775 77.625-77.625 78.775 57.7875 18.4 13.41666667 20.60416667-9.67916667c7.66666667-3.64166667 15.525-6.9 23.38333333-9.67916666l21.37083334-7.7625 3.45-22.52083334L456.99166667 123.875h109.825m32.87083333-38.33333333H424.12083333l-19.8375 128.99166666c-9.10416667 3.25833333-17.92083333 6.99583333-26.54583333 11.02083334l-105.225-77.14583334-124.2 124.2L225.55416667 377.83333333c-4.025 8.625-7.7625 17.44166667-11.02083334 26.45L85.54166667 424.12083333v175.56666667l128.99166666 19.8375c3.25833333 9.10416667 6.99583333 17.92083333 11.02083334 26.54583333l-77.24166667 105.225 124.2 124.2 105.225-77.14583333c8.625 4.025 17.5375 7.7625 26.54583333 11.02083333L424.12083333 938.45833333h175.56666667l19.8375-128.99166666c9.10416667-3.25833333 17.92083333-6.99583333 26.54583333-11.02083334l105.225 77.24166667 124.2-124.2-77.14583333-105.225c4.12083333-8.72083333 7.7625-17.63333333 11.11666667-26.7375L938.45833333 599.6875V424.12083333l-128.99166666-19.8375c-3.25833333-9.10416667-6.99583333-17.92083333-11.02083334-26.54583333l77.14583334-105.225-124.2-124.2L646.16666667 225.55416667c-8.625-4.025-17.5375-7.7625-26.54583334-11.02083334L599.6875 85.54166667zM512 363.45833333c39.675 0 76.95416667 15.42916667 105.03333333 43.50833334C645.1125 435.04583333 660.54166667 472.325 660.54166667 512s-15.42916667 76.95416667-43.50833334 105.03333333C588.95416667 645.1125 551.675 660.54166667 512 660.54166667s-76.95416667-15.42916667-105.03333333-43.50833334C378.8875 588.95416667 363.45833333 551.675 363.45833333 512s15.42916667-76.95416667 43.50833334-105.03333333C435.04583333 378.8875 472.325 363.45833333 512 363.45833333m0-38.33333333c-103.2125 0-186.875 83.6625-186.875 186.875s83.6625 186.875 186.875 186.875 186.875-83.6625 186.875-186.875-83.6625-186.875-186.875-186.875z" fill="" p-id="32403"></path></svg>