<?xml version="1.0" standalone="no"?><!DOCTYPE svg PUBLIC "-//W3C//DTD SVG 1.1//EN" "http://www.w3.org/Graphics/SVG/1.1/DTD/svg11.dtd"><svg t="1578827126486" class="icon" viewBox="0 0 1024 1024" version="1.1" xmlns="http://www.w3.org/2000/svg" p-id="33971" xmlns:xlink="http://www.w3.org/1999/xlink" width="200" height="200"><defs><style type="text/css"></style></defs><path d="M512 657.636c-80.318 0-145.636-65.318-145.636-145.636S431.682 366.364 512 366.364 657.636 431.682 657.636 512 592.318 657.636 512 657.636m0-364.09a218.453 218.453 0 0 0 0 436.907 218.453 218.453 0 0 0 0-436.906" p-id="33972"></path><path d="M718.184 766.352a331.94 331.94 0 0 1-46.094 31.312c-1.384 0.728-2.694 1.675-4.114 2.44a325.495 325.495 0 0 1-38.74 17.512l-22.245 83.049-10.559 39.358c-0.655 0.146-1.31 0.364-2.002 0.437l-9.94 1.857c-4.005 0.728-8.083 1.238-12.124 1.82a406.36 406.36 0 0 1-60.366 4.26c-5.935 0-11.906-0.146-17.84-0.364l-9.83-0.546a404.976 404.976 0 0 1-32.696-3.35c-4.005-0.582-8.046-1.092-12.088-1.82a476.155 476.155 0 0 1-9.94-1.82l-2.002-0.474-10.558-39.322-22.283-83.085a326.296 326.296 0 0 1-54.43-27.052 327.097 327.097 0 0 1-34.48-24.212l-83.012 22.246-39.322 10.559-1.347-1.566a270.227 270.227 0 0 1-6.59-7.646c-2.622-3.167-5.134-6.444-7.682-9.684a359.356 359.356 0 0 1-19.26-26.652c-1.821-2.657-3.532-5.425-5.28-8.155a384.478 384.478 0 0 1-17.84-30.911 495.89 495.89 0 0 1-4.479-8.738c-1.747-3.532-3.495-7.064-5.133-10.632a412.913 412.913 0 0 1-8.302-19.37c-1.529-3.786-3.058-7.572-4.514-11.359l-3.386-9.612-0.583-1.93 28.654-28.653 60.948-61.022a333.141 333.141 0 0 1-4.187-46.967c0-1.457-0.218-2.84-0.218-4.26 0-1.456 0.218-2.803 0.218-4.26a333.141 333.141 0 0 1 4.187-46.967l-60.948-61.022-28.654-28.653a499.093 499.093 0 0 1 3.969-11.542c1.456-3.823 2.985-7.61 4.514-11.432A427.44 427.44 0 0 1 167.9 243.703c2.548-3.24 5.06-6.48 7.645-9.648 2.185-2.55 4.37-5.098 6.627-7.646l1.347-1.566 39.322 10.559 83.012 22.21c10.886-8.848 22.464-16.749 34.48-24.213l4.623-2.803a322.765 322.765 0 0 1 49.807-24.212l22.283-83.085 10.558-39.322 2.003-0.473c3.276-0.62 6.553-1.275 9.903-1.82 4.005-0.692 8.155-1.275 12.233-1.821a487.024 487.024 0 0 1 20.863-2.512 412.731 412.731 0 0 1 21.626-1.347c5.899-0.255 11.833-0.437 17.768-0.437 5.935 0 11.906 0.182 17.804 0.437a412.731 412.731 0 0 1 21.627 1.347c6.918 0.655 13.908 1.529 20.826 2.548 4.114 0.51 8.192 1.093 12.27 1.748l9.903 1.857 2.002 0.437 10.559 39.358 22.21 83.048c13.325 5.134 26.36 10.777 38.775 17.513 1.42 0.765 2.73 1.711 4.114 2.476 16.275 9.175 31.676 19.588 46.094 31.312l83.012-22.283 39.285-10.522 1.384 1.53c2.184 2.548 4.441 5.097 6.553 7.682 2.622 3.13 5.097 6.408 7.646 9.611a408.333 408.333 0 0 1 12.67 16.894c2.258 3.204 4.442 6.481 6.627 9.721l5.315 8.229a406.724 406.724 0 0 1 22.32 39.685 451.907 451.907 0 0 1 13.398 29.965c1.529 3.787 3.094 7.573 4.55 11.432 1.166 3.168 2.258 6.336 3.35 9.54 0.219 0.655 0.364 1.31 0.62 1.966l-28.655 28.653-60.984 60.985a331.19 331.19 0 0 1 3.968 41.98c0.073 3.094 0.437 6.19 0.437 9.284 0 3.131-0.364 6.19-0.437 9.284a331.248 331.248 0 0 1-4.005 41.943l61.021 61.022 28.654 28.653-0.619 1.93c-1.092 3.204-2.184 6.372-3.35 9.54-1.456 3.859-2.985 7.645-4.55 11.468a428.169 428.169 0 0 1-13.399 29.965 495.89 495.89 0 0 1-13.034 24.393c-2.986 5.17-6.117 10.231-9.285 15.292-1.747 2.694-3.495 5.462-5.279 8.12a359.356 359.356 0 0 1-19.297 26.687 554.613 554.613 0 0 1-7.645 9.612c-2.185 2.621-4.37 5.134-6.59 7.682-0.437 0.546-0.91 1.02-1.384 1.53l-39.322-10.523-83.012-22.21z m-347.16 158.525c-2.985-1.02-6.007-1.966-8.956-3.059l-3.786-1.383-3.787-1.456c5.57 2.184 11.214 4.077 16.857 5.97l-0.364-0.072z m-135.877-75.512l-3.022-2.549c-2.44-2.075-4.806-4.223-7.21-6.335l-0.254-0.218c4.515 4.005 9.03 7.937 13.726 11.687l-3.277-2.549z m709.718-279.511l-0.218-0.182-0.11-0.146h-0.036l-33.205-33.241c0.474-8.083 1.202-16.093 1.202-24.285 0-8.228-0.728-16.238-1.202-24.321l33.205-33.205 0.146-0.146 0.218-0.218 62.26-62.26a505.21 505.21 0 0 0-20.936-65.28 511.618 511.618 0 0 0-32.768-69.432c-12.998-22.574-27.962-43.327-43.727-63.097a510.89 510.89 0 0 0-46.057-50.79l-85.051 22.792-0.073 0.036-0.255 0.073-0.182 0.036h-0.036l-44.856 12.015a396.456 396.456 0 0 0-42.635-24.32l-12.088-45.148-0.036-0.073-0.036-0.182-0.073-0.255v-0.072L655.524 23.1a509.36 509.36 0 0 0-66.993-14.49A509.87 509.87 0 0 0 512 2.276c-26.069 0-51.482 2.548-76.495 6.335-22.865 3.459-45.256 8.119-66.992 14.49l-22.792 85.052-0.037 0.072-0.073 0.255-0.036 0.182v0.073l-12.124 45.147c-14.71 7.355-29.018 15.328-42.635 24.394l-44.82-12.015-0.072-0.073h-0.182l-0.255-0.109h-0.073L160.4 143.251c-16.42 15.656-31.675 32.768-46.057 50.79a508.377 508.377 0 0 0-43.763 63.097c-13.035 22.573-23.52 45.875-32.768 69.432a512.564 512.564 0 0 0-20.972 65.28l62.26 62.26v0.073l0.254 0.182 0.11 0.145v0.037l33.24 33.205c-0.473 8.046-1.2 16.056-1.2 24.248s0.727 16.166 1.237 24.248l-33.205 33.205-0.036 0.037-0.11 0.145-0.218 0.219-0.036 0.036-62.296 62.26c5.352 21.99 12.525 43.763 20.935 65.244 9.248 23.557 19.734 46.895 32.768 69.468 13.035 22.574 27.962 43.327 43.764 63.06 14.418 18.06 29.637 35.135 46.057 50.79l85.015-22.791h0.073l0.254-0.073 0.182-0.073h0.073l44.783-12.015c13.654 9.03 27.962 16.967 42.671 24.321l12.125 45.184v0.255l0.109 0.255v0.036l22.828 85.051c21.736 6.372 44.128 11.068 66.993 14.49a509.36 509.36 0 0 0 76.458 6.372c26.142 0 51.519-2.548 76.568-6.371a503.535 503.535 0 0 0 66.992-14.49l22.792-85.052 0.073-0.291 0.073-0.219 12.088-45.147c14.709-7.39 29.018-15.364 42.598-24.394l44.892 12.015v0.037l0.219 0.036 0.255 0.073h0.072l85.052 22.792c16.384-15.656 31.639-32.732 46.057-50.79a511.909 511.909 0 0 0 43.8-63.06c13.034-22.574 23.484-45.876 32.731-69.469 8.447-21.481 15.62-43.217 20.972-65.245L944.9 569.89h-0.036z" p-id="33973"></path></svg>