<?xml version="1.0" standalone="no"?><!DOCTYPE svg PUBLIC "-//W3C//DTD SVG 1.1//EN" "http://www.w3.org/Graphics/SVG/1.1/DTD/svg11.dtd"><svg t="1569818228095" class="icon" viewBox="0 0 1024 1024" version="1.1" xmlns="http://www.w3.org/2000/svg" p-id="26792" xmlns:xlink="http://www.w3.org/1999/xlink" width="200" height="200"><defs><style type="text/css"></style></defs><path d="M809.68005556 104.64061111c-69.21083333 0-125.34361111 56.13277777-125.34361112 125.34361112 0 12.02005556 1.79272223 23.59927777 4.93733333 34.6201111l-366.45005554 153.58633334c-21.65961111-37.52961111-62.12811111-62.86283333-108.53316667-62.86283334-69.21083333 0-125.34361111 56.13277777-125.34361112 125.34361111s56.13277777 125.34361111 125.34361112 125.34361112c36.26588889 0 68.85816667-15.48794444 91.75211111-40.14522223l236.11033333 169.69144444c-9.22811111 17.457-14.51811111 37.32388889-14.51811111 58.42511112 0 69.24022223 56.13277777 125.373 125.34361111 125.373s125.34361111-56.13277777 125.34361111-125.373c0-69.21083333-56.13277777-125.31422223-125.34361111-125.31422222-36.82427777 0-69.828 15.98755556-92.78072223 41.262l-235.78705554-169.42694444c9.69833333-17.78027777 15.22344444-38.17616667 15.22344444-59.86516667 0-11.638-1.70455556-22.86455556-4.67283334-33.5915l366.71455556-153.70388889c21.77716667 37.03 61.92238889 61.95177777 108.00416667 61.95177777 69.21083333 0 125.34361111-56.13277777 125.34361111-125.373 0-69.21083333-56.13277777-125.34361111-125.34361111-125.34361111zM653.00788889 700.03011111c51.842 0 94.01505556 42.17305556 94.01505555 93.98566666s-42.17305556 94.01505556-94.01505555 94.01505556c-51.842 0-94.01505556-42.17305556-94.01505556-94.01505556s42.17305556-93.98566667 94.01505556-93.98566666zM214.31994444 574.6865c-51.842 0-94.01505556-42.17305556-94.01505555-94.01505556s42.17305556-94.01505556 94.01505555-94.01505555 94.01505556 42.17305556 94.01505556 94.01505555c0 51.842-42.17305556 94.01505556-94.01505556 94.01505556zM809.68005556 323.99927777c-51.842 0-94.01505556-42.17305556-94.01505556-94.01505554s42.17305556-94.01505556 94.01505556-94.01505556c51.842 0 94.01505556 42.17305556 94.01505555 94.01505556s-42.17305556 94.01505556-94.01505555 94.01505554z" p-id="26793"></path></svg>