<?xml version="1.0" standalone="no"?><!DOCTYPE svg PUBLIC "-//W3C//DTD SVG 1.1//EN" "http://www.w3.org/Graphics/SVG/1.1/DTD/svg11.dtd"><svg t="1569813593955" class="icon" viewBox="0 0 1024 1024" version="1.1" xmlns="http://www.w3.org/2000/svg" p-id="14578" xmlns:xlink="http://www.w3.org/1999/xlink" width="200" height="200"><defs><style type="text/css"></style></defs><path d="M881.65711806 522.80751993V183.59925673c0-15.49424413-12.56009075-28.05433485-28.05433485-28.05433486H117.58905708C102.09481295 155.54492187 89.53472223 168.10501261 89.53472223 183.59925673v531.38210721c0 15.49424413 12.56009075 28.05433485 28.05433485 28.05433485h440.00996371A213.00006199 213.00006199 0 0 1 553.25637478 700.12906901H132.44135199V198.45155165h706.30913629v302.67986898a211.32340292 211.32340292 0 0 1 42.90662978 21.67609931z" fill="#000000" p-id="14579"></path><path d="M89.53472223 295.81659614h792.12239583v84.16300455H89.53472223zM196.80129666 530.9779324h280.54334852v42.90662977H196.80129666zM743.86082628 678.67575412h-61.05943468v42.90662978h61.05943468v61.05943468h42.90662978v-61.05943468h61.05943468v-42.90662978h-61.05943468v-61.05943468h-42.90662978v61.05943468z m21.45331489 190.6044515c-93.4192848 0-169.15113661-75.73185181-169.15113662-169.15113661s75.73185181-169.15113661 169.15113662-169.15113661 169.15113661 75.73185181 169.1511366 169.15113661-75.73185181 169.15113661-169.1511366 169.15113661z" fill="#000000" p-id="14580"></path></svg>