<?xml version="1.0" standalone="no"?><!DOCTYPE svg PUBLIC "-//W3C//DTD SVG 1.1//EN" "http://www.w3.org/Graphics/SVG/1.1/DTD/svg11.dtd"><svg t="1569816766560" class="icon" viewBox="0 0 1024 1024" version="1.1" xmlns="http://www.w3.org/2000/svg" p-id="19667" xmlns:xlink="http://www.w3.org/1999/xlink" width="200" height="200"><defs><style type="text/css"></style></defs><path d="M925.85950361 521.86365178L751.76260603 337.05239077H605.02641935v-64.52759401a69.01107224 69.01107224 0 0 0-68.9420951-68.9420959H167.08259231A69.01107224 69.01107224 0 0 0 98.14049639 272.52479676v369.01322787a69.01107224 69.01107224 0 0 0 68.94209592 68.9420959h47.75478818a113.3515195 113.3515195 0 0 0-1.0576414 14.60004342c0 62.05593371 50.47936352 112.54679315 112.53529723 112.54679235s112.53529642-50.49085943 112.53529643-112.54679235c0-4.01213832-0.22992159-7.96679544-0.6437811-11.86397217h173.98193678a112.05246061 112.05246061 0 0 0-1.2990589 16.1750084c0 62.05593371 50.49085943 112.53529642 112.54679233 112.53529724s112.53529642-50.47936352 112.53529642-112.53529724c0-5.50663026-0.52882029-10.87530789-1.29905891-16.1750084H925.85950361V521.86365178zM326.31503632 794.05674763c-38.02908985 0-68.97658366-30.94749381-68.97658447-68.97658368s30.93599789-68.97658366 68.97658447-68.97658366 68.97658366 30.93599789 68.97658366 68.97658366-30.94749381 68.97658366-68.97658366 68.97658368z m0-181.51188009c-40.75366518 0-76.4030629 21.84258472-96.15335827 54.36504352H167.08259231a25.406375 25.406375 0 0 1-25.37188724-25.38338235V272.52479676a25.406375 25.406375 0 0 1 25.37188724-25.37188722h369.01322786a25.406375 25.406375 0 0 1 25.37188643 25.37188722v397.13268228H424.13532853c-19.37092364-34.05144009-55.91701747-57.1126115-97.82029221-57.1126115zM723.43622186 798.36778466c-38.02908985 0-68.97658366-30.93599789-68.97658367-68.97658448s30.94749381-68.97658366 68.97658367-68.97658365 68.97658366 30.94749381 68.97658366 68.97658365-30.94749381 68.97658366-68.97658366 68.97658448z m158.86456899-128.71030562h-63.65389052c-19.93423249-31.66025203-55.10079439-52.80157528-95.19918255-52.80157528s-75.26494926 21.14132325-95.21067767 52.80157528h-23.19912484V380.61110353h127.90557926l149.35729632 158.54267843v130.50369708z" p-id="19668"></path></svg>