<?xml version="1.0" standalone="no"?><!DOCTYPE svg PUBLIC "-//W3C//DTD SVG 1.1//EN" "http://www.w3.org/Graphics/SVG/1.1/DTD/svg11.dtd"><svg t="1569818119157" class="icon" viewBox="0 0 1082 1024" version="1.1" xmlns="http://www.w3.org/2000/svg" p-id="25432" xmlns:xlink="http://www.w3.org/1999/xlink" width="211.328125" height="200"><defs><style type="text/css"></style></defs><path d="M869.92895139 123.63593577l-7.13415278-10.74255729h-615.46578472l-7.20211459 9.21709027c-156.83288715 200.21547917-135.1273559 322.12426389-108.26223785 377.01352431 26.95603993 54.9838559 81.54130902 90.56920833 139.10679514 90.56920833h5.1908125c72.63004688-2.88929514 120.93435937-38.95956423 146.37962674-65.07802083 22.9793559 26.1202934 66.23612673 61.03704861 133.94445312 61.03704861 70.59578473 0 114.63319792-38.00809896 136.68680383-64.40023959 30.79680035 25.10913194 90.92463021 66.26092361 153.94175521 66.26092361 41.31802257 0 76.70867361-16.93993923 105.5355-50.31653298 106.96361632-124.55286632-74.93064583-401.82142014-82.72329341-413.56228125v0zM915.72051389 505.92384723c-19.37921702 22.68363021-41.83783854 33.50792535-68.703875 33.50792534-60.7348941 0-123.82916493-55.00681598-137.89817709-68.07201389v-164.90564757c0.02571527-0.4619566 0.25990798-0.80727604 0.25990799-1.256375 0-13.35908681-10.79949827-24.16685069-24.11542014-24.16685069-13.33796354 0-24.11817535 10.80684548-24.11817535 24.16685069h-0.26174479v179.30895833c-13.16714063 17.95844792-46.5510816 53.0643941-104.39851736 53.0643941-65.31496875 0-99.33628125-44.65549827-108.54877951-58.84482118v-173.52944965c0-13.36551563-10.80317188-24.16685069-24.09521528-24.16685069-13.33520833 0-24.13746181 10.80225348-24.13746181 24.16685069v172.6532934c-11.82351736 15.3740625-52.50141319 60.88000173-125.48596354 63.88777083h-3.24655381v-0.04500173c-32.19369098 0-74.29419271-19.74474132-95.7774705-63.75092882-21.53654514-43.89689757-37.14755556-143.11011285 95.72879514-316.97386112h565.69845661c50.2219375 79.36469444 145.47959202 267.94860243 79.10019444 344.95300175v0zM872.0146441 617.05609375c-13.3893941 0-24.28256944 10.85092882-24.3321632 24.2348125v175.12930729c0 26.912875-21.81941319 48.70565452-48.65697916 48.70565452h-498.86444966c-26.84307639 0-48.66248958-21.79277952-48.66248959-48.70565452v-175.06042708c-0.02204167-13.42888542-10.89868577-24.30369271-24.30920312-24.30369271-13.40959896 0-24.27889583 10.87480729-24.32665277 24.30369271v179.91969618c0 51.14401389 41.3611875 92.55387673 92.41611631 92.55387674h508.62523438c51.05401042 0 92.41611632-41.40894444 92.41611632-92.55387674v-179.9904132c-0.07255382-13.38388368-10.92440104-24.2338941-24.30552951-24.23389409v0zM872.0146441 617.05609375z" p-id="25433"></path></svg>