<?xml version="1.0" standalone="no"?><!DOCTYPE svg PUBLIC "-//W3C//DTD SVG 1.1//EN" "http://www.w3.org/Graphics/SVG/1.1/DTD/svg11.dtd"><svg t="1569818699098" class="icon" viewBox="0 0 1024 1024" version="1.1" xmlns="http://www.w3.org/2000/svg" p-id="34537" xmlns:xlink="http://www.w3.org/1999/xlink" width="200" height="200"><defs><style type="text/css"></style></defs><path d="M696 326.85511079v-55.77244412C696 167.14311079 613.95644413 82.66666667 512.44977746 82.66666667s-183.55022254 84.47644413-183.55022159 188.416v55.77244412h40.88888826v-55.77244412c0-81.61422254 63.99111079-147.52711079 142.66133333-147.52711079C591.09955588 123.55555587 655.11111079 189.46844413 655.11111079 271.08266667v55.77244412h40.88888921z" fill="#3D3D3D" p-id="34538"></path><path d="M161.48 370.15644412A24.00177746 24.00177746 0 0 1 184.88888921 348.44444412h654.22222158c11.79644413 0 22.57066667 10.03822254 23.40888921 21.712L897.58222254 861.19111079c0.77688921 10.672-6.808 18.80888921-17.52088921 18.80888921H143.93866667a17.112 17.112 0 0 1-17.52088921-18.80888921l35.06222254-491.03466666zM120.69333333 367.25333333L85.63111079 858.288A58.00088921 58.00088921 0 0 0 143.93866667 920.88888921h736.12266666a57.85777746 57.85777746 0 0 0 58.30755588-62.60088921L903.30666667 367.25333333C900.93511079 334.19466667 872.37422254 307.55555587 839.11111079 307.55555587H184.88888921c-33.38577746 0-61.824 26.47555588-64.19555588 59.69777746z" fill="#3D3D3D" p-id="34539"></path><path d="M655.11111079 471.11111079m-40.88888825 0a40.88888921 40.88888921 0 1 0 81.77777746 0 40.88888921 40.88888921 0 1 0-81.77777746 0Z" fill="#3D3D3D" p-id="34540"></path><path d="M368.88888921 471.11111079m-40.88888921 0a40.88888921 40.88888921 0 1 0 81.77777746 0 40.88888921 40.88888921 0 1 0-81.77777746 0Z" fill="#3D3D3D" p-id="34541"></path></svg>