<?xml version="1.0" standalone="no"?><!DOCTYPE svg PUBLIC "-//W3C//DTD SVG 1.1//EN" "http://www.w3.org/Graphics/SVG/1.1/DTD/svg11.dtd"><svg t="1569818621738" class="icon" viewBox="0 0 1024 1024" version="1.1" xmlns="http://www.w3.org/2000/svg" p-id="33472" xmlns:xlink="http://www.w3.org/1999/xlink" width="200" height="200"><defs><style type="text/css"></style></defs><path d="M386.133333 904.533333c-12.8 0-21.333333-8.533333-21.333333-21.333333v-661.333333L192 394.666667c-8.533333 8.533333-21.333333 8.533333-29.866667 0-8.533333-8.533333-8.533333-21.333333 0-29.866667l209.066667-211.2c6.4-4.266667 14.933333-6.4 23.466667-4.266667 8.533333 4.266667 12.8 10.666667 12.8 19.2v714.666667c0 12.8-8.533333 21.333333-21.333334 21.333333z m266.666667 0c-2.133333 0-6.4 0-8.533333-2.133333-8.533333-4.266667-12.8-10.666667-12.8-19.2V168.533333c0-12.8 8.533333-21.333333 21.333333-21.333333s21.333333 8.533333 21.333333 21.333333V832l172.8-172.8c8.533333-8.533333 21.333333-8.533333 29.866667 0 8.533333 8.533333 8.533333 21.333333 0 29.866667l-209.066667 211.2c-4.266667 2.133333-8.533333 4.266667-14.933333 4.266666z" fill="#3D3D3D" p-id="33473"></path></svg>