<?xml version="1.0" standalone="no"?><!DOCTYPE svg PUBLIC "-//W3C//DTD SVG 1.1//EN" "http://www.w3.org/Graphics/SVG/1.1/DTD/svg11.dtd"><svg t="1569818141236" class="icon" viewBox="0 0 1024 1024" version="1.1" xmlns="http://www.w3.org/2000/svg" p-id="25768" xmlns:xlink="http://www.w3.org/1999/xlink" width="200" height="200"><defs><style type="text/css"></style></defs><path d="M120.8 483c1.2 0.2 2.5 0.3 3.7 0.3 12.7 0 23.8-9.3 25.7-22.2C173 301 300.8 173.2 460.8 150.3c14.2-2 24-15.2 22-29.3-2.1-14.2-15.2-23.7-29.3-22-182.7 26.1-328.6 172-354.7 354.7-2.1 14.1 7.8 27.3 22 29.3zM460.8 876.7C300.8 853.8 173 726 150.1 566c-2.1-14.2-15.2-23.8-29.3-22-14.2 2-24 15.2-22 29.3C124.9 756 270.8 901.9 453.5 928c1.2 0.2 2.5 0.3 3.7 0.3 12.7 0 23.8-9.3 25.7-22.3 2-14.1-7.9-27.3-22.1-29.3zM905.8 544c-14.2-1.7-27.3 7.7-29.3 22-22.9 160-150.7 287.8-310.7 310.7-14.2 2-24.1 15.2-22 29.3 1.9 13 12.9 22.3 25.6 22.3 1.2 0 2.5-0.1 3.7-0.3 182.7-26.1 328.7-172 354.8-354.7 1.9-14.1-7.9-27.3-22.1-29.3zM565.8 150.3C725.8 173.2 853.6 301 876.5 461c1.9 12.9 13 22.2 25.6 22.2 1.2 0 2.5-0.1 3.7-0.3 14.1-2 24-15.2 22-29.3C901.7 271 755.8 125.1 573 99c-13.6-1.9-27.3 7.7-29.3 22-2 14.1 7.9 27.3 22.1 29.3zM772.5 513.5c0-142.9-116.3-259.2-259.2-259.2-142.9 0-259.2 116.3-259.2 259.2s116.3 259.2 259.2 259.2c142.9 0.1 259.2-116.2 259.2-259.2zM513.3 720.9c-114.4 0-207.4-93-207.4-207.4s93-207.4 207.4-207.4 207.4 93 207.4 207.4-93 207.4-207.4 207.4z" p-id="25769"></path><path d="M513.3 409.8c-57.2 0-103.7 46.5-103.7 103.7s46.5 103.7 103.7 103.7S617 570.7 617 513.5s-46.5-103.7-103.7-103.7z m0 155.6c-28.6 0-51.8-23.2-51.8-51.8 0-28.6 23.3-51.8 51.8-51.8 28.6 0 51.8 23.2 51.8 51.8 0 28.5-23.2 51.8-51.8 51.8z" p-id="25770"></path></svg>