<?xml version="1.0" standalone="no"?><!DOCTYPE svg PUBLIC "-//W3C//DTD SVG 1.1//EN" "http://www.w3.org/Graphics/SVG/1.1/DTD/svg11.dtd"><svg t="1569813576911" class="icon" viewBox="0 0 1024 1024" version="1.1" xmlns="http://www.w3.org/2000/svg" p-id="14343" xmlns:xlink="http://www.w3.org/1999/xlink" width="200" height="200"><defs><style type="text/css"></style></defs><path d="M512 184.5375c40.92083333 0 79.44583333 15.90833333 108.3875 44.94583333 28.94166667 28.94166667 44.94583333 67.46666667 44.94583333 108.3875s-15.90833333 79.44583333-44.94583333 108.3875c-28.94166667 28.94166667-67.46666667 44.94583333-108.3875 44.94583334s-79.44583333-15.90833333-108.3875-44.94583334S358.66666667 378.79166667 358.66666667 337.87083333s15.90833333-79.44583333 44.94583333-108.3875c28.94166667-29.0375 67.46666667-44.94583333 108.3875-44.94583333m0-38.33333333c-105.89583333 0-191.66666667 85.77083333-191.66666667 191.66666666s85.77083333 191.66666667 191.66666667 191.66666667 191.66666667-85.77083333 191.66666667-191.66666667-85.77083333-191.66666667-191.66666667-191.66666666zM129.3375 877.79583333c5.07916667-24.34166667 12.55416667-48.10833333 22.32916667-71.20416666 19.64583333-46.575 47.91666667-88.35833333 83.85416666-124.29583334s77.72083333-64.1125 124.29583334-83.85416666c48.20416667-20.4125 99.37916667-30.66666667 152.18333333-30.66666667s103.97916667 10.35 152.18333333 30.66666667c46.575 19.64583333 88.35833333 47.91666667 124.29583334 83.85416666s64.1125 77.72083333 83.85416666 124.29583334c9.775 23.09583333 17.25 46.8625 22.32916667 71.20416666H933.66666667c-37.85416667-198.375-212.27083333-348.35416667-421.66666667-348.35416666S128.1875 679.42083333 90.33333333 877.79583333h39.00416667z m534.84583333-279.25833333c-1.91666667-0.8625-3.92916667-1.62916667-5.94166666-2.39583333-12.65 8.05-25.97083333 15.04583333-39.9625 20.9875C584.64166667 631.3125 548.89583333 638.5 512 638.5s-72.64166667-7.1875-106.27916667-21.46666667c-13.99166667-5.94166667-27.3125-12.9375-39.9625-20.9875-2.0125 0.76666667-3.92916667 1.62916667-5.94166666 2.39583334-11.69166667 4.98333333-23.09583333 10.44583333-34.11666667 16.3875C377.64166667 653.83333333 442.1375 676.83333333 512 676.83333333s134.35833333-23 186.3-61.90833333c-11.02083333-5.94166667-22.425-11.40416667-34.11666667-16.3875z m94.49166667 138.95833333h-191.66666667v38.33333334h191.66666667v-38.33333334z" fill="" p-id="14344"></path></svg>