<?xml version="1.0" standalone="no"?><!DOCTYPE svg PUBLIC "-//W3C//DTD SVG 1.1//EN" "http://www.w3.org/Graphics/SVG/1.1/DTD/svg11.dtd"><svg t="1569818271709" class="icon" viewBox="0 0 1024 1024" version="1.1" xmlns="http://www.w3.org/2000/svg" p-id="27483" xmlns:xlink="http://www.w3.org/1999/xlink" width="200" height="200"><defs><style type="text/css"></style></defs><path d="M518.9 794.9l244.56666667 128.03333333c11.5 6.13333333 24.53333333-3.83333333 22.23333333-16.1L738.93333333 634.66666667c-0.76666667-4.6 0.76666667-9.96666667 4.6-13.8L941.33333333 428.43333333c9.2-9.2 3.83333333-24.53333333-8.43333333-26.06666666l-272.93333333-39.86666667c-5.36666667-0.76666667-9.2-3.83333333-11.5-8.43333333l-122.66666667-246.86666667c-5.36666667-11.5-22.23333333-11.5-27.6 0L376.3 354.83333333c-2.3 4.6-6.9 7.66666667-11.5 8.43333334L91.86666667 403.13333333c-13.03333333 1.53333333-17.63333333 16.86666667-8.43333334 26.06666667l197.8 192.43333333c3.83333333 3.83333333 5.36666667 8.43333333 4.6 13.8l-46.76666666 272.16666667c-2.3 12.26666667 10.73333333 22.23333333 22.23333333 16.1L505.86666667 795.66666667c3.83333333-3.06666667 8.43333333-3.06666667 13.03333333-0.76666667z" p-id="27484"></path></svg>