<?xml version="1.0" standalone="no"?><!DOCTYPE svg PUBLIC "-//W3C//DTD SVG 1.1//EN" "http://www.w3.org/Graphics/SVG/1.1/DTD/svg11.dtd"><svg t="1569818572342" class="icon" viewBox="0 0 1024 1024" version="1.1" xmlns="http://www.w3.org/2000/svg" p-id="32758" xmlns:xlink="http://www.w3.org/1999/xlink" width="200" height="200"><defs><style type="text/css"></style></defs><path d="M899.948 895.635H129.609c-8.284 0-15 6.716-15 15s6.716 15 15 15h770.339c8.284 0 15-6.716 15-15s-6.716-15-15-15zM215.678 819.059c8.284 0 15-6.716 15-15V267.005c0-8.284-6.716-15-15-15s-15 6.716-15 15v537.054c0 8.284 6.716 15 15 15zM363.194 819.059c8.284 0 15-6.716 15-15V566.436c0-8.284-6.716-15-15-15s-15 6.716-15 15v237.623c0 8.284 6.716 15 15 15zM510.711 819.059c8.285 0 15-6.716 15-15V458.44c0-8.284-6.715-15-15-15-8.284 0-15 6.716-15 15v345.618c0 8.285 6.716 15.001 15 15.001zM658.229 819.059c8.284 0 15-6.716 15-15V85.58c0-8.284-6.716-15-15-15s-15 6.716-15 15v718.479c0 8.284 6.715 15 15 15zM805.745 819.059c8.284 0 15-6.716 15-15v-437.53c0-8.284-6.716-15-15-15s-15 6.716-15 15v437.53c0 8.284 6.716 15 15 15z" fill="" p-id="32759"></path></svg>