<?xml version="1.0" standalone="no"?><!DOCTYPE svg PUBLIC "-//W3C//DTD SVG 1.1//EN" "http://www.w3.org/Graphics/SVG/1.1/DTD/svg11.dtd"><svg t="1569813487980" class="icon" viewBox="0 0 1024 1024" version="1.1" xmlns="http://www.w3.org/2000/svg" p-id="13492" xmlns:xlink="http://www.w3.org/1999/xlink" width="200" height="200"><defs><style type="text/css"></style></defs><path d="M786.2962966 570.77777777c-58.77777777 0-109.71851883-33.30740771-137.14814784-82.28888888-27.42962993 48.98148117-78.37037007 82.28888889-137.14814784 82.28888888s-109.71851883-33.30740771-137.14814784-82.28888888c-27.42962993 48.98148117-78.37037007 82.28888889-137.14814785 82.28888888-86.20740772 0-156.74074105-70.53333333-156.74074104-156.74074104l0 0c0-3.91851883 0-5.87777777 1.95925895-9.7962966l117.55555555-254.7037034c0-1.95925896 1.95925896-1.95925896 3.91851883-3.91851882 0 0 0-1.95925896 1.95925895-1.95925896 1.95925896-1.95925896 3.91851883-1.95925896 5.87777778-3.91851882 0 0 0 0 0 0C214.19259229 139.74074104 216.15185216 139.74074104 220.07037007 139.74074104l583.85925894 1e-8c3.91851883 0 5.87777777 0 9.7962966 1.95925895 0 0 0 0 0 0 1.95925896 0 3.91851883 1.95925896 5.87777779 3.91851883 0 0 0 1.95925896 1.95925895 1.95925894 1.95925896 1.95925896 1.95925896 1.95925896 3.91851882 3.91851883l117.55555556 254.7037034C943.03703673 408.15925896 943.03703673 410.11851883 943.03703673 414.03703673l0 0C943.03703673 500.24444444 872.5037034 570.77777777 786.2962966 570.77777777zM792.17407438 178.92592561L231.82592562 178.92592561 120.14814784 417.95555556c1.95925896 62.6962966 52.9 113.63703673 117.55555556 113.63703673 50.94074105 0 94.04444444-33.30740771 109.71851883-78.37037006l11.75555554 0 29.3888889 0 11.75555556 0c15.67407439 45.06296327 58.77777777 78.37037007 109.71851881 78.37037006s94.04444444-33.30740771 109.71851883-78.37037006l11.75555556 0 29.38888889 0 11.75555555 0c15.67407439 45.06296327 58.77777777 78.37037007 109.71851882 78.37037006 62.6962966 0 115.5962966-50.94074105 117.55555556-113.63703673L792.17407438 178.92592561zM747.11111111 374.85185216L296.48148117 374.85185216c-11.75555556 0-19.59259229-7.83703673-19.59259228-19.59259229s7.83703673-19.59259229 19.59259228-19.59259228l450.62962994 0c11.75555556 0 19.59259229 7.83703673 19.59259229 19.59259228S758.86666667 374.85185216 747.11111111 374.85185216zM178.92592561 609.96296327c11.75555556 0 19.59259229 7.83703673 19.5925923 19.59259229l0 176.33333333c0 21.55185216 17.63333333 39.18518549 39.18518549 39.1851855l548.59259228 0c21.55185216 0 39.18518549-17.63333333 39.18518549-39.1851855l0-176.33333333c0-11.75555556 7.83703673-19.59259229 19.59259229-19.59259229s19.59259229 7.83703673 19.59259229 19.59259229l0 176.33333333c0 43.1037034-35.26666667 78.37037007-78.37037007 78.37037007L237.7037034 884.25925896c-43.1037034 0-78.37037007-35.26666667-78.37037007-78.37037007l0-176.33333333C159.33333333 617.8 167.17037007 609.96296327 178.92592561 609.96296327z" p-id="13493"></path></svg>