<?xml version="1.0" standalone="no"?><!DOCTYPE svg PUBLIC "-//W3C//DTD SVG 1.1//EN" "http://www.w3.org/Graphics/SVG/1.1/DTD/svg11.dtd"><svg t="1569818359135" class="icon" viewBox="0 0 1025 1024" version="1.1" xmlns="http://www.w3.org/2000/svg" p-id="28742" xmlns:xlink="http://www.w3.org/1999/xlink" width="200.1953125" height="200"><defs><style type="text/css"></style></defs><path d="M321.2395547 482.42624248l343.17854547 0c-11.39269128-7.38211462-26.02102426-15.39356162-43.88176162-24.01654424-32.01019528-14.16239993-58.66378763-24.32716602-79.91385893-30.4829729-65.58158745-19.08704592-108.537956-38.95388074-128.86263502-59.5827093-20.32467822-20.63206428-30.48459116-42.18466848-30.48459115-64.66590149 0-27.10334608 10.32007656-49.58457908 30.94890513-67.44208154 20.93945034-18.16327029 48.9617181-27.2538034 84.06518662-27.2538034 37.56740856 0 69.89955017 14.01032515 97.00127879 42.03259289 16.315719 17.23949464 32.18330255 48.80317191 47.57362846 94.68941355l6.47775321 0.91892167 38.79857026 2.76970865 5.54912442-1.38161901c1.53854695-8.31883307 2.31348353-15.23825114 2.31348351-20.78899301 0-18.47712775-2.15817222-46.64661712-6.47775319-84.52464746-3.39904104-24.62646323-6.62173912-42.80267551-9.69883385-54.50598855-34.17160324-11.08045206-61.43349629-18.47389204-81.75655625-22.16575807-36.02562591-5.85165652-61.74735296-8.77829391-77.12797256-8.77829391-80.07078766 0-140.57403691 19.56106702-181.5340151 58.66216938-41.2625103 39.41334157-61.89133886 86.99667715-61.89133888 142.73220913 0 28.01741461 7.39020348 56.96022229 22.17384694 86.83165957C304.76367126 459.33509051 312.61657208 471.65317568 321.2395547 482.42624248z" p-id="28743"></path><path d="M555.41744765 600.67435688c31.7173703 12.93285649 52.81698427 23.87255832 63.28104674 32.7932207 24.94679129 22.48285044 37.41533379 46.65470598 37.41533377 72.5155658 0 20.94430348-7.24298185 40.80466771-21.71438608 59.58918072-13.85177897 18.46903808-32.63143883 31.72869485-56.34868667 39.71911019-23.08306232 8.33177507-44.4916806 12.47824879-64.19026213 12.47824879-22.47637984 0-42.79943981-3.39418709-60.96756405-10.16476608-19.09028163-6.4712818-35.258779-15.23663289-48.50225724-26.33002777-13.85501467-11.39430953-26.17633474-25.86571378-36.95263725-43.42230078-1.54178266-2.45423375-3.46860743-6.61688597-5.77723699-12.46207108-2.30539385-5.85812793-5.77723697-14.4730217-10.3912604-25.86085983-4.62049483-11.39916269-9.23451905-22.32915821-13.85501466-32.7964564l-47.11254936 0.92377563 0 20.32306076-0.92377565 17.10198013c-0.30415037 11.69360594-0.30415037 22.16252238 0 31.40189538 0.61153643 14.77717206 0.92377562 38.79857026 0.92377565 72.06257636l0 6.00696701c0 4.31310957 1.22954345 7.69111813 3.69024858 10.16476607 4.61887738 3.68054148 15.70418339 8.00012245 33.25753469 12.92800333l64.66266578 18.47389206c24.93870244 7.08767137 54.9654502 10.63069834 90.06891791 10.63069832 37.87964776 0 69.11814302-3.23402345 93.7656379-9.70530525 22.48285044-5.55397755 46.01728474-15.71388969 70.67286848-30.48459114 22.16737552-14.17372529 38.95388074-26.63579557 50.34819027-37.42665834 14.7658475-15.08132241 25.71202074-31.09289107 32.7932207-48.0395607 12.63517753-31.09774502 18.93982429-63.7405084 18.93982428-97.91211163 0-16.32704438-1.06776155-30.48459116-3.21622668-42.49852515L555.41744765 600.68406399 555.41744765 600.67435688z" p-id="28744"></path><path d="M921.70817592 516.14323802c-2.77941577-2.7680904-6.31111735-4.15132768-10.62908007-4.15132769L112.9192859 511.99191115c-4.31310957 0-7.85128257 1.38323648-10.62422692 4.15132767C99.53020429 518.91132923 98.14049639 522.45435538 98.14049639 526.77393636l0 29.55272585c0 4.31958096 1.38323648 7.85613571 4.15456259 10.63069831 2.77294435 2.7680904 6.31758877 4.14162058 10.62422692 4.14162058L911.07909585 571.0989811c4.31796272 0 7.85128257-1.37352936 10.62908007-4.14162058 2.7680904-2.77456181 4.15132768-6.31111735 4.15132769-10.63069831l0-29.55272585C925.85950361 522.45435538 924.47626713 518.91132923 921.70817592 516.14323802z" p-id="28745"></path></svg>