<?xml version="1.0" standalone="no"?><!DOCTYPE svg PUBLIC "-//W3C//DTD SVG 1.1//EN" "http://www.w3.org/Graphics/SVG/1.1/DTD/svg11.dtd"><svg t="1569813608438" class="icon" viewBox="0 0 1024 1024" version="1.1" xmlns="http://www.w3.org/2000/svg" p-id="14813" xmlns:xlink="http://www.w3.org/1999/xlink" width="200" height="200"><defs><style type="text/css"></style></defs><path d="M916.21477777 650.79392592l-144.20148147 0 0-144.20148148c0-4.95692592-4.05566667-9.01259259-9.0125926-9.01259259l-36.05037037 0c-4.95692592 0-9.01259259 4.05566667-9.01259258 9.01259259l0 144.20148148-144.20148149 0c-4.95692592 0-9.01259259 4.05566667-9.01259259 9.0125926l0 36.05037037c0 4.95692592 4.05566667 9.01259259 9.01259259 9.01259259l144.20148149 0 0 144.20148149c0 4.95692592 4.05566667 9.01259259 9.01259258 9.01259259l36.05037037 0c4.95692592 0 9.01259259-4.05566667 9.0125926-9.01259259l0-144.20148149 144.20148147 0c4.95692592 0 9.01259259-4.05566667 9.01259259-9.01259259l0-36.05037037C925.22737036 654.84959259 921.1717037 650.79392592 916.21477777 650.79392592zM353.37837036 206.02248148c52.27303703 0 101.8422963 20.27833333 139.6951852 56.77933333l18.92644444 18.47581483 18.92644444-18.47581483c37.85288889-36.501 87.42214815-56.77933333 139.6951852-56.77933333 110.40425926 0 200.53018519 90.12592592 200.53018517 200.53018519 0 16.22266667-3.15440741 32.89596297-9.01259258 50.47051852 0 0-2.70377777 8.11133333-2.70377779 12.61762962 0 14.87077777 12.167 27.03777777 27.03777779 27.03777778 13.06825926 0 22.53148148-13.06825926 26.58714813-22.08085185 3.60503703-8.11133333 12.61762964-45.51359259 12.61762964-68.04507407 0-140.59644444-114.0092963-254.60574075-254.60574074-254.60574075-58.13122223 0-113.55866667 19.37707408-158.62162962 55.42744444l0 0c-45.06296297-36.05037036-100.49040741-55.42744444-158.62162964-55.42744444-140.59644444 0-254.60574075 114.0092963-254.60574075 254.60574075 0 179.35059259 293.35988889 387.54148148 382.58455556 446.57396297 0.45062964 0.45062964 1.35188889 0.90125926 1.35188889 0.90125925 0 0 9.01259259 4.05566667 13.96951853 4.05566667 14.87077777 0 27.03777777-12.167 27.03777777-27.03777779 0-9.46322223-4.95692592-18.02518519-12.61762964-22.53148147l0 0c-112.20677777-72.10074074-359.15181481-259.56266667-359.1518148-401.96162963C152.84818519 296.14840741 242.97411111 206.02248148 353.37837036 206.02248148z" p-id="14814"></path></svg>