<?xml version="1.0" standalone="no"?><!DOCTYPE svg PUBLIC "-//W3C//DTD SVG 1.1//EN" "http://www.w3.org/Graphics/SVG/1.1/DTD/svg11.dtd"><svg t="1569816871894" class="icon" viewBox="0 0 1025 1024" version="1.1" xmlns="http://www.w3.org/2000/svg" p-id="20857" xmlns:xlink="http://www.w3.org/1999/xlink" width="200.1953125" height="200"><defs><style type="text/css"></style></defs><path d="M1016.5248 442.6752c-9.984-9.984-26.2144-9.984-36.1984 0l-58.8288 58.8288c-2.6112-105.472-44.9536-204.288-119.8592-279.1424-77.3632-77.3632-180.224-119.9616-289.6384-119.9616-152.2688 0-291.1232 83.712-362.3424 218.4192-6.6048 12.4928-1.8432 28.0064 10.6496 34.6112s28.0064 1.8432 34.6112-10.6496c62.3104-117.9136 183.808-191.1808 317.0816-191.1808 193.9968 0 352.512 154.9824 358.2464 347.5968l-58.5216-58.5216c-9.984-9.984-26.2144-9.984-36.1984 0s-9.984 26.2144 0 36.1984l102.4 102.4c5.0176 5.0176 11.5712 7.4752 18.1248 7.4752s13.1072-2.5088 18.1248-7.4752l102.4-102.4c9.984-9.984 9.984-26.2144 0-36.1984z" p-id="20858"></path><path d="M863.6928 668.5696c-12.4928-6.6048-28.0064-1.8432-34.6112 10.6496-62.3104 117.9136-183.808 191.1808-317.0816 191.1808-193.9968 0-352.512-154.9824-358.2464-347.5968l58.5216 58.5216c5.0176 5.0176 11.5712 7.4752 18.1248 7.4752s13.1072-2.5088 18.1248-7.4752c9.984-9.984 9.984-26.2144 0-36.1984l-102.4-102.4c-9.984-9.984-26.2144-9.984-36.1984 0l-102.4 102.4c-9.984 9.984-9.984 26.2144 0 36.1984s26.2144 9.984 36.1984 0l58.8288-58.8288c2.6112 105.472 44.9536 204.288 119.8592 279.1424 77.3632 77.3632 180.224 119.9616 289.6384 119.9616 152.2688 0 291.1232-83.712 362.3424-218.4192 6.6048-12.4928 1.8432-28.0064-10.6496-34.6112z" p-id="20859"></path></svg>