<?xml version="1.0" standalone="no"?><!DOCTYPE svg PUBLIC "-//W3C//DTD SVG 1.1//EN" "http://www.w3.org/Graphics/SVG/1.1/DTD/svg11.dtd"><svg t="1565389898924" class="icon" viewBox="0 0 1024 1024" version="1.1" xmlns="http://www.w3.org/2000/svg" p-id="1965" xmlns:xlink="http://www.w3.org/1999/xlink" width="200" height="200"><defs><style type="text/css"></style></defs><path d="M960.5 755.8V203.5c0-6.6-5.4-12-12-12H76.3c-6.6 0-12 5.4-12 12v552.2c0 6.6 5.4 12 12 12h333.5c3.3 0 6 2.7 6 6v83.9c0 3.3-2.7 6-6 6H264.1c-3.3 0-6 2.7-6 6v52c0 3.3 2.7 6 6 6h496.4c3.3 0 6-2.7 6-6v-52c0-3.3-2.7-6-6-6H614.8c-3.3 0-6-2.7-6-6v-83.9c0-3.3 2.7-6 6-6h333.7c6.6 0.1 12-5.3 12-11.9zM134.3 255.5h756.1c3.3 0 6 2.7 6 6v436.2c0 3.3-2.7 6-6 6H134.3c-3.3 0-6-2.7-6-6V261.5c0-3.3 2.7-6 6-6z m404.5 608.1h-53c-3.3 0-6-2.7-6-6v-83.9c0-3.3 2.7-6 6-6h53c3.3 0 6 2.7 6 6v83.9c0 3.4-2.7 6-6 6z" p-id="1966"></path><path d="M634.1 540.2h-84c-3.3 0-6-2.7-6-6v-52.4c0-3.3 2.7-6 6-6h52c3.3 0 6-2.7 6-6v-180c0-3.3-2.7-6-6-6h-180c-3.3 0-6 2.7-6 6v180c0 3.3 2.7 6 6 6h52c3.3 0 6 2.7 6 6v52.4c0 3.3-2.7 6-6 6H390c-3.3 0-6-2.7-6-6v-52.4c0-3.3-2.7-6-6-6H198c-3.3 0-6 2.7-6 6v180c0 3.3 2.7 6 6 6h180c3.3 0 6-2.7 6-6v-51.6c0-3.3 2.7-6 6-6h244.1c3.3 0 6 2.7 6 6v51.6c0 3.3 2.7 6 6 6h180c3.3 0 6-2.7 6-6v-180c0-3.3-2.7-6-6-6h-180c-3.3 0-6 2.7-6 6v52.4c0 3.3-2.7 6-6 6zM314 603.8h-52c-3.3 0-6-2.7-6-6v-52c0-3.3 2.7-6 6-6h52c3.3 0 6 2.7 6 6v52c0 3.3-2.6 6-6 6z m166.1-198v-52c0-3.3 2.7-6 6-6h52c3.3 0 6 2.7 6 6v52c0 3.3-2.7 6-6 6h-52c-3.3 0-6-2.7-6-6z m230 134h52c3.3 0 6 2.7 6 6v52c0 3.3-2.7 6-6 6h-52c-3.3 0-6-2.7-6-6v-52c0-3.3 2.7-6 6-6z" p-id="1967"></path></svg>