<?xml version="1.0" standalone="no"?><!DOCTYPE svg PUBLIC "-//W3C//DTD SVG 1.1//EN" "http://www.w3.org/Graphics/SVG/1.1/DTD/svg11.dtd"><svg t="1569814318616" class="icon" viewBox="0 0 1044 1024" version="1.1" xmlns="http://www.w3.org/2000/svg" p-id="16874" xmlns:xlink="http://www.w3.org/1999/xlink" width="203.90625" height="200"><defs><style type="text/css"></style></defs><path d="M813.65306598 99.12468402h-586.49660591c-70.20730035 0-128.03361285 58.48388889-128.03361284 129.5012205v563.94338888c0 71.01641319 57.8253941 129.50122048 128.03269444 129.50122049h586.4966059c70.21556598 0 128.03269444-58.48388889 128.03269445-129.50122049v-563.94338888c0-71.01641319-53.68431598-129.50122048-128.03269445-129.5012205zM879.73673785 796.75078125c0 37.5911441-28.90489063 66.83400694-66.08275348 66.83400694h-586.49660589c-37.17051563 0-66.08275348-29.24194444-66.08275348-66.83400694v-568.12671354c0-37.5911441 28.91223785-66.83400694 66.08275348-66.83400694h586.49660589c37.17786285 0 66.08275348 29.24194444 66.08275348 66.83400694v568.12671354zM408.89092014 303.81645833l-90.86309722 91.89997396-41.30332813-41.76620312c-12.3984375-12.53344271-33.04505035-12.53344271-41.30332812 0-12.3984375 12.52517708-12.3984375 33.41700348 0 41.76620312l66.08275347 66.84227257c4.1328125 4.17505902 12.39109027 8.35011806 24.77942534 8.35011806 12.3984375 0 12.3984375-4.17505902 24.77942535-8.35011806l111.51797569-112.79180034c12.3984375-12.53344271 12.3984375-33.41700348 0-41.77538716-24.77942535-12.52517708-41.30332813-12.52517708-53.69258159-4.17505903zM788.87364063 353.95022917h-284.98772917c-20.64661285 0-28.91223785 12.52517708-28.91223785 29.24194444 0 20.88356077 12.3984375 29.24194444 28.91223785 29.24194445h284.99507639c20.64661285 0 28.90489063-12.53344271 28.90489063-29.24194445 0-16.71676736-12.3984375-29.24194444-28.91223785-29.24194444zM334.54162327 541.92523611c-53.6925816 0-94.99590973 41.77538715-94.99590973 96.08329862 0 54.30056423 41.30332813 96.07503298 94.99590973 96.07503298 53.70176563 0 94.99590973-41.77538715 94.99590971-96.07503298 0-58.48388889-45.4269566-96.08329861-94.99590971-96.08329862zM334.54162327 667.24956077c-20.64661285 0-33.03770313-12.53344271-33.03770313-33.41700348 0-20.89090798 12.39109027-33.4252691 33.03770313-33.4252691 20.65671527 0 33.04505035 12.53344271 33.04505034 33.4252691 0 20.88356077-16.52390277 33.41700348-33.04505034 33.41700348zM788.87364063 604.58234723h-284.98772917c-20.64661285 0-28.91223785 12.53344271-28.91223785 29.25021006 0 16.70023611 12.3984375 29.24194444 28.91223785 29.24194444h284.99507639c20.64661285 0 28.90489063-12.53344271 28.90489063-29.24194444 0-16.71676736-12.3984375-29.24194444-28.91223785-29.24194444z" p-id="16875"></path></svg>