<?xml version="1.0" standalone="no"?><!DOCTYPE svg PUBLIC "-//W3C//DTD SVG 1.1//EN" "http://www.w3.org/Graphics/SVG/1.1/DTD/svg11.dtd"><svg t="1572274508609" class="icon" viewBox="0 0 1024 1024" version="1.1" xmlns="http://www.w3.org/2000/svg" p-id="5334" xmlns:xlink="http://www.w3.org/1999/xlink" width="200" height="200"><defs><style type="text/css"></style></defs><path d="M783.872 563.712c-80.896 0-153.6 47.616-186.88 119.296-107.52-49.664-194.56-139.776-239.616-249.344C433.664 402.432 486.4 326.656 486.4 241.152 486.4 126.976 393.728 34.304 279.552 34.304c-109.568 0-199.68 84.992-206.336 193.536-2.048 9.216-2.56 17.92-2.56 26.624 0 186.368 71.168 364.032 200.704 499.2 128.512 134.656 301.568 213.504 486.4 222.208 8.704 1.024 17.408 1.536 26.112 1.536 114.176 0 206.848-92.672 206.848-206.848 0-114.176-92.672-206.848-206.848-206.848z m0 352.256c-6.656 0-13.312-0.512-19.456-1.024h-2.56c-353.28-16.384-629.76-306.176-629.76-659.968 0-4.608 0.512-10.24 2.048-15.872l0.512-2.56v-2.56c3.584-77.824 67.584-138.24 144.896-138.24C359.936 95.744 424.96 160.768 424.96 241.152c0 68.608-48.128 128.512-114.176 142.336l-33.792 7.168 10.752 32.768c50.176 149.504 167.936 272.384 315.904 328.704l31.744 11.776 9.216-32.768c17.408-62.464 74.752-106.496 139.776-106.496 80.384 0 145.408 65.024 145.408 145.408s-65.536 145.92-145.92 145.92z" fill="#333333" p-id="5335"></path></svg>