<?xml version="1.0" standalone="no"?><!DOCTYPE svg PUBLIC "-//W3C//DTD SVG 1.1//EN" "http://www.w3.org/Graphics/SVG/1.1/DTD/svg11.dtd"><svg t="1571454468298" class="icon" viewBox="0 0 1024 1024" version="1.1" xmlns="http://www.w3.org/2000/svg" p-id="2683" xmlns:xlink="http://www.w3.org/1999/xlink" width="200" height="200"><defs><style type="text/css"></style></defs><path d="M917.157111 911.728984L539.691177 911.728984l0-465.389426 377.464911 0L917.156088 911.728984zM591.663876 859.202677l273.519514 0 0-360.336812-273.519514 0L591.663876 859.202677zM484.299613 911.728984l-377.456724 0 0-193.578834 377.456724 0L484.299613 911.728984zM158.805354 859.202677l273.529747 0 0-88.515986-273.529747 0L158.805354 859.202677zM917.157111 417.779082L106.842889 417.779082 106.842889 112.271016l810.314223 0L917.157111 417.779082zM158.805354 364.679723l706.378036 0 0-199.872167-706.378036 0L158.805354 364.679723zM484.299613 675.897837l-377.456724 0 0-229.558279 377.456724 0L484.299613 675.897837zM158.805354 623.924115l273.529747 0 0-125.058251-273.529747 0L158.805354 623.924115z" fill="" p-id="2684"></path></svg>