<?xml version="1.0" standalone="no"?><!DOCTYPE svg PUBLIC "-//W3C//DTD SVG 1.1//EN" "http://www.w3.org/Graphics/SVG/1.1/DTD/svg11.dtd"><svg t="1569817012453" class="icon" viewBox="0 0 1024 1024" version="1.1" xmlns="http://www.w3.org/2000/svg" p-id="23268" xmlns:xlink="http://www.w3.org/1999/xlink" width="200" height="200"><defs><style type="text/css"></style></defs><path d="M244.20864854 214.74138936h552.57895046v38.94942098H244.20864854v-38.94942098z" p-id="23269"></path><path d="M946.47737384 389.39322923c0-44.20864429-23.72658882-70.45030973-61.47620841-91.68716982V128.24115432c0-18.24111188-14.86232848-33.06213264-33.06213263-33.06213264H188.99243674c-18.19886534 0-33.02082493 14.82195957-33.02082493 33.06213264v170.87781674c-28.87972639 22.88635231-46.44489382 52.94804267-46.44489382 90.27425817 0 38.42556405 18.36691266 72.37111852 46.44489382 94.49703334V888.26557715c0 18.19792655 14.82195957 33.02176373 33.02082493 33.02176375h662.94659606c18.19980417 0 33.06213264-14.82195957 33.06213263-33.02176375V494.02285757c36.48222377-20.81533364 61.47714723-59.70467067 61.47714723-104.63056714M844.97962145 882.33698109H195.99315578V505.63501983c9.96267007 2.70096134 23.52380549 4.60111628 34.33328373 4.60111628 41.12558658 0 77.39563889-20.73084058 99.22488919-52.18666636 21.83018911 31.45582576 58.14248797 52.18666636 99.22301157 52.18666636 41.12746419 0 77.3965777-20.73084058 99.26807454-52.18666636 21.78982021 31.45582576 58.10118025 52.18666636 99.22582802 52.18666636 41.04109352 0 77.35339236-20.73084058 99.14039613-52.18666636 21.87055802 31.45582576 58.09836382 52.18666636 99.22488921 52.18666636 5.48829336 0 14.02584723-0.92660717 19.34421565-1.64479814v373.74470432z m-19.34327685-411.04838835c-42.73001582 0-79.66756326-39.1662865-79.66756328-81.89442469 0-11.94919567-7.56776134-21.61801767-19.47564931-21.61801767-11.98862576 0-19.47377168 9.66976081-19.47377166 21.61801767 0 42.72907701-37.0220405 81.89442469-79.75017871 81.89442469-42.81357007 0-79.75111752-39.1662865-79.75111753-81.89442469 0-11.94919567-7.56870016-21.61801767-19.47377168-21.61801767-11.99050341 0-19.47471049 9.66976081-19.47471049 21.61801767 0 42.72907701-36.97885517 81.89442469-79.79430284 81.89442469-42.77226234 0-79.74923989-39.1662865-79.74923991-81.89442469 0-11.94919567-7.48232948-21.61801767-19.47471049-21.61801767-11.94919567 0-19.47377168 9.66976081-19.47377169 21.61801767 0 42.72907701-36.93754745 81.89442469-79.7511175 81.89442469-42.77226234 0-81.85030054-39.1662865-81.85030055-81.89442469 0-26.72796991 9.22382523-51.30042809 31.81257423-65.66049228 6.46184113-4.09321914 14.6323196-11.1023875 14.63231961-18.23923426v-175.65167438h651.12883403v166.99864669c-0.33515578 8.74221481 4.64711806 17.18494868 13.25977685 20.69141048 29.30219167 11.90507152 48.21737036 40.19334652 48.21737037 71.86228257 0 42.72813819-39.07616058 81.89348589-81.89066945 81.89348587" p-id="23270"></path></svg>