<?xml version="1.0" standalone="no"?><!DOCTYPE svg PUBLIC "-//W3C//DTD SVG 1.1//EN" "http://www.w3.org/Graphics/SVG/1.1/DTD/svg11.dtd"><svg t="1578826698202" class="icon" viewBox="0 0 1024 1024" version="1.1" xmlns="http://www.w3.org/2000/svg" p-id="6706" xmlns:xlink="http://www.w3.org/1999/xlink" width="200" height="200"><defs><style type="text/css"></style></defs><path d="M515.30666667 938.40853333c-172.15253333 0-277.86026667-25.06133333-323.18933334-76.58026666-23.93813333-27.18506667-22.7552-52.8224-21.84533333-60.04373334 0.48533333-6.432 16.56533333-202.5856 30.09813333-294.032-4.9152-3.33866667-15.35253333-7.52426667-21.38986666-9.952a245.15306667 245.15306667 0 0 1-14.8064-6.28053333c-19.9648-9.376-61.41013333-29.91573333-61.41013334-29.91573333-51.51786667-23.66613333-82.07146667-53.76426667-89.59573333-88.96-6.03733333-28.1856 4.24746667-52.45866667 15.86773333-65.808a43.57013333 43.57013333 0 0 1 4.4608-4.4L275.70666667 95.78666667a42.56853333 42.56853333 0 0 1 68.05333333 18.7808c26.54933333 78.61333333 103.49333333 90.38506667 147.03146667 90.38506666 11.5904 0 18.9632-0.90986667 19.024-0.9408a45.0816 45.0816 0 0 1 11.25653333 0.03093334s7.22133333 0.88 18.41706667 0.88c42.68906667 0 118.176-11.712 144.26986666-90.20373334a42.62826667 42.62826667 0 0 1 68.35733334-18.7808L990.83733333 302.58773333a40.42453333 40.42453333 0 0 1 4.4 4.42986667c11.49866667 13.3504 21.632 37.65333333 15.5648 65.74933333-7.52533333 35.01226667-37.65333333 65.0496-89.536 89.20106667 0 0.03093333-39.98933333 20.14613333-59.40693333 29.40053333-4.36906667 2.06293333-9.34506667 4.12586667-14.624 6.28053334-5.88693333 2.3968-16.11093333 6.5536-20.9056 9.86026666 13.4112 92.23573333 29.21813333 287.87306667 29.88586667 296.21653334 0.72853333 5.3408 1.85066667 31.1296-22.26986667 58.4672-45.14666667 51.30666667-149.36746667 76.21546667-318.63893333 76.21546666zM255.53066667 804.6976c7.15946667 8.46506667 52.21546667 48.45333333 259.776 48.45333333 205.0432 0 248.73386667-40.08 255.49973333-48.3328-3.18613333-38.32-17.47626667-208.25813333-29.06666667-286.5984-9.7088-65.68746667 50.69973333-90.2336 73.42506667-99.456 3.64053333-1.488 7.09973333-2.85333333 10.10346667-4.2784 19.11466667-9.10293333 58.77013333-29.06666667 58.83093333-29.0976 26.0928-12.19626667 36.77226667-21.936 40.96-26.9728l-187.05066667-161.89866666c-56.31253333 83.40693333-153.97973333 93.66293333-198.4896 93.66293333-10.5888 0-19.024-0.576-24.21226666-1.03146667a272.64213333 272.64213333 0 0 1-24.5152 1.03146667c-45.14666667 0-144.26986667-10.31573333-201.2192-94.17813333l-190.38933334 162.4448c4.3392 5.06666667 15.05066667 14.624 40.35413334 26.24426666 1.21386667 0.576 41.44533333 20.57066667 60.864 29.6736 3.06346667 1.42613333 6.58346667 2.82133333 10.2848 4.30826667 23.02933333 9.22346667 84.16533333 33.7088 74.304 99.6384-11.9232 79.18933333-26.608 252.10133333-29.46026667 286.3872z" p-id="6707"></path></svg>