<?xml version="1.0" standalone="no"?><!DOCTYPE svg PUBLIC "-//W3C//DTD SVG 1.1//EN" "http://www.w3.org/Graphics/SVG/1.1/DTD/svg11.dtd"><svg t="1569816789153" class="icon" viewBox="0 0 1026 1024" version="1.1" xmlns="http://www.w3.org/2000/svg" p-id="19785" xmlns:xlink="http://www.w3.org/1999/xlink" width="200.390625" height="200"><defs><style type="text/css"></style></defs><path d="M759.08937934 293.26860243h30.4175c2.21794271 0 8.07964844 2.79883246 9.50546875 4.64711805l133.6046441 167.8243316c0.84493056 1.00335504 2.69321615 6.23136285 2.69321614 7.604375V678.34570313c0 10.45601562-4.27746094 20.01429254-11.19532985 26.98496962-6.97067708 6.91786892-16.47614583 11.19532986-27.03777779 11.19532985H850.76434462c-5.70328125 47.26330295-44.67570312 83.70093316-91.67496528 86.9222309V778.9452474c37.96906684-3.43253038 68.01690973-35.69831598 68.01690972-74.51231338 0-38.91961371-29.99503473-70.97416667-68.01690972-74.40669704v-24.66141059c46.946454 3.2741059 85.76045139 39.55331163 91.62215712 86.60538194h46.36556423c3.85499566 0 7.28752604-1.47862848 9.76950956-3.96061198 2.42917535-2.53479167 4.01342014-5.91451389 4.01342013-9.76950954V529.74354167H759.08937934v-24.45017796h151.77065104v-27.82990017l-67.85848524-85.33798611h-83.9121658v-24.39736979h64.42595486l-39.92296875-50.06213541h-24.50298611v-24.3973698zM364.55961806 165.10319879a186.99369358 186.99369358 0 0 1 41.13755642 31.10400607c5.96732205 5.96732205 11.45937066 12.25149306 16.58176215 18.90532118H558.20713975c13.46608073 0 25.8231901 5.54485677 34.64215279 14.36381944v0.05280817c8.97738715 8.924579 14.4166276 21.12326389 14.4166276 34.64215277v29.04448785h151.8234592v24.45017796h-151.8234592v374.3042361h46.68241319c6.12574652-49.27001302 48.53069879-86.81661458 98.43440973-86.81661458 2.21794271 0 4.38307725 0.05280816 6.70663628 0.15842448v24.60860243c-2.27075087-0.2640408-4.48869358-0.42246527-6.70663628-0.42246528-41.0319401 0-74.77635417 33.74441406-74.77635417 74.77635417 0 41.13755642 33.63879775 74.77635417 74.77635417 74.77635416 2.21794271 0 4.43588542-0.05280816 6.70663628-0.31684896v24.55579427c-2.32355902 0.10561632-4.48869358 0.21123264-6.70663628 0.21123265-49.90371094 0-92.46708767-37.81064236-98.54002604-87.08065538H406.48929687c-3.5381467 28.83325521-19.38059462 53.65309027-41.92967881 69.33711371v-32.58263455c11.30094618-13.09642361 18.2188151-30.1534592 18.2188151-48.84754774 0-18.58847223-6.86506077-35.64550781-18.2188151-48.79473958v-32.5298264c22.44346788 15.63121527 38.2859158 40.29262587 41.8240625 68.9674566h176.37925346v-427.74609375c0-6.8122526-2.79883246-12.93799913-7.28752604-17.42669271v0.05280817c-4.38307725-4.54150173-10.56163194-7.23471788-17.26826823-7.23471789H438.06857639c13.99416233 26.0872309 22.0210026 55.92384115 22.02100261 87.55592883 0 51.01268229-20.80641493 97.37824652-54.33959636 130.91142794-12.14587673 12.1986849-26.03442275 22.70750868-41.13755643 31.15681424V460.51204427c8.55492188-5.80889757 16.58176215-12.35710938 23.8692882-19.75025173C417.57901042 411.66449652 435.63940104 371.42467882 435.63940104 327.17144098c0-44.306046-18.00758246-84.49305556-47.21049479-113.64315973v-0.10561632c-7.28752604-7.28752604-15.31436632-13.888546-23.86928819-19.75025174v-28.5692144z m394.52976128 202.67771701H730.36174045c-21.59853733 0-39.342079 17.74354167-39.34207899 39.34207899v83.59531684c0 21.33449652 17.6907335 39.02523004 38.91961371 39.02523004h29.15010417v-24.45017796h-29.15010417c-7.81560764 0-14.46943577-6.54821181-14.46943576-14.52224392v-83.648125c0-8.1324566 6.86506077-14.9447092 14.9447092-14.9447092h28.67483073v-24.39736979zM274.83855469 141.8676085c32.47701823 0 63.10575087 8.44930556 89.72106337 23.28839844v28.56921441c-25.66476563-17.26826823-56.5047309-27.4074349-89.72106337-27.40743489-10.03355035 0-19.90867621 0.89773871-29.46695313 2.69321614V144.19116754c9.61108507-1.53143663 19.43340277-2.32355902 29.46695313-2.32355904z m89.72106337 643.8898915c-16.15929688 11.24813802-35.64550781 17.84915798-56.55753906 17.84915798-23.6052474 0-45.41501736-8.34368923-62.57766927-22.39065971v-36.12078125c13.36046441 20.48956598 36.43763021 34.06126302 62.57766927 34.06126302 22.5490842 0 42.82741754-10.03355035 56.55753906-25.98161459v32.58263455z m0-325.24545573v28.62202257c-26.6153125 14.83909288-57.19123698 23.23559027-89.72106337 23.23559028-10.03355035 0-19.85586806-0.7921224-29.46695313-2.32355903v-24.81983507c9.50546875 1.79547743 19.38059462 2.74602431 29.46695313 2.74602431 33.16352431 0 64.05629775-10.19197483 89.72106337-27.46024306z m0 162.49070746v32.58263456c-13.73012152-15.94806423-34.00845486-26.03442275-56.55753906-26.03442275-26.0872309 0-49.21720486 13.67731337-62.57766927 34.16687934v-36.12078125c17.16265191-14.04697048 39.02523004-22.39065973 62.57766927-22.39065972 20.91203125 0 40.39824219 6.60101996 56.55753906 17.79634982zM245.42440973 367.7809158v-31.94893663l17.1626519-14.41662761V215.85184027c0-17.47950087 24.45017795-17.47950087 24.45017795 0v111.26679254c0 2.16513455-2.64040798 7.92122396-4.3302691 9.39985244l-37.28256075 31.26243055z m0 413.43508247c-19.32778646-15.78963975-32.63544271-38.60276475-35.85674046-64.79561198h-38.60276475c-26.98496962 0-49.05878038-22.17942708-49.05878039-49.16439671V431.46755642C101.52217448 401.7365625 89.53472223 365.77420573 89.53472223 327.11863281c0-51.01268229 20.80641493-97.37824652 54.33959635-130.96423611 26.98496962-26.8793533 62.26082031-45.67905816 101.55009115-52.01603733v24.87264323c-32.58263455 6.02013021-61.73273871 21.96819444-84.28182292 44.46447049-29.097296 29.15010417-47.15768663 69.38992187-47.15768664 113.64315972s18.00758246 84.49305556 47.21049479 113.59035156h-0.10561631c22.5490842 22.5490842 51.69918837 38.44434027 84.28182291 44.46447049v24.76702691c-38.12749132-6.02013021-72.39998698-23.86928819-99.06810764-49.63967014v207.00798612c0 13.57169705 11.03690538 24.66141059 24.60860243 24.66141058h38.65557292c3.2741059-25.98161458 16.58176215-48.74193142 35.80393229-64.42595485v36.22639756c-7.70999132 11.6706033-12.14587673 25.61195746-12.14587673 40.60947483 0 15.05032552 4.43588542 29.097296 12.14587673 40.7678993l0.05280817 36.0679731z m0-445.3840191l-19.32778646 16.21210503-17.26826823 14.52224392c-13.30765625 11.19532986 2.53479167 29.8894184 15.78963975 18.69408855l20.80641494-17.47950087v-31.94893663z m0 0z" p-id="19786"></path></svg>