<?xml version="1.0" standalone="no"?><!DOCTYPE svg PUBLIC "-//W3C//DTD SVG 1.1//EN" "http://www.w3.org/Graphics/SVG/1.1/DTD/svg11.dtd"><svg t="1569818201103" class="icon" viewBox="0 0 1024 1024" version="1.1" xmlns="http://www.w3.org/2000/svg" p-id="26445" xmlns:xlink="http://www.w3.org/1999/xlink" width="200" height="200"><defs><style type="text/css"></style></defs><path d="M497.58695704 198.73470496m-78.71122727 0a76.91854778 76.91854778 0 1 0 157.42245333 0 76.91854778 76.91854778 0 1 0-157.42245333 0Z" p-id="26446"></path><path d="M307.10549805 504.85050053m-78.71122727 0a76.91854778 76.91854778 0 1 0 157.42245332 0 76.91854778 76.91854778 0 1 0-157.42245332 0Z" p-id="26447"></path><path d="M706.39894372 504.85050053m-78.71122726 0a76.91854778 76.91854778 0 1 0 157.42245333 0 76.91854778 76.91854778 0 1 0-157.42245333 0Z" p-id="26448"></path><path d="M174.8731115 825.26529504m-78.71122724 0a76.91854778 76.91854778 0 1 0 157.42245333 0 76.91854778 76.91854778 0 1 0-157.42245333 0Z" p-id="26449"></path><path d="M426.22298525 824.70842813m-78.71122727 0a76.91854778 76.91854778 0 1 0 157.42245333 0 76.91854778 76.91854778 0 1 0-157.42245333 0Z" p-id="26450"></path><path d="M863.82139705 822.83885737m-78.71122726 0a76.91854778 76.91854778 0 1 0 157.42245333 0 76.91854778 76.91854778 0 1 0-157.42245333 0Z" p-id="26451"></path><path d="M494.50350115 196.82334699l6.18086615 3.84566181-190.47370645 306.13519534-6.18086615-3.84566181 190.47370645-306.13519534Z" p-id="26452"></path><path d="M500.58680529 196.67380409l208.80621407 306.11324419-6.01344222 4.10189337-208.80621405-306.11324419 6.0134422-4.10189337Z" p-id="26453"></path><path d="M303.77900855 503.47851138l6.72899766 2.77705859-132.23889541 320.42368165-6.72899765-2.77705858 132.2388954-320.42368166Z" p-id="26454"></path><path d="M310.53749651 503.57849197l119.1201773 319.84962256-6.82144501 2.54048051-119.12017733-319.84962255 6.82144504-2.54048052Z" p-id="26455"></path><path d="M709.67933519 503.26540439l157.4343827 317.9911975-6.52372147 3.22983208-157.4343827-317.9911975 6.52372147-3.22983208Z" p-id="26456"></path></svg>