<?xml version="1.0" standalone="no"?><!DOCTYPE svg PUBLIC "-//W3C//DTD SVG 1.1//EN" "http://www.w3.org/Graphics/SVG/1.1/DTD/svg11.dtd"><svg t="1569818388841" class="icon" viewBox="0 0 1024 1024" version="1.1" xmlns="http://www.w3.org/2000/svg" p-id="29319" xmlns:xlink="http://www.w3.org/1999/xlink" width="200" height="200"><defs><style type="text/css"></style></defs><path d="M784.4381855 83.70482725l40.50919083 0 0 410.47740817c0 73.96495538-8.36937608 132.69816938-25.10028141 176.19964104-16.73973254 43.50833621-44.97730404 80.86101663-88.65222542 108.13242521-43.67492137 27.28023483-102.95195217 38.95116988-173.90138808 38.95116987-68.94878858 0-125.33861021-11.88275929-169.17829017-35.64141333-43.84752583-23.75865404-75.13706604-58.14383229-93.87646554-103.15945529-18.74724442-45.00679771-26.15160183-106.50059246-26.15160183-184.48236654L248.08712292 83.70482725l40.50919083 0 0 409.97530571c0 63.92585308 4.95748708 116.911369 16.84074567 147.19441004 11.87639308 30.29284767 51.90797838 85.01512808 80.85950629 101.40896171 28.94368204 16.40069912 100.62178575 32.44345404 142.46179971 32.44345404 71.61533767 0 163.03806737-24.5882995 192.34265104-63.403157 45.22934571-56.30998192 62.35547825-125.27745129 62.35547825-217.64366975L783.45649471 84.6854955 784.4381855 83.70482725z" p-id="29320"></path><path d="M246.12668438 900.83503683l575.85110254 0 0 39.22673767-575.85110255 0 0-39.22673767Z" p-id="29321"></path></svg>