<?xml version="1.0" standalone="no"?><!DOCTYPE svg PUBLIC "-//W3C//DTD SVG 1.1//EN" "http://www.w3.org/Graphics/SVG/1.1/DTD/svg11.dtd"><svg t="1569818354116" class="icon" viewBox="0 0 1025 1024" version="1.1" xmlns="http://www.w3.org/2000/svg" p-id="28624" xmlns:xlink="http://www.w3.org/1999/xlink" width="200.1953125" height="200"><defs><style type="text/css"></style></defs><path d="M836.32189969 256.05516902c-69.31246991-69.31246991-161.51316975-107.53149536-259.54389044-107.53149537s-190.23142052 38.17600881-259.54389043 107.53149537-107.53149536 161.51316975-107.53149536 259.54389042v55.83898138l-92.6755699-92.67556989c-8.4211412-8.4211412-22.11055645-8.4211412-30.53169764 0s-8.4211412 22.11055645 0 30.53169764l129.55601852 129.55601852c4.23250066 4.23250066 9.75971803 6.30489088 15.28777888 6.30489087s11.05527822-2.11625033 15.28777888-6.30489087l129.55601852-129.55601852c8.4211412-8.4211412 8.4211412-22.11055645 0-30.53169764s-22.11055645-8.4211412-30.53169765 0l-92.67556988 92.67556989v-55.83898138c0-178.61439551 145.27565079-323.8900463 323.8900463-323.8900463s323.8900463 145.27565079 323.89004629 323.8900463-145.27565079 323.8900463-323.89004629 323.89004631c-11.91898501 0-21.59266975 9.67368474-21.59266976 21.59266975s9.67368474 21.59266975 21.59266976 21.59266975c98.03072067 0 190.23142052-38.17600881 259.54389042-107.53149537s107.53149536-161.51316975 107.53149537-259.54389044c0-98.03072067-38.17600881-190.23142052-107.53149537-259.54389042z" p-id="28625"></path></svg>