<?xml version="1.0" standalone="no"?><!DOCTYPE svg PUBLIC "-//W3C//DTD SVG 1.1//EN" "http://www.w3.org/Graphics/SVG/1.1/DTD/svg11.dtd"><svg t="1569818328513" class="icon" viewBox="0 0 1024 1024" version="1.1" xmlns="http://www.w3.org/2000/svg" p-id="28064" xmlns:xlink="http://www.w3.org/1999/xlink" width="200" height="200"><defs><style type="text/css"></style></defs><path d="M416.495049 160.832931v63.848465h510.786695v-63.848465H416.495049z m0 383.09079h510.786695v-63.854609H416.495049v63.854609z m0 319.241301h510.786695v-63.848465H416.495049v63.848465zM193.032076 96.984466c-52.891868 0-95.779353 42.874174-95.779352 95.766042 0 52.898011 42.886461 95.779353 95.779352 95.779353 52.885725 0 95.772186-42.880317 95.772186-95.779353 0.001024-52.891868-42.886461-95.766042-95.772186-95.766042z m0 638.477482c-52.891868 0-95.779353 42.887485-95.779352 95.779353 0 52.893916 42.886461 95.774233 95.779352 95.774233 52.885725 0 95.772186-42.880317 95.772186-95.774233 0.001024-52.891868-42.886461-95.779353-95.772186-95.779353z m0-319.235157c-52.891868 0-95.779353 42.880317-95.779352 95.772185 0 52.891868 42.886461 95.766042 95.779352 95.766042 52.885725 0 95.772186-42.874174 95.772186-95.766042 0.001024-52.891868-42.886461-95.772186-95.772186-95.772185z" fill="#333333" p-id="28065"></path></svg>