<?xml version="1.0" standalone="no"?><!DOCTYPE svg PUBLIC "-//W3C//DTD SVG 1.1//EN" "http://www.w3.org/Graphics/SVG/1.1/DTD/svg11.dtd"><svg t="1574942515604" class="icon" viewBox="0 0 1024 1024" version="1.1" xmlns="http://www.w3.org/2000/svg" p-id="1120" xmlns:xlink="http://www.w3.org/1999/xlink" width="200" height="200"><defs><style type="text/css"></style></defs><path d="M43.52 541.44A32 32 0 0 1 11.52 512a500.48 500.48 0 0 1 932.48-256 30.08 30.08 0 0 1 0 32 32 32 0 0 1-28.16 16h-221.44a32 32 0 0 1-32-32 32 32 0 0 1 32-32h161.92A436.48 436.48 0 0 0 75.52 512a32 32 0 0 1-32 29.44zM512 1009.92a495.36 495.36 0 0 1-425.6-237.44 32 32 0 0 1 0-32 32.64 32.64 0 0 1 28.16-16.64h196.48a32 32 0 1 1 0 64H175.36A437.12 437.12 0 0 0 948.48 512a32 32 0 0 1 64 0A500.48 500.48 0 0 1 512 1009.92z" fill="#323333" p-id="1121"></path></svg>