<?xml version="1.0" standalone="no"?><!DOCTYPE svg PUBLIC "-//W3C//DTD SVG 1.1//EN" "http://www.w3.org/Graphics/SVG/1.1/DTD/svg11.dtd"><svg t="1569817001287" class="icon" viewBox="0 0 1344 1024" version="1.1" xmlns="http://www.w3.org/2000/svg" p-id="23044" xmlns:xlink="http://www.w3.org/1999/xlink" width="262.5" height="200"><defs><style type="text/css"></style></defs><path d="M1017.98704184 434.09094846C1006.94216633 263.06350857 888.00929148 98.14049639 669.87946686 98.14049639 470.3733199 98.14049639 316.52104944 246.43152978 308.37319046 444.33397116 199.21774639 478.29631667 139.62197787 595.10816157 139.62197787 680.13042333 139.62197787 811.03935757 248.41529489 925.85950361 372.41794864 925.85950361l168.13042335 0c7.13907643 0 12.93310948-5.79403305 12.93310948-12.9331095S547.68744843 899.99328462 540.54837199 899.99328462L372.41794864 899.99328462c-110.24182527 0-206.9297518-102.74062177-206.92975178-219.86286129C165.48819686 601.21258924 234.6544664 460.26756205 372.41794864 460.26756205l38.79932847 0c7.13907643 0 12.93310948-5.79403305 12.9331095-12.9331095S418.35635355 434.40134307 411.21727711 434.40134307L372.41794864 434.40134307c-13.16590546 0-25.60755679 1.47437448-37.73881347 3.59540444C344.81869301 283.05809585 462.587588 124.00671538 669.87946686 124.00671538 892.01855541 124.00671538 993.20720405 298.31916504 993.20720405 460.26756205l0 38.79932847c0 7.13907643 5.79403305 12.93310948 12.93310949 12.93310948s12.93310948-5.79403305 12.93310948-12.93310948L1019.07342302 460.26756205c0-0.07759867 0-0.15519731 0-0.23279596 78.09011509 8.56171849 181.06353284 92.36826797 181.06353284 220.09565724 0 98.9641538-95.47221424 219.8628613-206.92975181 219.86286129l-193.99664231 0c-83.75481705 0-116.39798539-32.64316834-116.39798539-116.39798538L682.81257635 428.78837355l105.48244098 105.27551124C790.82990679 536.59877425 794.14078283 537.86621897 797.45165885 537.86621897s6.62175207-1.26744474 9.15664152-3.77646797c5.0439127-5.0439127 5.0439127-13.26937034 0-18.28741681l-115.38920286-115.15640689c-15.36453407-15.31280164-27.28886101-15.31280164-42.62752887 0l-115.38920284 115.15640689c-5.0439127 5.01804649-5.0439127 13.24350411 0 18.28741681s13.24350411 5.0439127 18.28741682 0L656.94635738 428.78837355 656.94635738 783.59529924c0 98.39509698 43.86910738 142.26420437 142.26420436 142.26420437L993.20720405 925.85950361c125.37356337 0 232.79597078-135.12512793 232.79597078-245.72908028C1226.00317483 546.4796699 1116.77013209 441.95427902 1017.98704184 434.09094846z" p-id="23045"></path></svg>