<?xml version="1.0" standalone="no"?><!DOCTYPE svg PUBLIC "-//W3C//DTD SVG 1.1//EN" "http://www.w3.org/Graphics/SVG/1.1/DTD/svg11.dtd"><svg t="1582208429572" class="icon" viewBox="0 0 1024 1024" version="1.1" xmlns="http://www.w3.org/2000/svg" p-id="7366" xmlns:xlink="http://www.w3.org/1999/xlink" width="200" height="200"><defs><style type="text/css"></style></defs><path d="M810.55288889 562.97244445c-14.56355555 21.84533333-29.12711111 43.69066667-43.69066667 58.25422222 109.22666667 36.40888889 182.04444445 87.38133333 182.04444445 145.63555555 0 101.94488889-196.608 182.04444445-436.90666667 182.04444445s-436.90666667-80.09955555-436.90666667-182.04444445c0-58.25422222 72.81777778-116.50844445 182.04444445-145.63555555-14.56355555-21.84533333-29.12711111-36.40888889-43.69066667-58.25422222-123.79022222 43.69066667-211.17155555 116.50844445-211.17155556 203.88977777C2.27555555 905.216 228.01066667 1021.72444445 512 1021.72444445s509.72444445-116.50844445 509.72444445-254.86222223c0-87.38133333-87.38133333-160.19911111-211.17155556-203.88977777z" fill="#4D4D4D" p-id="7367"></path><path d="M512 2.27555555C351.80088889 2.27555555 220.72888889 147.91111111 220.72888889 329.95555555S351.80088889 657.63555555 512 657.63555555s291.27111111-145.63555555 291.27111111-327.68S672.19911111 2.27555555 512 2.27555555z m0 582.54222223C388.20977778 584.81777778 293.54666667 468.30933333 293.54666667 329.95555555S388.20977778 75.09333333 512 75.09333333s218.45333333 116.50844445 218.45333333 254.86222222S635.79022222 584.81777778 512 584.81777778z" fill="#4D4D4D" p-id="7368"></path></svg>