<?xml version="1.0" standalone="no"?><!DOCTYPE svg PUBLIC "-//W3C//DTD SVG 1.1//EN" "http://www.w3.org/Graphics/SVG/1.1/DTD/svg11.dtd"><svg t="1569818247581" class="icon" viewBox="0 0 1024 1024" version="1.1" xmlns="http://www.w3.org/2000/svg" p-id="27246" xmlns:xlink="http://www.w3.org/1999/xlink" width="200" height="200"><defs><style type="text/css"></style></defs><path d="M935.93608253 501.38360377C928.1987095 490.76720835 747.0002222 242.09162809 512 242.09162809S95.8012905 490.76720835 88.06391747 501.38360377L80.14660493 512l7.91731254 10.61639623C95.8012905 533.23279165 276.9997778 781.90837191 512 781.90837191s416.1987095-248.67558027 423.93608253-259.29197568L943.85339507 512zM512 745.92058871C321.62462806 745.92058871 163.27838349 559.14399535 125.31127279 512 163.27838349 464.85600465 321.62462806 278.07941129 512 278.07941129s348.72161651 186.77659336 386.68872721 233.92058871C860.72161651 559.14399535 702.37537194 745.92058871 512 745.92058871z" p-id="27247"></path><path d="M512 368.04886803a143.95113197 143.95113197 0 1 0 143.95113197 143.95113197 143.95113197 143.95113197 0 0 0-143.95113197-143.95113197z m0 251.91448074a107.96334877 107.96334877 0 1 1 107.96334877-107.96334877 107.96334877 107.96334877 0 0 1-107.96334877 107.96334877z" p-id="27248"></path></svg>