<?xml version="1.0" standalone="no"?><!DOCTYPE svg PUBLIC "-//W3C//DTD SVG 1.1//EN" "http://www.w3.org/Graphics/SVG/1.1/DTD/svg11.dtd"><svg t="1582114955149" class="icon" viewBox="0 0 1024 1024" version="1.1" xmlns="http://www.w3.org/2000/svg" p-id="2322" xmlns:xlink="http://www.w3.org/1999/xlink" width="200" height="200"><defs><style type="text/css"></style></defs><path d="M554.666667 786.709333V896h234.666666v85.333333H234.666667v-85.333333h234.666666v-109.290667C288.64 764.330667 149.333333 601.621333 149.333333 405.333333h85.333334c0 165.546667 124.8 298.666667 277.333333 298.666667s277.333333-133.12 277.333333-298.666667h85.333334c0 196.266667-139.306667 358.997333-320 381.376zM512 0a192 192 0 0 1 192 192v234.666667a192 192 0 0 1-384 0V192a192 192 0 0 1 192-192z m0 85.333333a106.666667 106.666667 0 0 0-106.666667 106.666667v234.666667a106.666667 106.666667 0 0 0 213.333334 0V192a106.666667 106.666667 0 0 0-106.666667-106.666667z" p-id="2323"></path></svg>