<?xml version="1.0" standalone="no"?><!DOCTYPE svg PUBLIC "-//W3C//DTD SVG 1.1//EN" "http://www.w3.org/Graphics/SVG/1.1/DTD/svg11.dtd"><svg t="1569814914516" class="icon" viewBox="0 0 1024 1024" version="1.1" xmlns="http://www.w3.org/2000/svg" p-id="18304" xmlns:xlink="http://www.w3.org/1999/xlink" width="200" height="200"><defs><style type="text/css"></style></defs><path d="M910.69534624 358.16324927c-9.77536147-10.37338846-22.76227271-13.4611255-36.55758976-13.4611255L184.36915862 344.70212376c-13.82221793 0-26.847066-7.6764043-36.57104018-18.02013229-9.79950356-10.40028933-15.14794732-26.15178204-15.14794734-40.80654704 0-14.67373384 5.34844459-27.14607948 15.11828768-37.51946796 9.75363385-10.37338846 22.77848193-13.4611255 36.60069984-13.4611255l137.95868572 0c9.51669929 0 17.23862813-8.19890192 17.23862813-18.29224491 0-10.09851705-7.72227318-18.32190538-17.23862812-18.32190538L184.36915862 198.28070068c-23.02886694 0-44.6892387 7.56052364-61.00116668 24.86398948C107.10193445 240.41263281 98.1432552 261.46152715 98.1432552 285.87544443c0 1.32573022 0.2962547 2.59455393 0.35281522 3.92028415L98.1432552 289.79572858l-1e-8 525.49120729c0 24.47599619 8.9590236 50.05113371 25.2250819 67.32218032 16.31192718 17.29794745 37.97229895 29.41196027 61.00116668 29.41196026l689.76859868 0c13.79531707 0 26.81464672-8.32581857 36.55758975-18.69920702S925.85950361 866.56136877 925.85950361 851.8714257L925.85950361 394.35733216C925.85950361 379.68083951 920.49243533 368.50732241 910.69534624 358.16324927zM891.381903 851.90384496c0 4.8769891-1.79994369 12.08159356-5.07633196 15.53042303-3.26569663 3.47573033-7.59811533 7.96989939-12.16781456 7.96989938L184.36915862 875.40416737c-13.82221793 0-26.847066-8.29339929-36.60069984-18.6829978-9.76984308-10.3464876-15.11828766-26.75532742-15.11828768-41.43457885L132.6501711 360.26220644c14.89721799 12.57477586 32.73973583 21.04854921 51.71898752 21.04854921l689.76859868 0c4.56969842 0 8.90246308-0.71666643 12.16781454 2.73216222 3.24396902 3.44882947 5.07633196 5.43742437 5.07633198 10.31406832L891.381903 851.90384496zM784.43612353 234.86519131l3.44882946 0c4.62350015 0 8.94557317-0.71390765 12.20023301 2.76458148 3.25500499 3.47055708 5.05460433 5.42914719 5.05460434 10.31406832l0 27.3157619c0 10.0933438 7.7167556 18.31638698 17.26587334 18.31638698 9.51669929 0 17.22276324-8.19372868 17.22276326-18.31638698l0-27.3157619c0-14.67649265-5.35637662-25.85276854-15.14242975-36.19649733-9.78605311-10.37062966-22.78400033-13.46664311-36.60069985-13.4666431l-3.44882947 0c-9.54911855 0-17.24414572 8.19890192-17.2441457 18.32190538S774.88700579 234.86519131 784.43612353 234.86519131zM347.21321629 318.98420471l258.73496033-168.48599736c4.30034539-2.26070754 9.16112526-2.51109253 13.64460268-0.77322778 4.50520585 1.76752524 8.00783624 5.35637662 9.85089083 10.0419557l81.53239151 150.05924812 31.77233925-14.21021121-81.52169988-150.08339019c-5.50743535-13.87877846-16.32813722-24.85571229-29.65993082-30.12345346-13.3428304-5.27567402-28.30212732-4.42139931-41.0196847 2.28209001L331.86075366 286.15548908 347.21321629 318.98420471zM780.98729486 743.64820015L615.4648759 743.64820015c-11.43493809 0-20.69297518 9.43047829-20.69297518 21.07027682 0 11.61289768 9.25803709 21.05958599 20.69297518 21.05958601l165.52241896 0c11.43493809 0 20.70366683-9.44668833 20.70366683-21.05958601C801.69096088 753.05177838 792.42223294 743.64820015 780.98729486 743.64820015z" p-id="18305"></path></svg>