<?xml version="1.0" standalone="no"?><!DOCTYPE svg PUBLIC "-//W3C//DTD SVG 1.1//EN" "http://www.w3.org/Graphics/SVG/1.1/DTD/svg11.dtd"><svg t="1569814889643" class="icon" viewBox="0 0 1024 1024" version="1.1" xmlns="http://www.w3.org/2000/svg" p-id="17948" xmlns:xlink="http://www.w3.org/1999/xlink" width="200" height="200"><defs><style type="text/css"></style></defs><path d="M791.13481481 93.29777777H232.86518519c-77.08918519 0-139.5674074 62.47822223-139.56740742 139.56740742v418.70222221c0 77.08918519 62.47822223 139.5674074 139.56740742 139.56740741h244.24296296v104.67555556H232.64711111v34.89185186h558.26962963v-34.89185186H546.89185185v-104.67555556h244.24296296c77.08918519 0 139.5674074-62.47822223 139.56740742-139.56740741V232.86518519c0-77.08918519-62.47822223-139.5674074-139.56740742-139.56740742z m0 662.94518519H232.86518519c-57.68059261 0-104.67555556-46.99496296-104.67555556-104.67555556h767.62074074c0 57.68059261-46.99496296 104.67555556-104.67555556 104.67555556zM128.18962963 613.18637037V232.86518519c0-57.68059261 46.99496296-104.67555556 104.67555556-104.67555556h558.26962962c57.68059261 0 104.67555556 46.99496296 104.67555556 104.67555556v380.32118518H128.18962963z" fill="" p-id="17949"></path><path d="M285.20296296 407.32444444m-52.33777777 0a52.33777777 52.33777777 0 1 0 104.67555555 0 52.33777777 52.33777777 0 1 0-104.67555555 0Z" fill="" p-id="17950"></path><path d="M512 407.32444444m-52.33777777 0a52.33777777 52.33777777 0 1 0 104.67555554 0 52.33777777 52.33777777 0 1 0-104.67555554 0Z" fill="" p-id="17951"></path><path d="M740.54162963 407.32444444m-52.33777778 0a52.33777777 52.33777777 0 1 0 104.67555555 0 52.33777777 52.33777777 0 1 0-104.67555555 0Z" fill="" p-id="17952"></path></svg>